  0
SECTION
  2
HEADER
  9
$ACADVER
  1
AC2.10
  0
ENDSEC
  0
SECTION
  2
TABLES
  0
TABLE
  2
LAYER
 70
     8
  0
LAYER
  2
0
 62
     7
 70
0
  6
CONTINUOUS
  0
LAYER
  2
1
 62
     1
 70
0
  6
CONTINUOUS
  0
LAYER
  2
2
 62
     2
 70
0
  6
CONTINUOUS
  0
LAYER
  2
3
 62
     3
 70
0
  6
CONTINUOUS
  0
LAYER
  2
4
 62
     4
 70
0
  6
CONTINUOUS
  0
LAYER
  2
5
 62
     5
 70
0
  6
CONTINUOUS
  0
LAYER
  2
6
 62
     6
 70
0
  6
CONTINUOUS
  0
LAYER
  2
7
 62
     7
 70
0
  6
CONTINUOUS
  0
ENDTAB
  0
TABLE
  2
STYLE
 70
     1
  0
STYLE
 70
     0
  2
STANDARD
  3
TXT
 40
0.00
 41
1.00
 42
1.00
 50
0.00
 71
     0
  0
ENDTAB
  0
ENDSEC
  0
SECTION
  2
BLOCKS
  0
BLOCK
  8
0
  2
EPAD
 70
0
 10
0.0
 20
0.0
  0
POLYLINE
  8
0
 66
1
 70
1
 40
0.5
 41
0.5
  0
VERTEX
  8
0
 10
-0.25
 20
0.0
 42
1.0
  0
VERTEX
  8
0
 10
0.25
 20
0.0
 42
1.0
  0
SEQEND
  8
0
  0
ENDBLK
  8
0
  0
BLOCK
  8
0
  2
RPAD
 70
0
 10
0.0
 20
0.0
  0
TRACE
  8
0
 10
-0.5
 20
-0.5
 11
-0.5
 21
0.5
 12
0.5
 22
-0.5
 13
0.5
 23
0.5
  0
ENDBLK
  8
0
  0
ENDSEC
0
SECTION
2
ENTITIES
0
INSERT
8
0
2
RPAD
10
0.174000
20
-0.332000
41
0.070000
42
0.070000
50
-180.000000
0
INSERT
8
0
2
EPAD
10
0.074000
20
-0.332000
41
0.070000
42
0.070000
0
INSERT
8
0
2
EPAD
10
-0.025000
20
-0.332000
41
0.070000
42
0.070000
0
INSERT
8
0
2
EPAD
10
-0.125000
20
-0.332000
41
0.070000
42
0.070000
0
INSERT
8
0
2
EPAD
10
-0.225000
20
-0.332000
41
0.070000
42
0.070000
0
INSERT
8
0
2
EPAD
10
-0.325000
20
-0.332000
41
0.070000
42
0.070000
0
INSERT
8
0
2
EPAD
10
-0.425000
20
-0.332000
41
0.070000
42
0.070000
0
INSERT
8
0
2
EPAD
10
-0.525000
20
-0.332000
41
0.070000
42
0.070000
0
INSERT
8
0
2
EPAD
10
-0.625000
20
-0.332000
41
0.070000
42
0.070000
0
INSERT
8
0
2
EPAD
10
-0.725000
20
-0.332000
41
0.070000
42
0.070000
0
INSERT
8
0
2
EPAD
10
-0.725000
20
-0.632000
41
0.070000
42
0.070000
0
INSERT
8
0
2
EPAD
10
-0.625000
20
-0.632000
41
0.070000
42
0.070000
0
INSERT
8
0
2
EPAD
10
-0.525000
20
-0.632000
41
0.070000
42
0.070000
0
INSERT
8
0
2
EPAD
10
-0.425000
20
-0.632000
41
0.070000
42
0.070000
0
INSERT
8
0
2
EPAD
10
-0.325000
20
-0.632000
41
0.070000
42
0.070000
0
INSERT
8
0
2
EPAD
10
-0.225000
20
-0.632000
41
0.070000
42
0.070000
0
INSERT
8
0
2
EPAD
10
-0.125000
20
-0.632000
41
0.070000
42
0.070000
0
INSERT
8
0
2
EPAD
10
-0.025000
20
-0.632000
41
0.070000
42
0.070000
0
INSERT
8
0
2
EPAD
10
0.074000
20
-0.632000
41
0.070000
42
0.070000
0
INSERT
8
0
2
EPAD
10
0.174000
20
-0.632000
41
0.070000
42
0.070000
0
INSERT
8
0
2
RPAD
10
-0.325000
20
0.612000
41
0.070000
42
0.070000
50
-90.000000
0
INSERT
8
0
2
EPAD
10
-0.325000
20
0.512000
41
0.070000
42
0.070000
0
INSERT
8
0
2
EPAD
10
-0.325000
20
0.412000
41
0.070000
42
0.070000
0
INSERT
8
0
2
EPAD
10
-0.325000
20
0.312000
41
0.070000
42
0.070000
0
INSERT
8
0
2
EPAD
10
-0.325000
20
0.212000
41
0.070000
42
0.070000
0
INSERT
8
0
2
EPAD
10
-0.325000
20
0.112000
41
0.070000
42
0.070000
0
INSERT
8
0
2
EPAD
10
-0.325000
20
0.012000
41
0.070000
42
0.070000
0
INSERT
8
0
2
EPAD
10
-0.325000
20
-0.087000
41
0.070000
42
0.070000
0
INSERT
8
0
2
EPAD
10
-0.325000
20
-0.187000
41
0.070000
42
0.070000
0
INSERT
8
0
2
EPAD
10
-0.025000
20
-0.187000
41
0.070000
42
0.070000
0
INSERT
8
0
2
EPAD
10
-0.025000
20
-0.087000
41
0.070000
42
0.070000
0
INSERT
8
0
2
EPAD
10
-0.025000
20
0.012000
41
0.070000
42
0.070000
0
INSERT
8
0
2
EPAD
10
-0.025000
20
0.112000
41
0.070000
42
0.070000
0
INSERT
8
0
2
EPAD
10
-0.025000
20
0.212000
41
0.070000
42
0.070000
0
INSERT
8
0
2
EPAD
10
-0.025000
20
0.312000
41
0.070000
42
0.070000
0
INSERT
8
0
2
EPAD
10
-0.025000
20
0.412000
41
0.070000
42
0.070000
0
INSERT
8
0
2
EPAD
10
-0.025000
20
0.512000
41
0.070000
42
0.070000
0
INSERT
8
0
2
EPAD
10
-0.025000
20
0.612000
41
0.070000
42
0.070000
0
INSERT
8
0
2
RPAD
10
-0.725000
20
0.612000
41
0.070000
42
0.070000
50
-90.000000
0
INSERT
8
0
2
EPAD
10
-0.725000
20
0.512000
41
0.070000
42
0.070000
0
INSERT
8
0
2
EPAD
10
-0.725000
20
0.412000
41
0.070000
42
0.070000
0
INSERT
8
0
2
EPAD
10
-0.725000
20
0.312000
41
0.070000
42
0.070000
0
INSERT
8
0
2
EPAD
10
-0.725000
20
0.212000
41
0.070000
42
0.070000
0
INSERT
8
0
2
EPAD
10
-0.725000
20
0.112000
41
0.070000
42
0.070000
0
INSERT
8
0
2
EPAD
10
-0.725000
20
0.012000
41
0.070000
42
0.070000
0
INSERT
8
0
2
EPAD
10
-0.725000
20
-0.087000
41
0.070000
42
0.070000
0
INSERT
8
0
2
EPAD
10
-0.725000
20
-0.187000
41
0.070000
42
0.070000
0
INSERT
8
0
2
EPAD
10
-0.425000
20
-0.187000
41
0.070000
42
0.070000
0
INSERT
8
0
2
EPAD
10
-0.425000
20
-0.087000
41
0.070000
42
0.070000
0
INSERT
8
0
2
EPAD
10
-0.425000
20
0.012000
41
0.070000
42
0.070000
0
INSERT
8
0
2
EPAD
10
-0.425000
20
0.112000
41
0.070000
42
0.070000
0
INSERT
8
0
2
EPAD
10
-0.425000
20
0.212000
41
0.070000
42
0.070000
0
INSERT
8
0
2
EPAD
10
-0.425000
20
0.312000
41
0.070000
42
0.070000
0
INSERT
8
0
2
EPAD
10
-0.425000
20
0.412000
41
0.070000
42
0.070000
0
INSERT
8
0
2
EPAD
10
-0.425000
20
0.512000
41
0.070000
42
0.070000
0
INSERT
8
0
2
EPAD
10
-0.425000
20
0.612000
41
0.070000
42
0.070000
0
INSERT
8
0
2
EPAD
10
0.394000
20
-0.497000
41
0.070000
42
0.070000
0
INSERT
8
0
2
EPAD
10
0.394000
20
-0.697000
41
0.070000
42
0.070000
0
INSERT
8
0
2
EPAD
10
0.049000
20
0.287000
41
0.070000
42
0.070000
0
INSERT
8
0
2
EPAD
10
0.049000
20
0.087000
41
0.070000
42
0.070000
0
INSERT
8
0
2
EPAD
10
0.149000
20
0.212000
41
0.070000
42
0.070000
0
INSERT
8
0
2
EPAD
10
0.149000
20
0.012000
41
0.070000
42
0.070000
0
INSERT
8
0
2
EPAD
10
0.149000
20
0.312000
41
0.080000
42
0.080000
0
INSERT
8
0
2
EPAD
10
0.029000
20
0.712000
41
0.070000
42
0.070000
0
INSERT
8
0
2
EPAD
10
0.384000
20
-0.032000
41
0.080000
42
0.080000
0
INSERT
8
0
2
EPAD
10
0.304000
20
-0.032000
41
0.080000
42
0.080000
0
INSERT
8
0
2
EPAD
10
0.224000
20
-0.032000
41
0.080000
42
0.080000
0
INSERT
8
0
2
EPAD
10
0.374000
20
0.487000
41
0.100000
42
0.100000
0
INSERT
8
0
2
EPAD
10
0.374000
20
0.087000
41
0.100000
42
0.100000
0
INSERT
8
0
2
EPAD
10
0.239000
20
0.492000
41
0.100000
42
0.100000
0
INSERT
8
0
2
EPAD
10
0.239000
20
0.092000
41
0.100000
42
0.100000
0
INSERT
8
0
2
RPAD
10
0.354000
20
0.597000
41
0.100000
42
0.100000
50
-180.000000
0
INSERT
8
0
2
RPAD
10
0.254000
20
0.597000
41
0.100000
42
0.100000
50
-180.000000
0
INSERT
8
0
2
EPAD
10
-0.725000
20
-0.267000
41
0.070000
42
0.070000
0
INSERT
8
0
2
EPAD
10
-0.625000
20
-0.267000
41
0.070000
42
0.070000
0
INSERT
8
0
2
EPAD
10
0.294000
20
-0.497000
41
0.070000
42
0.070000
0
INSERT
8
0
2
EPAD
10
0.294000
20
-0.697000
41
0.070000
42
0.070000
0
INSERT
8
0
2
EPAD
10
-0.620000
20
-0.402000
41
0.070000
42
0.070000
0
INSERT
8
0
2
EPAD
10
-0.820000
20
-0.402000
41
0.070000
42
0.070000
0
INSERT
8
0
2
EPAD
10
-0.620000
20
-0.487000
41
0.070000
42
0.070000
0
INSERT
8
0
2
EPAD
10
-0.820000
20
-0.487000
41
0.070000
42
0.070000
0
INSERT
8
0
2
EPAD
10
-0.325000
20
-0.257000
41
0.070000
42
0.070000
0
INSERT
8
0
2
EPAD
10
-0.025000
20
-0.267000
41
0.070000
42
0.070000
0
POLYLINE
8
0
66
1
40
0.008000
41
0.008000
0
VERTEX
8
0
10
-0.850000
20
-0.732000
0
VERTEX
8
0
10
0.499000
20
-0.732000
0
VERTEX
8
0
10
0.499000
20
0.747000
0
VERTEX
8
0
10
-0.850000
20
0.747000
0
VERTEX
8
0
10
-0.850000
20
-0.732000
0
SEQEND
8
0
0
ENDSEC
0
EOF

