  0
SECTION
  2
HEADER
  9
$ACADVER
  1
AC2.10
  0
ENDSEC
  0
SECTION
  2
TABLES
  0
TABLE
  2
LAYER
 70
     8
  0
LAYER
  2
0
 62
     7
 70
0
  6
CONTINUOUS
  0
LAYER
  2
1
 62
     1
 70
0
  6
CONTINUOUS
  0
LAYER
  2
2
 62
     2
 70
0
  6
CONTINUOUS
  0
LAYER
  2
3
 62
     3
 70
0
  6
CONTINUOUS
  0
LAYER
  2
4
 62
     4
 70
0
  6
CONTINUOUS
  0
LAYER
  2
5
 62
     5
 70
0
  6
CONTINUOUS
  0
LAYER
  2
6
 62
     6
 70
0
  6
CONTINUOUS
  0
LAYER
  2
7
 62
     7
 70
0
  6
CONTINUOUS
  0
ENDTAB
  0
TABLE
  2
STYLE
 70
     1
  0
STYLE
 70
     0
  2
STANDARD
  3
TXT
 40
0.00
 41
1.00
 42
1.00
 50
0.00
 71
     0
  0
ENDTAB
  0
ENDSEC
  0
SECTION
  2
BLOCKS
  0
BLOCK
  8
0
  2
EPAD
 70
0
 10
0.0
 20
0.0
  0
POLYLINE
  8
0
 66
1
 70
1
 40
0.5
 41
0.5
  0
VERTEX
  8
0
 10
-0.25
 20
0.0
 42
1.0
  0
VERTEX
  8
0
 10
0.25
 20
0.0
 42
1.0
  0
SEQEND
  8
0
  0
ENDBLK
  8
0
  0
BLOCK
  8
0
  2
RPAD
 70
0
 10
0.0
 20
0.0
  0
TRACE
  8
0
 10
-0.5
 20
-0.5
 11
-0.5
 21
0.5
 12
0.5
 22
-0.5
 13
0.5
 23
0.5
  0
ENDBLK
  8
0
  0
ENDSEC
0
SECTION
2
ENTITIES
0
POLYLINE
8
0
66
1
40
0.015000
41
0.015000
0
VERTEX
8
0
10
-0.725000
20
0.612000
0
VERTEX
8
0
10
-0.625000
20
0.612000
0
VERTEX
8
0
10
-0.575000
20
0.562000
0
VERTEX
8
0
10
-0.400000
20
0.562000
0
VERTEX
8
0
10
-0.350000
20
0.612000
0
VERTEX
8
0
10
-0.325000
20
0.612000
0
SEQEND
8
0
0
POLYLINE
8
0
66
1
40
0.015000
41
0.015000
0
VERTEX
8
0
10
-0.425000
20
0.012000
0
VERTEX
8
0
10
-0.400000
20
0.037000
0
VERTEX
8
0
10
-0.375000
20
0.037000
0
VERTEX
8
0
10
-0.350000
20
0.062000
0
VERTEX
8
0
10
-0.175000
20
0.062000
0
VERTEX
8
0
10
-0.125000
20
0.012000
0
VERTEX
8
0
10
-0.025000
20
0.012000
0
SEQEND
8
0
0
POLYLINE
8
0
66
1
40
0.015000
41
0.015000
0
VERTEX
8
0
10
-0.425000
20
-0.087000
0
VERTEX
8
0
10
-0.400000
20
-0.062000
0
VERTEX
8
0
10
-0.375000
20
-0.062000
0
VERTEX
8
0
10
-0.350000
20
-0.037000
0
VERTEX
8
0
10
-0.175000
20
-0.037000
0
VERTEX
8
0
10
-0.125000
20
-0.087000
0
VERTEX
8
0
10
-0.025000
20
-0.087000
0
SEQEND
8
0
0
POLYLINE
8
0
66
1
40
0.015000
41
0.015000
0
VERTEX
8
0
10
-0.425000
20
-0.187000
0
VERTEX
8
0
10
-0.400000
20
-0.162000
0
VERTEX
8
0
10
-0.375000
20
-0.162000
0
VERTEX
8
0
10
-0.350000
20
-0.137000
0
VERTEX
8
0
10
-0.175000
20
-0.137000
0
VERTEX
8
0
10
-0.125000
20
-0.187000
0
VERTEX
8
0
10
-0.025000
20
-0.187000
0
SEQEND
8
0
0
POLYLINE
8
0
66
1
40
0.015000
41
0.015000
0
VERTEX
8
0
10
-0.025000
20
0.612000
0
VERTEX
8
0
10
-0.150000
20
0.612000
0
VERTEX
8
0
10
-0.198000
20
0.660000
0
SEQEND
8
0
0
POLYLINE
8
0
66
1
40
0.010000
41
0.010000
0
VERTEX
8
0
10
-0.198000
20
0.660000
0
VERTEX
8
0
10
-0.200000
20
0.662000
0
VERTEX
8
0
10
-0.375000
20
0.662000
0
VERTEX
8
0
10
-0.377000
20
0.660000
0
SEQEND
8
0
0
POLYLINE
8
0
66
1
40
0.015000
41
0.015000
0
VERTEX
8
0
10
-0.377000
20
0.660000
0
VERTEX
8
0
10
-0.425000
20
0.612000
0
SEQEND
8
0
0
POLYLINE
8
0
66
1
40
0.050000
41
0.050000
0
VERTEX
8
0
10
0.049000
20
0.712000
0
VERTEX
8
0
10
0.049000
20
0.712000
0
SEQEND
8
0
0
POLYLINE
8
0
66
1
40
0.050000
41
0.050000
0
VERTEX
8
0
10
0.149000
20
0.712000
0
VERTEX
8
0
10
0.149000
20
0.712000
0
SEQEND
8
0
0
POLYLINE
8
0
66
1
40
0.025000
41
0.025000
0
VERTEX
8
0
10
-0.325000
20
0.212000
0
VERTEX
8
0
10
-0.175000
20
0.212000
0
VERTEX
8
0
10
-0.125000
20
0.162000
0
VERTEX
8
0
10
0.000000
20
0.162000
0
VERTEX
8
0
10
0.049000
20
0.112000
0
VERTEX
8
0
10
0.049000
20
0.087000
0
SEQEND
8
0
0
POLYLINE
8
0
66
1
40
0.015000
41
0.015000
0
VERTEX
8
0
10
-0.425000
20
0.112000
0
VERTEX
8
0
10
-0.400000
20
0.112000
0
VERTEX
8
0
10
-0.350000
20
0.162000
0
VERTEX
8
0
10
-0.175000
20
0.162000
0
VERTEX
8
0
10
-0.125000
20
0.112000
0
VERTEX
8
0
10
-0.025000
20
0.112000
0
SEQEND
8
0
0
POLYLINE
8
0
66
1
40
0.025000
41
0.025000
0
VERTEX
8
0
10
-0.325000
20
0.212000
0
VERTEX
8
0
10
-0.350000
20
0.212000
0
VERTEX
8
0
10
-0.400000
20
0.162000
0
VERTEX
8
0
10
-0.575000
20
0.162000
0
VERTEX
8
0
10
-0.625000
20
0.212000
0
VERTEX
8
0
10
-0.725000
20
0.212000
0
SEQEND
8
0
0
POLYLINE
8
0
66
1
40
0.015000
41
0.015000
0
VERTEX
8
0
10
-0.325000
20
0.312000
0
VERTEX
8
0
10
-0.355000
20
0.312000
0
VERTEX
8
0
10
-0.400000
20
0.262000
0
VERTEX
8
0
10
-0.575000
20
0.262000
0
VERTEX
8
0
10
-0.625000
20
0.312000
0
VERTEX
8
0
10
-0.725000
20
0.312000
0
SEQEND
8
0
0
POLYLINE
8
0
66
1
40
0.015000
41
0.015000
0
VERTEX
8
0
10
-0.425000
20
0.312000
0
VERTEX
8
0
10
-0.400000
20
0.312000
0
VERTEX
8
0
10
-0.350000
20
0.362000
0
VERTEX
8
0
10
-0.175000
20
0.362000
0
VERTEX
8
0
10
-0.125000
20
0.312000
0
VERTEX
8
0
10
-0.025000
20
0.312000
0
SEQEND
8
0
0
POLYLINE
8
0
66
1
40
0.015000
41
0.015000
0
VERTEX
8
0
10
-0.325000
20
0.412000
0
VERTEX
8
0
10
-0.350000
20
0.412000
0
VERTEX
8
0
10
-0.400000
20
0.362000
0
VERTEX
8
0
10
-0.575000
20
0.362000
0
VERTEX
8
0
10
-0.625000
20
0.412000
0
VERTEX
8
0
10
-0.725000
20
0.412000
0
SEQEND
8
0
0
POLYLINE
8
0
66
1
40
0.015000
41
0.015000
0
VERTEX
8
0
10
-0.325000
20
0.512000
0
VERTEX
8
0
10
-0.350000
20
0.512000
0
VERTEX
8
0
10
-0.400000
20
0.462000
0
VERTEX
8
0
10
-0.575000
20
0.462000
0
VERTEX
8
0
10
-0.625000
20
0.512000
0
VERTEX
8
0
10
-0.725000
20
0.512000
0
SEQEND
8
0
0
POLYLINE
8
0
66
1
40
0.015000
41
0.015000
0
VERTEX
8
0
10
-0.425000
20
0.512000
0
VERTEX
8
0
10
-0.420000
20
0.517000
0
VERTEX
8
0
10
-0.400000
20
0.512000
0
VERTEX
8
0
10
-0.350000
20
0.562000
0
VERTEX
8
0
10
-0.175000
20
0.562000
0
VERTEX
8
0
10
-0.125000
20
0.512000
0
VERTEX
8
0
10
-0.025000
20
0.512000
0
SEQEND
8
0
0
POLYLINE
8
0
66
1
40
0.015000
41
0.015000
0
VERTEX
8
0
10
-0.425000
20
0.412000
0
VERTEX
8
0
10
-0.400000
20
0.412000
0
VERTEX
8
0
10
-0.350000
20
0.462000
0
VERTEX
8
0
10
-0.175000
20
0.462000
0
VERTEX
8
0
10
-0.125000
20
0.412000
0
VERTEX
8
0
10
-0.025000
20
0.412000
0
SEQEND
8
0
0
POLYLINE
8
0
66
1
40
0.025000
41
0.025000
0
VERTEX
8
0
10
-0.425000
20
0.212000
0
VERTEX
8
0
10
-0.400000
20
0.217000
0
VERTEX
8
0
10
-0.355000
20
0.262000
0
VERTEX
8
0
10
-0.160000
20
0.262000
0
VERTEX
8
0
10
-0.110000
20
0.212000
0
VERTEX
8
0
10
-0.025000
20
0.212000
0
VERTEX
8
0
10
0.000000
20
0.212000
0
VERTEX
8
0
10
0.049000
20
0.212000
0
VERTEX
8
0
10
0.149000
20
0.212000
0
SEQEND
8
0
0
POLYLINE
8
0
66
1
40
0.025000
41
0.025000
0
VERTEX
8
0
10
0.009000
20
0.222000
0
VERTEX
8
0
10
0.039000
20
0.252000
0
VERTEX
8
0
10
0.049000
20
0.287000
0
VERTEX
8
0
10
0.059000
20
0.252000
0
VERTEX
8
0
10
0.094000
20
0.217000
0
SEQEND
8
0
0
POLYLINE
8
0
66
1
40
0.025000
41
0.025000
0
VERTEX
8
0
10
0.049000
20
0.287000
0
VERTEX
8
0
10
0.081000
20
0.252000
0
VERTEX
8
0
10
0.114000
20
0.219000
0
VERTEX
8
0
10
0.149000
20
0.212000
0
SEQEND
8
0
0
POLYLINE
8
0
66
1
40
0.025000
41
0.025000
0
VERTEX
8
0
10
0.049000
20
0.287000
0
VERTEX
8
0
10
0.017000
20
0.252000
0
VERTEX
8
0
10
0.000000
20
0.234000
0
VERTEX
8
0
10
-0.025000
20
0.212000
0
SEQEND
8
0
0
POLYLINE
8
0
66
1
40
0.025000
41
0.025000
0
VERTEX
8
0
10
0.019000
20
0.227000
0
VERTEX
8
0
10
0.049000
20
0.227000
0
VERTEX
8
0
10
0.081000
20
0.227000
0
SEQEND
8
0
0
POLYLINE
8
0
66
1
40
0.025000
41
0.025000
0
VERTEX
8
0
10
0.049000
20
0.287000
0
VERTEX
8
0
10
0.049000
20
0.227000
0
VERTEX
8
0
10
0.049000
20
0.212000
0
SEQEND
8
0
0
POLYLINE
8
0
66
1
40
0.050000
41
0.050000
0
VERTEX
8
0
10
0.149000
20
0.712000
0
VERTEX
8
0
10
0.059000
20
0.712000
0
SEQEND
8
0
0
POLYLINE
8
0
66
1
40
0.025000
41
0.025000
0
VERTEX
8
0
10
0.464000
20
0.167000
0
VERTEX
8
0
10
0.469000
20
0.167000
0
SEQEND
8
0
0
POLYLINE
8
0
66
1
40
0.050000
41
0.050000
0
VERTEX
8
0
10
-0.725000
20
0.212000
0
VERTEX
8
0
10
-0.815000
20
0.212000
0
SEQEND
8
0
0
POLYLINE
8
0
66
1
40
0.050000
41
0.050000
0
VERTEX
8
0
10
0.029000
20
0.712000
0
VERTEX
8
0
10
-0.815000
20
0.712000
0
VERTEX
8
0
10
-0.815000
20
0.212000
0
SEQEND
8
0
0
POLYLINE
8
0
66
1
40
0.050000
41
0.050000
0
VERTEX
8
0
10
0.059000
20
0.712000
0
VERTEX
8
0
10
0.054000
20
0.712000
0
VERTEX
8
0
10
0.049000
20
0.712000
0
VERTEX
8
0
10
0.029000
20
0.712000
0
SEQEND
8
0
0
POLYLINE
8
0
66
1
40
0.050000
41
0.050000
0
VERTEX
8
0
10
0.464000
20
0.167000
0
VERTEX
8
0
10
0.464000
20
0.162000
0
SEQEND
8
0
0
POLYLINE
8
0
66
1
40
0.050000
41
0.050000
0
VERTEX
8
0
10
0.464000
20
0.072000
0
VERTEX
8
0
10
0.469000
20
0.072000
0
SEQEND
8
0
0
POLYLINE
8
0
66
1
40
0.050000
41
0.050000
0
VERTEX
8
0
10
0.389000
20
0.712000
0
VERTEX
8
0
10
0.399000
20
0.712000
0
VERTEX
8
0
10
0.464000
20
0.712000
0
VERTEX
8
0
10
0.464000
20
0.637000
0
SEQEND
8
0
0
POLYLINE
8
0
66
1
40
0.025000
41
0.025000
0
VERTEX
8
0
10
0.224000
20
-0.032000
0
VERTEX
8
0
10
0.224000
20
-0.032000
0
SEQEND
8
0
0
POLYLINE
8
0
66
1
40
0.050000
41
0.050000
0
VERTEX
8
0
10
0.464000
20
0.637000
0
VERTEX
8
0
10
0.464000
20
0.532000
0
SEQEND
8
0
0
POLYLINE
8
0
66
1
40
0.050000
41
0.050000
0
VERTEX
8
0
10
0.849000
20
0.562000
0
VERTEX
8
0
10
0.849000
20
0.562000
0
SEQEND
8
0
0
POLYLINE
8
0
66
1
40
0.050000
41
0.050000
0
VERTEX
8
0
10
0.374000
20
0.712000
0
VERTEX
8
0
10
0.389000
20
0.712000
0
SEQEND
8
0
0
POLYLINE
8
0
66
1
40
0.050000
41
0.050000
0
VERTEX
8
0
10
0.464000
20
0.532000
0
VERTEX
8
0
10
0.464000
20
0.297000
0
SEQEND
8
0
0
POLYLINE
8
0
66
1
40
0.050000
41
0.050000
0
VERTEX
8
0
10
0.149000
20
0.712000
0
VERTEX
8
0
10
0.189000
20
0.712000
0
VERTEX
8
0
10
0.374000
20
0.712000
0
SEQEND
8
0
0
POLYLINE
8
0
66
1
40
0.050000
41
0.050000
0
VERTEX
8
0
10
0.464000
20
0.162000
0
VERTEX
8
0
10
0.464000
20
0.137000
0
VERTEX
8
0
10
0.464000
20
0.072000
0
SEQEND
8
0
0
POLYLINE
8
0
66
1
40
0.025000
41
0.025000
0
VERTEX
8
0
10
0.149000
20
0.312000
0
VERTEX
8
0
10
0.149000
20
0.557000
0
VERTEX
8
0
10
0.189000
20
0.597000
0
VERTEX
8
0
10
0.214000
20
0.597000
0
VERTEX
8
0
10
0.254000
20
0.597000
0
SEQEND
8
0
0
POLYLINE
8
0
66
1
40
0.025000
41
0.025000
0
VERTEX
8
0
10
0.374000
20
0.487000
0
VERTEX
8
0
10
0.354000
20
0.502000
0
VERTEX
8
0
10
0.354000
20
0.557000
0
VERTEX
8
0
10
0.354000
20
0.597000
0
SEQEND
8
0
0
POLYLINE
8
0
66
1
40
0.050000
41
0.050000
0
VERTEX
8
0
10
0.239000
20
0.092000
0
VERTEX
8
0
10
0.334000
20
0.092000
0
VERTEX
8
0
10
0.374000
20
0.087000
0
SEQEND
8
0
0
POLYLINE
8
0
66
1
40
0.012000
41
0.012000
0
VERTEX
8
0
10
-0.325000
20
-0.332000
0
VERTEX
8
0
10
-0.435000
20
-0.417000
0
VERTEX
8
0
10
-0.435000
20
-0.522000
0
VERTEX
8
0
10
-0.510000
20
-0.597000
0
VERTEX
8
0
10
-0.525000
20
-0.632000
0
SEQEND
8
0
0
POLYLINE
8
0
66
1
40
0.015000
41
0.015000
0
VERTEX
8
0
10
-0.725000
20
-0.267000
0
VERTEX
8
0
10
-0.725000
20
-0.272000
0
VERTEX
8
0
10
-0.725000
20
-0.332000
0
SEQEND
8
0
0
POLYLINE
8
0
66
1
40
0.015000
41
0.015000
0
VERTEX
8
0
10
-0.625000
20
-0.267000
0
VERTEX
8
0
10
-0.625000
20
-0.297000
0
VERTEX
8
0
10
-0.625000
20
-0.332000
0
SEQEND
8
0
0
POLYLINE
8
0
66
1
40
0.050000
41
0.050000
0
VERTEX
8
0
10
0.459000
20
-0.152000
0
VERTEX
8
0
10
0.459000
20
-0.157000
0
VERTEX
8
0
10
0.464000
20
-0.157000
0
SEQEND
8
0
0
POLYLINE
8
0
66
1
40
0.050000
41
0.050000
0
VERTEX
8
0
10
0.464000
20
-0.147000
0
VERTEX
8
0
10
0.464000
20
-0.157000
0
SEQEND
8
0
0
POLYLINE
8
0
66
1
40
0.050000
41
0.050000
0
VERTEX
8
0
10
0.294000
20
-0.497000
0
VERTEX
8
0
10
0.174000
20
-0.612000
0
VERTEX
8
0
10
0.174000
20
-0.632000
0
SEQEND
8
0
0
POLYLINE
8
0
66
1
40
0.050000
41
0.050000
0
VERTEX
8
0
10
0.074000
20
-0.632000
0
VERTEX
8
0
10
0.074000
20
-0.692000
0
VERTEX
8
0
10
0.074000
20
-0.697000
0
SEQEND
8
0
0
POLYLINE
8
0
66
1
40
0.050000
41
0.050000
0
VERTEX
8
0
10
-0.820000
20
-0.402000
0
VERTEX
8
0
10
-0.820000
20
-0.227000
0
VERTEX
8
0
10
-0.820000
20
-0.317000
0
SEQEND
8
0
0
POLYLINE
8
0
66
1
40
0.050000
41
0.050000
0
VERTEX
8
0
10
-0.820000
20
-0.332000
0
VERTEX
8
0
10
-0.820000
20
-0.317000
0
SEQEND
8
0
0
POLYLINE
8
0
66
1
40
0.050000
41
0.050000
0
VERTEX
8
0
10
-0.820000
20
0.052000
0
VERTEX
8
0
10
-0.820000
20
0.012000
0
VERTEX
8
0
10
-0.820000
20
0.007000
0
VERTEX
8
0
10
-0.820000
20
-0.012000
0
VERTEX
8
0
10
-0.820000
20
-0.042000
0
SEQEND
8
0
0
POLYLINE
8
0
66
1
40
0.050000
41
0.050000
0
VERTEX
8
0
10
-0.820000
20
0.052000
0
VERTEX
8
0
10
-0.820000
20
0.232000
0
SEQEND
8
0
0
POLYLINE
8
0
66
1
40
0.015000
41
0.015000
0
VERTEX
8
0
10
-0.725000
20
-0.267000
0
VERTEX
8
0
10
-0.725000
20
-0.267000
0
SEQEND
8
0
0
POLYLINE
8
0
66
1
40
0.015000
41
0.015000
0
VERTEX
8
0
10
-0.625000
20
-0.332000
0
VERTEX
8
0
10
-0.625000
20
-0.397000
0
VERTEX
8
0
10
-0.620000
20
-0.402000
0
SEQEND
8
0
0
POLYLINE
8
0
66
1
40
0.015000
41
0.015000
0
VERTEX
8
0
10
-0.725000
20
-0.332000
0
VERTEX
8
0
10
-0.725000
20
-0.412000
0
VERTEX
8
0
10
-0.655000
20
-0.482000
0
VERTEX
8
0
10
-0.645000
20
-0.482000
0
VERTEX
8
0
10
-0.620000
20
-0.487000
0
SEQEND
8
0
0
POLYLINE
8
0
66
1
40
0.015000
41
0.015000
0
VERTEX
8
0
10
-0.820000
20
-0.547000
0
VERTEX
8
0
10
-0.825000
20
-0.547000
0
SEQEND
8
0
0
POLYLINE
8
0
66
1
40
0.050000
41
0.050000
0
VERTEX
8
0
10
-0.820000
20
-0.157000
0
VERTEX
8
0
10
-0.820000
20
-0.227000
0
VERTEX
8
0
10
-0.820000
20
-0.402000
0
SEQEND
8
0
0
POLYLINE
8
0
66
1
40
0.050000
41
0.050000
0
VERTEX
8
0
10
-0.820000
20
-0.547000
0
VERTEX
8
0
10
-0.820000
20
-0.332000
0
SEQEND
8
0
0
POLYLINE
8
0
66
1
40
0.050000
41
0.050000
0
VERTEX
8
0
10
-0.820000
20
-0.042000
0
VERTEX
8
0
10
-0.820000
20
-0.227000
0
VERTEX
8
0
10
-0.820000
20
-0.487000
0
VERTEX
8
0
10
-0.820000
20
-0.227000
0
VERTEX
8
0
10
-0.820000
20
-0.157000
0
SEQEND
8
0
0
POLYLINE
8
0
66
1
40
0.015000
41
0.015000
0
VERTEX
8
0
10
-0.325000
20
-0.187000
0
VERTEX
8
0
10
-0.330000
20
-0.212000
0
VERTEX
8
0
10
-0.330000
20
-0.237000
0
VERTEX
8
0
10
-0.325000
20
-0.257000
0
SEQEND
8
0
0
POLYLINE
8
0
66
1
40
0.015000
41
0.015000
0
VERTEX
8
0
10
-0.225000
20
-0.332000
0
VERTEX
8
0
10
-0.160000
20
-0.267000
0
VERTEX
8
0
10
-0.050000
20
-0.267000
0
VERTEX
8
0
10
-0.025000
20
-0.267000
0
SEQEND
8
0
0
POLYLINE
8
0
66
1
40
0.012000
41
0.012000
0
VERTEX
8
0
10
-0.325000
20
0.012000
0
VERTEX
8
0
10
-0.175000
20
0.012000
0
VERTEX
8
0
10
-0.125000
20
-0.037000
0
VERTEX
8
0
10
0.000000
20
-0.037000
0
VERTEX
8
0
10
0.044000
20
-0.082000
0
VERTEX
8
0
10
0.049000
20
-0.087000
0
VERTEX
8
0
10
0.049000
20
-0.267000
0
VERTEX
8
0
10
0.000000
20
-0.317000
0
VERTEX
8
0
10
-0.025000
20
-0.332000
0
SEQEND
8
0
0
POLYLINE
8
0
66
1
40
0.012000
41
0.012000
0
VERTEX
8
0
10
-0.675000
20
-0.227000
0
VERTEX
8
0
10
-0.675000
20
-0.412000
0
VERTEX
8
0
10
-0.640000
20
-0.447000
0
VERTEX
8
0
10
-0.575000
20
-0.447000
0
SEQEND
8
0
0
POLYLINE
8
0
66
1
40
0.012000
41
0.012000
0
VERTEX
8
0
10
-0.820000
20
-0.227000
0
VERTEX
8
0
10
-0.675000
20
-0.227000
0
VERTEX
8
0
10
-0.605000
20
-0.227000
0
VERTEX
8
0
10
-0.575000
20
-0.257000
0
VERTEX
8
0
10
-0.575000
20
-0.447000
0
VERTEX
8
0
10
-0.575000
20
-0.517000
0
VERTEX
8
0
10
-0.605000
20
-0.547000
0
VERTEX
8
0
10
-0.820000
20
-0.547000
0
SEQEND
8
0
0
POLYLINE
8
0
66
1
40
0.012000
41
0.012000
0
VERTEX
8
0
10
-0.725000
20
-0.187000
0
VERTEX
8
0
10
-0.585000
20
-0.187000
0
VERTEX
8
0
10
-0.485000
20
-0.292000
0
VERTEX
8
0
10
-0.485000
20
-0.392000
0
VERTEX
8
0
10
-0.520000
20
-0.427000
0
VERTEX
8
0
10
-0.520000
20
-0.517000
0
VERTEX
8
0
10
-0.585000
20
-0.582000
0
VERTEX
8
0
10
-0.680000
20
-0.582000
0
VERTEX
8
0
10
-0.705000
20
-0.607000
0
VERTEX
8
0
10
-0.725000
20
-0.632000
0
SEQEND
8
0
0
POLYLINE
8
0
66
1
40
0.012000
41
0.012000
0
VERTEX
8
0
10
-0.725000
20
-0.087000
0
VERTEX
8
0
10
-0.685000
20
-0.087000
0
VERTEX
8
0
10
-0.630000
20
-0.142000
0
VERTEX
8
0
10
-0.600000
20
-0.142000
0
VERTEX
8
0
10
-0.465000
20
-0.277000
0
VERTEX
8
0
10
-0.465000
20
-0.412000
0
VERTEX
8
0
10
-0.490000
20
-0.437000
0
VERTEX
8
0
10
-0.490000
20
-0.522000
0
VERTEX
8
0
10
-0.570000
20
-0.602000
0
VERTEX
8
0
10
-0.585000
20
-0.602000
0
VERTEX
8
0
10
-0.600000
20
-0.617000
0
VERTEX
8
0
10
-0.625000
20
-0.632000
0
SEQEND
8
0
0
POLYLINE
8
0
66
1
40
0.012000
41
0.012000
0
VERTEX
8
0
10
-0.725000
20
0.012000
0
VERTEX
8
0
10
-0.525000
20
-0.177000
0
VERTEX
8
0
10
-0.420000
20
-0.282000
0
VERTEX
8
0
10
-0.410000
20
-0.282000
0
VERTEX
8
0
10
-0.365000
20
-0.332000
0
VERTEX
8
0
10
-0.325000
20
-0.332000
0
SEQEND
8
0
0
POLYLINE
8
0
66
1
40
0.012000
41
0.012000
0
VERTEX
8
0
10
-0.325000
20
-0.087000
0
VERTEX
8
0
10
-0.175000
20
-0.087000
0
VERTEX
8
0
10
-0.125000
20
-0.137000
0
VERTEX
8
0
10
-0.010000
20
-0.137000
0
VERTEX
8
0
10
0.019000
20
-0.167000
0
VERTEX
8
0
10
0.019000
20
-0.207000
0
VERTEX
8
0
10
0.000000
20
-0.227000
0
VERTEX
8
0
10
-0.160000
20
-0.227000
0
VERTEX
8
0
10
-0.200000
20
-0.267000
0
VERTEX
8
0
10
-0.235000
20
-0.267000
0
VERTEX
8
0
10
-0.265000
20
-0.297000
0
VERTEX
8
0
10
-0.265000
20
-0.377000
0
VERTEX
8
0
10
-0.250000
20
-0.392000
0
VERTEX
8
0
10
-0.160000
20
-0.392000
0
VERTEX
8
0
10
-0.120000
20
-0.352000
0
VERTEX
8
0
10
-0.125000
20
-0.332000
0
SEQEND
8
0
0
POLYLINE
8
0
66
1
40
0.012000
41
0.012000
0
VERTEX
8
0
10
-0.725000
20
0.112000
0
VERTEX
8
0
10
-0.705000
20
0.087000
0
VERTEX
8
0
10
-0.480000
20
-0.137000
0
VERTEX
8
0
10
-0.480000
20
-0.192000
0
VERTEX
8
0
10
-0.420000
20
-0.252000
0
VERTEX
8
0
10
-0.390000
20
-0.252000
0
VERTEX
8
0
10
-0.348000
20
-0.295000
0
VERTEX
8
0
10
-0.303000
20
-0.295000
0
VERTEX
8
0
10
-0.285000
20
-0.312000
0
VERTEX
8
0
10
-0.285000
20
-0.372000
0
VERTEX
8
0
10
-0.385000
20
-0.472000
0
VERTEX
8
0
10
-0.385000
20
-0.587000
0
VERTEX
8
0
10
-0.405000
20
-0.607000
0
VERTEX
8
0
10
-0.425000
20
-0.632000
0
SEQEND
8
0
0
POLYLINE
8
0
66
1
40
0.050000
41
0.050000
0
VERTEX
8
0
10
0.074000
20
-0.697000
0
VERTEX
8
0
10
-0.820000
20
-0.697000
0
VERTEX
8
0
10
-0.820000
20
-0.547000
0
SEQEND
8
0
0
POLYLINE
8
0
66
1
40
0.050000
41
0.050000
0
VERTEX
8
0
10
0.294000
20
-0.697000
0
VERTEX
8
0
10
0.074000
20
-0.697000
0
SEQEND
8
0
0
POLYLINE
8
0
66
1
40
0.050000
41
0.050000
0
VERTEX
8
0
10
0.464000
20
-0.697000
0
VERTEX
8
0
10
0.394000
20
-0.697000
0
SEQEND
8
0
0
POLYLINE
8
0
66
1
40
0.050000
41
0.050000
0
VERTEX
8
0
10
0.464000
20
-0.157000
0
VERTEX
8
0
10
0.464000
20
-0.697000
0
SEQEND
8
0
0
POLYLINE
8
0
66
1
40
0.050000
41
0.050000
0
VERTEX
8
0
10
0.394000
20
-0.697000
0
VERTEX
8
0
10
0.294000
20
-0.697000
0
SEQEND
8
0
0
POLYLINE
8
0
66
1
40
0.050000
41
0.050000
0
VERTEX
8
0
10
0.384000
20
-0.032000
0
VERTEX
8
0
10
0.464000
20
-0.032000
0
SEQEND
8
0
0
POLYLINE
8
0
66
1
40
0.050000
41
0.050000
0
VERTEX
8
0
10
0.464000
20
0.072000
0
VERTEX
8
0
10
0.464000
20
-0.032000
0
VERTEX
8
0
10
0.464000
20
-0.147000
0
SEQEND
8
0
0
POLYLINE
8
0
66
1
40
0.050000
41
0.050000
0
VERTEX
8
0
10
0.374000
20
0.087000
0
VERTEX
8
0
10
0.304000
20
0.017000
0
VERTEX
8
0
10
0.304000
20
-0.032000
0
SEQEND
8
0
0
POLYLINE
8
0
66
1
40
0.025000
41
0.025000
0
VERTEX
8
0
10
0.149000
20
0.212000
0
VERTEX
8
0
10
0.174000
20
0.232000
0
VERTEX
8
0
10
0.239000
20
0.297000
0
VERTEX
8
0
10
0.239000
20
0.462000
0
VERTEX
8
0
10
0.239000
20
0.492000
0
SEQEND
8
0
0
POLYLINE
8
0
66
1
40
0.050000
41
0.050000
0
VERTEX
8
0
10
0.189000
20
0.162000
0
VERTEX
8
0
10
0.081000
20
0.055000
0
VERTEX
8
0
10
0.079000
20
0.052000
0
SEQEND
8
0
0
POLYLINE
8
0
66
1
40
0.050000
41
0.050000
0
VERTEX
8
0
10
0.049000
20
0.087000
0
VERTEX
8
0
10
0.081000
20
0.055000
0
VERTEX
8
0
10
0.124000
20
0.012000
0
VERTEX
8
0
10
0.149000
20
0.012000
0
SEQEND
8
0
0
POLYLINE
8
0
66
1
40
0.050000
41
0.050000
0
VERTEX
8
0
10
0.189000
20
0.162000
0
VERTEX
8
0
10
0.214000
20
0.187000
0
VERTEX
8
0
10
0.464000
20
0.187000
0
SEQEND
8
0
0
POLYLINE
8
0
66
1
40
0.050000
41
0.050000
0
VERTEX
8
0
10
0.464000
20
0.297000
0
VERTEX
8
0
10
0.464000
20
0.187000
0
VERTEX
8
0
10
0.464000
20
0.167000
0
SEQEND
8
0
0
POLYLINE
8
0
66
1
40
0.025000
41
0.025000
0
VERTEX
8
0
10
0.224000
20
-0.032000
0
VERTEX
8
0
10
0.219000
20
-0.062000
0
VERTEX
8
0
10
0.219000
20
-0.277000
0
VERTEX
8
0
10
0.219000
20
-0.287000
0
VERTEX
8
0
10
0.234000
20
-0.302000
0
VERTEX
8
0
10
0.234000
20
-0.322000
0
VERTEX
8
0
10
0.299000
20
-0.387000
0
VERTEX
8
0
10
0.299000
20
-0.472000
0
VERTEX
8
0
10
0.294000
20
-0.497000
0
SEQEND
8
0
0
POLYLINE
8
0
66
1
40
0.050000
41
0.050000
0
VERTEX
8
0
10
0.294000
20
-0.497000
0
VERTEX
8
0
10
0.394000
20
-0.497000
0
SEQEND
8
0
0
INSERT
8
0
2
RPAD
10
0.174000
20
-0.332000
41
0.050000
42
0.050000
50
-180.000000
0
CIRCLE
8
0
10
0.174000
20
-0.332000
40
0.030000
0
INSERT
8
0
2
EPAD
10
0.074000
20
-0.332000
41
0.050000
42
0.050000
0
CIRCLE
8
0
10
0.074000
20
-0.332000
40
0.030000
0
INSERT
8
0
2
EPAD
10
-0.025000
20
-0.332000
41
0.050000
42
0.050000
0
CIRCLE
8
0
10
-0.025000
20
-0.332000
40
0.030000
0
INSERT
8
0
2
EPAD
10
-0.125000
20
-0.332000
41
0.050000
42
0.050000
0
CIRCLE
8
0
10
-0.125000
20
-0.332000
40
0.030000
0
INSERT
8
0
2
EPAD
10
-0.225000
20
-0.332000
41
0.050000
42
0.050000
0
CIRCLE
8
0
10
-0.225000
20
-0.332000
40
0.030000
0
INSERT
8
0
2
EPAD
10
-0.325000
20
-0.332000
41
0.050000
42
0.050000
0
CIRCLE
8
0
10
-0.325000
20
-0.332000
40
0.030000
0
INSERT
8
0
2
EPAD
10
-0.425000
20
-0.332000
41
0.050000
42
0.050000
0
CIRCLE
8
0
10
-0.425000
20
-0.332000
40
0.030000
0
INSERT
8
0
2
EPAD
10
-0.525000
20
-0.332000
41
0.050000
42
0.050000
0
CIRCLE
8
0
10
-0.525000
20
-0.332000
40
0.030000
0
INSERT
8
0
2
EPAD
10
-0.625000
20
-0.332000
41
0.050000
42
0.050000
0
CIRCLE
8
0
10
-0.625000
20
-0.332000
40
0.030000
0
INSERT
8
0
2
EPAD
10
-0.725000
20
-0.332000
41
0.050000
42
0.050000
0
CIRCLE
8
0
10
-0.725000
20
-0.332000
40
0.030000
0
INSERT
8
0
2
EPAD
10
-0.725000
20
-0.632000
41
0.050000
42
0.050000
0
CIRCLE
8
0
10
-0.725000
20
-0.632000
40
0.030000
0
INSERT
8
0
2
EPAD
10
-0.625000
20
-0.632000
41
0.050000
42
0.050000
0
CIRCLE
8
0
10
-0.625000
20
-0.632000
40
0.030000
0
INSERT
8
0
2
EPAD
10
-0.525000
20
-0.632000
41
0.050000
42
0.050000
0
CIRCLE
8
0
10
-0.525000
20
-0.632000
40
0.030000
0
INSERT
8
0
2
EPAD
10
-0.425000
20
-0.632000
41
0.050000
42
0.050000
0
CIRCLE
8
0
10
-0.425000
20
-0.632000
40
0.030000
0
INSERT
8
0
2
EPAD
10
-0.325000
20
-0.632000
41
0.050000
42
0.050000
0
CIRCLE
8
0
10
-0.325000
20
-0.632000
40
0.030000
0
INSERT
8
0
2
EPAD
10
-0.225000
20
-0.632000
41
0.050000
42
0.050000
0
CIRCLE
8
0
10
-0.225000
20
-0.632000
40
0.030000
0
INSERT
8
0
2
EPAD
10
-0.125000
20
-0.632000
41
0.050000
42
0.050000
0
CIRCLE
8
0
10
-0.125000
20
-0.632000
40
0.030000
0
INSERT
8
0
2
EPAD
10
-0.025000
20
-0.632000
41
0.050000
42
0.050000
0
CIRCLE
8
0
10
-0.025000
20
-0.632000
40
0.030000
0
INSERT
8
0
2
EPAD
10
0.074000
20
-0.632000
41
0.050000
42
0.050000
0
CIRCLE
8
0
10
0.074000
20
-0.632000
40
0.030000
0
INSERT
8
0
2
EPAD
10
0.174000
20
-0.632000
41
0.050000
42
0.050000
0
CIRCLE
8
0
10
0.174000
20
-0.632000
40
0.030000
0
INSERT
8
0
2
RPAD
10
-0.325000
20
0.612000
41
0.050000
42
0.050000
50
-90.000000
0
CIRCLE
8
0
10
-0.325000
20
0.612000
40
0.030000
0
INSERT
8
0
2
EPAD
10
-0.325000
20
0.512000
41
0.050000
42
0.050000
0
CIRCLE
8
0
10
-0.325000
20
0.512000
40
0.030000
0
INSERT
8
0
2
EPAD
10
-0.325000
20
0.412000
41
0.050000
42
0.050000
0
CIRCLE
8
0
10
-0.325000
20
0.412000
40
0.030000
0
INSERT
8
0
2
EPAD
10
-0.325000
20
0.312000
41
0.050000
42
0.050000
0
CIRCLE
8
0
10
-0.325000
20
0.312000
40
0.030000
0
INSERT
8
0
2
EPAD
10
-0.325000
20
0.212000
41
0.050000
42
0.050000
0
CIRCLE
8
0
10
-0.325000
20
0.212000
40
0.030000
0
INSERT
8
0
2
EPAD
10
-0.325000
20
0.112000
41
0.050000
42
0.050000
0
CIRCLE
8
0
10
-0.325000
20
0.112000
40
0.030000
0
INSERT
8
0
2
EPAD
10
-0.325000
20
0.012000
41
0.050000
42
0.050000
0
CIRCLE
8
0
10
-0.325000
20
0.012000
40
0.030000
0
INSERT
8
0
2
EPAD
10
-0.325000
20
-0.087000
41
0.050000
42
0.050000
0
CIRCLE
8
0
10
-0.325000
20
-0.087000
40
0.030000
0
INSERT
8
0
2
EPAD
10
-0.325000
20
-0.187000
41
0.050000
42
0.050000
0
CIRCLE
8
0
10
-0.325000
20
-0.187000
40
0.030000
0
INSERT
8
0
2
EPAD
10
-0.025000
20
-0.187000
41
0.050000
42
0.050000
0
CIRCLE
8
0
10
-0.025000
20
-0.187000
40
0.030000
0
INSERT
8
0
2
EPAD
10
-0.025000
20
-0.087000
41
0.050000
42
0.050000
0
CIRCLE
8
0
10
-0.025000
20
-0.087000
40
0.030000
0
INSERT
8
0
2
EPAD
10
-0.025000
20
0.012000
41
0.050000
42
0.050000
0
CIRCLE
8
0
10
-0.025000
20
0.012000
40
0.030000
0
INSERT
8
0
2
EPAD
10
-0.025000
20
0.112000
41
0.050000
42
0.050000
0
CIRCLE
8
0
10
-0.025000
20
0.112000
40
0.030000
0
INSERT
8
0
2
EPAD
10
-0.025000
20
0.212000
41
0.050000
42
0.050000
0
CIRCLE
8
0
10
-0.025000
20
0.212000
40
0.030000
0
INSERT
8
0
2
EPAD
10
-0.025000
20
0.312000
41
0.050000
42
0.050000
0
CIRCLE
8
0
10
-0.025000
20
0.312000
40
0.030000
0
INSERT
8
0
2
EPAD
10
-0.025000
20
0.412000
41
0.050000
42
0.050000
0
CIRCLE
8
0
10
-0.025000
20
0.412000
40
0.030000
0
INSERT
8
0
2
EPAD
10
-0.025000
20
0.512000
41
0.050000
42
0.050000
0
CIRCLE
8
0
10
-0.025000
20
0.512000
40
0.030000
0
INSERT
8
0
2
EPAD
10
-0.025000
20
0.612000
41
0.050000
42
0.050000
0
CIRCLE
8
0
10
-0.025000
20
0.612000
40
0.030000
0
INSERT
8
0
2
RPAD
10
-0.725000
20
0.612000
41
0.050000
42
0.050000
50
-90.000000
0
CIRCLE
8
0
10
-0.725000
20
0.612000
40
0.030000
0
INSERT
8
0
2
EPAD
10
-0.725000
20
0.512000
41
0.050000
42
0.050000
0
CIRCLE
8
0
10
-0.725000
20
0.512000
40
0.030000
0
INSERT
8
0
2
EPAD
10
-0.725000
20
0.412000
41
0.050000
42
0.050000
0
CIRCLE
8
0
10
-0.725000
20
0.412000
40
0.030000
0
INSERT
8
0
2
EPAD
10
-0.725000
20
0.312000
41
0.050000
42
0.050000
0
CIRCLE
8
0
10
-0.725000
20
0.312000
40
0.030000
0
INSERT
8
0
2
EPAD
10
-0.725000
20
0.212000
41
0.050000
42
0.050000
0
CIRCLE
8
0
10
-0.725000
20
0.212000
40
0.030000
0
INSERT
8
0
2
EPAD
10
-0.725000
20
0.112000
41
0.050000
42
0.050000
0
CIRCLE
8
0
10
-0.725000
20
0.112000
40
0.030000
0
INSERT
8
0
2
EPAD
10
-0.725000
20
0.012000
41
0.050000
42
0.050000
0
CIRCLE
8
0
10
-0.725000
20
0.012000
40
0.030000
0
INSERT
8
0
2
EPAD
10
-0.725000
20
-0.087000
41
0.050000
42
0.050000
0
CIRCLE
8
0
10
-0.725000
20
-0.087000
40
0.030000
0
INSERT
8
0
2
EPAD
10
-0.725000
20
-0.187000
41
0.050000
42
0.050000
0
CIRCLE
8
0
10
-0.725000
20
-0.187000
40
0.030000
0
INSERT
8
0
2
EPAD
10
-0.425000
20
-0.187000
41
0.050000
42
0.050000
0
CIRCLE
8
0
10
-0.425000
20
-0.187000
40
0.030000
0
INSERT
8
0
2
EPAD
10
-0.425000
20
-0.087000
41
0.050000
42
0.050000
0
CIRCLE
8
0
10
-0.425000
20
-0.087000
40
0.030000
0
INSERT
8
0
2
EPAD
10
-0.425000
20
0.012000
41
0.050000
42
0.050000
0
CIRCLE
8
0
10
-0.425000
20
0.012000
40
0.030000
0
INSERT
8
0
2
EPAD
10
-0.425000
20
0.112000
41
0.050000
42
0.050000
0
CIRCLE
8
0
10
-0.425000
20
0.112000
40
0.030000
0
INSERT
8
0
2
EPAD
10
-0.425000
20
0.212000
41
0.050000
42
0.050000
0
CIRCLE
8
0
10
-0.425000
20
0.212000
40
0.030000
0
INSERT
8
0
2
EPAD
10
-0.425000
20
0.312000
41
0.050000
42
0.050000
0
CIRCLE
8
0
10
-0.425000
20
0.312000
40
0.030000
0
INSERT
8
0
2
EPAD
10
-0.425000
20
0.412000
41
0.050000
42
0.050000
0
CIRCLE
8
0
10
-0.425000
20
0.412000
40
0.030000
0
INSERT
8
0
2
EPAD
10
-0.425000
20
0.512000
41
0.050000
42
0.050000
0
CIRCLE
8
0
10
-0.425000
20
0.512000
40
0.030000
0
INSERT
8
0
2
EPAD
10
-0.425000
20
0.612000
41
0.050000
42
0.050000
0
CIRCLE
8
0
10
-0.425000
20
0.612000
40
0.030000
0
INSERT
8
0
2
EPAD
10
0.394000
20
-0.497000
41
0.050000
42
0.050000
0
CIRCLE
8
0
10
0.394000
20
-0.497000
40
0.025000
0
INSERT
8
0
2
EPAD
10
0.394000
20
-0.697000
41
0.050000
42
0.050000
0
CIRCLE
8
0
10
0.394000
20
-0.697000
40
0.025000
0
INSERT
8
0
2
EPAD
10
0.049000
20
0.287000
41
0.050000
42
0.050000
0
CIRCLE
8
0
10
0.049000
20
0.287000
40
0.010000
0
INSERT
8
0
2
EPAD
10
0.049000
20
0.087000
41
0.050000
42
0.050000
0
CIRCLE
8
0
10
0.049000
20
0.087000
40
0.010000
0
INSERT
8
0
2
EPAD
10
0.149000
20
0.212000
41
0.050000
42
0.050000
0
CIRCLE
8
0
10
0.149000
20
0.212000
40
0.010000
0
INSERT
8
0
2
EPAD
10
0.149000
20
0.012000
41
0.050000
42
0.050000
0
CIRCLE
8
0
10
0.149000
20
0.012000
40
0.010000
0
INSERT
8
0
2
EPAD
10
0.149000
20
0.312000
41
0.060000
42
0.060000
0
CIRCLE
8
0
10
0.149000
20
0.312000
40
0.025000
0
INSERT
8
0
2
EPAD
10
0.029000
20
0.712000
41
0.050000
42
0.050000
0
CIRCLE
8
0
10
0.029000
20
0.712000
40
0.010000
0
INSERT
8
0
2
EPAD
10
0.384000
20
-0.032000
41
0.060000
42
0.060000
0
CIRCLE
8
0
10
0.384000
20
-0.032000
40
0.025000
0
INSERT
8
0
2
EPAD
10
0.304000
20
-0.032000
41
0.060000
42
0.060000
0
CIRCLE
8
0
10
0.304000
20
-0.032000
40
0.025000
0
INSERT
8
0
2
EPAD
10
0.224000
20
-0.032000
41
0.060000
42
0.060000
0
CIRCLE
8
0
10
0.224000
20
-0.032000
40
0.025000
0
INSERT
8
0
2
EPAD
10
0.374000
20
0.487000
41
0.080000
42
0.080000
0
CIRCLE
8
0
10
0.374000
20
0.487000
40
0.025000
0
INSERT
8
0
2
EPAD
10
0.374000
20
0.087000
41
0.080000
42
0.080000
0
CIRCLE
8
0
10
0.374000
20
0.087000
40
0.025000
0
INSERT
8
0
2
EPAD
10
0.239000
20
0.492000
41
0.080000
42
0.080000
0
CIRCLE
8
0
10
0.239000
20
0.492000
40
0.025000
0
INSERT
8
0
2
EPAD
10
0.239000
20
0.092000
41
0.080000
42
0.080000
0
CIRCLE
8
0
10
0.239000
20
0.092000
40
0.025000
0
INSERT
8
0
2
RPAD
10
0.354000
20
0.597000
41
0.080000
42
0.080000
50
-180.000000
0
CIRCLE
8
0
10
0.354000
20
0.597000
40
0.025000
0
INSERT
8
0
2
RPAD
10
0.254000
20
0.597000
41
0.080000
42
0.080000
50
-180.000000
0
CIRCLE
8
0
10
0.254000
20
0.597000
40
0.025000
0
INSERT
8
0
2
EPAD
10
-0.725000
20
-0.267000
41
0.050000
42
0.050000
0
CIRCLE
8
0
10
-0.725000
20
-0.267000
40
0.025000
0
INSERT
8
0
2
EPAD
10
-0.625000
20
-0.267000
41
0.050000
42
0.050000
0
CIRCLE
8
0
10
-0.625000
20
-0.267000
40
0.025000
0
INSERT
8
0
2
EPAD
10
0.294000
20
-0.497000
41
0.050000
42
0.050000
0
CIRCLE
8
0
10
0.294000
20
-0.497000
40
0.010000
0
INSERT
8
0
2
EPAD
10
0.294000
20
-0.697000
41
0.050000
42
0.050000
0
CIRCLE
8
0
10
0.294000
20
-0.697000
40
0.010000
0
INSERT
8
0
2
EPAD
10
-0.620000
20
-0.402000
41
0.050000
42
0.050000
0
CIRCLE
8
0
10
-0.620000
20
-0.402000
40
0.010000
0
INSERT
8
0
2
EPAD
10
-0.820000
20
-0.402000
41
0.050000
42
0.050000
0
CIRCLE
8
0
10
-0.820000
20
-0.402000
40
0.010000
0
INSERT
8
0
2
EPAD
10
-0.620000
20
-0.487000
41
0.050000
42
0.050000
0
CIRCLE
8
0
10
-0.620000
20
-0.487000
40
0.010000
0
INSERT
8
0
2
EPAD
10
-0.820000
20
-0.487000
41
0.050000
42
0.050000
0
CIRCLE
8
0
10
-0.820000
20
-0.487000
40
0.010000
0
INSERT
8
0
2
EPAD
10
-0.325000
20
-0.257000
41
0.050000
42
0.050000
0
CIRCLE
8
0
10
-0.325000
20
-0.257000
40
0.025000
0
INSERT
8
0
2
EPAD
10
-0.025000
20
-0.267000
41
0.050000
42
0.050000
0
CIRCLE
8
0
10
-0.025000
20
-0.267000
40
0.025000
0
POLYLINE
8
0
66
1
40
0.008000
41
0.008000
0
VERTEX
8
0
10
-0.850000
20
-0.732000
0
VERTEX
8
0
10
0.499000
20
-0.732000
0
VERTEX
8
0
10
0.499000
20
0.747000
0
VERTEX
8
0
10
-0.850000
20
0.747000
0
VERTEX
8
0
10
-0.850000
20
-0.732000
0
SEQEND
8
0
0
ENDSEC
0
EOF

