*
G04 Gerber written by LinkCAD 5.8.2 Build 4535*
G04 Layer: SuperTAT_Resist_20100827a.gbr*
%FSLAX36Y36*%
%MOIN*%
%ADD10C,0.070000*%
%ADD11C,0.080000*%
%ADD12C,0.100000*%
%ADD13C,0.008000*%
G36*
G54D12*
X211000Y-282000D02*
G01Y-352000D01*
X141000D01*
Y-282000D01*
X211000D01*
G37*
G54D10*
X76000Y-317000D03*
X-23000D03*
X-123000D03*
X-223000D03*
X-323000D03*
X-423000D03*
X-523000D03*
X-623000D03*
X-723000D03*
Y-617000D03*
X-623000D03*
X-523000D03*
X-423000D03*
X-323000D03*
X-223000D03*
X-123000D03*
X-23000D03*
X76000D03*
X176000D03*
G36*
X-358000Y662000D02*
X-288000D01*
Y592000D01*
X-358000D01*
Y662000D01*
G37*
X-323000Y527000D03*
Y427000D03*
Y327000D03*
Y227000D03*
Y127000D03*
Y27000D03*
Y-72000D03*
Y-172000D03*
X-23000D03*
Y-72000D03*
Y27000D03*
Y127000D03*
Y227000D03*
Y327000D03*
Y427000D03*
Y527000D03*
Y627000D03*
G36*
X-758000Y662000D02*
X-688000D01*
Y592000D01*
X-758000D01*
Y662000D01*
G37*
X-723000Y527000D03*
Y427000D03*
Y327000D03*
Y227000D03*
Y127000D03*
Y27000D03*
Y-72000D03*
Y-172000D03*
X-423000D03*
Y-72000D03*
Y27000D03*
Y127000D03*
Y227000D03*
Y327000D03*
Y427000D03*
Y527000D03*
Y627000D03*
X396000Y-482000D03*
Y-682000D03*
X51000Y302000D03*
Y102000D03*
X151000Y227000D03*
Y27000D03*
G54D11*
Y327000D03*
G54D10*
X31000Y727000D03*
G54D11*
X226000Y-42000D03*
X306000D03*
X386000D03*
G54D12*
X376000Y502000D03*
Y102000D03*
X241000Y507000D03*
Y107000D03*
G36*
X406000Y662000D02*
Y562000D01*
X306000D01*
Y662000D01*
X406000D01*
G37*
G36*
X306000D02*
Y562000D01*
X206000D01*
Y662000D01*
X306000D01*
G37*
G54D10*
X-723000Y-252000D03*
X-623000D03*
X296000Y-482000D03*
Y-682000D03*
X-618000Y-387000D03*
X-818000D03*
X-618000Y-472000D03*
X-818000D03*
X-323000Y-242000D03*
X-23000Y-252000D03*
G54D13*
X-848000Y-717000D02*
X501000D01*
Y762000D01*
X-848000D01*
Y-717000D01*
M02*
