  0
SECTION
  2
HEADER
  9
$ACADVER
  1
AC2.10
  0
ENDSEC
  0
SECTION
  2
TABLES
  0
TABLE
  2
LAYER
 70
     8
  0
LAYER
  2
0
 62
     7
 70
0
  6
CONTINUOUS
  0
LAYER
  2
1
 62
     1
 70
0
  6
CONTINUOUS
  0
LAYER
  2
2
 62
     2
 70
0
  6
CONTINUOUS
  0
LAYER
  2
3
 62
     3
 70
0
  6
CONTINUOUS
  0
LAYER
  2
4
 62
     4
 70
0
  6
CONTINUOUS
  0
LAYER
  2
5
 62
     5
 70
0
  6
CONTINUOUS
  0
LAYER
  2
6
 62
     6
 70
0
  6
CONTINUOUS
  0
LAYER
  2
7
 62
     7
 70
0
  6
CONTINUOUS
  0
ENDTAB
  0
TABLE
  2
STYLE
 70
     1
  0
STYLE
 70
     0
  2
STANDARD
  3
TXT
 40
0.00
 41
1.00
 42
1.00
 50
0.00
 71
     0
  0
ENDTAB
  0
ENDSEC
  0
SECTION
  2
BLOCKS
  0
BLOCK
  8
0
  2
EPAD
 70
0
 10
0.0
 20
0.0
  0
POLYLINE
  8
0
 66
1
 70
1
 40
0.5
 41
0.5
  0
VERTEX
  8
0
 10
-0.25
 20
0.0
 42
1.0
  0
VERTEX
  8
0
 10
0.25
 20
0.0
 42
1.0
  0
SEQEND
  8
0
  0
ENDBLK
  8
0
  0
BLOCK
  8
0
  2
RPAD
 70
0
 10
0.0
 20
0.0
  0
TRACE
  8
0
 10
-0.5
 20
-0.5
 11
-0.5
 21
0.5
 12
0.5
 22
-0.5
 13
0.5
 23
0.5
  0
ENDBLK
  8
0
  0
ENDSEC
0
SECTION
2
ENTITIES
0
POLYLINE
8
0
66
1
40
0.015000
41
0.015000
0
VERTEX
8
0
10
-0.723000
20
0.627000
0
VERTEX
8
0
10
-0.623000
20
0.627000
0
VERTEX
8
0
10
-0.573000
20
0.577000
0
VERTEX
8
0
10
-0.398000
20
0.577000
0
VERTEX
8
0
10
-0.348000
20
0.627000
0
VERTEX
8
0
10
-0.323000
20
0.627000
0
SEQEND
8
0
0
POLYLINE
8
0
66
1
40
0.015000
41
0.015000
0
VERTEX
8
0
10
-0.423000
20
0.027000
0
VERTEX
8
0
10
-0.398000
20
0.052000
0
VERTEX
8
0
10
-0.373000
20
0.052000
0
VERTEX
8
0
10
-0.348000
20
0.077000
0
VERTEX
8
0
10
-0.173000
20
0.077000
0
VERTEX
8
0
10
-0.123000
20
0.027000
0
VERTEX
8
0
10
-0.023000
20
0.027000
0
SEQEND
8
0
0
POLYLINE
8
0
66
1
40
0.015000
41
0.015000
0
VERTEX
8
0
10
-0.423000
20
-0.072000
0
VERTEX
8
0
10
-0.398000
20
-0.047000
0
VERTEX
8
0
10
-0.373000
20
-0.047000
0
VERTEX
8
0
10
-0.348000
20
-0.022000
0
VERTEX
8
0
10
-0.173000
20
-0.022000
0
VERTEX
8
0
10
-0.123000
20
-0.072000
0
VERTEX
8
0
10
-0.023000
20
-0.072000
0
SEQEND
8
0
0
POLYLINE
8
0
66
1
40
0.015000
41
0.015000
0
VERTEX
8
0
10
-0.423000
20
-0.172000
0
VERTEX
8
0
10
-0.398000
20
-0.147000
0
VERTEX
8
0
10
-0.373000
20
-0.147000
0
VERTEX
8
0
10
-0.348000
20
-0.122000
0
VERTEX
8
0
10
-0.173000
20
-0.122000
0
VERTEX
8
0
10
-0.123000
20
-0.172000
0
VERTEX
8
0
10
-0.023000
20
-0.172000
0
SEQEND
8
0
0
POLYLINE
8
0
66
1
40
0.015000
41
0.015000
0
VERTEX
8
0
10
-0.023000
20
0.627000
0
VERTEX
8
0
10
-0.148000
20
0.627000
0
VERTEX
8
0
10
-0.195000
20
0.675000
0
SEQEND
8
0
0
POLYLINE
8
0
66
1
40
0.010000
41
0.010000
0
VERTEX
8
0
10
-0.195000
20
0.675000
0
VERTEX
8
0
10
-0.198000
20
0.677000
0
VERTEX
8
0
10
-0.373000
20
0.677000
0
VERTEX
8
0
10
-0.375000
20
0.675000
0
SEQEND
8
0
0
POLYLINE
8
0
66
1
40
0.015000
41
0.015000
0
VERTEX
8
0
10
-0.375000
20
0.675000
0
VERTEX
8
0
10
-0.423000
20
0.627000
0
SEQEND
8
0
0
POLYLINE
8
0
66
1
40
0.050000
41
0.050000
0
VERTEX
8
0
10
0.051000
20
0.727000
0
VERTEX
8
0
10
0.051000
20
0.727000
0
SEQEND
8
0
0
POLYLINE
8
0
66
1
40
0.050000
41
0.050000
0
VERTEX
8
0
10
0.151000
20
0.727000
0
VERTEX
8
0
10
0.151000
20
0.727000
0
SEQEND
8
0
0
POLYLINE
8
0
66
1
40
0.025000
41
0.025000
0
VERTEX
8
0
10
-0.323000
20
0.227000
0
VERTEX
8
0
10
-0.173000
20
0.227000
0
VERTEX
8
0
10
-0.123000
20
0.177000
0
VERTEX
8
0
10
0.001000
20
0.177000
0
VERTEX
8
0
10
0.051000
20
0.127000
0
VERTEX
8
0
10
0.051000
20
0.102000
0
SEQEND
8
0
0
POLYLINE
8
0
66
1
40
0.015000
41
0.015000
0
VERTEX
8
0
10
-0.423000
20
0.127000
0
VERTEX
8
0
10
-0.398000
20
0.127000
0
VERTEX
8
0
10
-0.348000
20
0.177000
0
VERTEX
8
0
10
-0.173000
20
0.177000
0
VERTEX
8
0
10
-0.123000
20
0.127000
0
VERTEX
8
0
10
-0.023000
20
0.127000
0
SEQEND
8
0
0
POLYLINE
8
0
66
1
40
0.025000
41
0.025000
0
VERTEX
8
0
10
-0.323000
20
0.227000
0
VERTEX
8
0
10
-0.348000
20
0.227000
0
VERTEX
8
0
10
-0.398000
20
0.177000
0
VERTEX
8
0
10
-0.573000
20
0.177000
0
VERTEX
8
0
10
-0.623000
20
0.227000
0
VERTEX
8
0
10
-0.723000
20
0.227000
0
SEQEND
8
0
0
POLYLINE
8
0
66
1
40
0.015000
41
0.015000
0
VERTEX
8
0
10
-0.323000
20
0.327000
0
VERTEX
8
0
10
-0.353000
20
0.327000
0
VERTEX
8
0
10
-0.398000
20
0.277000
0
VERTEX
8
0
10
-0.573000
20
0.277000
0
VERTEX
8
0
10
-0.623000
20
0.327000
0
VERTEX
8
0
10
-0.723000
20
0.327000
0
SEQEND
8
0
0
POLYLINE
8
0
66
1
40
0.015000
41
0.015000
0
VERTEX
8
0
10
-0.423000
20
0.327000
0
VERTEX
8
0
10
-0.398000
20
0.327000
0
VERTEX
8
0
10
-0.348000
20
0.377000
0
VERTEX
8
0
10
-0.173000
20
0.377000
0
VERTEX
8
0
10
-0.123000
20
0.327000
0
VERTEX
8
0
10
-0.023000
20
0.327000
0
SEQEND
8
0
0
POLYLINE
8
0
66
1
40
0.015000
41
0.015000
0
VERTEX
8
0
10
-0.323000
20
0.427000
0
VERTEX
8
0
10
-0.348000
20
0.427000
0
VERTEX
8
0
10
-0.398000
20
0.377000
0
VERTEX
8
0
10
-0.573000
20
0.377000
0
VERTEX
8
0
10
-0.623000
20
0.427000
0
VERTEX
8
0
10
-0.723000
20
0.427000
0
SEQEND
8
0
0
POLYLINE
8
0
66
1
40
0.015000
41
0.015000
0
VERTEX
8
0
10
-0.323000
20
0.527000
0
VERTEX
8
0
10
-0.348000
20
0.527000
0
VERTEX
8
0
10
-0.398000
20
0.477000
0
VERTEX
8
0
10
-0.573000
20
0.477000
0
VERTEX
8
0
10
-0.623000
20
0.527000
0
VERTEX
8
0
10
-0.723000
20
0.527000
0
SEQEND
8
0
0
POLYLINE
8
0
66
1
40
0.015000
41
0.015000
0
VERTEX
8
0
10
-0.423000
20
0.527000
0
VERTEX
8
0
10
-0.418000
20
0.532000
0
VERTEX
8
0
10
-0.398000
20
0.527000
0
VERTEX
8
0
10
-0.348000
20
0.577000
0
VERTEX
8
0
10
-0.173000
20
0.577000
0
VERTEX
8
0
10
-0.123000
20
0.527000
0
VERTEX
8
0
10
-0.023000
20
0.527000
0
SEQEND
8
0
0
POLYLINE
8
0
66
1
40
0.015000
41
0.015000
0
VERTEX
8
0
10
-0.423000
20
0.427000
0
VERTEX
8
0
10
-0.398000
20
0.427000
0
VERTEX
8
0
10
-0.348000
20
0.477000
0
VERTEX
8
0
10
-0.173000
20
0.477000
0
VERTEX
8
0
10
-0.123000
20
0.427000
0
VERTEX
8
0
10
-0.023000
20
0.427000
0
SEQEND
8
0
0
POLYLINE
8
0
66
1
40
0.025000
41
0.025000
0
VERTEX
8
0
10
-0.423000
20
0.227000
0
VERTEX
8
0
10
-0.398000
20
0.232000
0
VERTEX
8
0
10
-0.353000
20
0.277000
0
VERTEX
8
0
10
-0.158000
20
0.277000
0
VERTEX
8
0
10
-0.108000
20
0.227000
0
VERTEX
8
0
10
-0.023000
20
0.227000
0
VERTEX
8
0
10
0.001000
20
0.227000
0
VERTEX
8
0
10
0.051000
20
0.227000
0
VERTEX
8
0
10
0.151000
20
0.227000
0
SEQEND
8
0
0
POLYLINE
8
0
66
1
40
0.025000
41
0.025000
0
VERTEX
8
0
10
0.011000
20
0.237000
0
VERTEX
8
0
10
0.041000
20
0.267000
0
VERTEX
8
0
10
0.051000
20
0.302000
0
VERTEX
8
0
10
0.061000
20
0.267000
0
VERTEX
8
0
10
0.096000
20
0.232000
0
SEQEND
8
0
0
POLYLINE
8
0
66
1
40
0.025000
41
0.025000
0
VERTEX
8
0
10
0.051000
20
0.302000
0
VERTEX
8
0
10
0.083000
20
0.267000
0
VERTEX
8
0
10
0.116000
20
0.234000
0
VERTEX
8
0
10
0.151000
20
0.227000
0
SEQEND
8
0
0
POLYLINE
8
0
66
1
40
0.025000
41
0.025000
0
VERTEX
8
0
10
0.051000
20
0.302000
0
VERTEX
8
0
10
0.020000
20
0.267000
0
VERTEX
8
0
10
0.001000
20
0.249000
0
VERTEX
8
0
10
-0.023000
20
0.227000
0
SEQEND
8
0
0
POLYLINE
8
0
66
1
40
0.025000
41
0.025000
0
VERTEX
8
0
10
0.021000
20
0.242000
0
VERTEX
8
0
10
0.051000
20
0.242000
0
VERTEX
8
0
10
0.084000
20
0.242000
0
SEQEND
8
0
0
POLYLINE
8
0
66
1
40
0.025000
41
0.025000
0
VERTEX
8
0
10
0.051000
20
0.302000
0
VERTEX
8
0
10
0.051000
20
0.242000
0
VERTEX
8
0
10
0.051000
20
0.227000
0
SEQEND
8
0
0
POLYLINE
8
0
66
1
40
0.050000
41
0.050000
0
VERTEX
8
0
10
0.151000
20
0.727000
0
VERTEX
8
0
10
0.061000
20
0.727000
0
SEQEND
8
0
0
POLYLINE
8
0
66
1
40
0.025000
41
0.025000
0
VERTEX
8
0
10
0.466000
20
0.182000
0
VERTEX
8
0
10
0.471000
20
0.182000
0
SEQEND
8
0
0
POLYLINE
8
0
66
1
40
0.050000
41
0.050000
0
VERTEX
8
0
10
-0.723000
20
0.227000
0
VERTEX
8
0
10
-0.813000
20
0.227000
0
SEQEND
8
0
0
POLYLINE
8
0
66
1
40
0.050000
41
0.050000
0
VERTEX
8
0
10
0.031000
20
0.727000
0
VERTEX
8
0
10
-0.813000
20
0.727000
0
VERTEX
8
0
10
-0.813000
20
0.227000
0
SEQEND
8
0
0
POLYLINE
8
0
66
1
40
0.050000
41
0.050000
0
VERTEX
8
0
10
0.061000
20
0.727000
0
VERTEX
8
0
10
0.056000
20
0.727000
0
VERTEX
8
0
10
0.051000
20
0.727000
0
VERTEX
8
0
10
0.031000
20
0.727000
0
SEQEND
8
0
0
POLYLINE
8
0
66
1
40
0.050000
41
0.050000
0
VERTEX
8
0
10
0.466000
20
0.182000
0
VERTEX
8
0
10
0.466000
20
0.177000
0
SEQEND
8
0
0
POLYLINE
8
0
66
1
40
0.050000
41
0.050000
0
VERTEX
8
0
10
0.466000
20
0.087000
0
VERTEX
8
0
10
0.471000
20
0.087000
0
SEQEND
8
0
0
POLYLINE
8
0
66
1
40
0.050000
41
0.050000
0
VERTEX
8
0
10
0.391000
20
0.727000
0
VERTEX
8
0
10
0.401000
20
0.727000
0
VERTEX
8
0
10
0.466000
20
0.727000
0
VERTEX
8
0
10
0.466000
20
0.652000
0
SEQEND
8
0
0
POLYLINE
8
0
66
1
40
0.025000
41
0.025000
0
VERTEX
8
0
10
0.226000
20
-0.042000
0
VERTEX
8
0
10
0.226000
20
-0.042000
0
SEQEND
8
0
0
POLYLINE
8
0
66
1
40
0.050000
41
0.050000
0
VERTEX
8
0
10
0.466000
20
0.652000
0
VERTEX
8
0
10
0.466000
20
0.547000
0
SEQEND
8
0
0
POLYLINE
8
0
66
1
40
0.050000
41
0.050000
0
VERTEX
8
0
10
0.851000
20
0.577000
0
VERTEX
8
0
10
0.851000
20
0.577000
0
SEQEND
8
0
0
POLYLINE
8
0
66
1
40
0.050000
41
0.050000
0
VERTEX
8
0
10
0.376000
20
0.727000
0
VERTEX
8
0
10
0.391000
20
0.727000
0
SEQEND
8
0
0
POLYLINE
8
0
66
1
40
0.050000
41
0.050000
0
VERTEX
8
0
10
0.466000
20
0.547000
0
VERTEX
8
0
10
0.466000
20
0.312000
0
VERTEX
8
0
10
0.466000
20
0.182000
0
SEQEND
8
0
0
POLYLINE
8
0
66
1
40
0.050000
41
0.050000
0
VERTEX
8
0
10
0.151000
20
0.727000
0
VERTEX
8
0
10
0.191000
20
0.727000
0
VERTEX
8
0
10
0.376000
20
0.727000
0
SEQEND
8
0
0
POLYLINE
8
0
66
1
40
0.050000
41
0.050000
0
VERTEX
8
0
10
0.466000
20
0.177000
0
VERTEX
8
0
10
0.466000
20
0.152000
0
VERTEX
8
0
10
0.466000
20
0.087000
0
SEQEND
8
0
0
POLYLINE
8
0
66
1
40
0.050000
41
0.050000
0
VERTEX
8
0
10
0.051000
20
0.102000
0
VERTEX
8
0
10
0.126000
20
0.027000
0
VERTEX
8
0
10
0.151000
20
0.027000
0
SEQEND
8
0
0
POLYLINE
8
0
66
1
40
0.025000
41
0.025000
0
VERTEX
8
0
10
0.151000
20
0.327000
0
VERTEX
8
0
10
0.151000
20
0.572000
0
VERTEX
8
0
10
0.191000
20
0.612000
0
VERTEX
8
0
10
0.216000
20
0.612000
0
VERTEX
8
0
10
0.256000
20
0.612000
0
SEQEND
8
0
0
POLYLINE
8
0
66
1
40
0.025000
41
0.025000
0
VERTEX
8
0
10
0.376000
20
0.502000
0
VERTEX
8
0
10
0.356000
20
0.517000
0
VERTEX
8
0
10
0.356000
20
0.572000
0
VERTEX
8
0
10
0.356000
20
0.612000
0
SEQEND
8
0
0
POLYLINE
8
0
66
1
40
0.025000
41
0.025000
0
VERTEX
8
0
10
0.241000
20
0.107000
0
VERTEX
8
0
10
0.336000
20
0.107000
0
VERTEX
8
0
10
0.376000
20
0.102000
0
VERTEX
8
0
10
0.376000
20
0.062000
0
VERTEX
8
0
10
0.376000
20
-0.002000
0
VERTEX
8
0
10
0.376000
20
-0.012000
0
VERTEX
8
0
10
0.386000
20
-0.042000
0
SEQEND
8
0
0
POLYLINE
8
0
66
1
40
0.025000
41
0.025000
0
VERTEX
8
0
10
0.151000
20
0.227000
0
VERTEX
8
0
10
0.176000
20
0.227000
0
VERTEX
8
0
10
0.186000
20
0.227000
0
VERTEX
8
0
10
0.236000
20
0.277000
0
VERTEX
8
0
10
0.236000
20
0.467000
0
VERTEX
8
0
10
0.241000
20
0.507000
0
SEQEND
8
0
0
POLYLINE
8
0
66
1
40
0.012000
41
0.012000
0
VERTEX
8
0
10
-0.323000
20
-0.317000
0
VERTEX
8
0
10
-0.433000
20
-0.402000
0
VERTEX
8
0
10
-0.433000
20
-0.507000
0
VERTEX
8
0
10
-0.508000
20
-0.582000
0
VERTEX
8
0
10
-0.523000
20
-0.617000
0
SEQEND
8
0
0
POLYLINE
8
0
66
1
40
0.015000
41
0.015000
0
VERTEX
8
0
10
-0.723000
20
-0.252000
0
VERTEX
8
0
10
-0.723000
20
-0.257000
0
VERTEX
8
0
10
-0.723000
20
-0.317000
0
SEQEND
8
0
0
POLYLINE
8
0
66
1
40
0.015000
41
0.015000
0
VERTEX
8
0
10
-0.623000
20
-0.252000
0
VERTEX
8
0
10
-0.623000
20
-0.282000
0
VERTEX
8
0
10
-0.623000
20
-0.317000
0
SEQEND
8
0
0
POLYLINE
8
0
66
1
40
0.050000
41
0.050000
0
VERTEX
8
0
10
0.461000
20
-0.137000
0
VERTEX
8
0
10
0.461000
20
-0.142000
0
SEQEND
8
0
0
POLYLINE
8
0
66
1
40
0.050000
41
0.050000
0
VERTEX
8
0
10
0.306000
20
-0.042000
0
VERTEX
8
0
10
0.301000
20
-0.072000
0
VERTEX
8
0
10
0.341000
20
-0.112000
0
VERTEX
8
0
10
0.371000
20
-0.142000
0
VERTEX
8
0
10
0.461000
20
-0.142000
0
VERTEX
8
0
10
0.466000
20
-0.142000
0
SEQEND
8
0
0
POLYLINE
8
0
66
1
40
0.050000
41
0.050000
0
VERTEX
8
0
10
0.466000
20
-0.132000
0
VERTEX
8
0
10
0.466000
20
-0.142000
0
SEQEND
8
0
0
POLYLINE
8
0
66
1
40
0.050000
41
0.050000
0
VERTEX
8
0
10
0.466000
20
0.087000
0
VERTEX
8
0
10
0.466000
20
-0.132000
0
SEQEND
8
0
0
POLYLINE
8
0
66
1
40
0.025000
41
0.025000
0
VERTEX
8
0
10
0.226000
20
-0.042000
0
VERTEX
8
0
10
0.201000
20
-0.072000
0
VERTEX
8
0
10
0.181000
20
-0.092000
0
VERTEX
8
0
10
0.181000
20
-0.217000
0
VERTEX
8
0
10
0.181000
20
-0.232000
0
VERTEX
8
0
10
0.221000
20
-0.272000
0
VERTEX
8
0
10
0.231000
20
-0.282000
0
VERTEX
8
0
10
0.231000
20
-0.322000
0
VERTEX
8
0
10
0.296000
20
-0.387000
0
VERTEX
8
0
10
0.296000
20
-0.482000
0
VERTEX
8
0
10
0.176000
20
-0.597000
0
VERTEX
8
0
10
0.176000
20
-0.617000
0
SEQEND
8
0
0
POLYLINE
8
0
66
1
40
0.025000
41
0.025000
0
VERTEX
8
0
10
0.296000
20
-0.482000
0
VERTEX
8
0
10
0.371000
20
-0.477000
0
VERTEX
8
0
10
0.396000
20
-0.482000
0
SEQEND
8
0
0
POLYLINE
8
0
66
1
40
0.050000
41
0.050000
0
VERTEX
8
0
10
0.076000
20
-0.617000
0
VERTEX
8
0
10
0.076000
20
-0.677000
0
VERTEX
8
0
10
0.076000
20
-0.682000
0
SEQEND
8
0
0
POLYLINE
8
0
66
1
40
0.050000
41
0.050000
0
VERTEX
8
0
10
-0.818000
20
-0.387000
0
VERTEX
8
0
10
-0.818000
20
-0.212000
0
VERTEX
8
0
10
-0.818000
20
-0.302000
0
SEQEND
8
0
0
POLYLINE
8
0
66
1
40
0.050000
41
0.050000
0
VERTEX
8
0
10
-0.818000
20
-0.317000
0
VERTEX
8
0
10
-0.818000
20
-0.302000
0
SEQEND
8
0
0
POLYLINE
8
0
66
1
40
0.050000
41
0.050000
0
VERTEX
8
0
10
-0.818000
20
0.067000
0
VERTEX
8
0
10
-0.818000
20
0.027000
0
VERTEX
8
0
10
-0.818000
20
0.022000
0
VERTEX
8
0
10
-0.818000
20
0.002000
0
VERTEX
8
0
10
-0.818000
20
-0.027000
0
SEQEND
8
0
0
POLYLINE
8
0
66
1
40
0.050000
41
0.050000
0
VERTEX
8
0
10
-0.818000
20
0.067000
0
VERTEX
8
0
10
-0.818000
20
0.247000
0
SEQEND
8
0
0
POLYLINE
8
0
66
1
40
0.015000
41
0.015000
0
VERTEX
8
0
10
-0.723000
20
-0.252000
0
VERTEX
8
0
10
-0.723000
20
-0.252000
0
SEQEND
8
0
0
POLYLINE
8
0
66
1
40
0.015000
41
0.015000
0
VERTEX
8
0
10
-0.623000
20
-0.317000
0
VERTEX
8
0
10
-0.623000
20
-0.382000
0
VERTEX
8
0
10
-0.618000
20
-0.387000
0
SEQEND
8
0
0
POLYLINE
8
0
66
1
40
0.015000
41
0.015000
0
VERTEX
8
0
10
-0.723000
20
-0.317000
0
VERTEX
8
0
10
-0.723000
20
-0.397000
0
VERTEX
8
0
10
-0.653000
20
-0.467000
0
VERTEX
8
0
10
-0.643000
20
-0.467000
0
VERTEX
8
0
10
-0.618000
20
-0.472000
0
SEQEND
8
0
0
POLYLINE
8
0
66
1
40
0.015000
41
0.015000
0
VERTEX
8
0
10
-0.818000
20
-0.532000
0
VERTEX
8
0
10
-0.823000
20
-0.532000
0
SEQEND
8
0
0
POLYLINE
8
0
66
1
40
0.050000
41
0.050000
0
VERTEX
8
0
10
-0.818000
20
-0.142000
0
VERTEX
8
0
10
-0.818000
20
-0.212000
0
VERTEX
8
0
10
-0.818000
20
-0.387000
0
SEQEND
8
0
0
POLYLINE
8
0
66
1
40
0.050000
41
0.050000
0
VERTEX
8
0
10
-0.818000
20
-0.532000
0
VERTEX
8
0
10
-0.818000
20
-0.317000
0
SEQEND
8
0
0
POLYLINE
8
0
66
1
40
0.050000
41
0.050000
0
VERTEX
8
0
10
-0.818000
20
-0.027000
0
VERTEX
8
0
10
-0.818000
20
-0.212000
0
VERTEX
8
0
10
-0.818000
20
-0.472000
0
VERTEX
8
0
10
-0.818000
20
-0.212000
0
VERTEX
8
0
10
-0.818000
20
-0.142000
0
SEQEND
8
0
0
POLYLINE
8
0
66
1
40
0.015000
41
0.015000
0
VERTEX
8
0
10
-0.323000
20
-0.172000
0
VERTEX
8
0
10
-0.328000
20
-0.197000
0
VERTEX
8
0
10
-0.328000
20
-0.222000
0
VERTEX
8
0
10
-0.323000
20
-0.242000
0
SEQEND
8
0
0
POLYLINE
8
0
66
1
40
0.015000
41
0.015000
0
VERTEX
8
0
10
-0.223000
20
-0.317000
0
VERTEX
8
0
10
-0.158000
20
-0.252000
0
VERTEX
8
0
10
-0.048000
20
-0.252000
0
VERTEX
8
0
10
-0.023000
20
-0.252000
0
SEQEND
8
0
0
POLYLINE
8
0
66
1
40
0.012000
41
0.012000
0
VERTEX
8
0
10
-0.323000
20
0.027000
0
VERTEX
8
0
10
-0.173000
20
0.027000
0
VERTEX
8
0
10
-0.123000
20
-0.022000
0
VERTEX
8
0
10
0.001000
20
-0.022000
0
VERTEX
8
0
10
0.046000
20
-0.067000
0
VERTEX
8
0
10
0.051000
20
-0.072000
0
VERTEX
8
0
10
0.051000
20
-0.252000
0
VERTEX
8
0
10
0.001000
20
-0.302000
0
VERTEX
8
0
10
-0.023000
20
-0.317000
0
SEQEND
8
0
0
POLYLINE
8
0
66
1
40
0.012000
41
0.012000
0
VERTEX
8
0
10
-0.673000
20
-0.212000
0
VERTEX
8
0
10
-0.673000
20
-0.397000
0
VERTEX
8
0
10
-0.638000
20
-0.432000
0
VERTEX
8
0
10
-0.573000
20
-0.432000
0
SEQEND
8
0
0
POLYLINE
8
0
66
1
40
0.012000
41
0.012000
0
VERTEX
8
0
10
-0.818000
20
-0.212000
0
VERTEX
8
0
10
-0.673000
20
-0.212000
0
VERTEX
8
0
10
-0.603000
20
-0.212000
0
VERTEX
8
0
10
-0.573000
20
-0.242000
0
VERTEX
8
0
10
-0.573000
20
-0.432000
0
VERTEX
8
0
10
-0.573000
20
-0.502000
0
VERTEX
8
0
10
-0.603000
20
-0.532000
0
VERTEX
8
0
10
-0.818000
20
-0.532000
0
SEQEND
8
0
0
POLYLINE
8
0
66
1
40
0.012000
41
0.012000
0
VERTEX
8
0
10
-0.723000
20
-0.172000
0
VERTEX
8
0
10
-0.583000
20
-0.172000
0
VERTEX
8
0
10
-0.482000
20
-0.277000
0
VERTEX
8
0
10
-0.483000
20
-0.377000
0
VERTEX
8
0
10
-0.518000
20
-0.412000
0
VERTEX
8
0
10
-0.518000
20
-0.502000
0
VERTEX
8
0
10
-0.583000
20
-0.567000
0
VERTEX
8
0
10
-0.678000
20
-0.567000
0
VERTEX
8
0
10
-0.703000
20
-0.592000
0
VERTEX
8
0
10
-0.723000
20
-0.617000
0
SEQEND
8
0
0
POLYLINE
8
0
66
1
40
0.012000
41
0.012000
0
VERTEX
8
0
10
-0.723000
20
-0.072000
0
VERTEX
8
0
10
-0.683000
20
-0.072000
0
VERTEX
8
0
10
-0.628000
20
-0.127000
0
VERTEX
8
0
10
-0.598000
20
-0.127000
0
VERTEX
8
0
10
-0.463000
20
-0.262000
0
VERTEX
8
0
10
-0.463000
20
-0.397000
0
VERTEX
8
0
10
-0.488000
20
-0.422000
0
VERTEX
8
0
10
-0.488000
20
-0.507000
0
VERTEX
8
0
10
-0.568000
20
-0.587000
0
VERTEX
8
0
10
-0.583000
20
-0.587000
0
VERTEX
8
0
10
-0.598000
20
-0.602000
0
VERTEX
8
0
10
-0.623000
20
-0.617000
0
SEQEND
8
0
0
POLYLINE
8
0
66
1
40
0.012000
41
0.012000
0
VERTEX
8
0
10
-0.723000
20
0.027000
0
VERTEX
8
0
10
-0.523000
20
-0.162000
0
VERTEX
8
0
10
-0.418000
20
-0.267000
0
VERTEX
8
0
10
-0.408000
20
-0.267000
0
VERTEX
8
0
10
-0.363000
20
-0.317000
0
VERTEX
8
0
10
-0.323000
20
-0.317000
0
SEQEND
8
0
0
POLYLINE
8
0
66
1
40
0.012000
41
0.012000
0
VERTEX
8
0
10
-0.323000
20
-0.072000
0
VERTEX
8
0
10
-0.173000
20
-0.072000
0
VERTEX
8
0
10
-0.123000
20
-0.122000
0
VERTEX
8
0
10
-0.008000
20
-0.122000
0
VERTEX
8
0
10
0.021000
20
-0.152000
0
VERTEX
8
0
10
0.021000
20
-0.192000
0
VERTEX
8
0
10
0.001000
20
-0.212000
0
VERTEX
8
0
10
-0.158000
20
-0.212000
0
VERTEX
8
0
10
-0.198000
20
-0.252000
0
VERTEX
8
0
10
-0.233000
20
-0.252000
0
VERTEX
8
0
10
-0.263000
20
-0.282000
0
VERTEX
8
0
10
-0.263000
20
-0.362000
0
VERTEX
8
0
10
-0.248000
20
-0.377000
0
VERTEX
8
0
10
-0.158000
20
-0.377000
0
VERTEX
8
0
10
-0.118000
20
-0.337000
0
VERTEX
8
0
10
-0.123000
20
-0.317000
0
SEQEND
8
0
0
POLYLINE
8
0
66
1
40
0.012000
41
0.012000
0
VERTEX
8
0
10
-0.723000
20
0.127000
0
VERTEX
8
0
10
-0.703000
20
0.102000
0
VERTEX
8
0
10
-0.478000
20
-0.122000
0
VERTEX
8
0
10
-0.478000
20
-0.177000
0
VERTEX
8
0
10
-0.418000
20
-0.237000
0
VERTEX
8
0
10
-0.388000
20
-0.237000
0
VERTEX
8
0
10
-0.345000
20
-0.280000
0
VERTEX
8
0
10
-0.300000
20
-0.280000
0
VERTEX
8
0
10
-0.283000
20
-0.297000
0
VERTEX
8
0
10
-0.283000
20
-0.357000
0
VERTEX
8
0
10
-0.383000
20
-0.457000
0
VERTEX
8
0
10
-0.383000
20
-0.572000
0
VERTEX
8
0
10
-0.403000
20
-0.592000
0
VERTEX
8
0
10
-0.423000
20
-0.617000
0
SEQEND
8
0
0
POLYLINE
8
0
66
1
40
0.025000
41
0.025000
0
VERTEX
8
0
10
0.151000
20
0.027000
0
VERTEX
8
0
10
0.176000
20
0.027000
0
VERTEX
8
0
10
0.256000
20
0.027000
0
VERTEX
8
0
10
0.306000
20
-0.022000
0
VERTEX
8
0
10
0.306000
20
-0.042000
0
SEQEND
8
0
0
POLYLINE
8
0
66
1
40
0.050000
41
0.050000
0
VERTEX
8
0
10
0.076000
20
-0.682000
0
VERTEX
8
0
10
-0.818000
20
-0.682000
0
VERTEX
8
0
10
-0.818000
20
-0.532000
0
SEQEND
8
0
0
POLYLINE
8
0
66
1
40
0.050000
41
0.050000
0
VERTEX
8
0
10
0.296000
20
-0.682000
0
VERTEX
8
0
10
0.076000
20
-0.682000
0
SEQEND
8
0
0
POLYLINE
8
0
66
1
40
0.050000
41
0.050000
0
VERTEX
8
0
10
0.466000
20
-0.682000
0
VERTEX
8
0
10
0.396000
20
-0.682000
0
SEQEND
8
0
0
POLYLINE
8
0
66
1
40
0.050000
41
0.050000
0
VERTEX
8
0
10
0.466000
20
-0.142000
0
VERTEX
8
0
10
0.466000
20
-0.682000
0
SEQEND
8
0
0
POLYLINE
8
0
66
1
40
0.050000
41
0.050000
0
VERTEX
8
0
10
0.396000
20
-0.682000
0
VERTEX
8
0
10
0.296000
20
-0.682000
0
SEQEND
8
0
0
INSERT
8
0
2
RPAD
10
0.176000
20
-0.317000
41
0.050000
42
0.050000
50
-180.000000
0
CIRCLE
8
0
10
0.176000
20
-0.317000
40
0.030000
0
INSERT
8
0
2
EPAD
10
0.076000
20
-0.317000
41
0.050000
42
0.050000
0
CIRCLE
8
0
10
0.076000
20
-0.317000
40
0.030000
0
INSERT
8
0
2
EPAD
10
-0.023000
20
-0.317000
41
0.050000
42
0.050000
0
CIRCLE
8
0
10
-0.023000
20
-0.317000
40
0.030000
0
INSERT
8
0
2
EPAD
10
-0.123000
20
-0.317000
41
0.050000
42
0.050000
0
CIRCLE
8
0
10
-0.123000
20
-0.317000
40
0.030000
0
INSERT
8
0
2
EPAD
10
-0.223000
20
-0.317000
41
0.050000
42
0.050000
0
CIRCLE
8
0
10
-0.223000
20
-0.317000
40
0.030000
0
INSERT
8
0
2
EPAD
10
-0.323000
20
-0.317000
41
0.050000
42
0.050000
0
CIRCLE
8
0
10
-0.323000
20
-0.317000
40
0.030000
0
INSERT
8
0
2
EPAD
10
-0.423000
20
-0.317000
41
0.050000
42
0.050000
0
CIRCLE
8
0
10
-0.423000
20
-0.317000
40
0.030000
0
INSERT
8
0
2
EPAD
10
-0.523000
20
-0.317000
41
0.050000
42
0.050000
0
CIRCLE
8
0
10
-0.523000
20
-0.317000
40
0.030000
0
INSERT
8
0
2
EPAD
10
-0.623000
20
-0.317000
41
0.050000
42
0.050000
0
CIRCLE
8
0
10
-0.623000
20
-0.317000
40
0.030000
0
INSERT
8
0
2
EPAD
10
-0.723000
20
-0.317000
41
0.050000
42
0.050000
0
CIRCLE
8
0
10
-0.723000
20
-0.317000
40
0.030000
0
INSERT
8
0
2
EPAD
10
-0.723000
20
-0.617000
41
0.050000
42
0.050000
0
CIRCLE
8
0
10
-0.723000
20
-0.617000
40
0.030000
0
INSERT
8
0
2
EPAD
10
-0.623000
20
-0.617000
41
0.050000
42
0.050000
0
CIRCLE
8
0
10
-0.623000
20
-0.617000
40
0.030000
0
INSERT
8
0
2
EPAD
10
-0.523000
20
-0.617000
41
0.050000
42
0.050000
0
CIRCLE
8
0
10
-0.523000
20
-0.617000
40
0.030000
0
INSERT
8
0
2
EPAD
10
-0.423000
20
-0.617000
41
0.050000
42
0.050000
0
CIRCLE
8
0
10
-0.423000
20
-0.617000
40
0.030000
0
INSERT
8
0
2
EPAD
10
-0.323000
20
-0.617000
41
0.050000
42
0.050000
0
CIRCLE
8
0
10
-0.323000
20
-0.617000
40
0.030000
0
INSERT
8
0
2
EPAD
10
-0.223000
20
-0.617000
41
0.050000
42
0.050000
0
CIRCLE
8
0
10
-0.223000
20
-0.617000
40
0.030000
0
INSERT
8
0
2
EPAD
10
-0.123000
20
-0.617000
41
0.050000
42
0.050000
0
CIRCLE
8
0
10
-0.123000
20
-0.617000
40
0.030000
0
INSERT
8
0
2
EPAD
10
-0.023000
20
-0.617000
41
0.050000
42
0.050000
0
CIRCLE
8
0
10
-0.023000
20
-0.617000
40
0.030000
0
INSERT
8
0
2
EPAD
10
0.076000
20
-0.617000
41
0.050000
42
0.050000
0
CIRCLE
8
0
10
0.076000
20
-0.617000
40
0.030000
0
INSERT
8
0
2
EPAD
10
0.176000
20
-0.617000
41
0.050000
42
0.050000
0
CIRCLE
8
0
10
0.176000
20
-0.617000
40
0.030000
0
INSERT
8
0
2
RPAD
10
-0.323000
20
0.627000
41
0.050000
42
0.050000
50
-90.000000
0
CIRCLE
8
0
10
-0.323000
20
0.627000
40
0.030000
0
INSERT
8
0
2
EPAD
10
-0.323000
20
0.527000
41
0.050000
42
0.050000
0
CIRCLE
8
0
10
-0.323000
20
0.527000
40
0.030000
0
INSERT
8
0
2
EPAD
10
-0.323000
20
0.427000
41
0.050000
42
0.050000
0
CIRCLE
8
0
10
-0.323000
20
0.427000
40
0.030000
0
INSERT
8
0
2
EPAD
10
-0.323000
20
0.327000
41
0.050000
42
0.050000
0
CIRCLE
8
0
10
-0.323000
20
0.327000
40
0.030000
0
INSERT
8
0
2
EPAD
10
-0.323000
20
0.227000
41
0.050000
42
0.050000
0
CIRCLE
8
0
10
-0.323000
20
0.227000
40
0.030000
0
INSERT
8
0
2
EPAD
10
-0.323000
20
0.127000
41
0.050000
42
0.050000
0
CIRCLE
8
0
10
-0.323000
20
0.127000
40
0.030000
0
INSERT
8
0
2
EPAD
10
-0.323000
20
0.027000
41
0.050000
42
0.050000
0
CIRCLE
8
0
10
-0.323000
20
0.027000
40
0.030000
0
INSERT
8
0
2
EPAD
10
-0.323000
20
-0.072000
41
0.050000
42
0.050000
0
CIRCLE
8
0
10
-0.323000
20
-0.072000
40
0.030000
0
INSERT
8
0
2
EPAD
10
-0.323000
20
-0.172000
41
0.050000
42
0.050000
0
CIRCLE
8
0
10
-0.323000
20
-0.172000
40
0.030000
0
INSERT
8
0
2
EPAD
10
-0.023000
20
-0.172000
41
0.050000
42
0.050000
0
CIRCLE
8
0
10
-0.023000
20
-0.172000
40
0.030000
0
INSERT
8
0
2
EPAD
10
-0.023000
20
-0.072000
41
0.050000
42
0.050000
0
CIRCLE
8
0
10
-0.023000
20
-0.072000
40
0.030000
0
INSERT
8
0
2
EPAD
10
-0.023000
20
0.027000
41
0.050000
42
0.050000
0
CIRCLE
8
0
10
-0.023000
20
0.027000
40
0.030000
0
INSERT
8
0
2
EPAD
10
-0.023000
20
0.127000
41
0.050000
42
0.050000
0
CIRCLE
8
0
10
-0.023000
20
0.127000
40
0.030000
0
INSERT
8
0
2
EPAD
10
-0.023000
20
0.227000
41
0.050000
42
0.050000
0
CIRCLE
8
0
10
-0.023000
20
0.227000
40
0.030000
0
INSERT
8
0
2
EPAD
10
-0.023000
20
0.327000
41
0.050000
42
0.050000
0
CIRCLE
8
0
10
-0.023000
20
0.327000
40
0.030000
0
INSERT
8
0
2
EPAD
10
-0.023000
20
0.427000
41
0.050000
42
0.050000
0
CIRCLE
8
0
10
-0.023000
20
0.427000
40
0.030000
0
INSERT
8
0
2
EPAD
10
-0.023000
20
0.527000
41
0.050000
42
0.050000
0
CIRCLE
8
0
10
-0.023000
20
0.527000
40
0.030000
0
INSERT
8
0
2
EPAD
10
-0.023000
20
0.627000
41
0.050000
42
0.050000
0
CIRCLE
8
0
10
-0.023000
20
0.627000
40
0.030000
0
INSERT
8
0
2
RPAD
10
-0.723000
20
0.627000
41
0.050000
42
0.050000
50
-90.000000
0
CIRCLE
8
0
10
-0.723000
20
0.627000
40
0.030000
0
INSERT
8
0
2
EPAD
10
-0.723000
20
0.527000
41
0.050000
42
0.050000
0
CIRCLE
8
0
10
-0.723000
20
0.527000
40
0.030000
0
INSERT
8
0
2
EPAD
10
-0.723000
20
0.427000
41
0.050000
42
0.050000
0
CIRCLE
8
0
10
-0.723000
20
0.427000
40
0.030000
0
INSERT
8
0
2
EPAD
10
-0.723000
20
0.327000
41
0.050000
42
0.050000
0
CIRCLE
8
0
10
-0.723000
20
0.327000
40
0.030000
0
INSERT
8
0
2
EPAD
10
-0.723000
20
0.227000
41
0.050000
42
0.050000
0
CIRCLE
8
0
10
-0.723000
20
0.227000
40
0.030000
0
INSERT
8
0
2
EPAD
10
-0.723000
20
0.127000
41
0.050000
42
0.050000
0
CIRCLE
8
0
10
-0.723000
20
0.127000
40
0.030000
0
INSERT
8
0
2
EPAD
10
-0.723000
20
0.027000
41
0.050000
42
0.050000
0
CIRCLE
8
0
10
-0.723000
20
0.027000
40
0.030000
0
INSERT
8
0
2
EPAD
10
-0.723000
20
-0.072000
41
0.050000
42
0.050000
0
CIRCLE
8
0
10
-0.723000
20
-0.072000
40
0.030000
0
INSERT
8
0
2
EPAD
10
-0.723000
20
-0.172000
41
0.050000
42
0.050000
0
CIRCLE
8
0
10
-0.723000
20
-0.172000
40
0.030000
0
INSERT
8
0
2
EPAD
10
-0.423000
20
-0.172000
41
0.050000
42
0.050000
0
CIRCLE
8
0
10
-0.423000
20
-0.172000
40
0.030000
0
INSERT
8
0
2
EPAD
10
-0.423000
20
-0.072000
41
0.050000
42
0.050000
0
CIRCLE
8
0
10
-0.423000
20
-0.072000
40
0.030000
0
INSERT
8
0
2
EPAD
10
-0.423000
20
0.027000
41
0.050000
42
0.050000
0
CIRCLE
8
0
10
-0.423000
20
0.027000
40
0.030000
0
INSERT
8
0
2
EPAD
10
-0.423000
20
0.127000
41
0.050000
42
0.050000
0
CIRCLE
8
0
10
-0.423000
20
0.127000
40
0.030000
0
INSERT
8
0
2
EPAD
10
-0.423000
20
0.227000
41
0.050000
42
0.050000
0
CIRCLE
8
0
10
-0.423000
20
0.227000
40
0.030000
0
INSERT
8
0
2
EPAD
10
-0.423000
20
0.327000
41
0.050000
42
0.050000
0
CIRCLE
8
0
10
-0.423000
20
0.327000
40
0.030000
0
INSERT
8
0
2
EPAD
10
-0.423000
20
0.427000
41
0.050000
42
0.050000
0
CIRCLE
8
0
10
-0.423000
20
0.427000
40
0.030000
0
INSERT
8
0
2
EPAD
10
-0.423000
20
0.527000
41
0.050000
42
0.050000
0
CIRCLE
8
0
10
-0.423000
20
0.527000
40
0.030000
0
INSERT
8
0
2
EPAD
10
-0.423000
20
0.627000
41
0.050000
42
0.050000
0
CIRCLE
8
0
10
-0.423000
20
0.627000
40
0.030000
0
POLYLINE
8
0
66
1
40
0.008000
41
0.008000
0
VERTEX
8
0
10
-0.873000
20
-0.777000
0
VERTEX
8
0
10
0.526000
20
-0.777000
0
VERTEX
8
0
10
0.526000
20
0.777000
0
VERTEX
8
0
10
-0.873000
20
0.777000
0
VERTEX
8
0
10
-0.873000
20
-0.777000
0
SEQEND
8
0
0
INSERT
8
0
2
EPAD
10
0.396000
20
-0.482000
41
0.050000
42
0.050000
0
CIRCLE
8
0
10
0.396000
20
-0.482000
40
0.025000
0
INSERT
8
0
2
EPAD
10
0.396000
20
-0.682000
41
0.050000
42
0.050000
0
CIRCLE
8
0
10
0.396000
20
-0.682000
40
0.025000
0
INSERT
8
0
2
EPAD
10
0.051000
20
0.302000
41
0.050000
42
0.050000
0
CIRCLE
8
0
10
0.051000
20
0.302000
40
0.010000
0
INSERT
8
0
2
EPAD
10
0.051000
20
0.102000
41
0.050000
42
0.050000
0
CIRCLE
8
0
10
0.051000
20
0.102000
40
0.010000
0
INSERT
8
0
2
EPAD
10
0.151000
20
0.227000
41
0.050000
42
0.050000
0
CIRCLE
8
0
10
0.151000
20
0.227000
40
0.010000
0
INSERT
8
0
2
EPAD
10
0.151000
20
0.027000
41
0.050000
42
0.050000
0
CIRCLE
8
0
10
0.151000
20
0.027000
40
0.010000
0
INSERT
8
0
2
EPAD
10
0.151000
20
0.327000
41
0.060000
42
0.060000
0
CIRCLE
8
0
10
0.151000
20
0.327000
40
0.025000
0
INSERT
8
0
2
EPAD
10
0.031000
20
0.727000
41
0.050000
42
0.050000
0
CIRCLE
8
0
10
0.031000
20
0.727000
40
0.010000
0
INSERT
8
0
2
EPAD
10
0.226000
20
-0.042000
41
0.060000
42
0.060000
0
CIRCLE
8
0
10
0.226000
20
-0.042000
40
0.025000
0
INSERT
8
0
2
EPAD
10
0.306000
20
-0.042000
41
0.060000
42
0.060000
0
CIRCLE
8
0
10
0.306000
20
-0.042000
40
0.025000
0
INSERT
8
0
2
EPAD
10
0.386000
20
-0.042000
41
0.060000
42
0.060000
0
CIRCLE
8
0
10
0.386000
20
-0.042000
40
0.025000
0
INSERT
8
0
2
EPAD
10
0.376000
20
0.502000
41
0.080000
42
0.080000
0
CIRCLE
8
0
10
0.376000
20
0.502000
40
0.025000
0
INSERT
8
0
2
EPAD
10
0.376000
20
0.102000
41
0.080000
42
0.080000
0
CIRCLE
8
0
10
0.376000
20
0.102000
40
0.025000
0
INSERT
8
0
2
EPAD
10
0.241000
20
0.507000
41
0.080000
42
0.080000
0
CIRCLE
8
0
10
0.241000
20
0.507000
40
0.025000
0
INSERT
8
0
2
EPAD
10
0.241000
20
0.107000
41
0.080000
42
0.080000
0
CIRCLE
8
0
10
0.241000
20
0.107000
40
0.025000
0
INSERT
8
0
2
RPAD
10
0.356000
20
0.612000
41
0.080000
42
0.080000
50
-180.000000
0
CIRCLE
8
0
10
0.356000
20
0.612000
40
0.025000
0
INSERT
8
0
2
RPAD
10
0.256000
20
0.612000
41
0.080000
42
0.080000
50
-180.000000
0
CIRCLE
8
0
10
0.256000
20
0.612000
40
0.025000
0
INSERT
8
0
2
EPAD
10
-0.723000
20
-0.252000
41
0.050000
42
0.050000
0
CIRCLE
8
0
10
-0.723000
20
-0.252000
40
0.025000
0
INSERT
8
0
2
EPAD
10
-0.623000
20
-0.252000
41
0.050000
42
0.050000
0
CIRCLE
8
0
10
-0.623000
20
-0.252000
40
0.025000
0
INSERT
8
0
2
EPAD
10
0.296000
20
-0.482000
41
0.050000
42
0.050000
0
CIRCLE
8
0
10
0.296000
20
-0.482000
40
0.010000
0
INSERT
8
0
2
EPAD
10
0.296000
20
-0.682000
41
0.050000
42
0.050000
0
CIRCLE
8
0
10
0.296000
20
-0.682000
40
0.010000
0
INSERT
8
0
2
EPAD
10
-0.618000
20
-0.387000
41
0.050000
42
0.050000
0
CIRCLE
8
0
10
-0.618000
20
-0.387000
40
0.010000
0
INSERT
8
0
2
EPAD
10
-0.818000
20
-0.387000
41
0.050000
42
0.050000
0
CIRCLE
8
0
10
-0.818000
20
-0.387000
40
0.010000
0
INSERT
8
0
2
EPAD
10
-0.618000
20
-0.472000
41
0.050000
42
0.050000
0
CIRCLE
8
0
10
-0.618000
20
-0.472000
40
0.010000
0
INSERT
8
0
2
EPAD
10
-0.818000
20
-0.472000
41
0.050000
42
0.050000
0
CIRCLE
8
0
10
-0.818000
20
-0.472000
40
0.010000
0
INSERT
8
0
2
EPAD
10
-0.323000
20
-0.242000
41
0.050000
42
0.050000
0
CIRCLE
8
0
10
-0.323000
20
-0.242000
40
0.025000
0
INSERT
8
0
2
EPAD
10
-0.023000
20
-0.252000
41
0.050000
42
0.050000
0
CIRCLE
8
0
10
-0.023000
20
-0.252000
40
0.025000
0
POLYLINE
8
0
66
1
40
0.008000
41
0.008000
0
VERTEX
8
0
10
0.226000
20
-0.367000
0
VERTEX
8
0
10
0.226000
20
-0.417000
0
SEQEND
8
0
0
POLYLINE
8
0
66
1
40
0.008000
41
0.008000
0
VERTEX
8
0
10
0.176000
20
-0.467000
0
VERTEX
8
0
10
0.177000
20
-0.477000
0
VERTEX
8
0
10
0.180000
20
-0.487000
0
VERTEX
8
0
10
0.184000
20
-0.495000
0
VERTEX
8
0
10
0.190000
20
-0.502000
0
VERTEX
8
0
10
0.197000
20
-0.509000
0
VERTEX
8
0
10
0.206000
20
-0.513000
0
VERTEX
8
0
10
0.216000
20
-0.516000
0
VERTEX
8
0
10
0.226000
20
-0.517000
0
SEQEND
8
0
0
POLYLINE
8
0
66
1
40
0.008000
41
0.008000
0
VERTEX
8
0
10
0.176000
20
-0.467000
0
VERTEX
8
0
10
0.177000
20
-0.457000
0
VERTEX
8
0
10
0.180000
20
-0.447000
0
VERTEX
8
0
10
0.190000
20
-0.431000
0
VERTEX
8
0
10
0.197000
20
-0.425000
0
VERTEX
8
0
10
0.206000
20
-0.421000
0
VERTEX
8
0
10
0.216000
20
-0.418000
0
VERTEX
8
0
10
0.226000
20
-0.417000
0
SEQEND
8
0
0
POLYLINE
8
0
66
1
40
0.008000
41
0.008000
0
VERTEX
8
0
10
0.226000
20
-0.517000
0
VERTEX
8
0
10
0.226000
20
-0.567000
0
SEQEND
8
0
0
POLYLINE
8
0
66
1
40
0.008000
41
0.008000
0
VERTEX
8
0
10
-0.773000
20
-0.367000
0
VERTEX
8
0
10
-0.773000
20
-0.567000
0
SEQEND
8
0
0
POLYLINE
8
0
66
1
40
0.008000
41
0.008000
0
VERTEX
8
0
10
0.226000
20
-0.367000
0
VERTEX
8
0
10
-0.773000
20
-0.367000
0
SEQEND
8
0
0
POLYLINE
8
0
66
1
40
0.008000
41
0.008000
0
VERTEX
8
0
10
0.226000
20
-0.567000
0
VERTEX
8
0
10
-0.773000
20
-0.567000
0
SEQEND
8
0
0
TEXT
8
12632256
10
0.126000
20
0.116000
40
0.032000
41
0.937500
1
C3
0
TEXT
8
12632256
10
0.136000
20
0.163000
40
0.048000
41
1.041667
1
+
0
TEXT
8
12632256
10
0.026000
20
0.181000
40
0.032000
41
0.937500
1
C4
0
TEXT
8
12632256
10
0.306000
20
0.236000
40
0.032000
41
0.937500
1
D2
0
TEXT
8
12632256
10
-0.192000
20
0.352000
40
0.048000
41
1.041667
50
-90.000000
1
16F88
0
TEXT
8
12632256
10
-0.552000
20
0.627000
40
0.048000
41
1.041667
50
-90.000000
1
Turned pin header
0
TEXT
8
12632256
10
-0.338000
20
-0.486000
40
0.048000
41
1.041667
1
24F16KA101
0
POLYLINE
8
0
66
1
40
0.008000
41
0.008000
0
VERTEX
8
0
10
-0.273000
20
0.677000
0
VERTEX
8
0
10
-0.223000
20
0.677000
0
SEQEND
8
0
0
POLYLINE
8
0
66
1
40
0.008000
41
0.008000
0
VERTEX
8
0
10
-0.173000
20
0.627000
0
VERTEX
8
0
10
-0.163000
20
0.628000
0
VERTEX
8
0
10
-0.153000
20
0.631000
0
VERTEX
8
0
10
-0.145000
20
0.635000
0
VERTEX
8
0
10
-0.138000
20
0.641000
0
VERTEX
8
0
10
-0.131000
20
0.649000
0
VERTEX
8
0
10
-0.127000
20
0.657000
0
VERTEX
8
0
10
-0.124000
20
0.667000
0
VERTEX
8
0
10
-0.123000
20
0.677000
0
SEQEND
8
0
0
POLYLINE
8
0
66
1
40
0.008000
41
0.008000
0
VERTEX
8
0
10
-0.173000
20
0.627000
0
VERTEX
8
0
10
-0.183000
20
0.628000
0
VERTEX
8
0
10
-0.193000
20
0.631000
0
VERTEX
8
0
10
-0.201000
20
0.635000
0
VERTEX
8
0
10
-0.209000
20
0.641000
0
VERTEX
8
0
10
-0.215000
20
0.649000
0
VERTEX
8
0
10
-0.219000
20
0.657000
0
VERTEX
8
0
10
-0.222000
20
0.667000
0
VERTEX
8
0
10
-0.223000
20
0.677000
0
SEQEND
8
0
0
POLYLINE
8
0
66
1
40
0.008000
41
0.008000
0
VERTEX
8
0
10
-0.123000
20
0.677000
0
VERTEX
8
0
10
-0.073000
20
0.677000
0
SEQEND
8
0
0
POLYLINE
8
0
66
1
40
0.008000
41
0.008000
0
VERTEX
8
0
10
-0.273000
20
-0.222000
0
VERTEX
8
0
10
-0.073000
20
-0.222000
0
SEQEND
8
0
0
POLYLINE
8
0
66
1
40
0.008000
41
0.008000
0
VERTEX
8
0
10
-0.273000
20
0.677000
0
VERTEX
8
0
10
-0.273000
20
-0.222000
0
SEQEND
8
0
0
POLYLINE
8
0
66
1
40
0.008000
41
0.008000
0
VERTEX
8
0
10
-0.073000
20
-0.222000
0
VERTEX
8
0
10
-0.073000
20
0.677000
0
SEQEND
8
0
0
POLYLINE
8
0
66
1
40
0.008000
41
0.008000
0
VERTEX
8
0
10
-0.673000
20
0.677000
0
VERTEX
8
0
10
-0.623000
20
0.677000
0
SEQEND
8
0
0
POLYLINE
8
0
66
1
40
0.008000
41
0.008000
0
VERTEX
8
0
10
-0.573000
20
0.627000
0
VERTEX
8
0
10
-0.563000
20
0.628000
0
VERTEX
8
0
10
-0.553000
20
0.631000
0
VERTEX
8
0
10
-0.545000
20
0.635000
0
VERTEX
8
0
10
-0.538000
20
0.641000
0
VERTEX
8
0
10
-0.531000
20
0.649000
0
VERTEX
8
0
10
-0.527000
20
0.657000
0
VERTEX
8
0
10
-0.524000
20
0.667000
0
VERTEX
8
0
10
-0.523000
20
0.677000
0
SEQEND
8
0
0
POLYLINE
8
0
66
1
40
0.008000
41
0.008000
0
VERTEX
8
0
10
-0.573000
20
0.627000
0
VERTEX
8
0
10
-0.583000
20
0.628000
0
VERTEX
8
0
10
-0.593000
20
0.631000
0
VERTEX
8
0
10
-0.601000
20
0.635000
0
VERTEX
8
0
10
-0.609000
20
0.641000
0
VERTEX
8
0
10
-0.615000
20
0.649000
0
VERTEX
8
0
10
-0.619000
20
0.657000
0
VERTEX
8
0
10
-0.622000
20
0.667000
0
VERTEX
8
0
10
-0.623000
20
0.677000
0
SEQEND
8
0
0
POLYLINE
8
0
66
1
40
0.008000
41
0.008000
0
VERTEX
8
0
10
-0.523000
20
0.677000
0
VERTEX
8
0
10
-0.473000
20
0.677000
0
SEQEND
8
0
0
POLYLINE
8
0
66
1
40
0.008000
41
0.008000
0
VERTEX
8
0
10
-0.673000
20
-0.222000
0
VERTEX
8
0
10
-0.473000
20
-0.222000
0
SEQEND
8
0
0
POLYLINE
8
0
66
1
40
0.008000
41
0.008000
0
VERTEX
8
0
10
-0.673000
20
0.677000
0
VERTEX
8
0
10
-0.673000
20
-0.222000
0
SEQEND
8
0
0
POLYLINE
8
0
66
1
40
0.008000
41
0.008000
0
VERTEX
8
0
10
-0.473000
20
-0.222000
0
VERTEX
8
0
10
-0.473000
20
0.677000
0
SEQEND
8
0
0
POLYLINE
8
0
66
1
40
0.008000
41
0.008000
0
VERTEX
8
0
10
0.396000
20
-0.432000
0
VERTEX
8
0
10
0.406000
20
-0.435000
0
VERTEX
8
0
10
0.416000
20
-0.443000
0
VERTEX
8
0
10
0.424000
20
-0.457000
0
VERTEX
8
0
10
0.432000
20
-0.475000
0
VERTEX
8
0
10
0.438000
20
-0.497000
0
VERTEX
8
0
10
0.442000
20
-0.523000
0
VERTEX
8
0
10
0.446000
20
-0.582000
0
SEQEND
8
0
0
POLYLINE
8
0
66
1
40
0.008000
41
0.008000
0
VERTEX
8
0
10
0.396000
20
-0.732000
0
VERTEX
8
0
10
0.406000
20
-0.729000
0
VERTEX
8
0
10
0.416000
20
-0.720000
0
VERTEX
8
0
10
0.424000
20
-0.707000
0
VERTEX
8
0
10
0.432000
20
-0.688000
0
VERTEX
8
0
10
0.438000
20
-0.666000
0
VERTEX
8
0
10
0.442000
20
-0.641000
0
VERTEX
8
0
10
0.446000
20
-0.582000
0
SEQEND
8
0
0
POLYLINE
8
0
66
1
40
0.008000
41
0.008000
0
VERTEX
8
0
10
0.396000
20
-0.732000
0
VERTEX
8
0
10
0.386000
20
-0.729000
0
VERTEX
8
0
10
0.376000
20
-0.720000
0
VERTEX
8
0
10
0.368000
20
-0.707000
0
VERTEX
8
0
10
0.360000
20
-0.688000
0
VERTEX
8
0
10
0.354000
20
-0.666000
0
VERTEX
8
0
10
0.350000
20
-0.641000
0
VERTEX
8
0
10
0.346000
20
-0.582000
0
SEQEND
8
0
0
POLYLINE
8
0
66
1
40
0.008000
41
0.008000
0
VERTEX
8
0
10
0.396000
20
-0.432000
0
VERTEX
8
0
10
0.386000
20
-0.435000
0
VERTEX
8
0
10
0.376000
20
-0.443000
0
VERTEX
8
0
10
0.368000
20
-0.457000
0
VERTEX
8
0
10
0.360000
20
-0.475000
0
VERTEX
8
0
10
0.354000
20
-0.497000
0
VERTEX
8
0
10
0.350000
20
-0.523000
0
VERTEX
8
0
10
0.346000
20
-0.582000
0
SEQEND
8
0
0
POLYLINE
8
0
66
1
40
0.008000
41
0.008000
0
VERTEX
8
0
10
0.051000
20
0.352000
0
VERTEX
8
0
10
0.061000
20
0.349000
0
VERTEX
8
0
10
0.071000
20
0.341000
0
VERTEX
8
0
10
0.079000
20
0.327000
0
VERTEX
8
0
10
0.086000
20
0.309000
0
VERTEX
8
0
10
0.093000
20
0.287000
0
VERTEX
8
0
10
0.097000
20
0.261000
0
VERTEX
8
0
10
0.100000
20
0.233000
0
VERTEX
8
0
10
0.101000
20
0.202000
0
SEQEND
8
0
0
POLYLINE
8
0
66
1
40
0.008000
41
0.008000
0
VERTEX
8
0
10
0.051000
20
0.052000
0
VERTEX
8
0
10
0.061000
20
0.055000
0
VERTEX
8
0
10
0.071000
20
0.064000
0
VERTEX
8
0
10
0.079000
20
0.077000
0
VERTEX
8
0
10
0.086000
20
0.096000
0
VERTEX
8
0
10
0.093000
20
0.118000
0
VERTEX
8
0
10
0.097000
20
0.143000
0
VERTEX
8
0
10
0.100000
20
0.171000
0
VERTEX
8
0
10
0.101000
20
0.202000
0
SEQEND
8
0
0
POLYLINE
8
0
66
1
40
0.008000
41
0.008000
0
VERTEX
8
0
10
0.051000
20
0.052000
0
VERTEX
8
0
10
0.041000
20
0.055000
0
VERTEX
8
0
10
0.031000
20
0.064000
0
VERTEX
8
0
10
0.023000
20
0.077000
0
VERTEX
8
0
10
0.016000
20
0.096000
0
VERTEX
8
0
10
0.009000
20
0.118000
0
VERTEX
8
0
10
0.005000
20
0.143000
0
VERTEX
8
0
10
0.002000
20
0.171000
0
VERTEX
8
0
10
0.001000
20
0.202000
0
SEQEND
8
0
0
POLYLINE
8
0
66
1
40
0.008000
41
0.008000
0
VERTEX
8
0
10
0.051000
20
0.352000
0
VERTEX
8
0
10
0.041000
20
0.349000
0
VERTEX
8
0
10
0.031000
20
0.341000
0
VERTEX
8
0
10
0.023000
20
0.327000
0
VERTEX
8
0
10
0.016000
20
0.309000
0
VERTEX
8
0
10
0.009000
20
0.287000
0
VERTEX
8
0
10
0.005000
20
0.261000
0
VERTEX
8
0
10
0.002000
20
0.233000
0
VERTEX
8
0
10
0.001000
20
0.202000
0
SEQEND
8
0
0
POLYLINE
8
0
66
1
40
0.008000
41
0.008000
0
VERTEX
8
0
10
0.151000
20
0.277000
0
VERTEX
8
0
10
0.161000
20
0.274000
0
VERTEX
8
0
10
0.171000
20
0.266000
0
VERTEX
8
0
10
0.179000
20
0.252000
0
VERTEX
8
0
10
0.186000
20
0.234000
0
VERTEX
8
0
10
0.193000
20
0.212000
0
VERTEX
8
0
10
0.197000
20
0.186000
0
VERTEX
8
0
10
0.200000
20
0.158000
0
VERTEX
8
0
10
0.201000
20
0.127000
0
SEQEND
8
0
0
POLYLINE
8
0
66
1
40
0.008000
41
0.008000
0
VERTEX
8
0
10
0.151000
20
-0.022000
0
VERTEX
8
0
10
0.161000
20
-0.019000
0
VERTEX
8
0
10
0.171000
20
-0.011000
0
VERTEX
8
0
10
0.179000
20
0.003000
0
VERTEX
8
0
10
0.186000
20
0.021000
0
VERTEX
8
0
10
0.193000
20
0.043000
0
VERTEX
8
0
10
0.197000
20
0.068000
0
VERTEX
8
0
10
0.200000
20
0.096000
0
VERTEX
8
0
10
0.201000
20
0.127000
0
SEQEND
8
0
0
POLYLINE
8
0
66
1
40
0.008000
41
0.008000
0
VERTEX
8
0
10
0.151000
20
-0.022000
0
VERTEX
8
0
10
0.141000
20
-0.019000
0
VERTEX
8
0
10
0.131000
20
-0.011000
0
VERTEX
8
0
10
0.123000
20
0.003000
0
VERTEX
8
0
10
0.116000
20
0.021000
0
VERTEX
8
0
10
0.109000
20
0.043000
0
VERTEX
8
0
10
0.105000
20
0.068000
0
VERTEX
8
0
10
0.102000
20
0.096000
0
VERTEX
8
0
10
0.101000
20
0.127000
0
SEQEND
8
0
0
POLYLINE
8
0
66
1
40
0.008000
41
0.008000
0
VERTEX
8
0
10
0.151000
20
0.277000
0
VERTEX
8
0
10
0.141000
20
0.274000
0
VERTEX
8
0
10
0.131000
20
0.266000
0
VERTEX
8
0
10
0.123000
20
0.252000
0
VERTEX
8
0
10
0.116000
20
0.234000
0
VERTEX
8
0
10
0.109000
20
0.212000
0
VERTEX
8
0
10
0.105000
20
0.186000
0
VERTEX
8
0
10
0.102000
20
0.158000
0
VERTEX
8
0
10
0.101000
20
0.127000
0
SEQEND
8
0
0
POLYLINE
8
0
66
1
40
0.008000
41
0.008000
0
VERTEX
8
0
10
0.066000
20
0.362000
0
VERTEX
8
0
10
0.141000
20
0.362000
0
VERTEX
8
0
10
0.141000
20
0.707000
0
VERTEX
8
0
10
0.066000
20
0.707000
0
VERTEX
8
0
10
0.066000
20
0.362000
0
SEQEND
8
0
0
TEXT
8
12632256
10
0.076000
20
0.308000
40
0.048000
41
1.041667
1
+
0
TEXT
8
12632256
10
0.090000
20
0.637000
40
0.032000
41
0.937500
50
-90.000000
1
Battery
0
TEXT
8
12632256
10
0.181000
20
0.241000
40
0.032000
41
0.937500
1
D1
0
TEXT
8
12632256
10
-0.763000
20
-0.488000
40
0.032000
41
0.937500
1
C2
0
TEXT
8
12632256
10
-0.758000
20
-0.403000
40
0.032000
41
0.937500
1
C1
0
TEXT
8
12632256
10
-0.808000
20
-0.688000
40
0.032000
41
0.937500
1
SuperTAT (C) Green and Gold Energy 2010
0
POLYLINE
8
0
66
1
40
0.008000
41
0.008000
0
VERTEX
8
0
10
-0.848000
20
-0.717000
0
VERTEX
8
0
10
0.501000
20
-0.717000
0
VERTEX
8
0
10
0.501000
20
0.762000
0
VERTEX
8
0
10
-0.848000
20
0.762000
0
VERTEX
8
0
10
-0.848000
20
-0.717000
0
SEQEND
8
0
0
POLYLINE
8
0
66
1
40
0.008000
41
0.008000
0
VERTEX
8
0
10
0.206000
20
-0.107000
0
VERTEX
8
0
10
0.406000
20
-0.107000
0
SEQEND
8
0
0
POLYLINE
8
0
66
1
40
0.008000
41
0.008000
0
VERTEX
8
0
10
0.176000
20
-0.042000
0
VERTEX
8
0
10
0.178000
20
-0.057000
0
VERTEX
8
0
10
0.184000
20
-0.073000
0
VERTEX
8
0
10
0.193000
20
-0.089000
0
VERTEX
8
0
10
0.206000
20
-0.107000
0
SEQEND
8
0
0
POLYLINE
8
0
66
1
40
0.008000
41
0.008000
0
VERTEX
8
0
10
0.176000
20
-0.042000
0
VERTEX
8
0
10
0.177000
20
-0.017000
0
VERTEX
8
0
10
0.184000
20
0.006000
0
VERTEX
8
0
10
0.195000
20
0.028000
0
VERTEX
8
0
10
0.211000
20
0.046000
0
VERTEX
8
0
10
0.230000
20
0.061000
0
VERTEX
8
0
10
0.253000
20
0.072000
0
VERTEX
8
0
10
0.278000
20
0.079000
0
VERTEX
8
0
10
0.306000
20
0.082000
0
SEQEND
8
0
0
POLYLINE
8
0
66
1
40
0.008000
41
0.008000
0
VERTEX
8
0
10
0.436000
20
-0.042000
0
VERTEX
8
0
10
0.434000
20
-0.057000
0
VERTEX
8
0
10
0.428000
20
-0.073000
0
VERTEX
8
0
10
0.419000
20
-0.089000
0
VERTEX
8
0
10
0.406000
20
-0.107000
0
SEQEND
8
0
0
POLYLINE
8
0
66
1
40
0.008000
41
0.008000
0
VERTEX
8
0
10
0.436000
20
-0.042000
0
VERTEX
8
0
10
0.435000
20
-0.017000
0
VERTEX
8
0
10
0.428000
20
0.006000
0
VERTEX
8
0
10
0.417000
20
0.028000
0
VERTEX
8
0
10
0.401000
20
0.046000
0
VERTEX
8
0
10
0.392000
20
0.054000
0
VERTEX
8
0
10
0.382000
20
0.061000
0
VERTEX
8
0
10
0.359000
20
0.072000
0
VERTEX
8
0
10
0.334000
20
0.079000
0
VERTEX
8
0
10
0.306000
20
0.082000
0
SEQEND
8
0
0
POLYLINE
8
0
66
1
40
0.008000
41
0.008000
0
VERTEX
8
0
10
0.426000
20
0.327000
0
VERTEX
8
0
10
0.326000
20
0.327000
0
SEQEND
8
0
0
POLYLINE
8
0
66
1
40
0.008000
41
0.008000
0
VERTEX
8
0
10
0.426000
20
0.327000
0
VERTEX
8
0
10
0.376000
20
0.277000
0
SEQEND
8
0
0
POLYLINE
8
0
66
1
40
0.008000
41
0.008000
0
VERTEX
8
0
10
0.326000
20
0.327000
0
VERTEX
8
0
10
0.376000
20
0.277000
0
SEQEND
8
0
0
POLYLINE
8
0
66
1
40
0.008000
41
0.008000
0
VERTEX
8
0
10
0.426000
20
0.277000
0
VERTEX
8
0
10
0.326000
20
0.277000
0
SEQEND
8
0
0
POLYLINE
8
0
66
1
40
0.008000
41
0.008000
0
VERTEX
8
0
10
0.376000
20
0.452000
0
VERTEX
8
0
10
0.376000
20
0.327000
0
SEQEND
8
0
0
POLYLINE
8
0
66
1
40
0.008000
41
0.008000
0
VERTEX
8
0
10
0.376000
20
0.277000
0
VERTEX
8
0
10
0.376000
20
0.152000
0
SEQEND
8
0
0
POLYLINE
8
0
66
1
40
0.008000
41
0.008000
0
VERTEX
8
0
10
0.291000
20
0.332000
0
VERTEX
8
0
10
0.191000
20
0.332000
0
SEQEND
8
0
0
POLYLINE
8
0
66
1
40
0.008000
41
0.008000
0
VERTEX
8
0
10
0.291000
20
0.332000
0
VERTEX
8
0
10
0.241000
20
0.282000
0
SEQEND
8
0
0
POLYLINE
8
0
66
1
40
0.008000
41
0.008000
0
VERTEX
8
0
10
0.191000
20
0.332000
0
VERTEX
8
0
10
0.241000
20
0.282000
0
SEQEND
8
0
0
POLYLINE
8
0
66
1
40
0.008000
41
0.008000
0
VERTEX
8
0
10
0.291000
20
0.282000
0
VERTEX
8
0
10
0.191000
20
0.282000
0
SEQEND
8
0
0
POLYLINE
8
0
66
1
40
0.008000
41
0.008000
0
VERTEX
8
0
10
0.241000
20
0.457000
0
VERTEX
8
0
10
0.241000
20
0.332000
0
SEQEND
8
0
0
POLYLINE
8
0
66
1
40
0.008000
41
0.008000
0
VERTEX
8
0
10
0.241000
20
0.282000
0
VERTEX
8
0
10
0.241000
20
0.157000
0
SEQEND
8
0
0
POLYLINE
8
0
66
1
40
0.008000
41
0.008000
0
VERTEX
8
0
10
0.206000
20
0.562000
0
VERTEX
8
0
10
0.406000
20
0.562000
0
VERTEX
8
0
10
0.406000
20
0.662000
0
VERTEX
8
0
10
0.206000
20
0.662000
0
VERTEX
8
0
10
0.206000
20
0.562000
0
SEQEND
8
0
0
POLYLINE
8
0
66
1
40
0.008000
41
0.008000
0
VERTEX
8
0
10
0.296000
20
-0.432000
0
VERTEX
8
0
10
0.306000
20
-0.435000
0
VERTEX
8
0
10
0.316000
20
-0.443000
0
VERTEX
8
0
10
0.324000
20
-0.457000
0
VERTEX
8
0
10
0.332000
20
-0.475000
0
VERTEX
8
0
10
0.338000
20
-0.497000
0
VERTEX
8
0
10
0.342000
20
-0.523000
0
VERTEX
8
0
10
0.346000
20
-0.582000
0
SEQEND
8
0
0
POLYLINE
8
0
66
1
40
0.008000
41
0.008000
0
VERTEX
8
0
10
0.296000
20
-0.732000
0
VERTEX
8
0
10
0.306000
20
-0.729000
0
VERTEX
8
0
10
0.316000
20
-0.720000
0
VERTEX
8
0
10
0.324000
20
-0.707000
0
VERTEX
8
0
10
0.332000
20
-0.688000
0
VERTEX
8
0
10
0.338000
20
-0.666000
0
VERTEX
8
0
10
0.342000
20
-0.641000
0
VERTEX
8
0
10
0.346000
20
-0.582000
0
SEQEND
8
0
0
POLYLINE
8
0
66
1
40
0.008000
41
0.008000
0
VERTEX
8
0
10
0.296000
20
-0.732000
0
VERTEX
8
0
10
0.286000
20
-0.729000
0
VERTEX
8
0
10
0.276000
20
-0.720000
0
VERTEX
8
0
10
0.268000
20
-0.707000
0
VERTEX
8
0
10
0.260000
20
-0.688000
0
VERTEX
8
0
10
0.254000
20
-0.666000
0
VERTEX
8
0
10
0.250000
20
-0.641000
0
VERTEX
8
0
10
0.246000
20
-0.582000
0
SEQEND
8
0
0
POLYLINE
8
0
66
1
40
0.008000
41
0.008000
0
VERTEX
8
0
10
0.296000
20
-0.432000
0
VERTEX
8
0
10
0.286000
20
-0.435000
0
VERTEX
8
0
10
0.276000
20
-0.443000
0
VERTEX
8
0
10
0.268000
20
-0.457000
0
VERTEX
8
0
10
0.260000
20
-0.475000
0
VERTEX
8
0
10
0.254000
20
-0.497000
0
VERTEX
8
0
10
0.250000
20
-0.523000
0
VERTEX
8
0
10
0.246000
20
-0.582000
0
SEQEND
8
0
0
POLYLINE
8
0
66
1
40
0.008000
41
0.008000
0
VERTEX
8
0
10
-0.568000
20
-0.387000
0
VERTEX
8
0
10
-0.571000
20
-0.397000
0
VERTEX
8
0
10
-0.579000
20
-0.407000
0
VERTEX
8
0
10
-0.593000
20
-0.415000
0
VERTEX
8
0
10
-0.611000
20
-0.422000
0
VERTEX
8
0
10
-0.633000
20
-0.429000
0
VERTEX
8
0
10
-0.659000
20
-0.433000
0
VERTEX
8
0
10
-0.687000
20
-0.436000
0
VERTEX
8
0
10
-0.718000
20
-0.437000
0
SEQEND
8
0
0
POLYLINE
8
0
66
1
40
0.008000
41
0.008000
0
VERTEX
8
0
10
-0.868000
20
-0.387000
0
VERTEX
8
0
10
-0.865000
20
-0.397000
0
VERTEX
8
0
10
-0.856000
20
-0.407000
0
VERTEX
8
0
10
-0.843000
20
-0.415000
0
VERTEX
8
0
10
-0.824000
20
-0.422000
0
VERTEX
8
0
10
-0.802000
20
-0.429000
0
VERTEX
8
0
10
-0.777000
20
-0.433000
0
VERTEX
8
0
10
-0.749000
20
-0.436000
0
VERTEX
8
0
10
-0.718000
20
-0.437000
0
SEQEND
8
0
0
POLYLINE
8
0
66
1
40
0.008000
41
0.008000
0
VERTEX
8
0
10
-0.868000
20
-0.387000
0
VERTEX
8
0
10
-0.865000
20
-0.377000
0
VERTEX
8
0
10
-0.856000
20
-0.367000
0
VERTEX
8
0
10
-0.843000
20
-0.359000
0
VERTEX
8
0
10
-0.824000
20
-0.352000
0
VERTEX
8
0
10
-0.802000
20
-0.345000
0
VERTEX
8
0
10
-0.777000
20
-0.341000
0
VERTEX
8
0
10
-0.749000
20
-0.338000
0
VERTEX
8
0
10
-0.718000
20
-0.337000
0
SEQEND
8
0
0
POLYLINE
8
0
66
1
40
0.008000
41
0.008000
0
VERTEX
8
0
10
-0.568000
20
-0.387000
0
VERTEX
8
0
10
-0.571000
20
-0.377000
0
VERTEX
8
0
10
-0.579000
20
-0.367000
0
VERTEX
8
0
10
-0.593000
20
-0.359000
0
VERTEX
8
0
10
-0.611000
20
-0.352000
0
VERTEX
8
0
10
-0.633000
20
-0.345000
0
VERTEX
8
0
10
-0.659000
20
-0.341000
0
VERTEX
8
0
10
-0.687000
20
-0.338000
0
VERTEX
8
0
10
-0.718000
20
-0.337000
0
SEQEND
8
0
0
POLYLINE
8
0
66
1
40
0.008000
41
0.008000
0
VERTEX
8
0
10
-0.568000
20
-0.472000
0
VERTEX
8
0
10
-0.571000
20
-0.482000
0
VERTEX
8
0
10
-0.579000
20
-0.492000
0
VERTEX
8
0
10
-0.593000
20
-0.500000
0
VERTEX
8
0
10
-0.611000
20
-0.508000
0
VERTEX
8
0
10
-0.633000
20
-0.514000
0
VERTEX
8
0
10
-0.659000
20
-0.518000
0
VERTEX
8
0
10
-0.718000
20
-0.522000
0
SEQEND
8
0
0
POLYLINE
8
0
66
1
40
0.008000
41
0.008000
0
VERTEX
8
0
10
-0.868000
20
-0.472000
0
VERTEX
8
0
10
-0.865000
20
-0.482000
0
VERTEX
8
0
10
-0.856000
20
-0.492000
0
VERTEX
8
0
10
-0.843000
20
-0.500000
0
VERTEX
8
0
10
-0.824000
20
-0.508000
0
VERTEX
8
0
10
-0.802000
20
-0.514000
0
VERTEX
8
0
10
-0.777000
20
-0.518000
0
VERTEX
8
0
10
-0.718000
20
-0.522000
0
SEQEND
8
0
0
POLYLINE
8
0
66
1
40
0.008000
41
0.008000
0
VERTEX
8
0
10
-0.868000
20
-0.472000
0
VERTEX
8
0
10
-0.865000
20
-0.462000
0
VERTEX
8
0
10
-0.856000
20
-0.452000
0
VERTEX
8
0
10
-0.843000
20
-0.444000
0
VERTEX
8
0
10
-0.824000
20
-0.436000
0
VERTEX
8
0
10
-0.802000
20
-0.430000
0
VERTEX
8
0
10
-0.777000
20
-0.426000
0
VERTEX
8
0
10
-0.718000
20
-0.422000
0
SEQEND
8
0
0
POLYLINE
8
0
66
1
40
0.008000
41
0.008000
0
VERTEX
8
0
10
-0.568000
20
-0.472000
0
VERTEX
8
0
10
-0.571000
20
-0.462000
0
VERTEX
8
0
10
-0.579000
20
-0.452000
0
VERTEX
8
0
10
-0.593000
20
-0.444000
0
VERTEX
8
0
10
-0.611000
20
-0.436000
0
VERTEX
8
0
10
-0.633000
20
-0.430000
0
VERTEX
8
0
10
-0.659000
20
-0.426000
0
VERTEX
8
0
10
-0.718000
20
-0.422000
0
SEQEND
8
0
0
TEXT
8
12632256
10
0.386000
20
-0.538000
40
0.032000
41
0.937500
1
+
0
TEXT
8
12632256
10
0.271000
20
-0.588000
40
0.032000
41
0.937500
1
C5
0
TEXT
8
12632256
10
0.371000
20
-0.588000
40
0.032000
41
0.937500
1
C6
0
POLYLINE
8
0
66
1
40
0.008000
41
0.008000
0
VERTEX
8
0
10
-0.768000
20
-0.287000
0
VERTEX
8
0
10
-0.583000
20
-0.287000
0
VERTEX
8
0
10
-0.583000
20
-0.212000
0
VERTEX
8
0
10
-0.768000
20
-0.212000
0
VERTEX
8
0
10
-0.768000
20
-0.287000
0
SEQEND
8
0
0
TEXT
8
12632256
10
-0.573000
20
-0.273000
40
0.032000
41
0.937500
1
Xtal
0
TEXT
8
12632256
10
-0.619000
20
0.542000
40
0.032000
41
0.937500
50
-90.000000
1
Install on copper side
0
POLYLINE
8
0
66
1
40
0.008000
41
0.008000
0
VERTEX
8
0
10
-0.278000
20
-0.267000
0
VERTEX
8
0
10
-0.073000
20
-0.267000
0
VERTEX
8
0
10
-0.073000
20
-0.232000
0
VERTEX
8
0
10
-0.278000
20
-0.232000
0
VERTEX
8
0
10
-0.278000
20
-0.267000
0
SEQEND
8
0
0
POLYLINE
8
0
66
1
40
0.008000
41
0.008000
0
VERTEX
8
0
10
-0.278000
20
-0.247000
0
VERTEX
8
0
10
-0.298000
20
-0.247000
0
SEQEND
8
0
0
POLYLINE
8
0
66
1
40
0.008000
41
0.008000
0
VERTEX
8
0
10
-0.073000
20
-0.252000
0
VERTEX
8
0
10
-0.038000
20
-0.252000
0
SEQEND
8
0
0
TEXT
8
12632256
10
-0.203000
20
-0.263000
40
0.032000
41
0.937500
1
R1
0
TEXT
8
12632256
10
-0.753000
20
-0.558000
40
0.032000
41
0.937500
1
Caps on copper side
0
ENDSEC
0
EOF

