*
G04 Gerber written by LinkCAD 5.8.2 Build 4535*
G04 Layer: SuperTAT_Silk_Copper_ottom_20100827a.gbr*
%FSLAX36Y36*%
%MOIN*%
%ADD10C,0.001600*%
%ADD11C,0.002400*%
%ADD12C,0.050000*%
%ADD13C,0.060000*%
%ADD14C,0.080000*%
%ADD15C,0.015000*%
%ADD16C,0.010000*%
%ADD17C,0.025000*%
%ADD18C,0.012000*%
%ADD19C,0.008000*%
%ADD20C,0.020000*%
G36*
G54D10*
X201000Y-292000D02*
G01Y-342000D01*
X151000D01*
Y-292000D01*
X201000D01*
G37*
G54D12*
X76000Y-317000D03*
X-23000D03*
X-123000D03*
X-223000D03*
X-323000D03*
X-423000D03*
X-523000D03*
X-623000D03*
X-723000D03*
Y-617000D03*
X-623000D03*
X-523000D03*
X-423000D03*
X-323000D03*
X-223000D03*
X-123000D03*
X-23000D03*
X76000D03*
X176000D03*
G36*
X-348000Y652000D02*
X-298000D01*
Y602000D01*
X-348000D01*
Y652000D01*
G37*
X-323000Y527000D03*
Y427000D03*
Y327000D03*
Y227000D03*
Y127000D03*
Y27000D03*
Y-72000D03*
Y-172000D03*
X-23000D03*
Y-72000D03*
Y27000D03*
Y127000D03*
Y227000D03*
Y327000D03*
Y427000D03*
Y527000D03*
Y627000D03*
G36*
X-748000Y652000D02*
X-698000D01*
Y602000D01*
X-748000D01*
Y652000D01*
G37*
X-723000Y527000D03*
Y427000D03*
Y327000D03*
Y227000D03*
Y127000D03*
Y27000D03*
Y-72000D03*
Y-172000D03*
X-423000D03*
Y-72000D03*
Y27000D03*
Y127000D03*
Y227000D03*
Y327000D03*
Y427000D03*
Y527000D03*
Y627000D03*
X396000Y-482000D03*
Y-682000D03*
X51000Y302000D03*
Y102000D03*
X151000Y227000D03*
Y27000D03*
G54D13*
Y327000D03*
G54D12*
X31000Y727000D03*
G54D13*
X226000Y-42000D03*
X306000D03*
X386000D03*
G54D14*
X376000Y502000D03*
Y102000D03*
X241000Y507000D03*
Y107000D03*
G36*
X396000Y652000D02*
Y572000D01*
X316000D01*
Y652000D01*
X396000D01*
G37*
G36*
X296000D02*
Y572000D01*
X216000D01*
Y652000D01*
X296000D01*
G37*
G54D12*
X-723000Y-252000D03*
X-623000D03*
X296000Y-482000D03*
Y-682000D03*
X-618000Y-387000D03*
X-818000D03*
X-618000Y-472000D03*
X-818000D03*
X-323000Y-242000D03*
X-23000Y-252000D03*
G54D15*
X-723000Y627000D02*
X-623000D01*
X-573000Y577000D01*
X-398000D01*
X-348000Y627000D01*
X-323000D01*
X-423000Y27000D02*
X-398000Y52000D01*
X-373000D01*
X-348000Y77000D01*
X-173000D01*
X-123000Y27000D01*
X-23000D01*
X-423000Y-72000D02*
X-398000Y-47000D01*
X-373000D01*
X-348000Y-22000D01*
X-173000D01*
X-123000Y-72000D01*
X-23000D01*
X-423000Y-172000D02*
X-398000Y-147000D01*
X-373000D01*
X-348000Y-122000D01*
X-173000D01*
X-123000Y-172000D01*
X-23000D01*
Y627000D02*
X-148000D01*
X-195000Y675000D01*
G54D16*
X-198000Y677000D01*
X-373000D01*
X-375000Y675000D01*
G54D15*
X-423000Y627000D01*
G54D17*
X-323000Y227000D02*
X-173000D01*
X-123000Y177000D01*
X1000D01*
X51000Y127000D01*
Y102000D01*
G54D15*
X-423000Y127000D02*
X-398000D01*
X-348000Y177000D01*
X-173000D01*
X-123000Y127000D01*
X-23000D01*
G54D17*
X-323000Y227000D02*
X-348000D01*
X-398000Y177000D01*
X-573000D01*
X-623000Y227000D01*
X-723000D01*
G54D15*
X-323000Y327000D02*
X-353000D01*
X-398000Y277000D01*
X-573000D01*
X-623000Y327000D01*
X-723000D01*
X-423000D02*
X-398000D01*
X-348000Y377000D01*
X-173000D01*
X-123000Y327000D01*
X-23000D01*
X-323000Y427000D02*
X-348000D01*
X-398000Y377000D01*
X-573000D01*
X-623000Y427000D01*
X-723000D01*
X-323000Y527000D02*
X-348000D01*
X-398000Y477000D01*
X-573000D01*
X-623000Y527000D01*
X-723000D01*
X-423000D02*
X-418000Y532000D01*
X-398000Y527000D01*
X-348000Y577000D01*
X-173000D01*
X-123000Y527000D01*
X-23000D01*
X-423000Y427000D02*
X-398000D01*
X-348000Y477000D01*
X-173000D01*
X-123000Y427000D01*
X-23000D01*
G54D17*
X-423000Y227000D02*
X-398000Y232000D01*
X-353000Y277000D01*
X-158000D01*
X-108000Y227000D01*
X-23000D01*
X1000D01*
X51000D01*
X151000D01*
X11000Y237000D02*
X41000Y267000D01*
X51000Y302000D01*
X61000Y267000D01*
X96000Y232000D01*
X51000Y302000D02*
X83000Y267000D01*
X116000Y234000D01*
X151000Y227000D01*
X51000Y302000D02*
X20000Y267000D01*
X1000Y249000D01*
X-23000Y227000D01*
X21000Y242000D02*
X51000D01*
X84000D01*
X51000Y302000D02*
Y242000D01*
Y227000D01*
G54D12*
X151000Y727000D02*
X61000D01*
G54D17*
X466000Y182000D02*
X471000D01*
G54D12*
X-723000Y227000D02*
X-813000D01*
X31000Y727000D02*
X-813000D01*
Y227000D01*
X61000Y727000D02*
X56000D01*
X51000D01*
X31000D01*
X466000Y182000D02*
Y177000D01*
Y87000D02*
X471000D01*
X391000Y727000D02*
X401000D01*
X466000D01*
Y652000D01*
Y547000D01*
X376000Y727000D02*
X391000D01*
X466000Y547000D02*
Y312000D01*
Y182000D01*
X151000Y727000D02*
X191000D01*
X376000D01*
X466000Y177000D02*
Y152000D01*
Y87000D01*
X51000Y102000D02*
X126000Y27000D01*
X151000D01*
G54D17*
Y327000D02*
Y572000D01*
X191000Y612000D01*
X216000D01*
X256000D01*
X376000Y502000D02*
X356000Y517000D01*
Y572000D01*
Y612000D01*
X241000Y107000D02*
X336000D01*
X376000Y102000D01*
Y62000D01*
Y-2000D01*
Y-12000D01*
X386000Y-42000D01*
X151000Y227000D02*
X176000D01*
X186000D01*
X236000Y277000D01*
Y467000D01*
X241000Y507000D01*
G54D18*
X-323000Y-317000D02*
X-433000Y-402000D01*
Y-507000D01*
X-508000Y-582000D01*
X-523000Y-617000D01*
G54D15*
X-723000Y-252000D02*
Y-257000D01*
Y-317000D01*
X-623000Y-252000D02*
Y-282000D01*
Y-317000D01*
G54D12*
X461000Y-137000D02*
Y-142000D01*
X306000Y-42000D02*
X301000Y-72000D01*
X341000Y-112000D01*
X371000Y-142000D01*
X461000D01*
X466000D01*
Y-132000D02*
Y-142000D01*
Y87000D02*
Y-132000D01*
G54D17*
X226000Y-42000D02*
X201000Y-72000D01*
X181000Y-92000D01*
Y-217000D01*
Y-232000D01*
X221000Y-272000D01*
X231000Y-282000D01*
Y-322000D01*
X296000Y-387000D01*
Y-482000D01*
X176000Y-597000D01*
Y-617000D01*
X296000Y-482000D02*
X371000Y-477000D01*
X396000Y-482000D01*
G54D12*
X76000Y-617000D02*
Y-677000D01*
Y-682000D01*
X-818000Y-387000D02*
Y-212000D01*
Y-302000D01*
Y-317000D02*
Y-302000D01*
Y67000D02*
Y27000D01*
Y22000D01*
Y2000D01*
Y-27000D01*
Y67000D02*
Y247000D01*
G54D15*
X-623000Y-317000D02*
Y-382000D01*
X-618000Y-387000D01*
X-723000Y-317000D02*
Y-397000D01*
X-653000Y-467000D01*
X-643000D01*
X-618000Y-472000D01*
X-818000Y-532000D02*
X-823000D01*
G54D12*
X-818000Y-142000D02*
Y-212000D01*
Y-387000D01*
Y-532000D02*
Y-317000D01*
Y-27000D02*
Y-212000D01*
Y-472000D01*
Y-212000D01*
Y-142000D01*
G54D15*
X-323000Y-172000D02*
X-328000Y-197000D01*
Y-222000D01*
X-323000Y-242000D01*
X-223000Y-317000D02*
X-158000Y-252000D01*
X-48000D01*
X-23000D01*
G54D18*
X-323000Y27000D02*
X-173000D01*
X-123000Y-22000D01*
X1000D01*
X46000Y-67000D01*
X51000Y-72000D01*
Y-252000D01*
X1000Y-302000D01*
X-23000Y-317000D01*
X-673000Y-212000D02*
Y-397000D01*
X-638000Y-432000D01*
X-573000D01*
X-818000Y-212000D02*
X-673000D01*
X-603000D01*
X-573000Y-242000D01*
Y-432000D01*
Y-502000D01*
X-603000Y-532000D01*
X-818000D01*
X-723000Y-172000D02*
X-583000D01*
X-482000Y-277000D01*
X-483000Y-377000D01*
X-518000Y-412000D01*
Y-502000D01*
X-583000Y-567000D01*
X-678000D01*
X-703000Y-592000D01*
X-723000Y-617000D01*
Y-72000D02*
X-683000D01*
X-628000Y-127000D01*
X-598000D01*
X-463000Y-262000D01*
Y-397000D01*
X-488000Y-422000D01*
Y-507000D01*
X-568000Y-587000D01*
X-583000D01*
X-598000Y-602000D01*
X-623000Y-617000D01*
X-723000Y27000D02*
X-523000Y-162000D01*
X-418000Y-267000D01*
X-408000D01*
X-363000Y-317000D01*
X-323000D01*
Y-72000D02*
X-173000D01*
X-123000Y-122000D01*
X-8000D01*
X21000Y-152000D01*
Y-192000D01*
X1000Y-212000D01*
X-158000D01*
X-198000Y-252000D01*
X-233000D01*
X-263000Y-282000D01*
Y-362000D01*
X-248000Y-377000D01*
X-158000D01*
X-118000Y-337000D01*
X-123000Y-317000D01*
X-723000Y127000D02*
X-703000Y102000D01*
X-478000Y-122000D01*
Y-177000D01*
X-418000Y-237000D01*
X-388000D01*
X-345000Y-280000D01*
X-300000D01*
X-283000Y-297000D01*
Y-357000D01*
X-383000Y-457000D01*
Y-572000D01*
X-403000Y-592000D01*
X-423000Y-617000D01*
G54D17*
X151000Y27000D02*
X176000D01*
X256000D01*
X306000Y-22000D01*
Y-42000D01*
G54D12*
X76000Y-682000D02*
X-818000D01*
Y-532000D01*
X296000Y-682000D02*
X76000D01*
X466000D02*
X396000D01*
X466000Y-142000D02*
Y-682000D01*
X396000D02*
X296000D01*
G54D19*
X-873000Y-777000D02*
X526000D01*
Y777000D01*
X-873000D01*
Y-777000D01*
X226000Y-367000D02*
Y-417000D01*
X176000Y-467000D02*
X177000Y-477000D01*
X180000Y-487000D01*
X184000Y-495000D01*
X190000Y-502000D01*
X197000Y-509000D01*
X206000Y-513000D01*
X216000Y-516000D01*
X226000Y-517000D01*
X176000Y-467000D02*
X177000Y-457000D01*
X180000Y-447000D01*
X190000Y-431000D01*
X197000Y-425000D01*
X206000Y-421000D01*
X216000Y-418000D01*
X226000Y-417000D01*
Y-517000D02*
Y-567000D01*
X-773000Y-367000D02*
Y-567000D01*
X226000Y-367000D02*
X-773000D01*
X226000Y-567000D02*
X-773000D01*
X-273000Y677000D02*
X-223000D01*
X-173000Y627000D02*
X-163000Y628000D01*
X-153000Y631000D01*
X-145000Y635000D01*
X-138000Y641000D01*
X-131000Y649000D01*
X-127000Y657000D01*
X-124000Y667000D01*
X-123000Y677000D01*
X-173000Y627000D02*
X-183000Y628000D01*
X-193000Y631000D01*
X-201000Y635000D01*
X-209000Y641000D01*
X-215000Y649000D01*
X-219000Y657000D01*
X-222000Y667000D01*
X-223000Y677000D01*
X-123000D02*
X-73000D01*
X-273000Y-222000D02*
X-73000D01*
X-273000Y677000D02*
Y-222000D01*
X-73000D02*
Y677000D01*
X-673000D02*
X-623000D01*
X-573000Y627000D02*
X-563000Y628000D01*
X-553000Y631000D01*
X-545000Y635000D01*
X-538000Y641000D01*
X-531000Y649000D01*
X-527000Y657000D01*
X-524000Y667000D01*
X-523000Y677000D01*
X-573000Y627000D02*
X-583000Y628000D01*
X-593000Y631000D01*
X-601000Y635000D01*
X-609000Y641000D01*
X-615000Y649000D01*
X-619000Y657000D01*
X-622000Y667000D01*
X-623000Y677000D01*
X-523000D02*
X-473000D01*
X-673000Y-222000D02*
X-473000D01*
X-673000Y677000D02*
Y-222000D01*
X-473000D02*
Y677000D01*
X396000Y-432000D02*
X406000Y-435000D01*
X416000Y-443000D01*
X424000Y-457000D01*
X432000Y-475000D01*
X438000Y-497000D01*
X442000Y-523000D01*
X446000Y-582000D01*
X396000Y-732000D02*
X406000Y-729000D01*
X416000Y-720000D01*
X424000Y-707000D01*
X432000Y-688000D01*
X438000Y-666000D01*
X442000Y-641000D01*
X446000Y-582000D01*
X396000Y-732000D02*
X386000Y-729000D01*
X376000Y-720000D01*
X368000Y-707000D01*
X360000Y-688000D01*
X354000Y-666000D01*
X350000Y-641000D01*
X346000Y-582000D01*
X396000Y-432000D02*
X386000Y-435000D01*
X376000Y-443000D01*
X368000Y-457000D01*
X360000Y-475000D01*
X354000Y-497000D01*
X350000Y-523000D01*
X346000Y-582000D01*
X51000Y352000D02*
X61000Y349000D01*
X71000Y341000D01*
X79000Y327000D01*
X86000Y309000D01*
X93000Y287000D01*
X97000Y261000D01*
X100000Y233000D01*
X101000Y202000D01*
X51000Y52000D02*
X61000Y55000D01*
X71000Y64000D01*
X79000Y77000D01*
X86000Y96000D01*
X93000Y118000D01*
X97000Y143000D01*
X100000Y171000D01*
X101000Y202000D01*
X51000Y52000D02*
X41000Y55000D01*
X31000Y64000D01*
X23000Y77000D01*
X16000Y96000D01*
X9000Y118000D01*
X5000Y143000D01*
X2000Y171000D01*
X1000Y202000D01*
X51000Y352000D02*
X41000Y349000D01*
X31000Y341000D01*
X23000Y327000D01*
X16000Y309000D01*
X9000Y287000D01*
X5000Y261000D01*
X2000Y233000D01*
X1000Y202000D01*
X151000Y277000D02*
X161000Y274000D01*
X171000Y266000D01*
X179000Y252000D01*
X186000Y234000D01*
X193000Y212000D01*
X197000Y186000D01*
X200000Y158000D01*
X201000Y127000D01*
X151000Y-22000D02*
X161000Y-19000D01*
X171000Y-11000D01*
X179000Y3000D01*
X186000Y21000D01*
X193000Y43000D01*
X197000Y68000D01*
X200000Y96000D01*
X201000Y127000D01*
X151000Y-22000D02*
X141000Y-19000D01*
X131000Y-11000D01*
X123000Y3000D01*
X116000Y21000D01*
X109000Y43000D01*
X105000Y68000D01*
X102000Y96000D01*
X101000Y127000D01*
X151000Y277000D02*
X141000Y274000D01*
X131000Y266000D01*
X123000Y252000D01*
X116000Y234000D01*
X109000Y212000D01*
X105000Y186000D01*
X102000Y158000D01*
X101000Y127000D01*
X66000Y362000D02*
X141000D01*
Y707000D01*
X66000D01*
Y362000D01*
X-848000Y-717000D02*
X501000D01*
Y762000D01*
X-848000D01*
Y-717000D01*
X206000Y-107000D02*
X406000D01*
X176000Y-42000D02*
X178000Y-57000D01*
X184000Y-73000D01*
X193000Y-89000D01*
X206000Y-107000D01*
X176000Y-42000D02*
X177000Y-17000D01*
X184000Y6000D01*
X195000Y28000D01*
X211000Y46000D01*
X230000Y61000D01*
X253000Y72000D01*
X278000Y79000D01*
X306000Y82000D01*
X436000Y-42000D02*
X434000Y-57000D01*
X428000Y-73000D01*
X419000Y-89000D01*
X406000Y-107000D01*
X436000Y-42000D02*
X435000Y-17000D01*
X428000Y6000D01*
X417000Y28000D01*
X401000Y46000D01*
X392000Y54000D01*
X382000Y61000D01*
X359000Y72000D01*
X334000Y79000D01*
X306000Y82000D01*
X426000Y327000D02*
X326000D01*
X426000D02*
X376000Y277000D01*
X326000Y327000D02*
X376000Y277000D01*
X426000D02*
X326000D01*
X376000Y452000D02*
Y327000D01*
Y277000D02*
Y152000D01*
X291000Y332000D02*
X191000D01*
X291000D02*
X241000Y282000D01*
X191000Y332000D02*
X241000Y282000D01*
X291000D02*
X191000D01*
X241000Y457000D02*
Y332000D01*
Y282000D02*
Y157000D01*
X206000Y562000D02*
X406000D01*
Y662000D01*
X206000D01*
Y562000D01*
X296000Y-432000D02*
X306000Y-435000D01*
X316000Y-443000D01*
X324000Y-457000D01*
X332000Y-475000D01*
X338000Y-497000D01*
X342000Y-523000D01*
X346000Y-582000D01*
X296000Y-732000D02*
X306000Y-729000D01*
X316000Y-720000D01*
X324000Y-707000D01*
X332000Y-688000D01*
X338000Y-666000D01*
X342000Y-641000D01*
X346000Y-582000D01*
X296000Y-732000D02*
X286000Y-729000D01*
X276000Y-720000D01*
X268000Y-707000D01*
X260000Y-688000D01*
X254000Y-666000D01*
X250000Y-641000D01*
X246000Y-582000D01*
X296000Y-432000D02*
X286000Y-435000D01*
X276000Y-443000D01*
X268000Y-457000D01*
X260000Y-475000D01*
X254000Y-497000D01*
X250000Y-523000D01*
X246000Y-582000D01*
X-568000Y-387000D02*
X-571000Y-397000D01*
X-579000Y-407000D01*
X-593000Y-415000D01*
X-611000Y-422000D01*
X-633000Y-429000D01*
X-659000Y-433000D01*
X-687000Y-436000D01*
X-718000Y-437000D01*
X-868000Y-387000D02*
X-865000Y-397000D01*
X-856000Y-407000D01*
X-843000Y-415000D01*
X-824000Y-422000D01*
X-802000Y-429000D01*
X-777000Y-433000D01*
X-749000Y-436000D01*
X-718000Y-437000D01*
X-868000Y-387000D02*
X-865000Y-377000D01*
X-856000Y-367000D01*
X-843000Y-359000D01*
X-824000Y-352000D01*
X-802000Y-345000D01*
X-777000Y-341000D01*
X-749000Y-338000D01*
X-718000Y-337000D01*
X-568000Y-387000D02*
X-571000Y-377000D01*
X-579000Y-367000D01*
X-593000Y-359000D01*
X-611000Y-352000D01*
X-633000Y-345000D01*
X-659000Y-341000D01*
X-687000Y-338000D01*
X-718000Y-337000D01*
X-568000Y-472000D02*
X-571000Y-482000D01*
X-579000Y-492000D01*
X-593000Y-500000D01*
X-611000Y-508000D01*
X-633000Y-514000D01*
X-659000Y-518000D01*
X-718000Y-522000D01*
X-868000Y-472000D02*
X-865000Y-482000D01*
X-856000Y-492000D01*
X-843000Y-500000D01*
X-824000Y-508000D01*
X-802000Y-514000D01*
X-777000Y-518000D01*
X-718000Y-522000D01*
X-868000Y-472000D02*
X-865000Y-462000D01*
X-856000Y-452000D01*
X-843000Y-444000D01*
X-824000Y-436000D01*
X-802000Y-430000D01*
X-777000Y-426000D01*
X-718000Y-422000D01*
X-568000Y-472000D02*
X-571000Y-462000D01*
X-579000Y-452000D01*
X-593000Y-444000D01*
X-611000Y-436000D01*
X-633000Y-430000D01*
X-659000Y-426000D01*
X-718000Y-422000D01*
X-768000Y-287000D02*
X-583000D01*
Y-212000D01*
X-768000D01*
Y-287000D01*
X-278000Y-267000D02*
X-73000D01*
Y-232000D01*
X-278000D01*
Y-267000D01*
Y-247000D02*
X-298000D01*
X-73000Y-252000D02*
X-38000D01*
G54D13*
X176000Y-317000D03*
X76000D03*
X-23000D03*
X-123000D03*
X-223000D03*
X-323000D03*
X-423000D03*
X-523000D03*
X-623000D03*
X-723000D03*
Y-617000D03*
X-623000D03*
X-523000D03*
X-423000D03*
X-323000D03*
X-223000D03*
X-123000D03*
X-23000D03*
X76000D03*
X176000D03*
X-323000Y627000D03*
Y527000D03*
Y427000D03*
Y327000D03*
Y227000D03*
Y127000D03*
Y27000D03*
Y-72000D03*
Y-172000D03*
X-23000D03*
Y-72000D03*
Y27000D03*
Y127000D03*
Y227000D03*
Y327000D03*
Y427000D03*
Y527000D03*
Y627000D03*
X-723000D03*
Y527000D03*
Y427000D03*
Y327000D03*
Y227000D03*
Y127000D03*
Y27000D03*
Y-72000D03*
Y-172000D03*
X-423000D03*
Y-72000D03*
Y27000D03*
Y127000D03*
Y227000D03*
Y327000D03*
Y427000D03*
Y527000D03*
Y627000D03*
G54D12*
X396000Y-482000D03*
Y-682000D03*
G54D20*
X51000Y302000D03*
Y102000D03*
X151000Y227000D03*
Y27000D03*
G54D12*
Y327000D03*
G54D20*
X31000Y727000D03*
G54D12*
X226000Y-42000D03*
X306000D03*
X386000D03*
X376000Y502000D03*
Y102000D03*
X241000Y507000D03*
Y107000D03*
X356000Y612000D03*
X256000D03*
X-723000Y-252000D03*
X-623000D03*
G54D20*
X296000Y-482000D03*
Y-682000D03*
X-618000Y-387000D03*
X-818000D03*
X-618000Y-472000D03*
X-818000D03*
G54D12*
X-323000Y-242000D03*
X-23000Y-252000D03*
M02*
