*
G04 Gerber written by LinkCAD 5.8.2 Build 4535*
G04 Layer: 12632256.gbr*
%FSLAX36Y36*%
%MOIN*%
%ADD10C,0.050000*%
%ADD11C,0.060000*%
%ADD12C,0.070000*%
%ADD13C,0.015000*%
%ADD14C,0.010000*%
%ADD15C,0.020000*%
%ADD16C,0.025000*%
%ADD17C,0.030000*%
%ADD18C,0.012000*%
%ADD19C,0.008000*%
%ADD20C,0.001600*%
%ADD21C,0.002400*%
G54D20*
X146000Y161333D02*
G01X141000Y156000D01*
X131000D01*
X126000Y161333D01*
Y182667D01*
X131000Y188000D01*
X141000D01*
X146000Y182667D01*
X156000D02*
X161000Y188000D01*
X171000D01*
X176000Y182667D01*
Y177333D01*
X171000Y172000D01*
X166000D01*
X171000D02*
X176000Y166667D01*
Y161333D01*
X171000Y156000D01*
X161000D01*
X156000Y161333D01*
G54D21*
X152667Y211000D02*
Y243000D01*
X169333Y227000D02*
X136000D01*
G54D20*
X46000Y226333D02*
X41000Y221000D01*
X31000D01*
X26000Y226333D01*
Y247667D01*
X31000Y253000D01*
X41000D01*
X46000Y247667D01*
X76000Y231667D02*
X56000D01*
X71000Y253000D01*
Y221000D01*
X396000Y-412667D02*
X391000Y-418000D01*
X381000D01*
X376000Y-412667D01*
Y-391333D01*
X381000Y-386000D01*
X391000D01*
X396000Y-391333D01*
X406000Y-412667D02*
X411000Y-418000D01*
X421000D01*
X426000Y-412667D01*
Y-402000D01*
X421000Y-396667D01*
X406000D01*
Y-386000D01*
X426000D01*
X396000Y-662667D02*
X391000Y-668000D01*
X381000D01*
X376000Y-662667D01*
Y-641333D01*
X381000Y-636000D01*
X391000D01*
X396000Y-641333D01*
X406000Y-652000D02*
X421000D01*
X426000Y-657333D01*
Y-662667D01*
X421000Y-668000D01*
X411000D01*
X406000Y-662667D01*
Y-646667D01*
X416000Y-636000D01*
X421000D01*
G54D21*
X397667Y-463000D02*
Y-431000D01*
X414333Y-447000D02*
X381000D01*
G54D20*
X246000Y441000D02*
X261000D01*
X266000Y446333D01*
Y467667D01*
X261000Y473000D01*
X246000D01*
X251000D02*
Y441000D01*
X276000Y467667D02*
X281000Y473000D01*
X291000D01*
X296000Y467667D01*
Y462333D01*
X291000Y457000D01*
X281000D01*
X276000Y451667D01*
Y441000D01*
X296000D01*
G54D21*
X-152000Y392000D02*
X-144000Y383667D01*
X-192000D01*
Y392000D02*
Y375333D01*
X-168000Y358667D02*
Y333667D01*
X-176000Y325333D01*
X-184000D01*
X-192000Y333667D01*
Y350333D01*
X-184000Y358667D01*
X-160000D01*
X-144000Y342000D01*
Y333667D01*
X-192000Y308667D02*
X-144000D01*
Y275333D01*
X-168000Y308667D02*
Y292000D01*
X-192000Y250333D02*
X-184000Y258667D01*
X-176000D01*
X-168000Y250333D01*
Y233667D01*
X-160000Y225333D01*
X-152000D01*
X-144000Y233667D01*
Y250333D01*
X-152000Y258667D01*
X-160000D01*
X-168000Y250333D01*
Y233667D02*
X-176000Y225333D01*
X-184000D01*
X-192000Y233667D01*
Y250333D01*
Y200333D02*
X-184000Y208667D01*
X-176000D01*
X-168000Y200333D01*
Y183667D01*
X-160000Y175333D01*
X-152000D01*
X-144000Y183667D01*
Y200333D01*
X-152000Y208667D01*
X-160000D01*
X-168000Y200333D01*
Y183667D02*
X-176000Y175333D01*
X-184000D01*
X-192000Y183667D01*
Y200333D01*
X-544000Y667000D02*
Y633667D01*
Y650333D02*
X-592000D01*
X-560000Y617000D02*
X-584000D01*
X-592000Y608667D01*
Y600333D01*
X-576000Y583667D01*
X-560000D02*
X-592000D01*
Y567000D02*
X-560000D01*
X-576000D02*
X-560000Y550333D01*
Y542000D01*
X-568000Y533667D01*
X-592000Y517000D02*
X-560000D01*
X-576000D02*
X-560000Y500333D01*
Y492000D01*
X-568000Y483667D01*
X-592000D01*
X-576000Y467000D02*
Y442000D01*
X-568000Y433667D01*
X-560000Y442000D01*
Y458667D01*
X-568000Y467000D01*
X-584000D01*
X-592000Y458667D01*
Y442000D01*
X-576000Y383667D02*
X-592000Y400333D01*
Y408667D01*
X-584000Y417000D01*
X-568000D01*
X-560000Y408667D01*
Y400333D01*
X-576000Y383667D01*
X-544000D02*
X-592000D01*
X-608000Y317000D02*
X-560000D01*
X-568000D02*
X-560000Y308667D01*
Y292000D01*
X-568000Y283667D01*
X-584000D01*
X-592000Y292000D01*
Y317000D01*
Y267000D02*
X-560000D01*
X-552000D02*
X-544000D01*
X-592000Y250333D02*
X-560000D01*
X-576000D02*
X-560000Y233667D01*
Y225333D01*
X-568000Y217000D01*
X-592000D01*
Y150333D02*
X-544000D01*
X-576000D02*
X-560000Y133666D01*
Y125333D01*
X-568000Y117000D01*
X-592000D01*
X-576000Y100333D02*
Y75333D01*
X-568000Y67000D01*
X-560000Y75333D01*
Y92000D01*
X-568000Y100333D01*
X-584000D01*
X-592000Y92000D01*
Y75333D01*
Y33666D02*
Y42000D01*
X-584000Y50333D01*
X-568000D01*
X-560000Y42000D01*
Y33666D01*
X-568000Y25333D01*
X-584000D01*
X-592000Y33666D01*
X-584000Y25333D02*
X-592000Y17000D01*
X-576000Y-33000D02*
X-592000Y-16334D01*
Y-8000D01*
X-584000Y333D01*
X-568000D01*
X-560000Y-8000D01*
Y-16334D01*
X-576000Y-33000D01*
X-544000D02*
X-592000D01*
X-576000Y-49667D02*
Y-74667D01*
X-568000Y-83000D01*
X-560000Y-74667D01*
Y-58000D01*
X-568000Y-49667D01*
X-584000D01*
X-592000Y-58000D01*
Y-74667D01*
Y-99667D02*
X-560000D01*
X-576000D02*
X-560000Y-116334D01*
Y-124667D01*
X-568000Y-133000D01*
X-523000Y-536000D02*
X-514667Y-528000D01*
X-498000D01*
X-489667Y-536000D01*
Y-544000D01*
X-498000Y-552000D01*
X-514667D01*
X-523000Y-560000D01*
Y-576000D01*
X-489667D01*
X-439667Y-560000D02*
X-473000D01*
X-448000Y-528000D01*
Y-576000D01*
X-423000D02*
Y-528000D01*
X-389667D01*
X-423000Y-552000D02*
X-406333D01*
X-373000Y-536000D02*
X-364667Y-528000D01*
Y-576000D01*
X-373000D02*
X-356333D01*
X-339667Y-552000D02*
X-314667D01*
X-306333Y-560000D01*
Y-568000D01*
X-314667Y-576000D01*
X-331333D01*
X-339667Y-568000D01*
Y-544000D01*
X-323000Y-528000D01*
X-314667D01*
X-289667Y-576000D02*
Y-528000D01*
X-256333D02*
X-281333Y-552000D01*
X-289667D01*
X-281333D02*
X-256333Y-576000D01*
X-239667D02*
Y-560000D01*
X-223000Y-528000D01*
X-206333Y-560000D01*
Y-576000D01*
X-239667Y-560000D02*
X-206333D01*
X-189667Y-536000D02*
X-181333Y-528000D01*
Y-576000D01*
X-189667D02*
X-173000D01*
X-148000D02*
X-156333Y-568000D01*
Y-536000D01*
X-148000Y-528000D01*
X-139667D01*
X-131333Y-536000D01*
Y-568000D01*
X-139667Y-576000D01*
X-148000D01*
X-114667Y-536000D02*
X-106333Y-528000D01*
Y-576000D01*
X-114667D02*
X-98000D01*
X92667Y356000D02*
Y388000D01*
X109333Y372000D02*
X76000D01*
G54D20*
X75000Y662000D02*
Y647000D01*
X80333Y642000D01*
X85667D01*
X91000Y647000D01*
Y657000D01*
Y647000D02*
X96333Y642000D01*
X101667D01*
X107000Y647000D01*
Y662000D01*
Y657000D02*
X75000D01*
Y622000D02*
Y627000D01*
X80333Y632000D01*
X91000D01*
X96333Y627000D01*
Y622000D01*
X91000Y617000D01*
X80333D01*
X75000Y622000D01*
X80333Y617000D02*
X75000Y612000D01*
X96333Y602000D02*
Y582000D01*
X107000Y592000D02*
X80333D01*
X75000Y587000D01*
X80333Y582000D01*
X96333Y572000D02*
Y552000D01*
X107000Y562000D02*
X80333D01*
X75000Y557000D01*
X80333Y552000D01*
X85667Y542000D02*
Y527000D01*
X91000Y522000D01*
X96333Y527000D01*
Y537000D01*
X91000Y542000D01*
X80333D01*
X75000Y537000D01*
Y527000D01*
Y512000D02*
X96333D01*
X85667D02*
X96333Y502000D01*
Y497000D01*
X91000Y492000D01*
X96333Y482000D02*
X75000Y472000D01*
X96333Y462000D02*
X64333Y477000D01*
Y482000D01*
X181000Y281000D02*
X196000D01*
X201000Y286333D01*
Y307667D01*
X196000Y313000D01*
X181000D01*
X186000D02*
Y281000D01*
X211000Y307667D02*
X216000Y313000D01*
Y281000D01*
X211000D02*
X221000D01*
X-644000Y-232000D02*
X-612000Y-252000D01*
Y-232000D02*
X-644000Y-252000D01*
X-622667Y-262000D02*
Y-282000D01*
X-612000Y-272000D02*
X-638667D01*
X-644000Y-277000D01*
X-638667Y-282000D01*
X-644000Y-302000D02*
Y-297000D01*
X-638667Y-292000D01*
X-628000D01*
X-622667Y-297000D01*
Y-302000D01*
X-628000Y-307000D01*
X-638667D01*
X-644000Y-302000D01*
X-638667Y-307000D02*
X-644000Y-312000D01*
X-612000Y-322000D02*
X-638667D01*
X-644000Y-327000D01*
X-828000Y-422667D02*
X-833000Y-428000D01*
X-843000D01*
X-848000Y-422667D01*
Y-401333D01*
X-843000Y-396000D01*
X-833000D01*
X-828000Y-401333D01*
X-813000Y-428000D02*
X-818000Y-422667D01*
Y-417333D01*
X-813000Y-412000D01*
X-803000D01*
X-798000Y-406667D01*
Y-401333D01*
X-803000Y-396000D01*
X-813000D01*
X-818000Y-401333D01*
Y-406667D01*
X-813000Y-412000D01*
X-803000D02*
X-798000Y-417333D01*
Y-422667D01*
X-803000Y-428000D01*
X-813000D01*
X-828000Y-147667D02*
X-833000Y-153000D01*
X-843000D01*
X-848000Y-147667D01*
Y-126333D01*
X-843000Y-121000D01*
X-833000D01*
X-828000Y-126333D01*
X-818000Y-121000D02*
X-798000D01*
X-813000Y-153000D01*
X-838000Y-787667D02*
X-833000Y-793000D01*
X-823000D01*
X-818000Y-787667D01*
X-838000Y-766333D01*
X-833000Y-761000D01*
X-823000D01*
X-818000Y-766333D01*
X-808000Y-771667D02*
Y-787667D01*
X-803000Y-793000D01*
X-798000D01*
X-788000Y-782333D01*
Y-771667D02*
Y-793000D01*
X-778000Y-803667D02*
Y-771667D01*
Y-777000D02*
X-773000Y-771667D01*
X-763000D01*
X-758000Y-777000D01*
Y-787667D01*
X-763000Y-793000D01*
X-778000D01*
X-748000Y-782333D02*
X-733000D01*
X-728000Y-777000D01*
X-733000Y-771667D01*
X-743000D01*
X-748000Y-777000D01*
Y-787667D01*
X-743000Y-793000D01*
X-733000D01*
X-718000D02*
Y-771667D01*
Y-782333D02*
X-708000Y-771667D01*
X-703000D01*
X-698000Y-777000D01*
X-688000Y-761000D02*
X-668000D01*
X-678000D02*
Y-793000D01*
X-658000D02*
Y-782333D01*
X-648000Y-761000D01*
X-638000Y-782333D01*
Y-793000D01*
X-658000Y-782333D02*
X-638000D01*
X-628000Y-761000D02*
X-608000D01*
X-618000D02*
Y-793000D01*
X-558000Y-761000D02*
X-568000Y-771667D01*
Y-782333D01*
X-558000Y-793000D01*
X-528000Y-787667D02*
X-533000Y-793000D01*
X-543000D01*
X-548000Y-787667D01*
Y-766333D01*
X-543000Y-761000D01*
X-533000D01*
X-528000Y-766333D01*
X-518000Y-761000D02*
X-508000Y-771667D01*
Y-782333D01*
X-518000Y-793000D01*
X-453000Y-777000D02*
X-448000D01*
Y-793000D01*
X-463000D01*
X-468000Y-787667D01*
Y-766333D01*
X-463000Y-761000D01*
X-448000D01*
X-438000Y-793000D02*
Y-771667D01*
Y-782333D02*
X-428000Y-771667D01*
X-423000D01*
X-418000Y-777000D01*
X-408000Y-782333D02*
X-393000D01*
X-388000Y-777000D01*
X-393000Y-771667D01*
X-403000D01*
X-408000Y-777000D01*
Y-787667D01*
X-403000Y-793000D01*
X-393000D01*
X-378000Y-782333D02*
X-363000D01*
X-358000Y-777000D01*
X-363000Y-771667D01*
X-373000D01*
X-378000Y-777000D01*
Y-787667D01*
X-373000Y-793000D01*
X-363000D01*
X-348000D02*
Y-771667D01*
Y-782333D02*
X-338000Y-771667D01*
X-333000D01*
X-328000Y-777000D01*
Y-793000D01*
X-278000D02*
X-283000D01*
X-288000Y-787667D01*
Y-777000D01*
X-283000Y-771667D01*
X-278000D01*
X-273000Y-777000D01*
Y-787667D01*
X-278000Y-793000D01*
X-273000Y-787667D02*
X-268000Y-793000D01*
X-258000D02*
Y-771667D01*
Y-782333D02*
X-248000Y-771667D01*
X-243000D01*
X-238000Y-777000D01*
Y-793000D01*
X-208000Y-782333D02*
X-218000Y-793000D01*
X-223000D01*
X-228000Y-787667D01*
Y-777000D01*
X-223000Y-771667D01*
X-218000D01*
X-208000Y-782333D01*
Y-761000D02*
Y-793000D01*
X-153000Y-777000D02*
X-148000D01*
Y-793000D01*
X-163000D01*
X-168000Y-787667D01*
Y-766333D01*
X-163000Y-761000D01*
X-148000D01*
X-123000Y-793000D02*
X-133000D01*
X-138000Y-787667D01*
Y-777000D01*
X-133000Y-771667D01*
X-123000D01*
X-118000Y-777000D01*
Y-787667D01*
X-123000Y-793000D01*
X-108000Y-761000D02*
Y-787667D01*
X-103000Y-793000D01*
X-73000Y-782333D02*
X-83000Y-793000D01*
X-88000D01*
X-93000Y-787667D01*
Y-777000D01*
X-88000Y-771667D01*
X-83000D01*
X-73000Y-782333D01*
Y-761000D02*
Y-793000D01*
X-33000D02*
Y-761000D01*
X-13000D01*
X-33000Y-777000D02*
X-23000D01*
X-33000Y-793000D02*
X-13000D01*
X-3000D02*
Y-771667D01*
Y-782333D02*
X7000Y-771667D01*
X12000D01*
X17000Y-777000D01*
Y-793000D01*
X27000Y-782333D02*
X42000D01*
X47000Y-777000D01*
X42000Y-771667D01*
X32000D01*
X27000Y-777000D01*
Y-787667D01*
X32000Y-793000D01*
X42000D01*
X57000D02*
Y-771667D01*
Y-782333D02*
X67000Y-771667D01*
X72000D01*
X77000Y-777000D01*
X87000Y-798333D02*
X92000Y-803667D01*
X102000D01*
X107000Y-798333D01*
Y-777000D01*
X102000Y-771667D01*
X92000D01*
X87000Y-777000D01*
Y-787667D01*
X92000Y-793000D01*
X107000D01*
X117000Y-771667D02*
X127000Y-793000D01*
X137000Y-771667D02*
X122000Y-803667D01*
X117000D01*
X177000Y-766333D02*
X182000Y-761000D01*
X192000D01*
X197000Y-766333D01*
Y-771667D01*
X192000Y-777000D01*
X182000D01*
X177000Y-782333D01*
Y-793000D01*
X197000D01*
X212000D02*
X207000Y-787667D01*
Y-766333D01*
X212000Y-761000D01*
X217000D01*
X222000Y-766333D01*
Y-787667D01*
X217000Y-793000D01*
X212000D01*
X232000Y-766333D02*
X237000Y-761000D01*
Y-793000D01*
X232000D02*
X242000D01*
X257000D02*
X252000Y-787667D01*
Y-766333D01*
X257000Y-761000D01*
X262000D01*
X267000Y-766333D01*
Y-787667D01*
X262000Y-793000D01*
X257000D01*
M02*
