*
G04 Gerber written by LinkCAD 5.8.2 Build 4535*
G04 Layer: SuperTAT_Silk_Copper_Bottom_20100827b.gbr*
%FSLAX36Y36*%
%MOIN*%
%ADD10C,0.001600*%
%ADD11C,0.002400*%
%ADD12C,0.050000*%
%ADD13C,0.060000*%
%ADD14C,0.080000*%
%ADD15C,0.015000*%
%ADD16C,0.010000*%
%ADD17C,0.025000*%
%ADD18C,0.012000*%
%ADD19C,0.008000*%
%ADD20C,0.020000*%
G54D10*
X146000Y121333D02*
G01X141000Y116000D01*
X131000D01*
X126000Y121333D01*
Y142667D01*
X131000Y148000D01*
X141000D01*
X146000Y142667D01*
X156000D02*
X161000Y148000D01*
X171000D01*
X176000Y142667D01*
Y137333D01*
X171000Y132000D01*
X166000D01*
X171000D02*
X176000Y126667D01*
Y121333D01*
X171000Y116000D01*
X161000D01*
X156000Y121333D01*
G54D11*
X152667Y171000D02*
Y203000D01*
X169333Y187000D02*
X136000D01*
G54D10*
X46000Y186333D02*
X41000Y181000D01*
X31000D01*
X26000Y186333D01*
Y207667D01*
X31000Y213000D01*
X41000D01*
X46000Y207667D01*
X76000Y191667D02*
X56000D01*
X71000Y213000D01*
Y181000D01*
X306000Y236000D02*
X321000D01*
X326000Y241333D01*
Y262667D01*
X321000Y268000D01*
X306000D01*
X311000D02*
Y236000D01*
X336000Y262667D02*
X341000Y268000D01*
X351000D01*
X356000Y262667D01*
Y257333D01*
X351000Y252000D01*
X341000D01*
X336000Y246667D01*
Y236000D01*
X356000D01*
G54D11*
X-152000Y352000D02*
X-144000Y343667D01*
X-192000D01*
Y352000D02*
Y335333D01*
X-168000Y318667D02*
Y293667D01*
X-176000Y285333D01*
X-184000D01*
X-192000Y293667D01*
Y310333D01*
X-184000Y318667D01*
X-160000D01*
X-144000Y302000D01*
Y293667D01*
X-192000Y268667D02*
X-144000D01*
Y235333D01*
X-168000Y268667D02*
Y252000D01*
X-192000Y210333D02*
X-184000Y218667D01*
X-176000D01*
X-168000Y210333D01*
Y193667D01*
X-160000Y185333D01*
X-152000D01*
X-144000Y193667D01*
Y210333D01*
X-152000Y218667D01*
X-160000D01*
X-168000Y210333D01*
Y193667D02*
X-176000Y185333D01*
X-184000D01*
X-192000Y193667D01*
Y210333D01*
Y160333D02*
X-184000Y168667D01*
X-176000D01*
X-168000Y160333D01*
Y143667D01*
X-160000Y135333D01*
X-152000D01*
X-144000Y143667D01*
Y160333D01*
X-152000Y168667D01*
X-160000D01*
X-168000Y160333D01*
Y143667D02*
X-176000Y135333D01*
X-184000D01*
X-192000Y143667D01*
Y160333D01*
X-504000Y627000D02*
Y593667D01*
Y610333D02*
X-552000D01*
X-520000Y577000D02*
X-544000D01*
X-552000Y568667D01*
Y560333D01*
X-536000Y543667D01*
X-520000D02*
X-552000D01*
Y527000D02*
X-520000D01*
X-536000D02*
X-520000Y510333D01*
Y502000D01*
X-528000Y493667D01*
X-552000Y477000D02*
X-520000D01*
X-536000D02*
X-520000Y460333D01*
Y452000D01*
X-528000Y443667D01*
X-552000D01*
X-536000Y427000D02*
Y402000D01*
X-528000Y393667D01*
X-520000Y402000D01*
Y418667D01*
X-528000Y427000D01*
X-544000D01*
X-552000Y418667D01*
Y402000D01*
X-536000Y343667D02*
X-552000Y360333D01*
Y368667D01*
X-544000Y377000D01*
X-528000D01*
X-520000Y368667D01*
Y360333D01*
X-536000Y343667D01*
X-504000D02*
X-552000D01*
X-568000Y277000D02*
X-520000D01*
X-528000D02*
X-520000Y268667D01*
Y252000D01*
X-528000Y243667D01*
X-544000D01*
X-552000Y252000D01*
Y277000D01*
Y227000D02*
X-520000D01*
X-512000D02*
X-504000D01*
X-552000Y210333D02*
X-520000D01*
X-536000D02*
X-520000Y193667D01*
Y185333D01*
X-528000Y177000D01*
X-552000D01*
Y110333D02*
X-504000D01*
X-536000D02*
X-520000Y93666D01*
Y85333D01*
X-528000Y77000D01*
X-552000D01*
X-536000Y60333D02*
Y35333D01*
X-528000Y27000D01*
X-520000Y35333D01*
Y52000D01*
X-528000Y60333D01*
X-544000D01*
X-552000Y52000D01*
Y35333D01*
Y-6334D02*
Y2000D01*
X-544000Y10333D01*
X-528000D01*
X-520000Y2000D01*
Y-6334D01*
X-528000Y-14667D01*
X-544000D01*
X-552000Y-6334D01*
X-544000Y-14667D02*
X-552000Y-23000D01*
X-536000Y-73000D02*
X-552000Y-56334D01*
Y-48000D01*
X-544000Y-39667D01*
X-528000D01*
X-520000Y-48000D01*
Y-56334D01*
X-536000Y-73000D01*
X-504000D02*
X-552000D01*
X-536000Y-89667D02*
Y-114667D01*
X-528000Y-123000D01*
X-520000Y-114667D01*
Y-98000D01*
X-528000Y-89667D01*
X-544000D01*
X-552000Y-98000D01*
Y-114667D01*
Y-139667D02*
X-520000D01*
X-536000D02*
X-520000Y-156334D01*
Y-164667D01*
X-528000Y-173000D01*
X-338000Y-446000D02*
X-329667Y-438000D01*
X-313000D01*
X-304667Y-446000D01*
Y-454000D01*
X-313000Y-462000D01*
X-329667D01*
X-338000Y-470000D01*
Y-486000D01*
X-304667D01*
X-254667Y-470000D02*
X-288000D01*
X-263000Y-438000D01*
Y-486000D01*
X-238000D02*
Y-438000D01*
X-204667D01*
X-238000Y-462000D02*
X-221333D01*
X-188000Y-446000D02*
X-179667Y-438000D01*
Y-486000D01*
X-188000D02*
X-171333D01*
X-154667Y-462000D02*
X-129667D01*
X-121333Y-470000D01*
Y-478000D01*
X-129667Y-486000D01*
X-146333D01*
X-154667Y-478000D01*
Y-454000D01*
X-138000Y-438000D01*
X-129667D01*
X-104667Y-486000D02*
Y-438000D01*
X-71333D02*
X-96333Y-462000D01*
X-104667D01*
X-96333D02*
X-71333Y-486000D01*
X-54667D02*
Y-470000D01*
X-38000Y-438000D01*
X-21333Y-470000D01*
Y-486000D01*
X-54667Y-470000D02*
X-21333D01*
X-4667Y-446000D02*
X3667Y-438000D01*
Y-486000D01*
X-4667D02*
X12000D01*
X37000D02*
X28667Y-478000D01*
Y-446000D01*
X37000Y-438000D01*
X45333D01*
X53667Y-446000D01*
Y-478000D01*
X45333Y-486000D01*
X37000D01*
X70333Y-446000D02*
X78667Y-438000D01*
Y-486000D01*
X70333D02*
X87000D01*
X92667Y316000D02*
Y348000D01*
X109333Y332000D02*
X76000D01*
G54D10*
X90000Y637000D02*
Y622000D01*
X95333Y617000D01*
X100667D01*
X106000Y622000D01*
Y632000D01*
Y622000D02*
X111333Y617000D01*
X116667D01*
X122000Y622000D01*
Y637000D01*
Y632000D02*
X90000D01*
Y597000D02*
Y602000D01*
X95333Y607000D01*
X106000D01*
X111333Y602000D01*
Y597000D01*
X106000Y592000D01*
X95333D01*
X90000Y597000D01*
X95333Y592000D02*
X90000Y587000D01*
X111333Y577000D02*
Y557000D01*
X122000Y567000D02*
X95333D01*
X90000Y562000D01*
X95333Y557000D01*
X111333Y547000D02*
Y527000D01*
X122000Y537000D02*
X95333D01*
X90000Y532000D01*
X95333Y527000D01*
X100667Y517000D02*
Y502000D01*
X106000Y497000D01*
X111333Y502000D01*
Y512000D01*
X106000Y517000D01*
X95333D01*
X90000Y512000D01*
Y502000D01*
Y487000D02*
X111333D01*
X100667D02*
X111333Y477000D01*
Y472000D01*
X106000Y467000D01*
X111333Y457000D02*
X90000Y447000D01*
X111333Y437000D02*
X79333Y452000D01*
Y457000D01*
X181000Y241000D02*
X196000D01*
X201000Y246333D01*
Y267667D01*
X196000Y273000D01*
X181000D01*
X186000D02*
Y241000D01*
X211000Y267667D02*
X216000Y273000D01*
Y241000D01*
X211000D02*
X221000D01*
X-743000Y-482667D02*
X-748000Y-488000D01*
X-758000D01*
X-763000Y-482667D01*
Y-461333D01*
X-758000Y-456000D01*
X-748000D01*
X-743000Y-461333D01*
X-733000D02*
X-728000Y-456000D01*
X-718000D01*
X-713000Y-461333D01*
Y-466667D01*
X-718000Y-472000D01*
X-728000D01*
X-733000Y-477333D01*
Y-488000D01*
X-713000D01*
X-738000Y-397667D02*
X-743000Y-403000D01*
X-753000D01*
X-758000Y-397667D01*
Y-376333D01*
X-753000Y-371000D01*
X-743000D01*
X-738000Y-376333D01*
X-728000D02*
X-723000Y-371000D01*
Y-403000D01*
X-728000D02*
X-718000D01*
X-808000Y-682667D02*
X-803000Y-688000D01*
X-793000D01*
X-788000Y-682667D01*
X-808000Y-661333D01*
X-803000Y-656000D01*
X-793000D01*
X-788000Y-661333D01*
X-778000Y-666667D02*
Y-682667D01*
X-773000Y-688000D01*
X-768000D01*
X-758000Y-677333D01*
Y-666667D02*
Y-688000D01*
X-748000Y-698667D02*
Y-666667D01*
Y-672000D02*
X-743000Y-666667D01*
X-733000D01*
X-728000Y-672000D01*
Y-682667D01*
X-733000Y-688000D01*
X-748000D01*
X-718000Y-677333D02*
X-703000D01*
X-698000Y-672000D01*
X-703000Y-666667D01*
X-713000D01*
X-718000Y-672000D01*
Y-682667D01*
X-713000Y-688000D01*
X-703000D01*
X-688000D02*
Y-666667D01*
Y-677333D02*
X-678000Y-666667D01*
X-673000D01*
X-668000Y-672000D01*
X-658000Y-656000D02*
X-638000D01*
X-648000D02*
Y-688000D01*
X-628000D02*
Y-677333D01*
X-618000Y-656000D01*
X-608000Y-677333D01*
Y-688000D01*
X-628000Y-677333D02*
X-608000D01*
X-598000Y-656000D02*
X-578000D01*
X-588000D02*
Y-688000D01*
X-528000Y-656000D02*
X-538000Y-666667D01*
Y-677333D01*
X-528000Y-688000D01*
X-498000Y-682667D02*
X-503000Y-688000D01*
X-513000D01*
X-518000Y-682667D01*
Y-661333D01*
X-513000Y-656000D01*
X-503000D01*
X-498000Y-661333D01*
X-488000Y-656000D02*
X-478000Y-666667D01*
Y-677333D01*
X-488000Y-688000D01*
X-423000Y-672000D02*
X-418000D01*
Y-688000D01*
X-433000D01*
X-438000Y-682667D01*
Y-661333D01*
X-433000Y-656000D01*
X-418000D01*
X-408000Y-688000D02*
Y-666667D01*
Y-677333D02*
X-398000Y-666667D01*
X-393000D01*
X-388000Y-672000D01*
X-378000Y-677333D02*
X-363000D01*
X-358000Y-672000D01*
X-363000Y-666667D01*
X-373000D01*
X-378000Y-672000D01*
Y-682667D01*
X-373000Y-688000D01*
X-363000D01*
X-348000Y-677333D02*
X-333000D01*
X-328000Y-672000D01*
X-333000Y-666667D01*
X-343000D01*
X-348000Y-672000D01*
Y-682667D01*
X-343000Y-688000D01*
X-333000D01*
X-318000D02*
Y-666667D01*
Y-677333D02*
X-308000Y-666667D01*
X-303000D01*
X-298000Y-672000D01*
Y-688000D01*
X-248000D02*
X-253000D01*
X-258000Y-682667D01*
Y-672000D01*
X-253000Y-666667D01*
X-248000D01*
X-243000Y-672000D01*
Y-682667D01*
X-248000Y-688000D01*
X-243000Y-682667D02*
X-238000Y-688000D01*
X-228000D02*
Y-666667D01*
Y-677333D02*
X-218000Y-666667D01*
X-213000D01*
X-208000Y-672000D01*
Y-688000D01*
X-178000Y-677333D02*
X-188000Y-688000D01*
X-193000D01*
X-198000Y-682667D01*
Y-672000D01*
X-193000Y-666667D01*
X-188000D01*
X-178000Y-677333D01*
Y-656000D02*
Y-688000D01*
X-123000Y-672000D02*
X-118000D01*
Y-688000D01*
X-133000D01*
X-138000Y-682667D01*
Y-661333D01*
X-133000Y-656000D01*
X-118000D01*
X-93000Y-688000D02*
X-103000D01*
X-108000Y-682667D01*
Y-672000D01*
X-103000Y-666667D01*
X-93000D01*
X-88000Y-672000D01*
Y-682667D01*
X-93000Y-688000D01*
X-78000Y-656000D02*
Y-682667D01*
X-73000Y-688000D01*
X-43000Y-677333D02*
X-53000Y-688000D01*
X-58000D01*
X-63000Y-682667D01*
Y-672000D01*
X-58000Y-666667D01*
X-53000D01*
X-43000Y-677333D01*
Y-656000D02*
Y-688000D01*
X-3000D02*
Y-656000D01*
X17000D01*
X-3000Y-672000D02*
X7000D01*
X-3000Y-688000D02*
X17000D01*
X27000D02*
Y-666667D01*
Y-677333D02*
X37000Y-666667D01*
X42000D01*
X47000Y-672000D01*
Y-688000D01*
X57000Y-677333D02*
X72000D01*
X77000Y-672000D01*
X72000Y-666667D01*
X62000D01*
X57000Y-672000D01*
Y-682667D01*
X62000Y-688000D01*
X72000D01*
X87000D02*
Y-666667D01*
Y-677333D02*
X97000Y-666667D01*
X102000D01*
X107000Y-672000D01*
X117000Y-693333D02*
X122000Y-698667D01*
X132000D01*
X137000Y-693333D01*
Y-672000D01*
X132000Y-666667D01*
X122000D01*
X117000Y-672000D01*
Y-682667D01*
X122000Y-688000D01*
X137000D01*
X147000Y-666667D02*
X157000Y-688000D01*
X167000Y-666667D02*
X152000Y-698667D01*
X147000D01*
X207000Y-661333D02*
X212000Y-656000D01*
X222000D01*
X227000Y-661333D01*
Y-666667D01*
X222000Y-672000D01*
X212000D01*
X207000Y-677333D01*
Y-688000D01*
X227000D01*
X242000D02*
X237000Y-682667D01*
Y-661333D01*
X242000Y-656000D01*
X247000D01*
X252000Y-661333D01*
Y-682667D01*
X247000Y-688000D01*
X242000D01*
X262000Y-661333D02*
X267000Y-656000D01*
Y-688000D01*
X262000D02*
X272000D01*
X287000D02*
X282000Y-682667D01*
Y-661333D01*
X287000Y-656000D01*
X292000D01*
X297000Y-661333D01*
Y-682667D01*
X292000Y-688000D01*
X287000D01*
X396000Y-532667D02*
Y-511333D01*
X406000Y-522000D02*
X386000D01*
X291000Y-582667D02*
X286000Y-588000D01*
X276000D01*
X271000Y-582667D01*
Y-561333D01*
X276000Y-556000D01*
X286000D01*
X291000Y-561333D01*
X301000Y-582667D02*
X306000Y-588000D01*
X316000D01*
X321000Y-582667D01*
Y-572000D01*
X316000Y-566667D01*
X301000D01*
Y-556000D01*
X321000D01*
X391000Y-582667D02*
X386000Y-588000D01*
X376000D01*
X371000Y-582667D01*
Y-561333D01*
X376000Y-556000D01*
X386000D01*
X391000Y-561333D01*
X401000Y-572000D02*
X416000D01*
X421000Y-577333D01*
Y-582667D01*
X416000Y-588000D01*
X406000D01*
X401000Y-582667D01*
Y-566667D01*
X411000Y-556000D01*
X416000D01*
X-573000Y-273000D02*
X-553000Y-241000D01*
X-573000D02*
X-553000Y-273000D01*
X-543000Y-251667D02*
X-523000D01*
X-533000Y-241000D02*
Y-267667D01*
X-528000Y-273000D01*
X-523000Y-267667D01*
X-503000Y-273000D02*
X-508000D01*
X-513000Y-267667D01*
Y-257000D01*
X-508000Y-251667D01*
X-503000D01*
X-498000Y-257000D01*
Y-267667D01*
X-503000Y-273000D01*
X-498000Y-267667D02*
X-493000Y-273000D01*
X-483000Y-241000D02*
Y-267667D01*
X-478000Y-273000D01*
X-587000Y542000D02*
Y532000D01*
Y537000D02*
X-619000D01*
Y542000D02*
Y532000D01*
Y522000D02*
X-597667D01*
X-608333D02*
X-597667Y512000D01*
Y507000D01*
X-603000Y502000D01*
X-619000D01*
Y492000D02*
Y477000D01*
X-613667Y472000D01*
X-608333Y477000D01*
Y487000D01*
X-603000Y492000D01*
X-597667Y487000D01*
Y472000D01*
Y462000D02*
Y442000D01*
X-587000Y452000D02*
X-613667D01*
X-619000Y447000D01*
X-613667Y442000D01*
X-619000Y422000D02*
Y427000D01*
X-613667Y432000D01*
X-603000D01*
X-597667Y427000D01*
Y422000D01*
X-603000Y417000D01*
X-613667D01*
X-619000Y422000D01*
X-613667Y417000D02*
X-619000Y412000D01*
X-587000Y402000D02*
X-613667D01*
X-619000Y397000D01*
X-587000Y387000D02*
X-613667D01*
X-619000Y382000D01*
Y327000D02*
Y337000D01*
X-613667Y342000D01*
X-603000D01*
X-597667Y337000D01*
Y327000D01*
X-603000Y322000D01*
X-613667D01*
X-619000Y327000D01*
Y312000D02*
X-597667D01*
X-608333D02*
X-597667Y302000D01*
Y297000D01*
X-603000Y292000D01*
X-619000D01*
X-597667Y232000D02*
Y247000D01*
X-603000Y252000D01*
X-613667D01*
X-619000Y247000D01*
Y232000D01*
Y207000D02*
Y217000D01*
X-613667Y222000D01*
X-603000D01*
X-597667Y217000D01*
Y207000D01*
X-603000Y202000D01*
X-613667D01*
X-619000Y207000D01*
X-629667Y192000D02*
X-597667D01*
X-603000D02*
X-597667Y187000D01*
Y177000D01*
X-603000Y172000D01*
X-613667D01*
X-619000Y177000D01*
Y192000D01*
X-629667Y162000D02*
X-597667D01*
X-603000D02*
X-597667Y157000D01*
Y147000D01*
X-603000Y142000D01*
X-613667D01*
X-619000Y147000D01*
Y162000D01*
X-608333Y132000D02*
Y117000D01*
X-603000Y112000D01*
X-597667Y117000D01*
Y127000D01*
X-603000Y132000D01*
X-613667D01*
X-619000Y127000D01*
Y117000D01*
Y102000D02*
X-597667D01*
X-608333D02*
X-597667Y92000D01*
Y87000D01*
X-603000Y82000D01*
X-619000Y42000D02*
Y27000D01*
X-613667Y22000D01*
X-608333Y27000D01*
Y37000D01*
X-603000Y42000D01*
X-597667Y37000D01*
Y22000D01*
X-619000Y12000D02*
X-597667D01*
X-592333D02*
X-587000D01*
X-608333Y-18000D02*
X-619000Y-8000D01*
Y-3000D01*
X-613667Y2000D01*
X-603000D01*
X-597667Y-3000D01*
Y-8000D01*
X-608333Y-18000D01*
X-587000D02*
X-619000D01*
X-608333Y-28000D02*
Y-43000D01*
X-603000Y-48000D01*
X-597667Y-43000D01*
Y-33000D01*
X-603000Y-28000D01*
X-613667D01*
X-619000Y-33000D01*
Y-43000D01*
X-203000Y-263000D02*
Y-231000D01*
X-188000D01*
X-183000Y-236333D01*
Y-241667D01*
X-188000Y-247000D01*
X-203000D01*
X-198000D02*
X-183000Y-263000D01*
X-173000Y-236333D02*
X-168000Y-231000D01*
Y-263000D01*
X-173000D02*
X-163000D01*
X-733000Y-552667D02*
X-738000Y-558000D01*
X-748000D01*
X-753000Y-552667D01*
Y-531333D01*
X-748000Y-526000D01*
X-738000D01*
X-733000Y-531333D01*
X-713000Y-558000D02*
X-718000D01*
X-723000Y-552667D01*
Y-542000D01*
X-718000Y-536667D01*
X-713000D01*
X-708000Y-542000D01*
Y-552667D01*
X-713000Y-558000D01*
X-708000Y-552667D02*
X-703000Y-558000D01*
X-693000Y-568667D02*
Y-536667D01*
Y-542000D02*
X-688000Y-536667D01*
X-678000D01*
X-673000Y-542000D01*
Y-552667D01*
X-678000Y-558000D01*
X-693000D01*
X-663000D02*
X-648000D01*
X-643000Y-552667D01*
X-648000Y-547333D01*
X-658000D01*
X-663000Y-542000D01*
X-658000Y-536667D01*
X-643000D01*
X-588000Y-558000D02*
X-598000D01*
X-603000Y-552667D01*
Y-542000D01*
X-598000Y-536667D01*
X-588000D01*
X-583000Y-542000D01*
Y-552667D01*
X-588000Y-558000D01*
X-573000D02*
Y-536667D01*
Y-547333D02*
X-563000Y-536667D01*
X-558000D01*
X-553000Y-542000D01*
Y-558000D01*
X-493000Y-536667D02*
X-508000D01*
X-513000Y-542000D01*
Y-552667D01*
X-508000Y-558000D01*
X-493000D01*
X-468000D02*
X-478000D01*
X-483000Y-552667D01*
Y-542000D01*
X-478000Y-536667D01*
X-468000D01*
X-463000Y-542000D01*
Y-552667D01*
X-468000Y-558000D01*
X-453000Y-568667D02*
Y-536667D01*
Y-542000D02*
X-448000Y-536667D01*
X-438000D01*
X-433000Y-542000D01*
Y-552667D01*
X-438000Y-558000D01*
X-453000D01*
X-423000Y-568667D02*
Y-536667D01*
Y-542000D02*
X-418000Y-536667D01*
X-408000D01*
X-403000Y-542000D01*
Y-552667D01*
X-408000Y-558000D01*
X-423000D01*
X-393000Y-547333D02*
X-378000D01*
X-373000Y-542000D01*
X-378000Y-536667D01*
X-388000D01*
X-393000Y-542000D01*
Y-552667D01*
X-388000Y-558000D01*
X-378000D01*
X-363000D02*
Y-536667D01*
Y-547333D02*
X-353000Y-536667D01*
X-348000D01*
X-343000Y-542000D01*
X-303000Y-558000D02*
X-288000D01*
X-283000Y-552667D01*
X-288000Y-547333D01*
X-298000D01*
X-303000Y-542000D01*
X-298000Y-536667D01*
X-283000D01*
X-273000Y-558000D02*
Y-536667D01*
Y-531333D02*
Y-526000D01*
X-243000Y-547333D02*
X-253000Y-558000D01*
X-258000D01*
X-263000Y-552667D01*
Y-542000D01*
X-258000Y-536667D01*
X-253000D01*
X-243000Y-547333D01*
Y-526000D02*
Y-558000D01*
X-233000Y-547333D02*
X-218000D01*
X-213000Y-542000D01*
X-218000Y-536667D01*
X-228000D01*
X-233000Y-542000D01*
Y-552667D01*
X-228000Y-558000D01*
X-218000D01*
M02*
