*
G04 Gerber written by LinkCAD 5.8.2 Build 4535*
G04 Layer: SuperTAT_Drill_20100827a.gbr*
%FSLAX36Y36*%
%MOIN*%
%ADD10C,0.050000*%
%ADD11C,0.008000*%
%ADD12C,0.002000*%
G54D10*
X176000Y-292000D03*
X76000D03*
X-23000D03*
X-123000D03*
X-223000D03*
X-323000D03*
X-423000D03*
X-523000D03*
X-623000D03*
X-723000D03*
Y-592000D03*
X-623000D03*
X-523000D03*
X-423000D03*
X-323000D03*
X-223000D03*
X-123000D03*
X-23000D03*
X76000D03*
X176000D03*
X-323000Y652000D03*
Y552000D03*
Y452000D03*
Y352000D03*
Y252000D03*
Y152000D03*
Y52000D03*
Y-47000D03*
Y-147000D03*
X-23000D03*
Y-47000D03*
Y52000D03*
Y152000D03*
Y252000D03*
Y352000D03*
Y452000D03*
Y552000D03*
Y652000D03*
X-723000D03*
Y552000D03*
Y452000D03*
Y352000D03*
Y252000D03*
Y152000D03*
Y52000D03*
Y-47000D03*
Y-147000D03*
X-423000D03*
Y-47000D03*
Y52000D03*
Y152000D03*
Y252000D03*
Y352000D03*
Y452000D03*
Y552000D03*
Y652000D03*
X51000Y327000D03*
Y127000D03*
X151000Y252000D03*
Y52000D03*
Y352000D03*
X31000Y752000D03*
X226000Y-17000D03*
X306000D03*
X386000D03*
X376000Y527000D03*
Y127000D03*
X241000Y532000D03*
Y132000D03*
X356000Y637000D03*
X256000D03*
X296000Y-457000D03*
Y-657000D03*
X-618000Y-362000D03*
X-818000D03*
X-618000Y-447000D03*
X-818000D03*
X1047000Y-781000D03*
X1647000D03*
M02*
