  0
SECTION
  2
HEADER
  9
$ACADVER
  1
AC2.10
  0
ENDSEC
  0
SECTION
  2
TABLES
  0
TABLE
  2
LAYER
 70
     8
  0
LAYER
  2
0
 62
     7
 70
0
  6
CONTINUOUS
  0
LAYER
  2
1
 62
     1
 70
0
  6
CONTINUOUS
  0
LAYER
  2
2
 62
     2
 70
0
  6
CONTINUOUS
  0
LAYER
  2
3
 62
     3
 70
0
  6
CONTINUOUS
  0
LAYER
  2
4
 62
     4
 70
0
  6
CONTINUOUS
  0
LAYER
  2
5
 62
     5
 70
0
  6
CONTINUOUS
  0
LAYER
  2
6
 62
     6
 70
0
  6
CONTINUOUS
  0
LAYER
  2
7
 62
     7
 70
0
  6
CONTINUOUS
  0
ENDTAB
  0
TABLE
  2
STYLE
 70
     1
  0
STYLE
 70
     0
  2
STANDARD
  3
TXT
 40
0.00
 41
1.00
 42
1.00
 50
0.00
 71
     0
  0
ENDTAB
  0
ENDSEC
  0
SECTION
  2
BLOCKS
  0
BLOCK
  8
0
  2
EPAD
 70
0
 10
0.0
 20
0.0
  0
POLYLINE
  8
0
 66
1
 70
1
 40
0.5
 41
0.5
  0
VERTEX
  8
0
 10
-0.25
 20
0.0
 42
1.0
  0
VERTEX
  8
0
 10
0.25
 20
0.0
 42
1.0
  0
SEQEND
  8
0
  0
ENDBLK
  8
0
  0
BLOCK
  8
0
  2
RPAD
 70
0
 10
0.0
 20
0.0
  0
TRACE
  8
0
 10
-0.5
 20
-0.5
 11
-0.5
 21
0.5
 12
0.5
 22
-0.5
 13
0.5
 23
0.5
  0
ENDBLK
  8
0
  0
ENDSEC
0
SECTION
2
ENTITIES
0
INSERT
8
0
2
RPAD
10
0.176000
20
-0.407000
41
0.070000
42
0.070000
50
-180.000000
0
INSERT
8
0
2
EPAD
10
0.076000
20
-0.407000
41
0.070000
42
0.070000
0
INSERT
8
0
2
EPAD
10
-0.023000
20
-0.407000
41
0.070000
42
0.070000
0
INSERT
8
0
2
EPAD
10
-0.123000
20
-0.407000
41
0.070000
42
0.070000
0
INSERT
8
0
2
EPAD
10
-0.223000
20
-0.407000
41
0.070000
42
0.070000
0
INSERT
8
0
2
EPAD
10
-0.323000
20
-0.407000
41
0.070000
42
0.070000
0
INSERT
8
0
2
EPAD
10
-0.423000
20
-0.407000
41
0.070000
42
0.070000
0
INSERT
8
0
2
EPAD
10
-0.523000
20
-0.407000
41
0.070000
42
0.070000
0
INSERT
8
0
2
EPAD
10
-0.623000
20
-0.407000
41
0.070000
42
0.070000
0
INSERT
8
0
2
EPAD
10
-0.723000
20
-0.407000
41
0.070000
42
0.070000
0
INSERT
8
0
2
EPAD
10
-0.723000
20
-0.707000
41
0.070000
42
0.070000
0
INSERT
8
0
2
EPAD
10
-0.623000
20
-0.707000
41
0.070000
42
0.070000
0
INSERT
8
0
2
EPAD
10
-0.523000
20
-0.707000
41
0.070000
42
0.070000
0
INSERT
8
0
2
EPAD
10
-0.423000
20
-0.707000
41
0.070000
42
0.070000
0
INSERT
8
0
2
EPAD
10
-0.323000
20
-0.707000
41
0.070000
42
0.070000
0
INSERT
8
0
2
EPAD
10
-0.223000
20
-0.707000
41
0.070000
42
0.070000
0
INSERT
8
0
2
EPAD
10
-0.123000
20
-0.707000
41
0.070000
42
0.070000
0
INSERT
8
0
2
EPAD
10
-0.023000
20
-0.707000
41
0.070000
42
0.070000
0
INSERT
8
0
2
EPAD
10
0.076000
20
-0.707000
41
0.070000
42
0.070000
0
INSERT
8
0
2
EPAD
10
0.176000
20
-0.707000
41
0.070000
42
0.070000
0
INSERT
8
0
2
EPAD
10
0.401000
20
-0.567000
41
0.070000
42
0.070000
0
INSERT
8
0
2
EPAD
10
0.401000
20
-0.767000
41
0.070000
42
0.070000
0
INSERT
8
0
2
RPAD
10
-0.323000
20
0.667000
41
0.070000
42
0.070000
50
-90.000000
0
INSERT
8
0
2
EPAD
10
-0.323000
20
0.567000
41
0.070000
42
0.070000
0
INSERT
8
0
2
EPAD
10
-0.323000
20
0.467000
41
0.070000
42
0.070000
0
INSERT
8
0
2
EPAD
10
-0.323000
20
0.367000
41
0.070000
42
0.070000
0
INSERT
8
0
2
EPAD
10
-0.323000
20
0.267000
41
0.070000
42
0.070000
0
INSERT
8
0
2
EPAD
10
-0.323000
20
0.167000
41
0.070000
42
0.070000
0
INSERT
8
0
2
EPAD
10
-0.323000
20
0.067000
41
0.070000
42
0.070000
0
INSERT
8
0
2
EPAD
10
-0.323000
20
-0.032000
41
0.070000
42
0.070000
0
INSERT
8
0
2
EPAD
10
-0.323000
20
-0.132000
41
0.070000
42
0.070000
0
INSERT
8
0
2
EPAD
10
-0.023000
20
-0.132000
41
0.070000
42
0.070000
0
INSERT
8
0
2
EPAD
10
-0.023000
20
-0.032000
41
0.070000
42
0.070000
0
INSERT
8
0
2
EPAD
10
-0.023000
20
0.067000
41
0.070000
42
0.070000
0
INSERT
8
0
2
EPAD
10
-0.023000
20
0.167000
41
0.070000
42
0.070000
0
INSERT
8
0
2
EPAD
10
-0.023000
20
0.267000
41
0.070000
42
0.070000
0
INSERT
8
0
2
EPAD
10
-0.023000
20
0.367000
41
0.070000
42
0.070000
0
INSERT
8
0
2
EPAD
10
-0.023000
20
0.467000
41
0.070000
42
0.070000
0
INSERT
8
0
2
EPAD
10
-0.023000
20
0.567000
41
0.070000
42
0.070000
0
INSERT
8
0
2
EPAD
10
-0.023000
20
0.667000
41
0.070000
42
0.070000
0
INSERT
8
0
2
RPAD
10
-0.723000
20
0.667000
41
0.070000
42
0.070000
50
-90.000000
0
INSERT
8
0
2
EPAD
10
-0.723000
20
0.567000
41
0.070000
42
0.070000
0
INSERT
8
0
2
EPAD
10
-0.723000
20
0.467000
41
0.070000
42
0.070000
0
INSERT
8
0
2
EPAD
10
-0.723000
20
0.367000
41
0.070000
42
0.070000
0
INSERT
8
0
2
EPAD
10
-0.723000
20
0.267000
41
0.070000
42
0.070000
0
INSERT
8
0
2
EPAD
10
-0.723000
20
0.167000
41
0.070000
42
0.070000
0
INSERT
8
0
2
EPAD
10
-0.723000
20
0.067000
41
0.070000
42
0.070000
0
INSERT
8
0
2
EPAD
10
-0.723000
20
-0.032000
41
0.070000
42
0.070000
0
INSERT
8
0
2
EPAD
10
-0.723000
20
-0.132000
41
0.070000
42
0.070000
0
INSERT
8
0
2
EPAD
10
-0.423000
20
-0.132000
41
0.070000
42
0.070000
0
INSERT
8
0
2
EPAD
10
-0.423000
20
-0.032000
41
0.070000
42
0.070000
0
INSERT
8
0
2
EPAD
10
-0.423000
20
0.067000
41
0.070000
42
0.070000
0
INSERT
8
0
2
EPAD
10
-0.423000
20
0.167000
41
0.070000
42
0.070000
0
INSERT
8
0
2
EPAD
10
-0.423000
20
0.267000
41
0.070000
42
0.070000
0
INSERT
8
0
2
EPAD
10
-0.423000
20
0.367000
41
0.070000
42
0.070000
0
INSERT
8
0
2
EPAD
10
-0.423000
20
0.467000
41
0.070000
42
0.070000
0
INSERT
8
0
2
EPAD
10
-0.423000
20
0.567000
41
0.070000
42
0.070000
0
INSERT
8
0
2
EPAD
10
-0.423000
20
0.667000
41
0.070000
42
0.070000
0
INSERT
8
0
2
EPAD
10
0.401000
20
-0.307000
41
0.070000
42
0.070000
0
INSERT
8
0
2
EPAD
10
0.401000
20
-0.507000
41
0.070000
42
0.070000
0
INSERT
8
0
2
EPAD
10
-0.673000
20
-0.232000
41
0.070000
42
0.070000
0
INSERT
8
0
2
EPAD
10
-0.673000
20
-0.332000
41
0.070000
42
0.070000
0
INSERT
8
0
2
EPAD
10
-0.713000
20
-0.232000
41
0.070000
42
0.070000
0
INSERT
8
0
2
EPAD
10
-0.813000
20
-0.232000
41
0.070000
42
0.070000
0
INSERT
8
0
2
EPAD
10
-0.713000
20
-0.332000
41
0.070000
42
0.070000
0
INSERT
8
0
2
EPAD
10
-0.813000
20
-0.332000
41
0.070000
42
0.070000
0
INSERT
8
0
2
EPAD
10
0.051000
20
0.342000
41
0.070000
42
0.070000
0
INSERT
8
0
2
EPAD
10
0.051000
20
0.142000
41
0.070000
42
0.070000
0
INSERT
8
0
2
EPAD
10
0.151000
20
0.267000
41
0.070000
42
0.070000
0
INSERT
8
0
2
EPAD
10
0.151000
20
0.067000
41
0.070000
42
0.070000
0
INSERT
8
0
2
EPAD
10
0.226000
20
0.397000
41
0.080000
42
0.080000
0
INSERT
8
0
2
EPAD
10
0.226000
20
-0.002000
41
0.080000
42
0.080000
0
INSERT
8
0
2
EPAD
10
0.151000
20
0.367000
41
0.080000
42
0.080000
0
INSERT
8
0
2
EPAD
10
0.021000
20
0.767000
41
0.070000
42
0.070000
0
INSERT
8
0
2
EPAD
10
0.316000
20
0.487000
41
0.080000
42
0.080000
0
INSERT
8
0
2
EPAD
10
0.316000
20
0.087000
41
0.080000
42
0.080000
0
INSERT
8
0
2
EPAD
10
0.396000
20
0.297000
41
0.080000
42
0.080000
0
INSERT
8
0
2
EPAD
10
0.396000
20
0.697000
41
0.080000
42
0.080000
0
INSERT
8
0
2
RPAD
10
0.211000
20
0.637000
41
0.100000
42
0.100000
50
-90.000000
0
INSERT
8
0
2
RPAD
10
0.211000
20
0.537000
41
0.100000
42
0.100000
50
-90.000000
0
INSERT
8
0
2
EPAD
10
-0.268000
20
-0.282000
41
0.090000
42
0.090000
0
INSERT
8
0
2
EPAD
10
0.131000
20
-0.282000
41
0.090000
42
0.090000
0
POLYLINE
8
0
66
1
40
0.008000
41
0.008000
0
VERTEX
8
0
10
-0.848000
20
-0.807000
0
VERTEX
8
0
10
0.501000
20
-0.807000
0
VERTEX
8
0
10
0.501000
20
0.802000
0
VERTEX
8
0
10
-0.848000
20
0.802000
0
VERTEX
8
0
10
-0.848000
20
-0.807000
0
SEQEND
8
0
0
ENDSEC
0
EOF

