  0
SECTION
  2
HEADER
  9
$ACADVER
  1
AC2.10
  0
ENDSEC
  0
SECTION
  2
TABLES
  0
TABLE
  2
LAYER
 70
     8
  0
LAYER
  2
0
 62
     7
 70
0
  6
CONTINUOUS
  0
LAYER
  2
1
 62
     1
 70
0
  6
CONTINUOUS
  0
LAYER
  2
2
 62
     2
 70
0
  6
CONTINUOUS
  0
LAYER
  2
3
 62
     3
 70
0
  6
CONTINUOUS
  0
LAYER
  2
4
 62
     4
 70
0
  6
CONTINUOUS
  0
LAYER
  2
5
 62
     5
 70
0
  6
CONTINUOUS
  0
LAYER
  2
6
 62
     6
 70
0
  6
CONTINUOUS
  0
LAYER
  2
7
 62
     7
 70
0
  6
CONTINUOUS
  0
ENDTAB
  0
TABLE
  2
STYLE
 70
     1
  0
STYLE
 70
     0
  2
STANDARD
  3
TXT
 40
0.00
 41
1.00
 42
1.00
 50
0.00
 71
     0
  0
ENDTAB
  0
ENDSEC
  0
SECTION
  2
BLOCKS
  0
BLOCK
  8
0
  2
EPAD
 70
0
 10
0.0
 20
0.0
  0
POLYLINE
  8
0
 66
1
 70
1
 40
0.5
 41
0.5
  0
VERTEX
  8
0
 10
-0.25
 20
0.0
 42
1.0
  0
VERTEX
  8
0
 10
0.25
 20
0.0
 42
1.0
  0
SEQEND
  8
0
  0
ENDBLK
  8
0
  0
BLOCK
  8
0
  2
RPAD
 70
0
 10
0.0
 20
0.0
  0
TRACE
  8
0
 10
-0.5
 20
-0.5
 11
-0.5
 21
0.5
 12
0.5
 22
-0.5
 13
0.5
 23
0.5
  0
ENDBLK
  8
0
  0
ENDSEC
0
SECTION
2
ENTITIES
0
POLYLINE
8
0
66
1
40
0.008000
41
0.008000
0
VERTEX
8
0
10
0.176000
20
-0.357000
0
VERTEX
8
0
10
0.176000
20
-0.407000
0
SEQEND
8
0
0
POLYLINE
8
0
66
1
40
0.008000
41
0.008000
0
VERTEX
8
0
10
0.151000
20
-0.382000
0
VERTEX
8
0
10
0.201000
20
-0.382000
0
SEQEND
8
0
0
POLYLINE
8
0
66
1
40
0.008000
41
0.008000
0
VERTEX
8
0
10
0.159000
20
-0.364000
0
VERTEX
8
0
10
0.194000
20
-0.400000
0
SEQEND
8
0
0
POLYLINE
8
0
66
1
40
0.008000
41
0.008000
0
VERTEX
8
0
10
0.159000
20
-0.400000
0
VERTEX
8
0
10
0.194000
20
-0.364000
0
SEQEND
8
0
0
POLYLINE
8
0
66
1
40
0.008000
41
0.008000
0
VERTEX
8
0
10
0.076000
20
-0.357000
0
VERTEX
8
0
10
0.076000
20
-0.407000
0
SEQEND
8
0
0
POLYLINE
8
0
66
1
40
0.008000
41
0.008000
0
VERTEX
8
0
10
0.051000
20
-0.382000
0
VERTEX
8
0
10
0.101000
20
-0.382000
0
SEQEND
8
0
0
POLYLINE
8
0
66
1
40
0.008000
41
0.008000
0
VERTEX
8
0
10
0.059000
20
-0.364000
0
VERTEX
8
0
10
0.094000
20
-0.400000
0
SEQEND
8
0
0
POLYLINE
8
0
66
1
40
0.008000
41
0.008000
0
VERTEX
8
0
10
0.059000
20
-0.400000
0
VERTEX
8
0
10
0.094000
20
-0.364000
0
SEQEND
8
0
0
POLYLINE
8
0
66
1
40
0.008000
41
0.008000
0
VERTEX
8
0
10
-0.023000
20
-0.357000
0
VERTEX
8
0
10
-0.023000
20
-0.407000
0
SEQEND
8
0
0
POLYLINE
8
0
66
1
40
0.008000
41
0.008000
0
VERTEX
8
0
10
-0.048000
20
-0.382000
0
VERTEX
8
0
10
0.001000
20
-0.382000
0
SEQEND
8
0
0
POLYLINE
8
0
66
1
40
0.008000
41
0.008000
0
VERTEX
8
0
10
-0.040000
20
-0.364000
0
VERTEX
8
0
10
-0.005000
20
-0.400000
0
SEQEND
8
0
0
POLYLINE
8
0
66
1
40
0.008000
41
0.008000
0
VERTEX
8
0
10
-0.040000
20
-0.400000
0
VERTEX
8
0
10
-0.005000
20
-0.364000
0
SEQEND
8
0
0
POLYLINE
8
0
66
1
40
0.008000
41
0.008000
0
VERTEX
8
0
10
-0.123000
20
-0.357000
0
VERTEX
8
0
10
-0.123000
20
-0.407000
0
SEQEND
8
0
0
POLYLINE
8
0
66
1
40
0.008000
41
0.008000
0
VERTEX
8
0
10
-0.148000
20
-0.382000
0
VERTEX
8
0
10
-0.098000
20
-0.382000
0
SEQEND
8
0
0
POLYLINE
8
0
66
1
40
0.008000
41
0.008000
0
VERTEX
8
0
10
-0.140000
20
-0.364000
0
VERTEX
8
0
10
-0.105000
20
-0.400000
0
SEQEND
8
0
0
POLYLINE
8
0
66
1
40
0.008000
41
0.008000
0
VERTEX
8
0
10
-0.140000
20
-0.400000
0
VERTEX
8
0
10
-0.105000
20
-0.364000
0
SEQEND
8
0
0
POLYLINE
8
0
66
1
40
0.008000
41
0.008000
0
VERTEX
8
0
10
-0.223000
20
-0.357000
0
VERTEX
8
0
10
-0.223000
20
-0.407000
0
SEQEND
8
0
0
POLYLINE
8
0
66
1
40
0.008000
41
0.008000
0
VERTEX
8
0
10
-0.248000
20
-0.382000
0
VERTEX
8
0
10
-0.198000
20
-0.382000
0
SEQEND
8
0
0
POLYLINE
8
0
66
1
40
0.008000
41
0.008000
0
VERTEX
8
0
10
-0.240000
20
-0.364000
0
VERTEX
8
0
10
-0.205000
20
-0.400000
0
SEQEND
8
0
0
POLYLINE
8
0
66
1
40
0.008000
41
0.008000
0
VERTEX
8
0
10
-0.240000
20
-0.400000
0
VERTEX
8
0
10
-0.205000
20
-0.364000
0
SEQEND
8
0
0
POLYLINE
8
0
66
1
40
0.008000
41
0.008000
0
VERTEX
8
0
10
-0.323000
20
-0.357000
0
VERTEX
8
0
10
-0.323000
20
-0.407000
0
SEQEND
8
0
0
POLYLINE
8
0
66
1
40
0.008000
41
0.008000
0
VERTEX
8
0
10
-0.348000
20
-0.382000
0
VERTEX
8
0
10
-0.298000
20
-0.382000
0
SEQEND
8
0
0
POLYLINE
8
0
66
1
40
0.008000
41
0.008000
0
VERTEX
8
0
10
-0.340000
20
-0.364000
0
VERTEX
8
0
10
-0.305000
20
-0.400000
0
SEQEND
8
0
0
POLYLINE
8
0
66
1
40
0.008000
41
0.008000
0
VERTEX
8
0
10
-0.340000
20
-0.400000
0
VERTEX
8
0
10
-0.305000
20
-0.364000
0
SEQEND
8
0
0
POLYLINE
8
0
66
1
40
0.008000
41
0.008000
0
VERTEX
8
0
10
-0.423000
20
-0.357000
0
VERTEX
8
0
10
-0.423000
20
-0.407000
0
SEQEND
8
0
0
POLYLINE
8
0
66
1
40
0.008000
41
0.008000
0
VERTEX
8
0
10
-0.448000
20
-0.382000
0
VERTEX
8
0
10
-0.398000
20
-0.382000
0
SEQEND
8
0
0
POLYLINE
8
0
66
1
40
0.008000
41
0.008000
0
VERTEX
8
0
10
-0.440000
20
-0.364000
0
VERTEX
8
0
10
-0.405000
20
-0.400000
0
SEQEND
8
0
0
POLYLINE
8
0
66
1
40
0.008000
41
0.008000
0
VERTEX
8
0
10
-0.440000
20
-0.400000
0
VERTEX
8
0
10
-0.405000
20
-0.364000
0
SEQEND
8
0
0
POLYLINE
8
0
66
1
40
0.008000
41
0.008000
0
VERTEX
8
0
10
-0.523000
20
-0.357000
0
VERTEX
8
0
10
-0.523000
20
-0.407000
0
SEQEND
8
0
0
POLYLINE
8
0
66
1
40
0.008000
41
0.008000
0
VERTEX
8
0
10
-0.548000
20
-0.382000
0
VERTEX
8
0
10
-0.498000
20
-0.382000
0
SEQEND
8
0
0
POLYLINE
8
0
66
1
40
0.008000
41
0.008000
0
VERTEX
8
0
10
-0.540000
20
-0.364000
0
VERTEX
8
0
10
-0.505000
20
-0.400000
0
SEQEND
8
0
0
POLYLINE
8
0
66
1
40
0.008000
41
0.008000
0
VERTEX
8
0
10
-0.540000
20
-0.400000
0
VERTEX
8
0
10
-0.505000
20
-0.364000
0
SEQEND
8
0
0
POLYLINE
8
0
66
1
40
0.008000
41
0.008000
0
VERTEX
8
0
10
-0.623000
20
-0.357000
0
VERTEX
8
0
10
-0.623000
20
-0.407000
0
SEQEND
8
0
0
POLYLINE
8
0
66
1
40
0.008000
41
0.008000
0
VERTEX
8
0
10
-0.648000
20
-0.382000
0
VERTEX
8
0
10
-0.598000
20
-0.382000
0
SEQEND
8
0
0
POLYLINE
8
0
66
1
40
0.008000
41
0.008000
0
VERTEX
8
0
10
-0.640000
20
-0.364000
0
VERTEX
8
0
10
-0.605000
20
-0.400000
0
SEQEND
8
0
0
POLYLINE
8
0
66
1
40
0.008000
41
0.008000
0
VERTEX
8
0
10
-0.640000
20
-0.400000
0
VERTEX
8
0
10
-0.605000
20
-0.364000
0
SEQEND
8
0
0
POLYLINE
8
0
66
1
40
0.008000
41
0.008000
0
VERTEX
8
0
10
-0.723000
20
-0.357000
0
VERTEX
8
0
10
-0.723000
20
-0.407000
0
SEQEND
8
0
0
POLYLINE
8
0
66
1
40
0.008000
41
0.008000
0
VERTEX
8
0
10
-0.748000
20
-0.382000
0
VERTEX
8
0
10
-0.698000
20
-0.382000
0
SEQEND
8
0
0
POLYLINE
8
0
66
1
40
0.008000
41
0.008000
0
VERTEX
8
0
10
-0.740000
20
-0.364000
0
VERTEX
8
0
10
-0.705000
20
-0.400000
0
SEQEND
8
0
0
POLYLINE
8
0
66
1
40
0.008000
41
0.008000
0
VERTEX
8
0
10
-0.740000
20
-0.400000
0
VERTEX
8
0
10
-0.705000
20
-0.364000
0
SEQEND
8
0
0
POLYLINE
8
0
66
1
40
0.008000
41
0.008000
0
VERTEX
8
0
10
-0.723000
20
-0.657000
0
VERTEX
8
0
10
-0.723000
20
-0.707000
0
SEQEND
8
0
0
POLYLINE
8
0
66
1
40
0.008000
41
0.008000
0
VERTEX
8
0
10
-0.748000
20
-0.682000
0
VERTEX
8
0
10
-0.698000
20
-0.682000
0
SEQEND
8
0
0
POLYLINE
8
0
66
1
40
0.008000
41
0.008000
0
VERTEX
8
0
10
-0.740000
20
-0.664000
0
VERTEX
8
0
10
-0.705000
20
-0.700000
0
SEQEND
8
0
0
POLYLINE
8
0
66
1
40
0.008000
41
0.008000
0
VERTEX
8
0
10
-0.740000
20
-0.700000
0
VERTEX
8
0
10
-0.705000
20
-0.664000
0
SEQEND
8
0
0
POLYLINE
8
0
66
1
40
0.008000
41
0.008000
0
VERTEX
8
0
10
-0.623000
20
-0.657000
0
VERTEX
8
0
10
-0.623000
20
-0.707000
0
SEQEND
8
0
0
POLYLINE
8
0
66
1
40
0.008000
41
0.008000
0
VERTEX
8
0
10
-0.648000
20
-0.682000
0
VERTEX
8
0
10
-0.598000
20
-0.682000
0
SEQEND
8
0
0
POLYLINE
8
0
66
1
40
0.008000
41
0.008000
0
VERTEX
8
0
10
-0.640000
20
-0.664000
0
VERTEX
8
0
10
-0.605000
20
-0.700000
0
SEQEND
8
0
0
POLYLINE
8
0
66
1
40
0.008000
41
0.008000
0
VERTEX
8
0
10
-0.640000
20
-0.700000
0
VERTEX
8
0
10
-0.605000
20
-0.664000
0
SEQEND
8
0
0
POLYLINE
8
0
66
1
40
0.008000
41
0.008000
0
VERTEX
8
0
10
-0.523000
20
-0.657000
0
VERTEX
8
0
10
-0.523000
20
-0.707000
0
SEQEND
8
0
0
POLYLINE
8
0
66
1
40
0.008000
41
0.008000
0
VERTEX
8
0
10
-0.548000
20
-0.682000
0
VERTEX
8
0
10
-0.498000
20
-0.682000
0
SEQEND
8
0
0
POLYLINE
8
0
66
1
40
0.008000
41
0.008000
0
VERTEX
8
0
10
-0.540000
20
-0.664000
0
VERTEX
8
0
10
-0.505000
20
-0.700000
0
SEQEND
8
0
0
POLYLINE
8
0
66
1
40
0.008000
41
0.008000
0
VERTEX
8
0
10
-0.540000
20
-0.700000
0
VERTEX
8
0
10
-0.505000
20
-0.664000
0
SEQEND
8
0
0
POLYLINE
8
0
66
1
40
0.008000
41
0.008000
0
VERTEX
8
0
10
-0.423000
20
-0.657000
0
VERTEX
8
0
10
-0.423000
20
-0.707000
0
SEQEND
8
0
0
POLYLINE
8
0
66
1
40
0.008000
41
0.008000
0
VERTEX
8
0
10
-0.448000
20
-0.682000
0
VERTEX
8
0
10
-0.398000
20
-0.682000
0
SEQEND
8
0
0
POLYLINE
8
0
66
1
40
0.008000
41
0.008000
0
VERTEX
8
0
10
-0.440000
20
-0.664000
0
VERTEX
8
0
10
-0.405000
20
-0.700000
0
SEQEND
8
0
0
POLYLINE
8
0
66
1
40
0.008000
41
0.008000
0
VERTEX
8
0
10
-0.440000
20
-0.700000
0
VERTEX
8
0
10
-0.405000
20
-0.664000
0
SEQEND
8
0
0
POLYLINE
8
0
66
1
40
0.008000
41
0.008000
0
VERTEX
8
0
10
-0.323000
20
-0.657000
0
VERTEX
8
0
10
-0.323000
20
-0.707000
0
SEQEND
8
0
0
POLYLINE
8
0
66
1
40
0.008000
41
0.008000
0
VERTEX
8
0
10
-0.348000
20
-0.682000
0
VERTEX
8
0
10
-0.298000
20
-0.682000
0
SEQEND
8
0
0
POLYLINE
8
0
66
1
40
0.008000
41
0.008000
0
VERTEX
8
0
10
-0.340000
20
-0.664000
0
VERTEX
8
0
10
-0.305000
20
-0.700000
0
SEQEND
8
0
0
POLYLINE
8
0
66
1
40
0.008000
41
0.008000
0
VERTEX
8
0
10
-0.340000
20
-0.700000
0
VERTEX
8
0
10
-0.305000
20
-0.664000
0
SEQEND
8
0
0
POLYLINE
8
0
66
1
40
0.008000
41
0.008000
0
VERTEX
8
0
10
-0.223000
20
-0.657000
0
VERTEX
8
0
10
-0.223000
20
-0.707000
0
SEQEND
8
0
0
POLYLINE
8
0
66
1
40
0.008000
41
0.008000
0
VERTEX
8
0
10
-0.248000
20
-0.682000
0
VERTEX
8
0
10
-0.198000
20
-0.682000
0
SEQEND
8
0
0
POLYLINE
8
0
66
1
40
0.008000
41
0.008000
0
VERTEX
8
0
10
-0.240000
20
-0.664000
0
VERTEX
8
0
10
-0.205000
20
-0.700000
0
SEQEND
8
0
0
POLYLINE
8
0
66
1
40
0.008000
41
0.008000
0
VERTEX
8
0
10
-0.240000
20
-0.700000
0
VERTEX
8
0
10
-0.205000
20
-0.664000
0
SEQEND
8
0
0
POLYLINE
8
0
66
1
40
0.008000
41
0.008000
0
VERTEX
8
0
10
-0.123000
20
-0.657000
0
VERTEX
8
0
10
-0.123000
20
-0.707000
0
SEQEND
8
0
0
POLYLINE
8
0
66
1
40
0.008000
41
0.008000
0
VERTEX
8
0
10
-0.148000
20
-0.682000
0
VERTEX
8
0
10
-0.098000
20
-0.682000
0
SEQEND
8
0
0
POLYLINE
8
0
66
1
40
0.008000
41
0.008000
0
VERTEX
8
0
10
-0.140000
20
-0.664000
0
VERTEX
8
0
10
-0.105000
20
-0.700000
0
SEQEND
8
0
0
POLYLINE
8
0
66
1
40
0.008000
41
0.008000
0
VERTEX
8
0
10
-0.140000
20
-0.700000
0
VERTEX
8
0
10
-0.105000
20
-0.664000
0
SEQEND
8
0
0
POLYLINE
8
0
66
1
40
0.008000
41
0.008000
0
VERTEX
8
0
10
-0.023000
20
-0.657000
0
VERTEX
8
0
10
-0.023000
20
-0.707000
0
SEQEND
8
0
0
POLYLINE
8
0
66
1
40
0.008000
41
0.008000
0
VERTEX
8
0
10
-0.048000
20
-0.682000
0
VERTEX
8
0
10
0.001000
20
-0.682000
0
SEQEND
8
0
0
POLYLINE
8
0
66
1
40
0.008000
41
0.008000
0
VERTEX
8
0
10
-0.040000
20
-0.664000
0
VERTEX
8
0
10
-0.005000
20
-0.700000
0
SEQEND
8
0
0
POLYLINE
8
0
66
1
40
0.008000
41
0.008000
0
VERTEX
8
0
10
-0.040000
20
-0.700000
0
VERTEX
8
0
10
-0.005000
20
-0.664000
0
SEQEND
8
0
0
POLYLINE
8
0
66
1
40
0.008000
41
0.008000
0
VERTEX
8
0
10
0.076000
20
-0.657000
0
VERTEX
8
0
10
0.076000
20
-0.707000
0
SEQEND
8
0
0
POLYLINE
8
0
66
1
40
0.008000
41
0.008000
0
VERTEX
8
0
10
0.051000
20
-0.682000
0
VERTEX
8
0
10
0.101000
20
-0.682000
0
SEQEND
8
0
0
POLYLINE
8
0
66
1
40
0.008000
41
0.008000
0
VERTEX
8
0
10
0.059000
20
-0.664000
0
VERTEX
8
0
10
0.094000
20
-0.700000
0
SEQEND
8
0
0
POLYLINE
8
0
66
1
40
0.008000
41
0.008000
0
VERTEX
8
0
10
0.059000
20
-0.700000
0
VERTEX
8
0
10
0.094000
20
-0.664000
0
SEQEND
8
0
0
POLYLINE
8
0
66
1
40
0.008000
41
0.008000
0
VERTEX
8
0
10
0.176000
20
-0.657000
0
VERTEX
8
0
10
0.176000
20
-0.707000
0
SEQEND
8
0
0
POLYLINE
8
0
66
1
40
0.008000
41
0.008000
0
VERTEX
8
0
10
0.151000
20
-0.682000
0
VERTEX
8
0
10
0.201000
20
-0.682000
0
SEQEND
8
0
0
POLYLINE
8
0
66
1
40
0.008000
41
0.008000
0
VERTEX
8
0
10
0.159000
20
-0.664000
0
VERTEX
8
0
10
0.194000
20
-0.700000
0
SEQEND
8
0
0
POLYLINE
8
0
66
1
40
0.008000
41
0.008000
0
VERTEX
8
0
10
0.159000
20
-0.700000
0
VERTEX
8
0
10
0.194000
20
-0.664000
0
SEQEND
8
0
0
POLYLINE
8
0
66
1
40
0.008000
41
0.008000
0
VERTEX
8
0
10
0.384000
20
-0.524000
0
VERTEX
8
0
10
0.419000
20
-0.560000
0
SEQEND
8
0
0
POLYLINE
8
0
66
1
40
0.008000
41
0.008000
0
VERTEX
8
0
10
0.384000
20
-0.560000
0
VERTEX
8
0
10
0.419000
20
-0.524000
0
SEQEND
8
0
0
POLYLINE
8
0
66
1
40
0.008000
41
0.008000
0
VERTEX
8
0
10
0.384000
20
-0.724000
0
VERTEX
8
0
10
0.419000
20
-0.760000
0
SEQEND
8
0
0
POLYLINE
8
0
66
1
40
0.008000
41
0.008000
0
VERTEX
8
0
10
0.384000
20
-0.760000
0
VERTEX
8
0
10
0.419000
20
-0.724000
0
SEQEND
8
0
0
POLYLINE
8
0
66
1
40
0.008000
41
0.008000
0
VERTEX
8
0
10
-0.323000
20
0.717000
0
VERTEX
8
0
10
-0.323000
20
0.667000
0
SEQEND
8
0
0
POLYLINE
8
0
66
1
40
0.008000
41
0.008000
0
VERTEX
8
0
10
-0.348000
20
0.692000
0
VERTEX
8
0
10
-0.298000
20
0.692000
0
SEQEND
8
0
0
POLYLINE
8
0
66
1
40
0.008000
41
0.008000
0
VERTEX
8
0
10
-0.340000
20
0.710000
0
VERTEX
8
0
10
-0.305000
20
0.674000
0
SEQEND
8
0
0
POLYLINE
8
0
66
1
40
0.008000
41
0.008000
0
VERTEX
8
0
10
-0.340000
20
0.674000
0
VERTEX
8
0
10
-0.305000
20
0.710000
0
SEQEND
8
0
0
POLYLINE
8
0
66
1
40
0.008000
41
0.008000
0
VERTEX
8
0
10
-0.323000
20
0.617000
0
VERTEX
8
0
10
-0.323000
20
0.567000
0
SEQEND
8
0
0
POLYLINE
8
0
66
1
40
0.008000
41
0.008000
0
VERTEX
8
0
10
-0.348000
20
0.592000
0
VERTEX
8
0
10
-0.298000
20
0.592000
0
SEQEND
8
0
0
POLYLINE
8
0
66
1
40
0.008000
41
0.008000
0
VERTEX
8
0
10
-0.340000
20
0.610000
0
VERTEX
8
0
10
-0.305000
20
0.574000
0
SEQEND
8
0
0
POLYLINE
8
0
66
1
40
0.008000
41
0.008000
0
VERTEX
8
0
10
-0.340000
20
0.574000
0
VERTEX
8
0
10
-0.305000
20
0.610000
0
SEQEND
8
0
0
POLYLINE
8
0
66
1
40
0.008000
41
0.008000
0
VERTEX
8
0
10
-0.323000
20
0.517000
0
VERTEX
8
0
10
-0.323000
20
0.467000
0
SEQEND
8
0
0
POLYLINE
8
0
66
1
40
0.008000
41
0.008000
0
VERTEX
8
0
10
-0.348000
20
0.492000
0
VERTEX
8
0
10
-0.298000
20
0.492000
0
SEQEND
8
0
0
POLYLINE
8
0
66
1
40
0.008000
41
0.008000
0
VERTEX
8
0
10
-0.340000
20
0.510000
0
VERTEX
8
0
10
-0.305000
20
0.474000
0
SEQEND
8
0
0
POLYLINE
8
0
66
1
40
0.008000
41
0.008000
0
VERTEX
8
0
10
-0.340000
20
0.474000
0
VERTEX
8
0
10
-0.305000
20
0.510000
0
SEQEND
8
0
0
POLYLINE
8
0
66
1
40
0.008000
41
0.008000
0
VERTEX
8
0
10
-0.323000
20
0.417000
0
VERTEX
8
0
10
-0.323000
20
0.367000
0
SEQEND
8
0
0
POLYLINE
8
0
66
1
40
0.008000
41
0.008000
0
VERTEX
8
0
10
-0.348000
20
0.392000
0
VERTEX
8
0
10
-0.298000
20
0.392000
0
SEQEND
8
0
0
POLYLINE
8
0
66
1
40
0.008000
41
0.008000
0
VERTEX
8
0
10
-0.340000
20
0.410000
0
VERTEX
8
0
10
-0.305000
20
0.374000
0
SEQEND
8
0
0
POLYLINE
8
0
66
1
40
0.008000
41
0.008000
0
VERTEX
8
0
10
-0.340000
20
0.374000
0
VERTEX
8
0
10
-0.305000
20
0.410000
0
SEQEND
8
0
0
POLYLINE
8
0
66
1
40
0.008000
41
0.008000
0
VERTEX
8
0
10
-0.323000
20
0.317000
0
VERTEX
8
0
10
-0.323000
20
0.267000
0
SEQEND
8
0
0
POLYLINE
8
0
66
1
40
0.008000
41
0.008000
0
VERTEX
8
0
10
-0.348000
20
0.292000
0
VERTEX
8
0
10
-0.298000
20
0.292000
0
SEQEND
8
0
0
POLYLINE
8
0
66
1
40
0.008000
41
0.008000
0
VERTEX
8
0
10
-0.340000
20
0.310000
0
VERTEX
8
0
10
-0.305000
20
0.274000
0
SEQEND
8
0
0
POLYLINE
8
0
66
1
40
0.008000
41
0.008000
0
VERTEX
8
0
10
-0.340000
20
0.274000
0
VERTEX
8
0
10
-0.305000
20
0.310000
0
SEQEND
8
0
0
POLYLINE
8
0
66
1
40
0.008000
41
0.008000
0
VERTEX
8
0
10
-0.323000
20
0.217000
0
VERTEX
8
0
10
-0.323000
20
0.167000
0
SEQEND
8
0
0
POLYLINE
8
0
66
1
40
0.008000
41
0.008000
0
VERTEX
8
0
10
-0.348000
20
0.192000
0
VERTEX
8
0
10
-0.298000
20
0.192000
0
SEQEND
8
0
0
POLYLINE
8
0
66
1
40
0.008000
41
0.008000
0
VERTEX
8
0
10
-0.340000
20
0.210000
0
VERTEX
8
0
10
-0.305000
20
0.174000
0
SEQEND
8
0
0
POLYLINE
8
0
66
1
40
0.008000
41
0.008000
0
VERTEX
8
0
10
-0.340000
20
0.174000
0
VERTEX
8
0
10
-0.305000
20
0.210000
0
SEQEND
8
0
0
POLYLINE
8
0
66
1
40
0.008000
41
0.008000
0
VERTEX
8
0
10
-0.323000
20
0.117000
0
VERTEX
8
0
10
-0.323000
20
0.067000
0
SEQEND
8
0
0
POLYLINE
8
0
66
1
40
0.008000
41
0.008000
0
VERTEX
8
0
10
-0.348000
20
0.092000
0
VERTEX
8
0
10
-0.298000
20
0.092000
0
SEQEND
8
0
0
POLYLINE
8
0
66
1
40
0.008000
41
0.008000
0
VERTEX
8
0
10
-0.340000
20
0.110000
0
VERTEX
8
0
10
-0.305000
20
0.074000
0
SEQEND
8
0
0
POLYLINE
8
0
66
1
40
0.008000
41
0.008000
0
VERTEX
8
0
10
-0.340000
20
0.074000
0
VERTEX
8
0
10
-0.305000
20
0.110000
0
SEQEND
8
0
0
POLYLINE
8
0
66
1
40
0.008000
41
0.008000
0
VERTEX
8
0
10
-0.323000
20
0.017000
0
VERTEX
8
0
10
-0.323000
20
-0.032000
0
SEQEND
8
0
0
POLYLINE
8
0
66
1
40
0.008000
41
0.008000
0
VERTEX
8
0
10
-0.348000
20
-0.007000
0
VERTEX
8
0
10
-0.298000
20
-0.007000
0
SEQEND
8
0
0
POLYLINE
8
0
66
1
40
0.008000
41
0.008000
0
VERTEX
8
0
10
-0.340000
20
0.010000
0
VERTEX
8
0
10
-0.305000
20
-0.025000
0
SEQEND
8
0
0
POLYLINE
8
0
66
1
40
0.008000
41
0.008000
0
VERTEX
8
0
10
-0.340000
20
-0.025000
0
VERTEX
8
0
10
-0.305000
20
0.010000
0
SEQEND
8
0
0
POLYLINE
8
0
66
1
40
0.008000
41
0.008000
0
VERTEX
8
0
10
-0.323000
20
-0.082000
0
VERTEX
8
0
10
-0.323000
20
-0.132000
0
SEQEND
8
0
0
POLYLINE
8
0
66
1
40
0.008000
41
0.008000
0
VERTEX
8
0
10
-0.348000
20
-0.107000
0
VERTEX
8
0
10
-0.298000
20
-0.107000
0
SEQEND
8
0
0
POLYLINE
8
0
66
1
40
0.008000
41
0.008000
0
VERTEX
8
0
10
-0.340000
20
-0.089000
0
VERTEX
8
0
10
-0.305000
20
-0.125000
0
SEQEND
8
0
0
POLYLINE
8
0
66
1
40
0.008000
41
0.008000
0
VERTEX
8
0
10
-0.340000
20
-0.125000
0
VERTEX
8
0
10
-0.305000
20
-0.089000
0
SEQEND
8
0
0
POLYLINE
8
0
66
1
40
0.008000
41
0.008000
0
VERTEX
8
0
10
-0.023000
20
-0.082000
0
VERTEX
8
0
10
-0.023000
20
-0.132000
0
SEQEND
8
0
0
POLYLINE
8
0
66
1
40
0.008000
41
0.008000
0
VERTEX
8
0
10
-0.048000
20
-0.107000
0
VERTEX
8
0
10
0.001000
20
-0.107000
0
SEQEND
8
0
0
POLYLINE
8
0
66
1
40
0.008000
41
0.008000
0
VERTEX
8
0
10
-0.040000
20
-0.089000
0
VERTEX
8
0
10
-0.005000
20
-0.125000
0
SEQEND
8
0
0
POLYLINE
8
0
66
1
40
0.008000
41
0.008000
0
VERTEX
8
0
10
-0.040000
20
-0.125000
0
VERTEX
8
0
10
-0.005000
20
-0.089000
0
SEQEND
8
0
0
POLYLINE
8
0
66
1
40
0.008000
41
0.008000
0
VERTEX
8
0
10
-0.023000
20
0.017000
0
VERTEX
8
0
10
-0.023000
20
-0.032000
0
SEQEND
8
0
0
POLYLINE
8
0
66
1
40
0.008000
41
0.008000
0
VERTEX
8
0
10
-0.048000
20
-0.007000
0
VERTEX
8
0
10
0.001000
20
-0.007000
0
SEQEND
8
0
0
POLYLINE
8
0
66
1
40
0.008000
41
0.008000
0
VERTEX
8
0
10
-0.040000
20
0.010000
0
VERTEX
8
0
10
-0.005000
20
-0.025000
0
SEQEND
8
0
0
POLYLINE
8
0
66
1
40
0.008000
41
0.008000
0
VERTEX
8
0
10
-0.040000
20
-0.025000
0
VERTEX
8
0
10
-0.005000
20
0.010000
0
SEQEND
8
0
0
POLYLINE
8
0
66
1
40
0.008000
41
0.008000
0
VERTEX
8
0
10
-0.023000
20
0.117000
0
VERTEX
8
0
10
-0.023000
20
0.067000
0
SEQEND
8
0
0
POLYLINE
8
0
66
1
40
0.008000
41
0.008000
0
VERTEX
8
0
10
-0.048000
20
0.092000
0
VERTEX
8
0
10
0.001000
20
0.092000
0
SEQEND
8
0
0
POLYLINE
8
0
66
1
40
0.008000
41
0.008000
0
VERTEX
8
0
10
-0.040000
20
0.110000
0
VERTEX
8
0
10
-0.005000
20
0.074000
0
SEQEND
8
0
0
POLYLINE
8
0
66
1
40
0.008000
41
0.008000
0
VERTEX
8
0
10
-0.040000
20
0.074000
0
VERTEX
8
0
10
-0.005000
20
0.110000
0
SEQEND
8
0
0
POLYLINE
8
0
66
1
40
0.008000
41
0.008000
0
VERTEX
8
0
10
-0.023000
20
0.217000
0
VERTEX
8
0
10
-0.023000
20
0.167000
0
SEQEND
8
0
0
POLYLINE
8
0
66
1
40
0.008000
41
0.008000
0
VERTEX
8
0
10
-0.048000
20
0.192000
0
VERTEX
8
0
10
0.001000
20
0.192000
0
SEQEND
8
0
0
POLYLINE
8
0
66
1
40
0.008000
41
0.008000
0
VERTEX
8
0
10
-0.040000
20
0.210000
0
VERTEX
8
0
10
-0.005000
20
0.174000
0
SEQEND
8
0
0
POLYLINE
8
0
66
1
40
0.008000
41
0.008000
0
VERTEX
8
0
10
-0.040000
20
0.174000
0
VERTEX
8
0
10
-0.005000
20
0.210000
0
SEQEND
8
0
0
POLYLINE
8
0
66
1
40
0.008000
41
0.008000
0
VERTEX
8
0
10
-0.023000
20
0.317000
0
VERTEX
8
0
10
-0.023000
20
0.267000
0
SEQEND
8
0
0
POLYLINE
8
0
66
1
40
0.008000
41
0.008000
0
VERTEX
8
0
10
-0.048000
20
0.292000
0
VERTEX
8
0
10
0.001000
20
0.292000
0
SEQEND
8
0
0
POLYLINE
8
0
66
1
40
0.008000
41
0.008000
0
VERTEX
8
0
10
-0.040000
20
0.310000
0
VERTEX
8
0
10
-0.005000
20
0.274000
0
SEQEND
8
0
0
POLYLINE
8
0
66
1
40
0.008000
41
0.008000
0
VERTEX
8
0
10
-0.040000
20
0.274000
0
VERTEX
8
0
10
-0.005000
20
0.310000
0
SEQEND
8
0
0
POLYLINE
8
0
66
1
40
0.008000
41
0.008000
0
VERTEX
8
0
10
-0.023000
20
0.417000
0
VERTEX
8
0
10
-0.023000
20
0.367000
0
SEQEND
8
0
0
POLYLINE
8
0
66
1
40
0.008000
41
0.008000
0
VERTEX
8
0
10
-0.048000
20
0.392000
0
VERTEX
8
0
10
0.001000
20
0.392000
0
SEQEND
8
0
0
POLYLINE
8
0
66
1
40
0.008000
41
0.008000
0
VERTEX
8
0
10
-0.040000
20
0.410000
0
VERTEX
8
0
10
-0.005000
20
0.374000
0
SEQEND
8
0
0
POLYLINE
8
0
66
1
40
0.008000
41
0.008000
0
VERTEX
8
0
10
-0.040000
20
0.374000
0
VERTEX
8
0
10
-0.005000
20
0.410000
0
SEQEND
8
0
0
POLYLINE
8
0
66
1
40
0.008000
41
0.008000
0
VERTEX
8
0
10
-0.023000
20
0.517000
0
VERTEX
8
0
10
-0.023000
20
0.467000
0
SEQEND
8
0
0
POLYLINE
8
0
66
1
40
0.008000
41
0.008000
0
VERTEX
8
0
10
-0.048000
20
0.492000
0
VERTEX
8
0
10
0.001000
20
0.492000
0
SEQEND
8
0
0
POLYLINE
8
0
66
1
40
0.008000
41
0.008000
0
VERTEX
8
0
10
-0.040000
20
0.510000
0
VERTEX
8
0
10
-0.005000
20
0.474000
0
SEQEND
8
0
0
POLYLINE
8
0
66
1
40
0.008000
41
0.008000
0
VERTEX
8
0
10
-0.040000
20
0.474000
0
VERTEX
8
0
10
-0.005000
20
0.510000
0
SEQEND
8
0
0
POLYLINE
8
0
66
1
40
0.008000
41
0.008000
0
VERTEX
8
0
10
-0.023000
20
0.617000
0
VERTEX
8
0
10
-0.023000
20
0.567000
0
SEQEND
8
0
0
POLYLINE
8
0
66
1
40
0.008000
41
0.008000
0
VERTEX
8
0
10
-0.048000
20
0.592000
0
VERTEX
8
0
10
0.001000
20
0.592000
0
SEQEND
8
0
0
POLYLINE
8
0
66
1
40
0.008000
41
0.008000
0
VERTEX
8
0
10
-0.040000
20
0.610000
0
VERTEX
8
0
10
-0.005000
20
0.574000
0
SEQEND
8
0
0
POLYLINE
8
0
66
1
40
0.008000
41
0.008000
0
VERTEX
8
0
10
-0.040000
20
0.574000
0
VERTEX
8
0
10
-0.005000
20
0.610000
0
SEQEND
8
0
0
POLYLINE
8
0
66
1
40
0.008000
41
0.008000
0
VERTEX
8
0
10
-0.023000
20
0.717000
0
VERTEX
8
0
10
-0.023000
20
0.667000
0
SEQEND
8
0
0
POLYLINE
8
0
66
1
40
0.008000
41
0.008000
0
VERTEX
8
0
10
-0.048000
20
0.692000
0
VERTEX
8
0
10
0.001000
20
0.692000
0
SEQEND
8
0
0
POLYLINE
8
0
66
1
40
0.008000
41
0.008000
0
VERTEX
8
0
10
-0.040000
20
0.710000
0
VERTEX
8
0
10
-0.005000
20
0.674000
0
SEQEND
8
0
0
POLYLINE
8
0
66
1
40
0.008000
41
0.008000
0
VERTEX
8
0
10
-0.040000
20
0.674000
0
VERTEX
8
0
10
-0.005000
20
0.710000
0
SEQEND
8
0
0
POLYLINE
8
0
66
1
40
0.008000
41
0.008000
0
VERTEX
8
0
10
-0.723000
20
0.717000
0
VERTEX
8
0
10
-0.723000
20
0.667000
0
SEQEND
8
0
0
POLYLINE
8
0
66
1
40
0.008000
41
0.008000
0
VERTEX
8
0
10
-0.748000
20
0.692000
0
VERTEX
8
0
10
-0.698000
20
0.692000
0
SEQEND
8
0
0
POLYLINE
8
0
66
1
40
0.008000
41
0.008000
0
VERTEX
8
0
10
-0.740000
20
0.710000
0
VERTEX
8
0
10
-0.705000
20
0.674000
0
SEQEND
8
0
0
POLYLINE
8
0
66
1
40
0.008000
41
0.008000
0
VERTEX
8
0
10
-0.740000
20
0.674000
0
VERTEX
8
0
10
-0.705000
20
0.710000
0
SEQEND
8
0
0
POLYLINE
8
0
66
1
40
0.008000
41
0.008000
0
VERTEX
8
0
10
-0.723000
20
0.617000
0
VERTEX
8
0
10
-0.723000
20
0.567000
0
SEQEND
8
0
0
POLYLINE
8
0
66
1
40
0.008000
41
0.008000
0
VERTEX
8
0
10
-0.748000
20
0.592000
0
VERTEX
8
0
10
-0.698000
20
0.592000
0
SEQEND
8
0
0
POLYLINE
8
0
66
1
40
0.008000
41
0.008000
0
VERTEX
8
0
10
-0.740000
20
0.610000
0
VERTEX
8
0
10
-0.705000
20
0.574000
0
SEQEND
8
0
0
POLYLINE
8
0
66
1
40
0.008000
41
0.008000
0
VERTEX
8
0
10
-0.740000
20
0.574000
0
VERTEX
8
0
10
-0.705000
20
0.610000
0
SEQEND
8
0
0
POLYLINE
8
0
66
1
40
0.008000
41
0.008000
0
VERTEX
8
0
10
-0.723000
20
0.517000
0
VERTEX
8
0
10
-0.723000
20
0.467000
0
SEQEND
8
0
0
POLYLINE
8
0
66
1
40
0.008000
41
0.008000
0
VERTEX
8
0
10
-0.748000
20
0.492000
0
VERTEX
8
0
10
-0.698000
20
0.492000
0
SEQEND
8
0
0
POLYLINE
8
0
66
1
40
0.008000
41
0.008000
0
VERTEX
8
0
10
-0.740000
20
0.510000
0
VERTEX
8
0
10
-0.705000
20
0.474000
0
SEQEND
8
0
0
POLYLINE
8
0
66
1
40
0.008000
41
0.008000
0
VERTEX
8
0
10
-0.740000
20
0.474000
0
VERTEX
8
0
10
-0.705000
20
0.510000
0
SEQEND
8
0
0
POLYLINE
8
0
66
1
40
0.008000
41
0.008000
0
VERTEX
8
0
10
-0.723000
20
0.417000
0
VERTEX
8
0
10
-0.723000
20
0.367000
0
SEQEND
8
0
0
POLYLINE
8
0
66
1
40
0.008000
41
0.008000
0
VERTEX
8
0
10
-0.748000
20
0.392000
0
VERTEX
8
0
10
-0.698000
20
0.392000
0
SEQEND
8
0
0
POLYLINE
8
0
66
1
40
0.008000
41
0.008000
0
VERTEX
8
0
10
-0.740000
20
0.410000
0
VERTEX
8
0
10
-0.705000
20
0.374000
0
SEQEND
8
0
0
POLYLINE
8
0
66
1
40
0.008000
41
0.008000
0
VERTEX
8
0
10
-0.740000
20
0.374000
0
VERTEX
8
0
10
-0.705000
20
0.410000
0
SEQEND
8
0
0
POLYLINE
8
0
66
1
40
0.008000
41
0.008000
0
VERTEX
8
0
10
-0.723000
20
0.317000
0
VERTEX
8
0
10
-0.723000
20
0.267000
0
SEQEND
8
0
0
POLYLINE
8
0
66
1
40
0.008000
41
0.008000
0
VERTEX
8
0
10
-0.748000
20
0.292000
0
VERTEX
8
0
10
-0.698000
20
0.292000
0
SEQEND
8
0
0
POLYLINE
8
0
66
1
40
0.008000
41
0.008000
0
VERTEX
8
0
10
-0.740000
20
0.310000
0
VERTEX
8
0
10
-0.705000
20
0.274000
0
SEQEND
8
0
0
POLYLINE
8
0
66
1
40
0.008000
41
0.008000
0
VERTEX
8
0
10
-0.740000
20
0.274000
0
VERTEX
8
0
10
-0.705000
20
0.310000
0
SEQEND
8
0
0
POLYLINE
8
0
66
1
40
0.008000
41
0.008000
0
VERTEX
8
0
10
-0.723000
20
0.217000
0
VERTEX
8
0
10
-0.723000
20
0.167000
0
SEQEND
8
0
0
POLYLINE
8
0
66
1
40
0.008000
41
0.008000
0
VERTEX
8
0
10
-0.748000
20
0.192000
0
VERTEX
8
0
10
-0.698000
20
0.192000
0
SEQEND
8
0
0
POLYLINE
8
0
66
1
40
0.008000
41
0.008000
0
VERTEX
8
0
10
-0.740000
20
0.210000
0
VERTEX
8
0
10
-0.705000
20
0.174000
0
SEQEND
8
0
0
POLYLINE
8
0
66
1
40
0.008000
41
0.008000
0
VERTEX
8
0
10
-0.740000
20
0.174000
0
VERTEX
8
0
10
-0.705000
20
0.210000
0
SEQEND
8
0
0
POLYLINE
8
0
66
1
40
0.008000
41
0.008000
0
VERTEX
8
0
10
-0.723000
20
0.117000
0
VERTEX
8
0
10
-0.723000
20
0.067000
0
SEQEND
8
0
0
POLYLINE
8
0
66
1
40
0.008000
41
0.008000
0
VERTEX
8
0
10
-0.748000
20
0.092000
0
VERTEX
8
0
10
-0.698000
20
0.092000
0
SEQEND
8
0
0
POLYLINE
8
0
66
1
40
0.008000
41
0.008000
0
VERTEX
8
0
10
-0.740000
20
0.110000
0
VERTEX
8
0
10
-0.705000
20
0.074000
0
SEQEND
8
0
0
POLYLINE
8
0
66
1
40
0.008000
41
0.008000
0
VERTEX
8
0
10
-0.740000
20
0.074000
0
VERTEX
8
0
10
-0.705000
20
0.110000
0
SEQEND
8
0
0
POLYLINE
8
0
66
1
40
0.008000
41
0.008000
0
VERTEX
8
0
10
-0.723000
20
0.017000
0
VERTEX
8
0
10
-0.723000
20
-0.032000
0
SEQEND
8
0
0
POLYLINE
8
0
66
1
40
0.008000
41
0.008000
0
VERTEX
8
0
10
-0.748000
20
-0.007000
0
VERTEX
8
0
10
-0.698000
20
-0.007000
0
SEQEND
8
0
0
POLYLINE
8
0
66
1
40
0.008000
41
0.008000
0
VERTEX
8
0
10
-0.740000
20
0.010000
0
VERTEX
8
0
10
-0.705000
20
-0.025000
0
SEQEND
8
0
0
POLYLINE
8
0
66
1
40
0.008000
41
0.008000
0
VERTEX
8
0
10
-0.740000
20
-0.025000
0
VERTEX
8
0
10
-0.705000
20
0.010000
0
SEQEND
8
0
0
POLYLINE
8
0
66
1
40
0.008000
41
0.008000
0
VERTEX
8
0
10
-0.723000
20
-0.082000
0
VERTEX
8
0
10
-0.723000
20
-0.132000
0
SEQEND
8
0
0
POLYLINE
8
0
66
1
40
0.008000
41
0.008000
0
VERTEX
8
0
10
-0.748000
20
-0.107000
0
VERTEX
8
0
10
-0.698000
20
-0.107000
0
SEQEND
8
0
0
POLYLINE
8
0
66
1
40
0.008000
41
0.008000
0
VERTEX
8
0
10
-0.740000
20
-0.089000
0
VERTEX
8
0
10
-0.705000
20
-0.125000
0
SEQEND
8
0
0
POLYLINE
8
0
66
1
40
0.008000
41
0.008000
0
VERTEX
8
0
10
-0.740000
20
-0.125000
0
VERTEX
8
0
10
-0.705000
20
-0.089000
0
SEQEND
8
0
0
POLYLINE
8
0
66
1
40
0.008000
41
0.008000
0
VERTEX
8
0
10
-0.423000
20
-0.082000
0
VERTEX
8
0
10
-0.423000
20
-0.132000
0
SEQEND
8
0
0
POLYLINE
8
0
66
1
40
0.008000
41
0.008000
0
VERTEX
8
0
10
-0.448000
20
-0.107000
0
VERTEX
8
0
10
-0.398000
20
-0.107000
0
SEQEND
8
0
0
POLYLINE
8
0
66
1
40
0.008000
41
0.008000
0
VERTEX
8
0
10
-0.440000
20
-0.089000
0
VERTEX
8
0
10
-0.405000
20
-0.125000
0
SEQEND
8
0
0
POLYLINE
8
0
66
1
40
0.008000
41
0.008000
0
VERTEX
8
0
10
-0.440000
20
-0.125000
0
VERTEX
8
0
10
-0.405000
20
-0.089000
0
SEQEND
8
0
0
POLYLINE
8
0
66
1
40
0.008000
41
0.008000
0
VERTEX
8
0
10
-0.423000
20
0.017000
0
VERTEX
8
0
10
-0.423000
20
-0.032000
0
SEQEND
8
0
0
POLYLINE
8
0
66
1
40
0.008000
41
0.008000
0
VERTEX
8
0
10
-0.448000
20
-0.007000
0
VERTEX
8
0
10
-0.398000
20
-0.007000
0
SEQEND
8
0
0
POLYLINE
8
0
66
1
40
0.008000
41
0.008000
0
VERTEX
8
0
10
-0.440000
20
0.010000
0
VERTEX
8
0
10
-0.405000
20
-0.025000
0
SEQEND
8
0
0
POLYLINE
8
0
66
1
40
0.008000
41
0.008000
0
VERTEX
8
0
10
-0.440000
20
-0.025000
0
VERTEX
8
0
10
-0.405000
20
0.010000
0
SEQEND
8
0
0
POLYLINE
8
0
66
1
40
0.008000
41
0.008000
0
VERTEX
8
0
10
-0.423000
20
0.117000
0
VERTEX
8
0
10
-0.423000
20
0.067000
0
SEQEND
8
0
0
POLYLINE
8
0
66
1
40
0.008000
41
0.008000
0
VERTEX
8
0
10
-0.448000
20
0.092000
0
VERTEX
8
0
10
-0.398000
20
0.092000
0
SEQEND
8
0
0
POLYLINE
8
0
66
1
40
0.008000
41
0.008000
0
VERTEX
8
0
10
-0.440000
20
0.110000
0
VERTEX
8
0
10
-0.405000
20
0.074000
0
SEQEND
8
0
0
POLYLINE
8
0
66
1
40
0.008000
41
0.008000
0
VERTEX
8
0
10
-0.440000
20
0.074000
0
VERTEX
8
0
10
-0.405000
20
0.110000
0
SEQEND
8
0
0
POLYLINE
8
0
66
1
40
0.008000
41
0.008000
0
VERTEX
8
0
10
-0.423000
20
0.217000
0
VERTEX
8
0
10
-0.423000
20
0.167000
0
SEQEND
8
0
0
POLYLINE
8
0
66
1
40
0.008000
41
0.008000
0
VERTEX
8
0
10
-0.448000
20
0.192000
0
VERTEX
8
0
10
-0.398000
20
0.192000
0
SEQEND
8
0
0
POLYLINE
8
0
66
1
40
0.008000
41
0.008000
0
VERTEX
8
0
10
-0.440000
20
0.210000
0
VERTEX
8
0
10
-0.405000
20
0.174000
0
SEQEND
8
0
0
POLYLINE
8
0
66
1
40
0.008000
41
0.008000
0
VERTEX
8
0
10
-0.440000
20
0.174000
0
VERTEX
8
0
10
-0.405000
20
0.210000
0
SEQEND
8
0
0
POLYLINE
8
0
66
1
40
0.008000
41
0.008000
0
VERTEX
8
0
10
-0.423000
20
0.317000
0
VERTEX
8
0
10
-0.423000
20
0.267000
0
SEQEND
8
0
0
POLYLINE
8
0
66
1
40
0.008000
41
0.008000
0
VERTEX
8
0
10
-0.448000
20
0.292000
0
VERTEX
8
0
10
-0.398000
20
0.292000
0
SEQEND
8
0
0
POLYLINE
8
0
66
1
40
0.008000
41
0.008000
0
VERTEX
8
0
10
-0.440000
20
0.310000
0
VERTEX
8
0
10
-0.405000
20
0.274000
0
SEQEND
8
0
0
POLYLINE
8
0
66
1
40
0.008000
41
0.008000
0
VERTEX
8
0
10
-0.440000
20
0.274000
0
VERTEX
8
0
10
-0.405000
20
0.310000
0
SEQEND
8
0
0
POLYLINE
8
0
66
1
40
0.008000
41
0.008000
0
VERTEX
8
0
10
-0.423000
20
0.417000
0
VERTEX
8
0
10
-0.423000
20
0.367000
0
SEQEND
8
0
0
POLYLINE
8
0
66
1
40
0.008000
41
0.008000
0
VERTEX
8
0
10
-0.448000
20
0.392000
0
VERTEX
8
0
10
-0.398000
20
0.392000
0
SEQEND
8
0
0
POLYLINE
8
0
66
1
40
0.008000
41
0.008000
0
VERTEX
8
0
10
-0.440000
20
0.410000
0
VERTEX
8
0
10
-0.405000
20
0.374000
0
SEQEND
8
0
0
POLYLINE
8
0
66
1
40
0.008000
41
0.008000
0
VERTEX
8
0
10
-0.440000
20
0.374000
0
VERTEX
8
0
10
-0.405000
20
0.410000
0
SEQEND
8
0
0
POLYLINE
8
0
66
1
40
0.008000
41
0.008000
0
VERTEX
8
0
10
-0.423000
20
0.517000
0
VERTEX
8
0
10
-0.423000
20
0.467000
0
SEQEND
8
0
0
POLYLINE
8
0
66
1
40
0.008000
41
0.008000
0
VERTEX
8
0
10
-0.448000
20
0.492000
0
VERTEX
8
0
10
-0.398000
20
0.492000
0
SEQEND
8
0
0
POLYLINE
8
0
66
1
40
0.008000
41
0.008000
0
VERTEX
8
0
10
-0.440000
20
0.510000
0
VERTEX
8
0
10
-0.405000
20
0.474000
0
SEQEND
8
0
0
POLYLINE
8
0
66
1
40
0.008000
41
0.008000
0
VERTEX
8
0
10
-0.440000
20
0.474000
0
VERTEX
8
0
10
-0.405000
20
0.510000
0
SEQEND
8
0
0
POLYLINE
8
0
66
1
40
0.008000
41
0.008000
0
VERTEX
8
0
10
-0.423000
20
0.617000
0
VERTEX
8
0
10
-0.423000
20
0.567000
0
SEQEND
8
0
0
POLYLINE
8
0
66
1
40
0.008000
41
0.008000
0
VERTEX
8
0
10
-0.448000
20
0.592000
0
VERTEX
8
0
10
-0.398000
20
0.592000
0
SEQEND
8
0
0
POLYLINE
8
0
66
1
40
0.008000
41
0.008000
0
VERTEX
8
0
10
-0.440000
20
0.610000
0
VERTEX
8
0
10
-0.405000
20
0.574000
0
SEQEND
8
0
0
POLYLINE
8
0
66
1
40
0.008000
41
0.008000
0
VERTEX
8
0
10
-0.440000
20
0.574000
0
VERTEX
8
0
10
-0.405000
20
0.610000
0
SEQEND
8
0
0
POLYLINE
8
0
66
1
40
0.008000
41
0.008000
0
VERTEX
8
0
10
-0.423000
20
0.717000
0
VERTEX
8
0
10
-0.423000
20
0.667000
0
SEQEND
8
0
0
POLYLINE
8
0
66
1
40
0.008000
41
0.008000
0
VERTEX
8
0
10
-0.448000
20
0.692000
0
VERTEX
8
0
10
-0.398000
20
0.692000
0
SEQEND
8
0
0
POLYLINE
8
0
66
1
40
0.008000
41
0.008000
0
VERTEX
8
0
10
-0.440000
20
0.710000
0
VERTEX
8
0
10
-0.405000
20
0.674000
0
SEQEND
8
0
0
POLYLINE
8
0
66
1
40
0.008000
41
0.008000
0
VERTEX
8
0
10
-0.440000
20
0.674000
0
VERTEX
8
0
10
-0.405000
20
0.710000
0
SEQEND
8
0
0
POLYLINE
8
0
66
1
40
0.008000
41
0.008000
0
VERTEX
8
0
10
0.326000
20
-0.082000
0
VERTEX
8
0
10
0.326000
20
-0.132000
0
SEQEND
8
0
0
POLYLINE
8
0
66
1
40
0.008000
41
0.008000
0
VERTEX
8
0
10
0.301000
20
-0.107000
0
VERTEX
8
0
10
0.351000
20
-0.107000
0
SEQEND
8
0
0
POLYLINE
8
0
66
1
40
0.008000
41
0.008000
0
VERTEX
8
0
10
0.384000
20
-0.264000
0
VERTEX
8
0
10
0.419000
20
-0.300000
0
SEQEND
8
0
0
POLYLINE
8
0
66
1
40
0.008000
41
0.008000
0
VERTEX
8
0
10
0.384000
20
-0.300000
0
VERTEX
8
0
10
0.419000
20
-0.264000
0
SEQEND
8
0
0
POLYLINE
8
0
66
1
40
0.008000
41
0.008000
0
VERTEX
8
0
10
0.384000
20
-0.464000
0
VERTEX
8
0
10
0.419000
20
-0.500000
0
SEQEND
8
0
0
POLYLINE
8
0
66
1
40
0.008000
41
0.008000
0
VERTEX
8
0
10
0.384000
20
-0.500000
0
VERTEX
8
0
10
0.419000
20
-0.464000
0
SEQEND
8
0
0
POLYLINE
8
0
66
1
40
0.008000
41
0.008000
0
VERTEX
8
0
10
-0.690000
20
-0.189000
0
VERTEX
8
0
10
-0.655000
20
-0.225000
0
SEQEND
8
0
0
POLYLINE
8
0
66
1
40
0.008000
41
0.008000
0
VERTEX
8
0
10
-0.690000
20
-0.225000
0
VERTEX
8
0
10
-0.655000
20
-0.189000
0
SEQEND
8
0
0
POLYLINE
8
0
66
1
40
0.008000
41
0.008000
0
VERTEX
8
0
10
-0.690000
20
-0.289000
0
VERTEX
8
0
10
-0.655000
20
-0.325000
0
SEQEND
8
0
0
POLYLINE
8
0
66
1
40
0.008000
41
0.008000
0
VERTEX
8
0
10
-0.690000
20
-0.325000
0
VERTEX
8
0
10
-0.655000
20
-0.289000
0
SEQEND
8
0
0
POLYLINE
8
0
66
1
40
0.008000
41
0.008000
0
VERTEX
8
0
10
-0.730000
20
-0.189000
0
VERTEX
8
0
10
-0.695000
20
-0.225000
0
SEQEND
8
0
0
POLYLINE
8
0
66
1
40
0.008000
41
0.008000
0
VERTEX
8
0
10
-0.730000
20
-0.225000
0
VERTEX
8
0
10
-0.695000
20
-0.189000
0
SEQEND
8
0
0
POLYLINE
8
0
66
1
40
0.008000
41
0.008000
0
VERTEX
8
0
10
-0.830000
20
-0.189000
0
VERTEX
8
0
10
-0.795000
20
-0.225000
0
SEQEND
8
0
0
POLYLINE
8
0
66
1
40
0.008000
41
0.008000
0
VERTEX
8
0
10
-0.830000
20
-0.225000
0
VERTEX
8
0
10
-0.795000
20
-0.189000
0
SEQEND
8
0
0
POLYLINE
8
0
66
1
40
0.008000
41
0.008000
0
VERTEX
8
0
10
-0.730000
20
-0.289000
0
VERTEX
8
0
10
-0.695000
20
-0.325000
0
SEQEND
8
0
0
POLYLINE
8
0
66
1
40
0.008000
41
0.008000
0
VERTEX
8
0
10
-0.730000
20
-0.325000
0
VERTEX
8
0
10
-0.695000
20
-0.289000
0
SEQEND
8
0
0
POLYLINE
8
0
66
1
40
0.008000
41
0.008000
0
VERTEX
8
0
10
-0.830000
20
-0.289000
0
VERTEX
8
0
10
-0.795000
20
-0.325000
0
SEQEND
8
0
0
POLYLINE
8
0
66
1
40
0.008000
41
0.008000
0
VERTEX
8
0
10
-0.830000
20
-0.325000
0
VERTEX
8
0
10
-0.795000
20
-0.289000
0
SEQEND
8
0
0
POLYLINE
8
0
66
1
40
0.008000
41
0.008000
0
VERTEX
8
0
10
0.051000
20
0.392000
0
VERTEX
8
0
10
0.051000
20
0.342000
0
SEQEND
8
0
0
POLYLINE
8
0
66
1
40
0.008000
41
0.008000
0
VERTEX
8
0
10
0.026000
20
0.367000
0
VERTEX
8
0
10
0.076000
20
0.367000
0
SEQEND
8
0
0
POLYLINE
8
0
66
1
40
0.008000
41
0.008000
0
VERTEX
8
0
10
0.034000
20
0.385000
0
VERTEX
8
0
10
0.069000
20
0.349000
0
SEQEND
8
0
0
POLYLINE
8
0
66
1
40
0.008000
41
0.008000
0
VERTEX
8
0
10
0.034000
20
0.349000
0
VERTEX
8
0
10
0.069000
20
0.385000
0
SEQEND
8
0
0
POLYLINE
8
0
66
1
40
0.008000
41
0.008000
0
VERTEX
8
0
10
0.051000
20
0.192000
0
VERTEX
8
0
10
0.051000
20
0.142000
0
SEQEND
8
0
0
POLYLINE
8
0
66
1
40
0.008000
41
0.008000
0
VERTEX
8
0
10
0.026000
20
0.167000
0
VERTEX
8
0
10
0.076000
20
0.167000
0
SEQEND
8
0
0
POLYLINE
8
0
66
1
40
0.008000
41
0.008000
0
VERTEX
8
0
10
0.034000
20
0.185000
0
VERTEX
8
0
10
0.069000
20
0.149000
0
SEQEND
8
0
0
POLYLINE
8
0
66
1
40
0.008000
41
0.008000
0
VERTEX
8
0
10
0.034000
20
0.149000
0
VERTEX
8
0
10
0.069000
20
0.185000
0
SEQEND
8
0
0
POLYLINE
8
0
66
1
40
0.008000
41
0.008000
0
VERTEX
8
0
10
0.151000
20
0.317000
0
VERTEX
8
0
10
0.151000
20
0.267000
0
SEQEND
8
0
0
POLYLINE
8
0
66
1
40
0.008000
41
0.008000
0
VERTEX
8
0
10
0.126000
20
0.292000
0
VERTEX
8
0
10
0.176000
20
0.292000
0
SEQEND
8
0
0
POLYLINE
8
0
66
1
40
0.008000
41
0.008000
0
VERTEX
8
0
10
0.134000
20
0.310000
0
VERTEX
8
0
10
0.169000
20
0.274000
0
SEQEND
8
0
0
POLYLINE
8
0
66
1
40
0.008000
41
0.008000
0
VERTEX
8
0
10
0.134000
20
0.274000
0
VERTEX
8
0
10
0.169000
20
0.310000
0
SEQEND
8
0
0
POLYLINE
8
0
66
1
40
0.008000
41
0.008000
0
VERTEX
8
0
10
0.151000
20
0.117000
0
VERTEX
8
0
10
0.151000
20
0.067000
0
SEQEND
8
0
0
POLYLINE
8
0
66
1
40
0.008000
41
0.008000
0
VERTEX
8
0
10
0.126000
20
0.092000
0
VERTEX
8
0
10
0.176000
20
0.092000
0
SEQEND
8
0
0
POLYLINE
8
0
66
1
40
0.008000
41
0.008000
0
VERTEX
8
0
10
0.134000
20
0.110000
0
VERTEX
8
0
10
0.169000
20
0.074000
0
SEQEND
8
0
0
POLYLINE
8
0
66
1
40
0.008000
41
0.008000
0
VERTEX
8
0
10
0.134000
20
0.074000
0
VERTEX
8
0
10
0.169000
20
0.110000
0
SEQEND
8
0
0
POLYLINE
8
0
66
1
40
0.008000
41
0.008000
0
VERTEX
8
0
10
0.226000
20
0.447000
0
VERTEX
8
0
10
0.226000
20
0.397000
0
SEQEND
8
0
0
POLYLINE
8
0
66
1
40
0.008000
41
0.008000
0
VERTEX
8
0
10
0.201000
20
0.422000
0
VERTEX
8
0
10
0.251000
20
0.422000
0
SEQEND
8
0
0
POLYLINE
8
0
66
1
40
0.008000
41
0.008000
0
VERTEX
8
0
10
0.209000
20
0.440000
0
VERTEX
8
0
10
0.244000
20
0.404000
0
SEQEND
8
0
0
POLYLINE
8
0
66
1
40
0.008000
41
0.008000
0
VERTEX
8
0
10
0.209000
20
0.404000
0
VERTEX
8
0
10
0.244000
20
0.440000
0
SEQEND
8
0
0
POLYLINE
8
0
66
1
40
0.008000
41
0.008000
0
VERTEX
8
0
10
0.226000
20
0.047000
0
VERTEX
8
0
10
0.226000
20
-0.002000
0
SEQEND
8
0
0
POLYLINE
8
0
66
1
40
0.008000
41
0.008000
0
VERTEX
8
0
10
0.201000
20
0.022000
0
VERTEX
8
0
10
0.251000
20
0.022000
0
SEQEND
8
0
0
POLYLINE
8
0
66
1
40
0.008000
41
0.008000
0
VERTEX
8
0
10
0.209000
20
0.040000
0
VERTEX
8
0
10
0.244000
20
0.004000
0
SEQEND
8
0
0
POLYLINE
8
0
66
1
40
0.008000
41
0.008000
0
VERTEX
8
0
10
0.209000
20
0.004000
0
VERTEX
8
0
10
0.244000
20
0.040000
0
SEQEND
8
0
0
POLYLINE
8
0
66
1
40
0.008000
41
0.008000
0
VERTEX
8
0
10
0.151000
20
0.417000
0
VERTEX
8
0
10
0.151000
20
0.367000
0
SEQEND
8
0
0
POLYLINE
8
0
66
1
40
0.008000
41
0.008000
0
VERTEX
8
0
10
0.126000
20
0.392000
0
VERTEX
8
0
10
0.176000
20
0.392000
0
SEQEND
8
0
0
POLYLINE
8
0
66
1
40
0.008000
41
0.008000
0
VERTEX
8
0
10
0.134000
20
0.410000
0
VERTEX
8
0
10
0.169000
20
0.374000
0
SEQEND
8
0
0
POLYLINE
8
0
66
1
40
0.008000
41
0.008000
0
VERTEX
8
0
10
0.134000
20
0.374000
0
VERTEX
8
0
10
0.169000
20
0.410000
0
SEQEND
8
0
0
POLYLINE
8
0
66
1
40
0.008000
41
0.008000
0
VERTEX
8
0
10
0.021000
20
0.817000
0
VERTEX
8
0
10
0.021000
20
0.767000
0
SEQEND
8
0
0
POLYLINE
8
0
66
1
40
0.008000
41
0.008000
0
VERTEX
8
0
10
-0.003000
20
0.792000
0
VERTEX
8
0
10
0.046000
20
0.792000
0
SEQEND
8
0
0
POLYLINE
8
0
66
1
40
0.008000
41
0.008000
0
VERTEX
8
0
10
0.004000
20
0.810000
0
VERTEX
8
0
10
0.039000
20
0.774000
0
SEQEND
8
0
0
POLYLINE
8
0
66
1
40
0.008000
41
0.008000
0
VERTEX
8
0
10
0.004000
20
0.774000
0
VERTEX
8
0
10
0.039000
20
0.810000
0
SEQEND
8
0
0
POLYLINE
8
0
66
1
40
0.008000
41
0.008000
0
VERTEX
8
0
10
0.316000
20
0.537000
0
VERTEX
8
0
10
0.316000
20
0.487000
0
SEQEND
8
0
0
POLYLINE
8
0
66
1
40
0.008000
41
0.008000
0
VERTEX
8
0
10
0.291000
20
0.512000
0
VERTEX
8
0
10
0.341000
20
0.512000
0
SEQEND
8
0
0
POLYLINE
8
0
66
1
40
0.008000
41
0.008000
0
VERTEX
8
0
10
0.299000
20
0.530000
0
VERTEX
8
0
10
0.334000
20
0.494000
0
SEQEND
8
0
0
POLYLINE
8
0
66
1
40
0.008000
41
0.008000
0
VERTEX
8
0
10
0.299000
20
0.494000
0
VERTEX
8
0
10
0.334000
20
0.530000
0
SEQEND
8
0
0
POLYLINE
8
0
66
1
40
0.008000
41
0.008000
0
VERTEX
8
0
10
0.316000
20
0.137000
0
VERTEX
8
0
10
0.316000
20
0.087000
0
SEQEND
8
0
0
POLYLINE
8
0
66
1
40
0.008000
41
0.008000
0
VERTEX
8
0
10
0.291000
20
0.112000
0
VERTEX
8
0
10
0.341000
20
0.112000
0
SEQEND
8
0
0
POLYLINE
8
0
66
1
40
0.008000
41
0.008000
0
VERTEX
8
0
10
0.299000
20
0.130000
0
VERTEX
8
0
10
0.334000
20
0.094000
0
SEQEND
8
0
0
POLYLINE
8
0
66
1
40
0.008000
41
0.008000
0
VERTEX
8
0
10
0.299000
20
0.094000
0
VERTEX
8
0
10
0.334000
20
0.130000
0
SEQEND
8
0
0
POLYLINE
8
0
66
1
40
0.008000
41
0.008000
0
VERTEX
8
0
10
0.396000
20
0.347000
0
VERTEX
8
0
10
0.396000
20
0.297000
0
SEQEND
8
0
0
POLYLINE
8
0
66
1
40
0.008000
41
0.008000
0
VERTEX
8
0
10
0.371000
20
0.322000
0
VERTEX
8
0
10
0.421000
20
0.322000
0
SEQEND
8
0
0
POLYLINE
8
0
66
1
40
0.008000
41
0.008000
0
VERTEX
8
0
10
0.379000
20
0.340000
0
VERTEX
8
0
10
0.414000
20
0.304000
0
SEQEND
8
0
0
POLYLINE
8
0
66
1
40
0.008000
41
0.008000
0
VERTEX
8
0
10
0.379000
20
0.304000
0
VERTEX
8
0
10
0.414000
20
0.340000
0
SEQEND
8
0
0
POLYLINE
8
0
66
1
40
0.008000
41
0.008000
0
VERTEX
8
0
10
0.396000
20
0.747000
0
VERTEX
8
0
10
0.396000
20
0.697000
0
SEQEND
8
0
0
POLYLINE
8
0
66
1
40
0.008000
41
0.008000
0
VERTEX
8
0
10
0.371000
20
0.722000
0
VERTEX
8
0
10
0.421000
20
0.722000
0
SEQEND
8
0
0
POLYLINE
8
0
66
1
40
0.008000
41
0.008000
0
VERTEX
8
0
10
0.379000
20
0.740000
0
VERTEX
8
0
10
0.414000
20
0.704000
0
SEQEND
8
0
0
POLYLINE
8
0
66
1
40
0.008000
41
0.008000
0
VERTEX
8
0
10
0.379000
20
0.704000
0
VERTEX
8
0
10
0.414000
20
0.740000
0
SEQEND
8
0
0
CIRCLE
8
12632256
10
0.211000
20
0.662000
40
0.025000
0
POLYLINE
8
0
66
1
40
0.008000
41
0.008000
0
VERTEX
8
0
10
0.211000
20
0.687000
0
VERTEX
8
0
10
0.211000
20
0.637000
0
SEQEND
8
0
0
POLYLINE
8
0
66
1
40
0.008000
41
0.008000
0
VERTEX
8
0
10
0.186000
20
0.662000
0
VERTEX
8
0
10
0.236000
20
0.662000
0
SEQEND
8
0
0
CIRCLE
8
12632256
10
0.211000
20
0.562000
40
0.025000
0
POLYLINE
8
0
66
1
40
0.008000
41
0.008000
0
VERTEX
8
0
10
0.211000
20
0.587000
0
VERTEX
8
0
10
0.211000
20
0.537000
0
SEQEND
8
0
0
POLYLINE
8
0
66
1
40
0.008000
41
0.008000
0
VERTEX
8
0
10
0.186000
20
0.562000
0
VERTEX
8
0
10
0.236000
20
0.562000
0
SEQEND
8
0
0
POLYLINE
8
0
66
1
40
0.008000
41
0.008000
0
VERTEX
8
0
10
-0.268000
20
-0.232000
0
VERTEX
8
0
10
-0.268000
20
-0.282000
0
SEQEND
8
0
0
POLYLINE
8
0
66
1
40
0.008000
41
0.008000
0
VERTEX
8
0
10
-0.293000
20
-0.257000
0
VERTEX
8
0
10
-0.243000
20
-0.257000
0
SEQEND
8
0
0
POLYLINE
8
0
66
1
40
0.008000
41
0.008000
0
VERTEX
8
0
10
-0.285000
20
-0.239000
0
VERTEX
8
0
10
-0.250000
20
-0.275000
0
SEQEND
8
0
0
POLYLINE
8
0
66
1
40
0.008000
41
0.008000
0
VERTEX
8
0
10
-0.285000
20
-0.275000
0
VERTEX
8
0
10
-0.250000
20
-0.239000
0
SEQEND
8
0
0
POLYLINE
8
0
66
1
40
0.008000
41
0.008000
0
VERTEX
8
0
10
0.131000
20
-0.232000
0
VERTEX
8
0
10
0.131000
20
-0.282000
0
SEQEND
8
0
0
POLYLINE
8
0
66
1
40
0.008000
41
0.008000
0
VERTEX
8
0
10
0.106000
20
-0.257000
0
VERTEX
8
0
10
0.156000
20
-0.257000
0
SEQEND
8
0
0
POLYLINE
8
0
66
1
40
0.008000
41
0.008000
0
VERTEX
8
0
10
0.114000
20
-0.239000
0
VERTEX
8
0
10
0.149000
20
-0.275000
0
SEQEND
8
0
0
POLYLINE
8
0
66
1
40
0.008000
41
0.008000
0
VERTEX
8
0
10
0.114000
20
-0.275000
0
VERTEX
8
0
10
0.149000
20
-0.239000
0
SEQEND
8
0
0
POLYLINE
8
0
66
1
40
0.008000
41
0.008000
0
VERTEX
8
0
10
-0.848000
20
-0.782000
0
VERTEX
8
0
10
0.501000
20
-0.782000
0
VERTEX
8
0
10
0.501000
20
0.827000
0
VERTEX
8
0
10
-0.848000
20
0.827000
0
VERTEX
8
0
10
-0.848000
20
-0.782000
0
SEQEND
8
0
0
POLYLINE
8
0
66
1
40
0.008000
41
0.008000
0
VERTEX
8
0
10
-0.752000
20
-0.796000
0
VERTEX
8
0
10
-0.752000
20
-0.846000
0
SEQEND
8
0
0
POLYLINE
8
0
66
1
40
0.008000
41
0.008000
0
VERTEX
8
0
10
-0.777000
20
-0.821000
0
VERTEX
8
0
10
-0.727000
20
-0.821000
0
SEQEND
8
0
0
TEXT
8
0
10
-0.702000
20
-0.841000
40
0.040000
41
1.000000
1
4mm (1)
0
POLYLINE
8
0
66
1
40
0.008000
41
0.008000
0
VERTEX
8
0
10
-0.169000
20
-0.803000
0
VERTEX
8
0
10
-0.134000
20
-0.839000
0
SEQEND
8
0
0
POLYLINE
8
0
66
1
40
0.008000
41
0.008000
0
VERTEX
8
0
10
-0.169000
20
-0.839000
0
VERTEX
8
0
10
-0.134000
20
-0.803000
0
SEQEND
8
0
0
TEXT
8
0
10
-0.102000
20
-0.841000
40
0.040000
41
1.000000
1
25th (10)
0
POLYLINE
8
0
66
1
40
0.008000
41
0.008000
0
VERTEX
8
0
10
0.447000
20
-0.796000
0
VERTEX
8
0
10
0.447000
20
-0.846000
0
SEQEND
8
0
0
POLYLINE
8
0
66
1
40
0.008000
41
0.008000
0
VERTEX
8
0
10
0.422000
20
-0.821000
0
VERTEX
8
0
10
0.472000
20
-0.821000
0
SEQEND
8
0
0
POLYLINE
8
0
66
1
40
0.008000
41
0.008000
0
VERTEX
8
0
10
0.430000
20
-0.803000
0
VERTEX
8
0
10
0.465000
20
-0.839000
0
SEQEND
8
0
0
POLYLINE
8
0
66
1
40
0.008000
41
0.008000
0
VERTEX
8
0
10
0.430000
20
-0.839000
0
VERTEX
8
0
10
0.465000
20
-0.803000
0
SEQEND
8
0
0
TEXT
8
0
10
0.497000
20
-0.841000
40
0.040000
41
1.000000
1
30th (70)
0
CIRCLE
8
12632256
10
1.047000
20
-0.821000
40
0.025000
0
POLYLINE
8
0
66
1
40
0.008000
41
0.008000
0
VERTEX
8
0
10
1.047000
20
-0.796000
0
VERTEX
8
0
10
1.047000
20
-0.846000
0
SEQEND
8
0
0
POLYLINE
8
0
66
1
40
0.008000
41
0.008000
0
VERTEX
8
0
10
1.022000
20
-0.821000
0
VERTEX
8
0
10
1.072000
20
-0.821000
0
SEQEND
8
0
0
TEXT
8
0
10
1.097000
20
-0.841000
40
0.040000
41
1.000000
1
40th (2)
0
ENDSEC
0
EOF

