  0
SECTION
  2
HEADER
  9
$ACADVER
  1
AC2.10
  0
ENDSEC
  0
SECTION
  2
TABLES
  0
TABLE
  2
LAYER
 70
     8
  0
LAYER
  2
0
 62
     7
 70
0
  6
CONTINUOUS
  0
LAYER
  2
1
 62
     1
 70
0
  6
CONTINUOUS
  0
LAYER
  2
2
 62
     2
 70
0
  6
CONTINUOUS
  0
LAYER
  2
3
 62
     3
 70
0
  6
CONTINUOUS
  0
LAYER
  2
4
 62
     4
 70
0
  6
CONTINUOUS
  0
LAYER
  2
5
 62
     5
 70
0
  6
CONTINUOUS
  0
LAYER
  2
6
 62
     6
 70
0
  6
CONTINUOUS
  0
LAYER
  2
7
 62
     7
 70
0
  6
CONTINUOUS
  0
ENDTAB
  0
TABLE
  2
STYLE
 70
     1
  0
STYLE
 70
     0
  2
STANDARD
  3
TXT
 40
0.00
 41
1.00
 42
1.00
 50
0.00
 71
     0
  0
ENDTAB
  0
ENDSEC
  0
SECTION
  2
BLOCKS
  0
BLOCK
  8
0
  2
EPAD
 70
0
 10
0.0
 20
0.0
  0
POLYLINE
  8
0
 66
1
 70
1
 40
0.5
 41
0.5
  0
VERTEX
  8
0
 10
-0.25
 20
0.0
 42
1.0
  0
VERTEX
  8
0
 10
0.25
 20
0.0
 42
1.0
  0
SEQEND
  8
0
  0
ENDBLK
  8
0
  0
BLOCK
  8
0
  2
RPAD
 70
0
 10
0.0
 20
0.0
  0
TRACE
  8
0
 10
-0.5
 20
-0.5
 11
-0.5
 21
0.5
 12
0.5
 22
-0.5
 13
0.5
 23
0.5
  0
ENDBLK
  8
0
  0
ENDSEC
0
SECTION
2
ENTITIES
0
INSERT
8
0
2
RPAD
10
0.176000
20
-0.317000
41
0.070000
42
0.070000
50
-180.000000
0
INSERT
8
0
2
EPAD
10
0.076000
20
-0.317000
41
0.070000
42
0.070000
0
INSERT
8
0
2
EPAD
10
-0.023000
20
-0.317000
41
0.070000
42
0.070000
0
INSERT
8
0
2
EPAD
10
-0.123000
20
-0.317000
41
0.070000
42
0.070000
0
INSERT
8
0
2
EPAD
10
-0.223000
20
-0.317000
41
0.070000
42
0.070000
0
INSERT
8
0
2
EPAD
10
-0.323000
20
-0.317000
41
0.070000
42
0.070000
0
INSERT
8
0
2
EPAD
10
-0.423000
20
-0.317000
41
0.070000
42
0.070000
0
INSERT
8
0
2
EPAD
10
-0.523000
20
-0.317000
41
0.070000
42
0.070000
0
INSERT
8
0
2
EPAD
10
-0.623000
20
-0.317000
41
0.070000
42
0.070000
0
INSERT
8
0
2
EPAD
10
-0.723000
20
-0.317000
41
0.070000
42
0.070000
0
INSERT
8
0
2
EPAD
10
-0.723000
20
-0.617000
41
0.070000
42
0.070000
0
INSERT
8
0
2
EPAD
10
-0.623000
20
-0.617000
41
0.070000
42
0.070000
0
INSERT
8
0
2
EPAD
10
-0.523000
20
-0.617000
41
0.070000
42
0.070000
0
INSERT
8
0
2
EPAD
10
-0.423000
20
-0.617000
41
0.070000
42
0.070000
0
INSERT
8
0
2
EPAD
10
-0.323000
20
-0.617000
41
0.070000
42
0.070000
0
INSERT
8
0
2
EPAD
10
-0.223000
20
-0.617000
41
0.070000
42
0.070000
0
INSERT
8
0
2
EPAD
10
-0.123000
20
-0.617000
41
0.070000
42
0.070000
0
INSERT
8
0
2
EPAD
10
-0.023000
20
-0.617000
41
0.070000
42
0.070000
0
INSERT
8
0
2
EPAD
10
0.076000
20
-0.617000
41
0.070000
42
0.070000
0
INSERT
8
0
2
EPAD
10
0.176000
20
-0.617000
41
0.070000
42
0.070000
0
INSERT
8
0
2
RPAD
10
-0.323000
20
0.627000
41
0.070000
42
0.070000
50
-90.000000
0
INSERT
8
0
2
EPAD
10
-0.323000
20
0.527000
41
0.070000
42
0.070000
0
INSERT
8
0
2
EPAD
10
-0.323000
20
0.427000
41
0.070000
42
0.070000
0
INSERT
8
0
2
EPAD
10
-0.323000
20
0.327000
41
0.070000
42
0.070000
0
INSERT
8
0
2
EPAD
10
-0.323000
20
0.227000
41
0.070000
42
0.070000
0
INSERT
8
0
2
EPAD
10
-0.323000
20
0.127000
41
0.070000
42
0.070000
0
INSERT
8
0
2
EPAD
10
-0.323000
20
0.027000
41
0.070000
42
0.070000
0
INSERT
8
0
2
EPAD
10
-0.323000
20
-0.072000
41
0.070000
42
0.070000
0
INSERT
8
0
2
EPAD
10
-0.323000
20
-0.172000
41
0.070000
42
0.070000
0
INSERT
8
0
2
EPAD
10
-0.023000
20
-0.172000
41
0.070000
42
0.070000
0
INSERT
8
0
2
EPAD
10
-0.023000
20
-0.072000
41
0.070000
42
0.070000
0
INSERT
8
0
2
EPAD
10
-0.023000
20
0.027000
41
0.070000
42
0.070000
0
INSERT
8
0
2
EPAD
10
-0.023000
20
0.127000
41
0.070000
42
0.070000
0
INSERT
8
0
2
EPAD
10
-0.023000
20
0.227000
41
0.070000
42
0.070000
0
INSERT
8
0
2
EPAD
10
-0.023000
20
0.327000
41
0.070000
42
0.070000
0
INSERT
8
0
2
EPAD
10
-0.023000
20
0.427000
41
0.070000
42
0.070000
0
INSERT
8
0
2
EPAD
10
-0.023000
20
0.527000
41
0.070000
42
0.070000
0
INSERT
8
0
2
EPAD
10
-0.023000
20
0.627000
41
0.070000
42
0.070000
0
INSERT
8
0
2
RPAD
10
-0.723000
20
0.627000
41
0.070000
42
0.070000
50
-90.000000
0
INSERT
8
0
2
EPAD
10
-0.723000
20
0.527000
41
0.070000
42
0.070000
0
INSERT
8
0
2
EPAD
10
-0.723000
20
0.427000
41
0.070000
42
0.070000
0
INSERT
8
0
2
EPAD
10
-0.723000
20
0.327000
41
0.070000
42
0.070000
0
INSERT
8
0
2
EPAD
10
-0.723000
20
0.227000
41
0.070000
42
0.070000
0
INSERT
8
0
2
EPAD
10
-0.723000
20
0.127000
41
0.070000
42
0.070000
0
INSERT
8
0
2
EPAD
10
-0.723000
20
0.027000
41
0.070000
42
0.070000
0
INSERT
8
0
2
EPAD
10
-0.723000
20
-0.072000
41
0.070000
42
0.070000
0
INSERT
8
0
2
EPAD
10
-0.723000
20
-0.172000
41
0.070000
42
0.070000
0
INSERT
8
0
2
EPAD
10
-0.423000
20
-0.172000
41
0.070000
42
0.070000
0
INSERT
8
0
2
EPAD
10
-0.423000
20
-0.072000
41
0.070000
42
0.070000
0
INSERT
8
0
2
EPAD
10
-0.423000
20
0.027000
41
0.070000
42
0.070000
0
INSERT
8
0
2
EPAD
10
-0.423000
20
0.127000
41
0.070000
42
0.070000
0
INSERT
8
0
2
EPAD
10
-0.423000
20
0.227000
41
0.070000
42
0.070000
0
INSERT
8
0
2
EPAD
10
-0.423000
20
0.327000
41
0.070000
42
0.070000
0
INSERT
8
0
2
EPAD
10
-0.423000
20
0.427000
41
0.070000
42
0.070000
0
INSERT
8
0
2
EPAD
10
-0.423000
20
0.527000
41
0.070000
42
0.070000
0
INSERT
8
0
2
EPAD
10
-0.423000
20
0.627000
41
0.070000
42
0.070000
0
INSERT
8
0
2
EPAD
10
0.396000
20
-0.482000
41
0.070000
42
0.070000
0
INSERT
8
0
2
EPAD
10
0.396000
20
-0.682000
41
0.070000
42
0.070000
0
INSERT
8
0
2
EPAD
10
0.051000
20
0.302000
41
0.070000
42
0.070000
0
INSERT
8
0
2
EPAD
10
0.051000
20
0.102000
41
0.070000
42
0.070000
0
INSERT
8
0
2
EPAD
10
0.151000
20
0.227000
41
0.070000
42
0.070000
0
INSERT
8
0
2
EPAD
10
0.151000
20
0.027000
41
0.070000
42
0.070000
0
INSERT
8
0
2
EPAD
10
0.151000
20
0.327000
41
0.080000
42
0.080000
0
INSERT
8
0
2
EPAD
10
0.031000
20
0.727000
41
0.070000
42
0.070000
0
INSERT
8
0
2
EPAD
10
0.226000
20
-0.042000
41
0.080000
42
0.080000
0
INSERT
8
0
2
EPAD
10
0.306000
20
-0.042000
41
0.080000
42
0.080000
0
INSERT
8
0
2
EPAD
10
0.386000
20
-0.042000
41
0.080000
42
0.080000
0
INSERT
8
0
2
EPAD
10
0.376000
20
0.502000
41
0.100000
42
0.100000
0
INSERT
8
0
2
EPAD
10
0.376000
20
0.102000
41
0.100000
42
0.100000
0
INSERT
8
0
2
EPAD
10
0.241000
20
0.507000
41
0.100000
42
0.100000
0
INSERT
8
0
2
EPAD
10
0.241000
20
0.107000
41
0.100000
42
0.100000
0
INSERT
8
0
2
RPAD
10
0.356000
20
0.612000
41
0.100000
42
0.100000
50
-180.000000
0
INSERT
8
0
2
RPAD
10
0.256000
20
0.612000
41
0.100000
42
0.100000
50
-180.000000
0
INSERT
8
0
2
EPAD
10
-0.723000
20
-0.252000
41
0.070000
42
0.070000
0
INSERT
8
0
2
EPAD
10
-0.623000
20
-0.252000
41
0.070000
42
0.070000
0
INSERT
8
0
2
EPAD
10
0.296000
20
-0.482000
41
0.070000
42
0.070000
0
INSERT
8
0
2
EPAD
10
0.296000
20
-0.682000
41
0.070000
42
0.070000
0
INSERT
8
0
2
EPAD
10
-0.618000
20
-0.387000
41
0.070000
42
0.070000
0
INSERT
8
0
2
EPAD
10
-0.818000
20
-0.387000
41
0.070000
42
0.070000
0
INSERT
8
0
2
EPAD
10
-0.618000
20
-0.472000
41
0.070000
42
0.070000
0
INSERT
8
0
2
EPAD
10
-0.818000
20
-0.472000
41
0.070000
42
0.070000
0
INSERT
8
0
2
EPAD
10
-0.323000
20
-0.242000
41
0.070000
42
0.070000
0
INSERT
8
0
2
EPAD
10
-0.023000
20
-0.252000
41
0.070000
42
0.070000
0
POLYLINE
8
0
66
1
40
0.008000
41
0.008000
0
VERTEX
8
0
10
-0.848000
20
-0.717000
0
VERTEX
8
0
10
0.501000
20
-0.717000
0
VERTEX
8
0
10
0.501000
20
0.762000
0
VERTEX
8
0
10
-0.848000
20
0.762000
0
VERTEX
8
0
10
-0.848000
20
-0.717000
0
SEQEND
8
0
0
ENDSEC
0
EOF

