  0
SECTION
  2
HEADER
  9
$ACADVER
  1
AC2.10
  0
ENDSEC
  0
SECTION
  2
TABLES
  0
TABLE
  2
LAYER
 70
     8
  0
LAYER
  2
0
 62
     7
 70
0
  6
CONTINUOUS
  0
LAYER
  2
1
 62
     1
 70
0
  6
CONTINUOUS
  0
LAYER
  2
2
 62
     2
 70
0
  6
CONTINUOUS
  0
LAYER
  2
3
 62
     3
 70
0
  6
CONTINUOUS
  0
LAYER
  2
4
 62
     4
 70
0
  6
CONTINUOUS
  0
LAYER
  2
5
 62
     5
 70
0
  6
CONTINUOUS
  0
LAYER
  2
6
 62
     6
 70
0
  6
CONTINUOUS
  0
LAYER
  2
7
 62
     7
 70
0
  6
CONTINUOUS
  0
ENDTAB
  0
TABLE
  2
STYLE
 70
     1
  0
STYLE
 70
     0
  2
STANDARD
  3
TXT
 40
0.00
 41
1.00
 42
1.00
 50
0.00
 71
     0
  0
ENDTAB
  0
ENDSEC
  0
SECTION
  2
BLOCKS
  0
BLOCK
  8
0
  2
EPAD
 70
0
 10
0.0
 20
0.0
  0
POLYLINE
  8
0
 66
1
 70
1
 40
0.5
 41
0.5
  0
VERTEX
  8
0
 10
-0.25
 20
0.0
 42
1.0
  0
VERTEX
  8
0
 10
0.25
 20
0.0
 42
1.0
  0
SEQEND
  8
0
  0
ENDBLK
  8
0
  0
BLOCK
  8
0
  2
RPAD
 70
0
 10
0.0
 20
0.0
  0
TRACE
  8
0
 10
-0.5
 20
-0.5
 11
-0.5
 21
0.5
 12
0.5
 22
-0.5
 13
0.5
 23
0.5
  0
ENDBLK
  8
0
  0
ENDSEC
0
SECTION
2
ENTITIES
0
CIRCLE
8
12632256
10
0.176000
20
-0.292000
40
0.025000
0
POLYLINE
8
0
66
1
40
0.008000
41
0.008000
0
VERTEX
8
0
10
0.176000
20
-0.267000
0
VERTEX
8
0
10
0.176000
20
-0.317000
0
SEQEND
8
0
0
POLYLINE
8
0
66
1
40
0.008000
41
0.008000
0
VERTEX
8
0
10
0.151000
20
-0.292000
0
VERTEX
8
0
10
0.201000
20
-0.292000
0
SEQEND
8
0
0
CIRCLE
8
12632256
10
0.076000
20
-0.292000
40
0.025000
0
POLYLINE
8
0
66
1
40
0.008000
41
0.008000
0
VERTEX
8
0
10
0.076000
20
-0.267000
0
VERTEX
8
0
10
0.076000
20
-0.317000
0
SEQEND
8
0
0
POLYLINE
8
0
66
1
40
0.008000
41
0.008000
0
VERTEX
8
0
10
0.051000
20
-0.292000
0
VERTEX
8
0
10
0.101000
20
-0.292000
0
SEQEND
8
0
0
CIRCLE
8
12632256
10
-0.023000
20
-0.292000
40
0.025000
0
POLYLINE
8
0
66
1
40
0.008000
41
0.008000
0
VERTEX
8
0
10
-0.023000
20
-0.267000
0
VERTEX
8
0
10
-0.023000
20
-0.317000
0
SEQEND
8
0
0
POLYLINE
8
0
66
1
40
0.008000
41
0.008000
0
VERTEX
8
0
10
-0.048000
20
-0.292000
0
VERTEX
8
0
10
0.001000
20
-0.292000
0
SEQEND
8
0
0
CIRCLE
8
12632256
10
-0.123000
20
-0.292000
40
0.025000
0
POLYLINE
8
0
66
1
40
0.008000
41
0.008000
0
VERTEX
8
0
10
-0.123000
20
-0.267000
0
VERTEX
8
0
10
-0.123000
20
-0.317000
0
SEQEND
8
0
0
POLYLINE
8
0
66
1
40
0.008000
41
0.008000
0
VERTEX
8
0
10
-0.148000
20
-0.292000
0
VERTEX
8
0
10
-0.098000
20
-0.292000
0
SEQEND
8
0
0
CIRCLE
8
12632256
10
-0.223000
20
-0.292000
40
0.025000
0
POLYLINE
8
0
66
1
40
0.008000
41
0.008000
0
VERTEX
8
0
10
-0.223000
20
-0.267000
0
VERTEX
8
0
10
-0.223000
20
-0.317000
0
SEQEND
8
0
0
POLYLINE
8
0
66
1
40
0.008000
41
0.008000
0
VERTEX
8
0
10
-0.248000
20
-0.292000
0
VERTEX
8
0
10
-0.198000
20
-0.292000
0
SEQEND
8
0
0
CIRCLE
8
12632256
10
-0.323000
20
-0.292000
40
0.025000
0
POLYLINE
8
0
66
1
40
0.008000
41
0.008000
0
VERTEX
8
0
10
-0.323000
20
-0.267000
0
VERTEX
8
0
10
-0.323000
20
-0.317000
0
SEQEND
8
0
0
POLYLINE
8
0
66
1
40
0.008000
41
0.008000
0
VERTEX
8
0
10
-0.348000
20
-0.292000
0
VERTEX
8
0
10
-0.298000
20
-0.292000
0
SEQEND
8
0
0
CIRCLE
8
12632256
10
-0.423000
20
-0.292000
40
0.025000
0
POLYLINE
8
0
66
1
40
0.008000
41
0.008000
0
VERTEX
8
0
10
-0.423000
20
-0.267000
0
VERTEX
8
0
10
-0.423000
20
-0.317000
0
SEQEND
8
0
0
POLYLINE
8
0
66
1
40
0.008000
41
0.008000
0
VERTEX
8
0
10
-0.448000
20
-0.292000
0
VERTEX
8
0
10
-0.398000
20
-0.292000
0
SEQEND
8
0
0
CIRCLE
8
12632256
10
-0.523000
20
-0.292000
40
0.025000
0
POLYLINE
8
0
66
1
40
0.008000
41
0.008000
0
VERTEX
8
0
10
-0.523000
20
-0.267000
0
VERTEX
8
0
10
-0.523000
20
-0.317000
0
SEQEND
8
0
0
POLYLINE
8
0
66
1
40
0.008000
41
0.008000
0
VERTEX
8
0
10
-0.548000
20
-0.292000
0
VERTEX
8
0
10
-0.498000
20
-0.292000
0
SEQEND
8
0
0
CIRCLE
8
12632256
10
-0.623000
20
-0.292000
40
0.025000
0
POLYLINE
8
0
66
1
40
0.008000
41
0.008000
0
VERTEX
8
0
10
-0.623000
20
-0.267000
0
VERTEX
8
0
10
-0.623000
20
-0.317000
0
SEQEND
8
0
0
POLYLINE
8
0
66
1
40
0.008000
41
0.008000
0
VERTEX
8
0
10
-0.648000
20
-0.292000
0
VERTEX
8
0
10
-0.598000
20
-0.292000
0
SEQEND
8
0
0
CIRCLE
8
12632256
10
-0.723000
20
-0.292000
40
0.025000
0
POLYLINE
8
0
66
1
40
0.008000
41
0.008000
0
VERTEX
8
0
10
-0.723000
20
-0.267000
0
VERTEX
8
0
10
-0.723000
20
-0.317000
0
SEQEND
8
0
0
POLYLINE
8
0
66
1
40
0.008000
41
0.008000
0
VERTEX
8
0
10
-0.748000
20
-0.292000
0
VERTEX
8
0
10
-0.698000
20
-0.292000
0
SEQEND
8
0
0
CIRCLE
8
12632256
10
-0.723000
20
-0.592000
40
0.025000
0
POLYLINE
8
0
66
1
40
0.008000
41
0.008000
0
VERTEX
8
0
10
-0.723000
20
-0.567000
0
VERTEX
8
0
10
-0.723000
20
-0.617000
0
SEQEND
8
0
0
POLYLINE
8
0
66
1
40
0.008000
41
0.008000
0
VERTEX
8
0
10
-0.748000
20
-0.592000
0
VERTEX
8
0
10
-0.698000
20
-0.592000
0
SEQEND
8
0
0
CIRCLE
8
12632256
10
-0.623000
20
-0.592000
40
0.025000
0
POLYLINE
8
0
66
1
40
0.008000
41
0.008000
0
VERTEX
8
0
10
-0.623000
20
-0.567000
0
VERTEX
8
0
10
-0.623000
20
-0.617000
0
SEQEND
8
0
0
POLYLINE
8
0
66
1
40
0.008000
41
0.008000
0
VERTEX
8
0
10
-0.648000
20
-0.592000
0
VERTEX
8
0
10
-0.598000
20
-0.592000
0
SEQEND
8
0
0
CIRCLE
8
12632256
10
-0.523000
20
-0.592000
40
0.025000
0
POLYLINE
8
0
66
1
40
0.008000
41
0.008000
0
VERTEX
8
0
10
-0.523000
20
-0.567000
0
VERTEX
8
0
10
-0.523000
20
-0.617000
0
SEQEND
8
0
0
POLYLINE
8
0
66
1
40
0.008000
41
0.008000
0
VERTEX
8
0
10
-0.548000
20
-0.592000
0
VERTEX
8
0
10
-0.498000
20
-0.592000
0
SEQEND
8
0
0
CIRCLE
8
12632256
10
-0.423000
20
-0.592000
40
0.025000
0
POLYLINE
8
0
66
1
40
0.008000
41
0.008000
0
VERTEX
8
0
10
-0.423000
20
-0.567000
0
VERTEX
8
0
10
-0.423000
20
-0.617000
0
SEQEND
8
0
0
POLYLINE
8
0
66
1
40
0.008000
41
0.008000
0
VERTEX
8
0
10
-0.448000
20
-0.592000
0
VERTEX
8
0
10
-0.398000
20
-0.592000
0
SEQEND
8
0
0
CIRCLE
8
12632256
10
-0.323000
20
-0.592000
40
0.025000
0
POLYLINE
8
0
66
1
40
0.008000
41
0.008000
0
VERTEX
8
0
10
-0.323000
20
-0.567000
0
VERTEX
8
0
10
-0.323000
20
-0.617000
0
SEQEND
8
0
0
POLYLINE
8
0
66
1
40
0.008000
41
0.008000
0
VERTEX
8
0
10
-0.348000
20
-0.592000
0
VERTEX
8
0
10
-0.298000
20
-0.592000
0
SEQEND
8
0
0
CIRCLE
8
12632256
10
-0.223000
20
-0.592000
40
0.025000
0
POLYLINE
8
0
66
1
40
0.008000
41
0.008000
0
VERTEX
8
0
10
-0.223000
20
-0.567000
0
VERTEX
8
0
10
-0.223000
20
-0.617000
0
SEQEND
8
0
0
POLYLINE
8
0
66
1
40
0.008000
41
0.008000
0
VERTEX
8
0
10
-0.248000
20
-0.592000
0
VERTEX
8
0
10
-0.198000
20
-0.592000
0
SEQEND
8
0
0
CIRCLE
8
12632256
10
-0.123000
20
-0.592000
40
0.025000
0
POLYLINE
8
0
66
1
40
0.008000
41
0.008000
0
VERTEX
8
0
10
-0.123000
20
-0.567000
0
VERTEX
8
0
10
-0.123000
20
-0.617000
0
SEQEND
8
0
0
POLYLINE
8
0
66
1
40
0.008000
41
0.008000
0
VERTEX
8
0
10
-0.148000
20
-0.592000
0
VERTEX
8
0
10
-0.098000
20
-0.592000
0
SEQEND
8
0
0
CIRCLE
8
12632256
10
-0.023000
20
-0.592000
40
0.025000
0
POLYLINE
8
0
66
1
40
0.008000
41
0.008000
0
VERTEX
8
0
10
-0.023000
20
-0.567000
0
VERTEX
8
0
10
-0.023000
20
-0.617000
0
SEQEND
8
0
0
POLYLINE
8
0
66
1
40
0.008000
41
0.008000
0
VERTEX
8
0
10
-0.048000
20
-0.592000
0
VERTEX
8
0
10
0.001000
20
-0.592000
0
SEQEND
8
0
0
CIRCLE
8
12632256
10
0.076000
20
-0.592000
40
0.025000
0
POLYLINE
8
0
66
1
40
0.008000
41
0.008000
0
VERTEX
8
0
10
0.076000
20
-0.567000
0
VERTEX
8
0
10
0.076000
20
-0.617000
0
SEQEND
8
0
0
POLYLINE
8
0
66
1
40
0.008000
41
0.008000
0
VERTEX
8
0
10
0.051000
20
-0.592000
0
VERTEX
8
0
10
0.101000
20
-0.592000
0
SEQEND
8
0
0
CIRCLE
8
12632256
10
0.176000
20
-0.592000
40
0.025000
0
POLYLINE
8
0
66
1
40
0.008000
41
0.008000
0
VERTEX
8
0
10
0.176000
20
-0.567000
0
VERTEX
8
0
10
0.176000
20
-0.617000
0
SEQEND
8
0
0
POLYLINE
8
0
66
1
40
0.008000
41
0.008000
0
VERTEX
8
0
10
0.151000
20
-0.592000
0
VERTEX
8
0
10
0.201000
20
-0.592000
0
SEQEND
8
0
0
CIRCLE
8
12632256
10
-0.323000
20
0.652000
40
0.025000
0
POLYLINE
8
0
66
1
40
0.008000
41
0.008000
0
VERTEX
8
0
10
-0.323000
20
0.677000
0
VERTEX
8
0
10
-0.323000
20
0.627000
0
SEQEND
8
0
0
POLYLINE
8
0
66
1
40
0.008000
41
0.008000
0
VERTEX
8
0
10
-0.348000
20
0.652000
0
VERTEX
8
0
10
-0.298000
20
0.652000
0
SEQEND
8
0
0
CIRCLE
8
12632256
10
-0.323000
20
0.552000
40
0.025000
0
POLYLINE
8
0
66
1
40
0.008000
41
0.008000
0
VERTEX
8
0
10
-0.323000
20
0.577000
0
VERTEX
8
0
10
-0.323000
20
0.527000
0
SEQEND
8
0
0
POLYLINE
8
0
66
1
40
0.008000
41
0.008000
0
VERTEX
8
0
10
-0.348000
20
0.552000
0
VERTEX
8
0
10
-0.298000
20
0.552000
0
SEQEND
8
0
0
CIRCLE
8
12632256
10
-0.323000
20
0.452000
40
0.025000
0
POLYLINE
8
0
66
1
40
0.008000
41
0.008000
0
VERTEX
8
0
10
-0.323000
20
0.477000
0
VERTEX
8
0
10
-0.323000
20
0.427000
0
SEQEND
8
0
0
POLYLINE
8
0
66
1
40
0.008000
41
0.008000
0
VERTEX
8
0
10
-0.348000
20
0.452000
0
VERTEX
8
0
10
-0.298000
20
0.452000
0
SEQEND
8
0
0
CIRCLE
8
12632256
10
-0.323000
20
0.352000
40
0.025000
0
POLYLINE
8
0
66
1
40
0.008000
41
0.008000
0
VERTEX
8
0
10
-0.323000
20
0.377000
0
VERTEX
8
0
10
-0.323000
20
0.327000
0
SEQEND
8
0
0
POLYLINE
8
0
66
1
40
0.008000
41
0.008000
0
VERTEX
8
0
10
-0.348000
20
0.352000
0
VERTEX
8
0
10
-0.298000
20
0.352000
0
SEQEND
8
0
0
CIRCLE
8
12632256
10
-0.323000
20
0.252000
40
0.025000
0
POLYLINE
8
0
66
1
40
0.008000
41
0.008000
0
VERTEX
8
0
10
-0.323000
20
0.277000
0
VERTEX
8
0
10
-0.323000
20
0.227000
0
SEQEND
8
0
0
POLYLINE
8
0
66
1
40
0.008000
41
0.008000
0
VERTEX
8
0
10
-0.348000
20
0.252000
0
VERTEX
8
0
10
-0.298000
20
0.252000
0
SEQEND
8
0
0
CIRCLE
8
12632256
10
-0.323000
20
0.152000
40
0.025000
0
POLYLINE
8
0
66
1
40
0.008000
41
0.008000
0
VERTEX
8
0
10
-0.323000
20
0.177000
0
VERTEX
8
0
10
-0.323000
20
0.127000
0
SEQEND
8
0
0
POLYLINE
8
0
66
1
40
0.008000
41
0.008000
0
VERTEX
8
0
10
-0.348000
20
0.152000
0
VERTEX
8
0
10
-0.298000
20
0.152000
0
SEQEND
8
0
0
CIRCLE
8
12632256
10
-0.323000
20
0.052000
40
0.025000
0
POLYLINE
8
0
66
1
40
0.008000
41
0.008000
0
VERTEX
8
0
10
-0.323000
20
0.077000
0
VERTEX
8
0
10
-0.323000
20
0.027000
0
SEQEND
8
0
0
POLYLINE
8
0
66
1
40
0.008000
41
0.008000
0
VERTEX
8
0
10
-0.348000
20
0.052000
0
VERTEX
8
0
10
-0.298000
20
0.052000
0
SEQEND
8
0
0
CIRCLE
8
12632256
10
-0.323000
20
-0.047000
40
0.025000
0
POLYLINE
8
0
66
1
40
0.008000
41
0.008000
0
VERTEX
8
0
10
-0.323000
20
-0.022000
0
VERTEX
8
0
10
-0.323000
20
-0.072000
0
SEQEND
8
0
0
POLYLINE
8
0
66
1
40
0.008000
41
0.008000
0
VERTEX
8
0
10
-0.348000
20
-0.047000
0
VERTEX
8
0
10
-0.298000
20
-0.047000
0
SEQEND
8
0
0
CIRCLE
8
12632256
10
-0.323000
20
-0.147000
40
0.025000
0
POLYLINE
8
0
66
1
40
0.008000
41
0.008000
0
VERTEX
8
0
10
-0.323000
20
-0.122000
0
VERTEX
8
0
10
-0.323000
20
-0.172000
0
SEQEND
8
0
0
POLYLINE
8
0
66
1
40
0.008000
41
0.008000
0
VERTEX
8
0
10
-0.348000
20
-0.147000
0
VERTEX
8
0
10
-0.298000
20
-0.147000
0
SEQEND
8
0
0
CIRCLE
8
12632256
10
-0.023000
20
-0.147000
40
0.025000
0
POLYLINE
8
0
66
1
40
0.008000
41
0.008000
0
VERTEX
8
0
10
-0.023000
20
-0.122000
0
VERTEX
8
0
10
-0.023000
20
-0.172000
0
SEQEND
8
0
0
POLYLINE
8
0
66
1
40
0.008000
41
0.008000
0
VERTEX
8
0
10
-0.048000
20
-0.147000
0
VERTEX
8
0
10
0.001000
20
-0.147000
0
SEQEND
8
0
0
CIRCLE
8
12632256
10
-0.023000
20
-0.047000
40
0.025000
0
POLYLINE
8
0
66
1
40
0.008000
41
0.008000
0
VERTEX
8
0
10
-0.023000
20
-0.022000
0
VERTEX
8
0
10
-0.023000
20
-0.072000
0
SEQEND
8
0
0
POLYLINE
8
0
66
1
40
0.008000
41
0.008000
0
VERTEX
8
0
10
-0.048000
20
-0.047000
0
VERTEX
8
0
10
0.001000
20
-0.047000
0
SEQEND
8
0
0
CIRCLE
8
12632256
10
-0.023000
20
0.052000
40
0.025000
0
POLYLINE
8
0
66
1
40
0.008000
41
0.008000
0
VERTEX
8
0
10
-0.023000
20
0.077000
0
VERTEX
8
0
10
-0.023000
20
0.027000
0
SEQEND
8
0
0
POLYLINE
8
0
66
1
40
0.008000
41
0.008000
0
VERTEX
8
0
10
-0.048000
20
0.052000
0
VERTEX
8
0
10
0.001000
20
0.052000
0
SEQEND
8
0
0
CIRCLE
8
12632256
10
-0.023000
20
0.152000
40
0.025000
0
POLYLINE
8
0
66
1
40
0.008000
41
0.008000
0
VERTEX
8
0
10
-0.023000
20
0.177000
0
VERTEX
8
0
10
-0.023000
20
0.127000
0
SEQEND
8
0
0
POLYLINE
8
0
66
1
40
0.008000
41
0.008000
0
VERTEX
8
0
10
-0.048000
20
0.152000
0
VERTEX
8
0
10
0.001000
20
0.152000
0
SEQEND
8
0
0
CIRCLE
8
12632256
10
-0.023000
20
0.252000
40
0.025000
0
POLYLINE
8
0
66
1
40
0.008000
41
0.008000
0
VERTEX
8
0
10
-0.023000
20
0.277000
0
VERTEX
8
0
10
-0.023000
20
0.227000
0
SEQEND
8
0
0
POLYLINE
8
0
66
1
40
0.008000
41
0.008000
0
VERTEX
8
0
10
-0.048000
20
0.252000
0
VERTEX
8
0
10
0.001000
20
0.252000
0
SEQEND
8
0
0
CIRCLE
8
12632256
10
-0.023000
20
0.352000
40
0.025000
0
POLYLINE
8
0
66
1
40
0.008000
41
0.008000
0
VERTEX
8
0
10
-0.023000
20
0.377000
0
VERTEX
8
0
10
-0.023000
20
0.327000
0
SEQEND
8
0
0
POLYLINE
8
0
66
1
40
0.008000
41
0.008000
0
VERTEX
8
0
10
-0.048000
20
0.352000
0
VERTEX
8
0
10
0.001000
20
0.352000
0
SEQEND
8
0
0
CIRCLE
8
12632256
10
-0.023000
20
0.452000
40
0.025000
0
POLYLINE
8
0
66
1
40
0.008000
41
0.008000
0
VERTEX
8
0
10
-0.023000
20
0.477000
0
VERTEX
8
0
10
-0.023000
20
0.427000
0
SEQEND
8
0
0
POLYLINE
8
0
66
1
40
0.008000
41
0.008000
0
VERTEX
8
0
10
-0.048000
20
0.452000
0
VERTEX
8
0
10
0.001000
20
0.452000
0
SEQEND
8
0
0
CIRCLE
8
12632256
10
-0.023000
20
0.552000
40
0.025000
0
POLYLINE
8
0
66
1
40
0.008000
41
0.008000
0
VERTEX
8
0
10
-0.023000
20
0.577000
0
VERTEX
8
0
10
-0.023000
20
0.527000
0
SEQEND
8
0
0
POLYLINE
8
0
66
1
40
0.008000
41
0.008000
0
VERTEX
8
0
10
-0.048000
20
0.552000
0
VERTEX
8
0
10
0.001000
20
0.552000
0
SEQEND
8
0
0
CIRCLE
8
12632256
10
-0.023000
20
0.652000
40
0.025000
0
POLYLINE
8
0
66
1
40
0.008000
41
0.008000
0
VERTEX
8
0
10
-0.023000
20
0.677000
0
VERTEX
8
0
10
-0.023000
20
0.627000
0
SEQEND
8
0
0
POLYLINE
8
0
66
1
40
0.008000
41
0.008000
0
VERTEX
8
0
10
-0.048000
20
0.652000
0
VERTEX
8
0
10
0.001000
20
0.652000
0
SEQEND
8
0
0
CIRCLE
8
12632256
10
-0.723000
20
0.652000
40
0.025000
0
POLYLINE
8
0
66
1
40
0.008000
41
0.008000
0
VERTEX
8
0
10
-0.723000
20
0.677000
0
VERTEX
8
0
10
-0.723000
20
0.627000
0
SEQEND
8
0
0
POLYLINE
8
0
66
1
40
0.008000
41
0.008000
0
VERTEX
8
0
10
-0.748000
20
0.652000
0
VERTEX
8
0
10
-0.698000
20
0.652000
0
SEQEND
8
0
0
CIRCLE
8
12632256
10
-0.723000
20
0.552000
40
0.025000
0
POLYLINE
8
0
66
1
40
0.008000
41
0.008000
0
VERTEX
8
0
10
-0.723000
20
0.577000
0
VERTEX
8
0
10
-0.723000
20
0.527000
0
SEQEND
8
0
0
POLYLINE
8
0
66
1
40
0.008000
41
0.008000
0
VERTEX
8
0
10
-0.748000
20
0.552000
0
VERTEX
8
0
10
-0.698000
20
0.552000
0
SEQEND
8
0
0
CIRCLE
8
12632256
10
-0.723000
20
0.452000
40
0.025000
0
POLYLINE
8
0
66
1
40
0.008000
41
0.008000
0
VERTEX
8
0
10
-0.723000
20
0.477000
0
VERTEX
8
0
10
-0.723000
20
0.427000
0
SEQEND
8
0
0
POLYLINE
8
0
66
1
40
0.008000
41
0.008000
0
VERTEX
8
0
10
-0.748000
20
0.452000
0
VERTEX
8
0
10
-0.698000
20
0.452000
0
SEQEND
8
0
0
CIRCLE
8
12632256
10
-0.723000
20
0.352000
40
0.025000
0
POLYLINE
8
0
66
1
40
0.008000
41
0.008000
0
VERTEX
8
0
10
-0.723000
20
0.377000
0
VERTEX
8
0
10
-0.723000
20
0.327000
0
SEQEND
8
0
0
POLYLINE
8
0
66
1
40
0.008000
41
0.008000
0
VERTEX
8
0
10
-0.748000
20
0.352000
0
VERTEX
8
0
10
-0.698000
20
0.352000
0
SEQEND
8
0
0
CIRCLE
8
12632256
10
-0.723000
20
0.252000
40
0.025000
0
POLYLINE
8
0
66
1
40
0.008000
41
0.008000
0
VERTEX
8
0
10
-0.723000
20
0.277000
0
VERTEX
8
0
10
-0.723000
20
0.227000
0
SEQEND
8
0
0
POLYLINE
8
0
66
1
40
0.008000
41
0.008000
0
VERTEX
8
0
10
-0.748000
20
0.252000
0
VERTEX
8
0
10
-0.698000
20
0.252000
0
SEQEND
8
0
0
CIRCLE
8
12632256
10
-0.723000
20
0.152000
40
0.025000
0
POLYLINE
8
0
66
1
40
0.008000
41
0.008000
0
VERTEX
8
0
10
-0.723000
20
0.177000
0
VERTEX
8
0
10
-0.723000
20
0.127000
0
SEQEND
8
0
0
POLYLINE
8
0
66
1
40
0.008000
41
0.008000
0
VERTEX
8
0
10
-0.748000
20
0.152000
0
VERTEX
8
0
10
-0.698000
20
0.152000
0
SEQEND
8
0
0
CIRCLE
8
12632256
10
-0.723000
20
0.052000
40
0.025000
0
POLYLINE
8
0
66
1
40
0.008000
41
0.008000
0
VERTEX
8
0
10
-0.723000
20
0.077000
0
VERTEX
8
0
10
-0.723000
20
0.027000
0
SEQEND
8
0
0
POLYLINE
8
0
66
1
40
0.008000
41
0.008000
0
VERTEX
8
0
10
-0.748000
20
0.052000
0
VERTEX
8
0
10
-0.698000
20
0.052000
0
SEQEND
8
0
0
CIRCLE
8
12632256
10
-0.723000
20
-0.047000
40
0.025000
0
POLYLINE
8
0
66
1
40
0.008000
41
0.008000
0
VERTEX
8
0
10
-0.723000
20
-0.022000
0
VERTEX
8
0
10
-0.723000
20
-0.072000
0
SEQEND
8
0
0
POLYLINE
8
0
66
1
40
0.008000
41
0.008000
0
VERTEX
8
0
10
-0.748000
20
-0.047000
0
VERTEX
8
0
10
-0.698000
20
-0.047000
0
SEQEND
8
0
0
CIRCLE
8
12632256
10
-0.723000
20
-0.147000
40
0.025000
0
POLYLINE
8
0
66
1
40
0.008000
41
0.008000
0
VERTEX
8
0
10
-0.723000
20
-0.122000
0
VERTEX
8
0
10
-0.723000
20
-0.172000
0
SEQEND
8
0
0
POLYLINE
8
0
66
1
40
0.008000
41
0.008000
0
VERTEX
8
0
10
-0.748000
20
-0.147000
0
VERTEX
8
0
10
-0.698000
20
-0.147000
0
SEQEND
8
0
0
CIRCLE
8
12632256
10
-0.423000
20
-0.147000
40
0.025000
0
POLYLINE
8
0
66
1
40
0.008000
41
0.008000
0
VERTEX
8
0
10
-0.423000
20
-0.122000
0
VERTEX
8
0
10
-0.423000
20
-0.172000
0
SEQEND
8
0
0
POLYLINE
8
0
66
1
40
0.008000
41
0.008000
0
VERTEX
8
0
10
-0.448000
20
-0.147000
0
VERTEX
8
0
10
-0.398000
20
-0.147000
0
SEQEND
8
0
0
CIRCLE
8
12632256
10
-0.423000
20
-0.047000
40
0.025000
0
POLYLINE
8
0
66
1
40
0.008000
41
0.008000
0
VERTEX
8
0
10
-0.423000
20
-0.022000
0
VERTEX
8
0
10
-0.423000
20
-0.072000
0
SEQEND
8
0
0
POLYLINE
8
0
66
1
40
0.008000
41
0.008000
0
VERTEX
8
0
10
-0.448000
20
-0.047000
0
VERTEX
8
0
10
-0.398000
20
-0.047000
0
SEQEND
8
0
0
CIRCLE
8
12632256
10
-0.423000
20
0.052000
40
0.025000
0
POLYLINE
8
0
66
1
40
0.008000
41
0.008000
0
VERTEX
8
0
10
-0.423000
20
0.077000
0
VERTEX
8
0
10
-0.423000
20
0.027000
0
SEQEND
8
0
0
POLYLINE
8
0
66
1
40
0.008000
41
0.008000
0
VERTEX
8
0
10
-0.448000
20
0.052000
0
VERTEX
8
0
10
-0.398000
20
0.052000
0
SEQEND
8
0
0
CIRCLE
8
12632256
10
-0.423000
20
0.152000
40
0.025000
0
POLYLINE
8
0
66
1
40
0.008000
41
0.008000
0
VERTEX
8
0
10
-0.423000
20
0.177000
0
VERTEX
8
0
10
-0.423000
20
0.127000
0
SEQEND
8
0
0
POLYLINE
8
0
66
1
40
0.008000
41
0.008000
0
VERTEX
8
0
10
-0.448000
20
0.152000
0
VERTEX
8
0
10
-0.398000
20
0.152000
0
SEQEND
8
0
0
CIRCLE
8
12632256
10
-0.423000
20
0.252000
40
0.025000
0
POLYLINE
8
0
66
1
40
0.008000
41
0.008000
0
VERTEX
8
0
10
-0.423000
20
0.277000
0
VERTEX
8
0
10
-0.423000
20
0.227000
0
SEQEND
8
0
0
POLYLINE
8
0
66
1
40
0.008000
41
0.008000
0
VERTEX
8
0
10
-0.448000
20
0.252000
0
VERTEX
8
0
10
-0.398000
20
0.252000
0
SEQEND
8
0
0
CIRCLE
8
12632256
10
-0.423000
20
0.352000
40
0.025000
0
POLYLINE
8
0
66
1
40
0.008000
41
0.008000
0
VERTEX
8
0
10
-0.423000
20
0.377000
0
VERTEX
8
0
10
-0.423000
20
0.327000
0
SEQEND
8
0
0
POLYLINE
8
0
66
1
40
0.008000
41
0.008000
0
VERTEX
8
0
10
-0.448000
20
0.352000
0
VERTEX
8
0
10
-0.398000
20
0.352000
0
SEQEND
8
0
0
CIRCLE
8
12632256
10
-0.423000
20
0.452000
40
0.025000
0
POLYLINE
8
0
66
1
40
0.008000
41
0.008000
0
VERTEX
8
0
10
-0.423000
20
0.477000
0
VERTEX
8
0
10
-0.423000
20
0.427000
0
SEQEND
8
0
0
POLYLINE
8
0
66
1
40
0.008000
41
0.008000
0
VERTEX
8
0
10
-0.448000
20
0.452000
0
VERTEX
8
0
10
-0.398000
20
0.452000
0
SEQEND
8
0
0
CIRCLE
8
12632256
10
-0.423000
20
0.552000
40
0.025000
0
POLYLINE
8
0
66
1
40
0.008000
41
0.008000
0
VERTEX
8
0
10
-0.423000
20
0.577000
0
VERTEX
8
0
10
-0.423000
20
0.527000
0
SEQEND
8
0
0
POLYLINE
8
0
66
1
40
0.008000
41
0.008000
0
VERTEX
8
0
10
-0.448000
20
0.552000
0
VERTEX
8
0
10
-0.398000
20
0.552000
0
SEQEND
8
0
0
CIRCLE
8
12632256
10
-0.423000
20
0.652000
40
0.025000
0
POLYLINE
8
0
66
1
40
0.008000
41
0.008000
0
VERTEX
8
0
10
-0.423000
20
0.677000
0
VERTEX
8
0
10
-0.423000
20
0.627000
0
SEQEND
8
0
0
POLYLINE
8
0
66
1
40
0.008000
41
0.008000
0
VERTEX
8
0
10
-0.448000
20
0.652000
0
VERTEX
8
0
10
-0.398000
20
0.652000
0
SEQEND
8
0
0
POLYLINE
8
0
66
1
40
0.008000
41
0.008000
0
VERTEX
8
0
10
0.326000
20
-0.197000
0
VERTEX
8
0
10
0.326000
20
-0.247000
0
SEQEND
8
0
0
POLYLINE
8
0
66
1
40
0.008000
41
0.008000
0
VERTEX
8
0
10
0.301000
20
-0.222000
0
VERTEX
8
0
10
0.351000
20
-0.222000
0
SEQEND
8
0
0
POLYLINE
8
0
66
1
40
0.008000
41
0.008000
0
VERTEX
8
0
10
0.396000
20
-0.432000
0
VERTEX
8
0
10
0.396000
20
-0.482000
0
SEQEND
8
0
0
POLYLINE
8
0
66
1
40
0.008000
41
0.008000
0
VERTEX
8
0
10
0.371000
20
-0.457000
0
VERTEX
8
0
10
0.421000
20
-0.457000
0
SEQEND
8
0
0
POLYLINE
8
0
66
1
40
0.008000
41
0.008000
0
VERTEX
8
0
10
0.379000
20
-0.439000
0
VERTEX
8
0
10
0.414000
20
-0.475000
0
SEQEND
8
0
0
POLYLINE
8
0
66
1
40
0.008000
41
0.008000
0
VERTEX
8
0
10
0.379000
20
-0.475000
0
VERTEX
8
0
10
0.414000
20
-0.439000
0
SEQEND
8
0
0
POLYLINE
8
0
66
1
40
0.008000
41
0.008000
0
VERTEX
8
0
10
0.396000
20
-0.632000
0
VERTEX
8
0
10
0.396000
20
-0.682000
0
SEQEND
8
0
0
POLYLINE
8
0
66
1
40
0.008000
41
0.008000
0
VERTEX
8
0
10
0.371000
20
-0.657000
0
VERTEX
8
0
10
0.421000
20
-0.657000
0
SEQEND
8
0
0
POLYLINE
8
0
66
1
40
0.008000
41
0.008000
0
VERTEX
8
0
10
0.379000
20
-0.639000
0
VERTEX
8
0
10
0.414000
20
-0.675000
0
SEQEND
8
0
0
POLYLINE
8
0
66
1
40
0.008000
41
0.008000
0
VERTEX
8
0
10
0.379000
20
-0.675000
0
VERTEX
8
0
10
0.414000
20
-0.639000
0
SEQEND
8
0
0
CIRCLE
8
12632256
10
0.051000
20
0.327000
40
0.025000
0
POLYLINE
8
0
66
1
40
0.008000
41
0.008000
0
VERTEX
8
0
10
0.051000
20
0.352000
0
VERTEX
8
0
10
0.051000
20
0.302000
0
SEQEND
8
0
0
POLYLINE
8
0
66
1
40
0.008000
41
0.008000
0
VERTEX
8
0
10
0.026000
20
0.327000
0
VERTEX
8
0
10
0.076000
20
0.327000
0
SEQEND
8
0
0
CIRCLE
8
12632256
10
0.051000
20
0.127000
40
0.025000
0
POLYLINE
8
0
66
1
40
0.008000
41
0.008000
0
VERTEX
8
0
10
0.051000
20
0.152000
0
VERTEX
8
0
10
0.051000
20
0.102000
0
SEQEND
8
0
0
POLYLINE
8
0
66
1
40
0.008000
41
0.008000
0
VERTEX
8
0
10
0.026000
20
0.127000
0
VERTEX
8
0
10
0.076000
20
0.127000
0
SEQEND
8
0
0
CIRCLE
8
12632256
10
0.151000
20
0.252000
40
0.025000
0
POLYLINE
8
0
66
1
40
0.008000
41
0.008000
0
VERTEX
8
0
10
0.151000
20
0.277000
0
VERTEX
8
0
10
0.151000
20
0.227000
0
SEQEND
8
0
0
POLYLINE
8
0
66
1
40
0.008000
41
0.008000
0
VERTEX
8
0
10
0.126000
20
0.252000
0
VERTEX
8
0
10
0.176000
20
0.252000
0
SEQEND
8
0
0
CIRCLE
8
12632256
10
0.151000
20
0.052000
40
0.025000
0
POLYLINE
8
0
66
1
40
0.008000
41
0.008000
0
VERTEX
8
0
10
0.151000
20
0.077000
0
VERTEX
8
0
10
0.151000
20
0.027000
0
SEQEND
8
0
0
POLYLINE
8
0
66
1
40
0.008000
41
0.008000
0
VERTEX
8
0
10
0.126000
20
0.052000
0
VERTEX
8
0
10
0.176000
20
0.052000
0
SEQEND
8
0
0
CIRCLE
8
12632256
10
0.151000
20
0.352000
40
0.025000
0
POLYLINE
8
0
66
1
40
0.008000
41
0.008000
0
VERTEX
8
0
10
0.151000
20
0.377000
0
VERTEX
8
0
10
0.151000
20
0.327000
0
SEQEND
8
0
0
POLYLINE
8
0
66
1
40
0.008000
41
0.008000
0
VERTEX
8
0
10
0.126000
20
0.352000
0
VERTEX
8
0
10
0.176000
20
0.352000
0
SEQEND
8
0
0
CIRCLE
8
12632256
10
0.031000
20
0.752000
40
0.025000
0
POLYLINE
8
0
66
1
40
0.008000
41
0.008000
0
VERTEX
8
0
10
0.031000
20
0.777000
0
VERTEX
8
0
10
0.031000
20
0.727000
0
SEQEND
8
0
0
POLYLINE
8
0
66
1
40
0.008000
41
0.008000
0
VERTEX
8
0
10
0.006000
20
0.752000
0
VERTEX
8
0
10
0.056000
20
0.752000
0
SEQEND
8
0
0
CIRCLE
8
12632256
10
0.226000
20
-0.017000
40
0.025000
0
POLYLINE
8
0
66
1
40
0.008000
41
0.008000
0
VERTEX
8
0
10
0.226000
20
0.007000
0
VERTEX
8
0
10
0.226000
20
-0.042000
0
SEQEND
8
0
0
POLYLINE
8
0
66
1
40
0.008000
41
0.008000
0
VERTEX
8
0
10
0.201000
20
-0.017000
0
VERTEX
8
0
10
0.251000
20
-0.017000
0
SEQEND
8
0
0
CIRCLE
8
12632256
10
0.306000
20
-0.017000
40
0.025000
0
POLYLINE
8
0
66
1
40
0.008000
41
0.008000
0
VERTEX
8
0
10
0.306000
20
0.007000
0
VERTEX
8
0
10
0.306000
20
-0.042000
0
SEQEND
8
0
0
POLYLINE
8
0
66
1
40
0.008000
41
0.008000
0
VERTEX
8
0
10
0.281000
20
-0.017000
0
VERTEX
8
0
10
0.331000
20
-0.017000
0
SEQEND
8
0
0
CIRCLE
8
12632256
10
0.386000
20
-0.017000
40
0.025000
0
POLYLINE
8
0
66
1
40
0.008000
41
0.008000
0
VERTEX
8
0
10
0.386000
20
0.007000
0
VERTEX
8
0
10
0.386000
20
-0.042000
0
SEQEND
8
0
0
POLYLINE
8
0
66
1
40
0.008000
41
0.008000
0
VERTEX
8
0
10
0.361000
20
-0.017000
0
VERTEX
8
0
10
0.411000
20
-0.017000
0
SEQEND
8
0
0
POLYLINE
8
0
66
1
40
0.008000
41
0.008000
0
VERTEX
8
0
10
0.309000
20
-0.169000
0
VERTEX
8
0
10
0.344000
20
-0.205000
0
SEQEND
8
0
0
POLYLINE
8
0
66
1
40
0.008000
41
0.008000
0
VERTEX
8
0
10
0.309000
20
-0.205000
0
VERTEX
8
0
10
0.344000
20
-0.169000
0
SEQEND
8
0
0
POLYLINE
8
0
66
1
40
0.008000
41
0.008000
0
VERTEX
8
0
10
0.309000
20
-0.164000
0
VERTEX
8
0
10
0.344000
20
-0.200000
0
SEQEND
8
0
0
POLYLINE
8
0
66
1
40
0.008000
41
0.008000
0
VERTEX
8
0
10
0.309000
20
-0.200000
0
VERTEX
8
0
10
0.344000
20
-0.164000
0
SEQEND
8
0
0
CIRCLE
8
12632256
10
0.376000
20
0.527000
40
0.025000
0
POLYLINE
8
0
66
1
40
0.008000
41
0.008000
0
VERTEX
8
0
10
0.376000
20
0.552000
0
VERTEX
8
0
10
0.376000
20
0.502000
0
SEQEND
8
0
0
POLYLINE
8
0
66
1
40
0.008000
41
0.008000
0
VERTEX
8
0
10
0.351000
20
0.527000
0
VERTEX
8
0
10
0.401000
20
0.527000
0
SEQEND
8
0
0
CIRCLE
8
12632256
10
0.376000
20
0.127000
40
0.025000
0
POLYLINE
8
0
66
1
40
0.008000
41
0.008000
0
VERTEX
8
0
10
0.376000
20
0.152000
0
VERTEX
8
0
10
0.376000
20
0.102000
0
SEQEND
8
0
0
POLYLINE
8
0
66
1
40
0.008000
41
0.008000
0
VERTEX
8
0
10
0.351000
20
0.127000
0
VERTEX
8
0
10
0.401000
20
0.127000
0
SEQEND
8
0
0
CIRCLE
8
12632256
10
0.241000
20
0.532000
40
0.025000
0
POLYLINE
8
0
66
1
40
0.008000
41
0.008000
0
VERTEX
8
0
10
0.241000
20
0.557000
0
VERTEX
8
0
10
0.241000
20
0.507000
0
SEQEND
8
0
0
POLYLINE
8
0
66
1
40
0.008000
41
0.008000
0
VERTEX
8
0
10
0.216000
20
0.532000
0
VERTEX
8
0
10
0.266000
20
0.532000
0
SEQEND
8
0
0
CIRCLE
8
12632256
10
0.241000
20
0.132000
40
0.025000
0
POLYLINE
8
0
66
1
40
0.008000
41
0.008000
0
VERTEX
8
0
10
0.241000
20
0.157000
0
VERTEX
8
0
10
0.241000
20
0.107000
0
SEQEND
8
0
0
POLYLINE
8
0
66
1
40
0.008000
41
0.008000
0
VERTEX
8
0
10
0.216000
20
0.132000
0
VERTEX
8
0
10
0.266000
20
0.132000
0
SEQEND
8
0
0
CIRCLE
8
12632256
10
0.356000
20
0.637000
40
0.025000
0
POLYLINE
8
0
66
1
40
0.008000
41
0.008000
0
VERTEX
8
0
10
0.339000
20
0.655000
0
VERTEX
8
0
10
0.374000
20
0.619000
0
SEQEND
8
0
0
POLYLINE
8
0
66
1
40
0.008000
41
0.008000
0
VERTEX
8
0
10
0.339000
20
0.619000
0
VERTEX
8
0
10
0.374000
20
0.655000
0
SEQEND
8
0
0
CIRCLE
8
12632256
10
0.256000
20
0.637000
40
0.025000
0
POLYLINE
8
0
66
1
40
0.008000
41
0.008000
0
VERTEX
8
0
10
0.239000
20
0.655000
0
VERTEX
8
0
10
0.274000
20
0.619000
0
SEQEND
8
0
0
POLYLINE
8
0
66
1
40
0.008000
41
0.008000
0
VERTEX
8
0
10
0.239000
20
0.619000
0
VERTEX
8
0
10
0.274000
20
0.655000
0
SEQEND
8
0
0
POLYLINE
8
0
66
1
40
0.008000
41
0.008000
0
VERTEX
8
0
10
-0.723000
20
-0.202000
0
VERTEX
8
0
10
-0.723000
20
-0.252000
0
SEQEND
8
0
0
POLYLINE
8
0
66
1
40
0.008000
41
0.008000
0
VERTEX
8
0
10
-0.748000
20
-0.227000
0
VERTEX
8
0
10
-0.698000
20
-0.227000
0
SEQEND
8
0
0
POLYLINE
8
0
66
1
40
0.008000
41
0.008000
0
VERTEX
8
0
10
-0.740000
20
-0.209000
0
VERTEX
8
0
10
-0.705000
20
-0.245000
0
SEQEND
8
0
0
POLYLINE
8
0
66
1
40
0.008000
41
0.008000
0
VERTEX
8
0
10
-0.740000
20
-0.245000
0
VERTEX
8
0
10
-0.705000
20
-0.209000
0
SEQEND
8
0
0
POLYLINE
8
0
66
1
40
0.008000
41
0.008000
0
VERTEX
8
0
10
-0.623000
20
-0.202000
0
VERTEX
8
0
10
-0.623000
20
-0.252000
0
SEQEND
8
0
0
POLYLINE
8
0
66
1
40
0.008000
41
0.008000
0
VERTEX
8
0
10
-0.648000
20
-0.227000
0
VERTEX
8
0
10
-0.598000
20
-0.227000
0
SEQEND
8
0
0
POLYLINE
8
0
66
1
40
0.008000
41
0.008000
0
VERTEX
8
0
10
-0.640000
20
-0.209000
0
VERTEX
8
0
10
-0.605000
20
-0.245000
0
SEQEND
8
0
0
POLYLINE
8
0
66
1
40
0.008000
41
0.008000
0
VERTEX
8
0
10
-0.640000
20
-0.245000
0
VERTEX
8
0
10
-0.605000
20
-0.209000
0
SEQEND
8
0
0
CIRCLE
8
12632256
10
0.296000
20
-0.457000
40
0.025000
0
POLYLINE
8
0
66
1
40
0.008000
41
0.008000
0
VERTEX
8
0
10
0.296000
20
-0.432000
0
VERTEX
8
0
10
0.296000
20
-0.482000
0
SEQEND
8
0
0
POLYLINE
8
0
66
1
40
0.008000
41
0.008000
0
VERTEX
8
0
10
0.271000
20
-0.457000
0
VERTEX
8
0
10
0.321000
20
-0.457000
0
SEQEND
8
0
0
CIRCLE
8
12632256
10
0.296000
20
-0.657000
40
0.025000
0
POLYLINE
8
0
66
1
40
0.008000
41
0.008000
0
VERTEX
8
0
10
0.296000
20
-0.632000
0
VERTEX
8
0
10
0.296000
20
-0.682000
0
SEQEND
8
0
0
POLYLINE
8
0
66
1
40
0.008000
41
0.008000
0
VERTEX
8
0
10
0.271000
20
-0.657000
0
VERTEX
8
0
10
0.321000
20
-0.657000
0
SEQEND
8
0
0
CIRCLE
8
12632256
10
-0.618000
20
-0.362000
40
0.025000
0
POLYLINE
8
0
66
1
40
0.008000
41
0.008000
0
VERTEX
8
0
10
-0.618000
20
-0.337000
0
VERTEX
8
0
10
-0.618000
20
-0.387000
0
SEQEND
8
0
0
POLYLINE
8
0
66
1
40
0.008000
41
0.008000
0
VERTEX
8
0
10
-0.643000
20
-0.362000
0
VERTEX
8
0
10
-0.593000
20
-0.362000
0
SEQEND
8
0
0
CIRCLE
8
12632256
10
-0.818000
20
-0.362000
40
0.025000
0
POLYLINE
8
0
66
1
40
0.008000
41
0.008000
0
VERTEX
8
0
10
-0.818000
20
-0.337000
0
VERTEX
8
0
10
-0.818000
20
-0.387000
0
SEQEND
8
0
0
POLYLINE
8
0
66
1
40
0.008000
41
0.008000
0
VERTEX
8
0
10
-0.843000
20
-0.362000
0
VERTEX
8
0
10
-0.793000
20
-0.362000
0
SEQEND
8
0
0
CIRCLE
8
12632256
10
-0.618000
20
-0.447000
40
0.025000
0
POLYLINE
8
0
66
1
40
0.008000
41
0.008000
0
VERTEX
8
0
10
-0.618000
20
-0.422000
0
VERTEX
8
0
10
-0.618000
20
-0.472000
0
SEQEND
8
0
0
POLYLINE
8
0
66
1
40
0.008000
41
0.008000
0
VERTEX
8
0
10
-0.643000
20
-0.447000
0
VERTEX
8
0
10
-0.593000
20
-0.447000
0
SEQEND
8
0
0
CIRCLE
8
12632256
10
-0.818000
20
-0.447000
40
0.025000
0
POLYLINE
8
0
66
1
40
0.008000
41
0.008000
0
VERTEX
8
0
10
-0.818000
20
-0.422000
0
VERTEX
8
0
10
-0.818000
20
-0.472000
0
SEQEND
8
0
0
POLYLINE
8
0
66
1
40
0.008000
41
0.008000
0
VERTEX
8
0
10
-0.843000
20
-0.447000
0
VERTEX
8
0
10
-0.793000
20
-0.447000
0
SEQEND
8
0
0
POLYLINE
8
0
66
1
40
0.008000
41
0.008000
0
VERTEX
8
0
10
-0.323000
20
-0.192000
0
VERTEX
8
0
10
-0.323000
20
-0.242000
0
SEQEND
8
0
0
POLYLINE
8
0
66
1
40
0.008000
41
0.008000
0
VERTEX
8
0
10
-0.348000
20
-0.217000
0
VERTEX
8
0
10
-0.298000
20
-0.217000
0
SEQEND
8
0
0
POLYLINE
8
0
66
1
40
0.008000
41
0.008000
0
VERTEX
8
0
10
-0.340000
20
-0.199000
0
VERTEX
8
0
10
-0.305000
20
-0.235000
0
SEQEND
8
0
0
POLYLINE
8
0
66
1
40
0.008000
41
0.008000
0
VERTEX
8
0
10
-0.340000
20
-0.235000
0
VERTEX
8
0
10
-0.305000
20
-0.199000
0
SEQEND
8
0
0
POLYLINE
8
0
66
1
40
0.008000
41
0.008000
0
VERTEX
8
0
10
-0.023000
20
-0.202000
0
VERTEX
8
0
10
-0.023000
20
-0.252000
0
SEQEND
8
0
0
POLYLINE
8
0
66
1
40
0.008000
41
0.008000
0
VERTEX
8
0
10
-0.048000
20
-0.227000
0
VERTEX
8
0
10
0.001000
20
-0.227000
0
SEQEND
8
0
0
POLYLINE
8
0
66
1
40
0.008000
41
0.008000
0
VERTEX
8
0
10
-0.040000
20
-0.209000
0
VERTEX
8
0
10
-0.005000
20
-0.245000
0
SEQEND
8
0
0
POLYLINE
8
0
66
1
40
0.008000
41
0.008000
0
VERTEX
8
0
10
-0.040000
20
-0.245000
0
VERTEX
8
0
10
-0.005000
20
-0.209000
0
SEQEND
8
0
0
POLYLINE
8
0
66
1
40
0.008000
41
0.008000
0
VERTEX
8
0
10
-0.848000
20
-0.692000
0
VERTEX
8
0
10
0.501000
20
-0.692000
0
VERTEX
8
0
10
0.501000
20
0.787000
0
VERTEX
8
0
10
-0.848000
20
0.787000
0
VERTEX
8
0
10
-0.848000
20
-0.692000
0
SEQEND
8
0
0
POLYLINE
8
0
66
1
40
0.008000
41
0.008000
0
VERTEX
8
0
10
-0.752000
20
-0.756000
0
VERTEX
8
0
10
-0.752000
20
-0.806000
0
SEQEND
8
0
0
POLYLINE
8
0
66
1
40
0.008000
41
0.008000
0
VERTEX
8
0
10
-0.777000
20
-0.781000
0
VERTEX
8
0
10
-0.727000
20
-0.781000
0
SEQEND
8
0
0
TEXT
8
0
10
-0.702000
20
-0.801000
40
0.040000
41
1.000000
1
4mm (1)
0
POLYLINE
8
0
66
1
40
0.008000
41
0.008000
0
VERTEX
8
0
10
-0.169000
20
-0.763000
0
VERTEX
8
0
10
-0.134000
20
-0.799000
0
SEQEND
8
0
0
POLYLINE
8
0
66
1
40
0.008000
41
0.008000
0
VERTEX
8
0
10
-0.169000
20
-0.799000
0
VERTEX
8
0
10
-0.134000
20
-0.763000
0
SEQEND
8
0
0
TEXT
8
0
10
-0.102000
20
-0.801000
40
0.040000
41
1.000000
1
15th (2)
0
POLYLINE
8
0
66
1
40
0.008000
41
0.008000
0
VERTEX
8
0
10
0.447000
20
-0.756000
0
VERTEX
8
0
10
0.447000
20
-0.806000
0
SEQEND
8
0
0
POLYLINE
8
0
66
1
40
0.008000
41
0.008000
0
VERTEX
8
0
10
0.422000
20
-0.781000
0
VERTEX
8
0
10
0.472000
20
-0.781000
0
SEQEND
8
0
0
POLYLINE
8
0
66
1
40
0.008000
41
0.008000
0
VERTEX
8
0
10
0.430000
20
-0.763000
0
VERTEX
8
0
10
0.465000
20
-0.799000
0
SEQEND
8
0
0
POLYLINE
8
0
66
1
40
0.008000
41
0.008000
0
VERTEX
8
0
10
0.430000
20
-0.799000
0
VERTEX
8
0
10
0.465000
20
-0.763000
0
SEQEND
8
0
0
TEXT
8
0
10
0.497000
20
-0.801000
40
0.040000
41
1.000000
1
25th (6)
0
CIRCLE
8
12632256
10
1.047000
20
-0.781000
40
0.025000
0
POLYLINE
8
0
66
1
40
0.008000
41
0.008000
0
VERTEX
8
0
10
1.047000
20
-0.756000
0
VERTEX
8
0
10
1.047000
20
-0.806000
0
SEQEND
8
0
0
POLYLINE
8
0
66
1
40
0.008000
41
0.008000
0
VERTEX
8
0
10
1.022000
20
-0.781000
0
VERTEX
8
0
10
1.072000
20
-0.781000
0
SEQEND
8
0
0
TEXT
8
0
10
1.097000
20
-0.801000
40
0.040000
41
1.000000
1
30th (75)
0
CIRCLE
8
12632256
10
1.647000
20
-0.781000
40
0.025000
0
POLYLINE
8
0
66
1
40
0.008000
41
0.008000
0
VERTEX
8
0
10
1.630000
20
-0.763000
0
VERTEX
8
0
10
1.665000
20
-0.799000
0
SEQEND
8
0
0
POLYLINE
8
0
66
1
40
0.008000
41
0.008000
0
VERTEX
8
0
10
1.630000
20
-0.799000
0
VERTEX
8
0
10
1.665000
20
-0.763000
0
SEQEND
8
0
0
TEXT
8
0
10
1.697000
20
-0.801000
40
0.040000
41
1.000000
1
40th (2)
0
ENDSEC
0
EOF

