  0
SECTION
  2
HEADER
  9
$ACADVER
  1
AC2.10
  0
ENDSEC
  0
SECTION
  2
TABLES
  0
TABLE
  2
LAYER
 70
     8
  0
LAYER
  2
0
 62
     7
 70
0
  6
CONTINUOUS
  0
LAYER
  2
1
 62
     1
 70
0
  6
CONTINUOUS
  0
LAYER
  2
2
 62
     2
 70
0
  6
CONTINUOUS
  0
LAYER
  2
3
 62
     3
 70
0
  6
CONTINUOUS
  0
LAYER
  2
4
 62
     4
 70
0
  6
CONTINUOUS
  0
LAYER
  2
5
 62
     5
 70
0
  6
CONTINUOUS
  0
LAYER
  2
6
 62
     6
 70
0
  6
CONTINUOUS
  0
LAYER
  2
7
 62
     7
 70
0
  6
CONTINUOUS
  0
ENDTAB
  0
TABLE
  2
STYLE
 70
     1
  0
STYLE
 70
     0
  2
STANDARD
  3
TXT
 40
0.00
 41
1.00
 42
1.00
 50
0.00
 71
     0
  0
ENDTAB
  0
ENDSEC
  0
SECTION
  2
BLOCKS
  0
BLOCK
  8
0
  2
EPAD
 70
0
 10
0.0
 20
0.0
  0
POLYLINE
  8
0
 66
1
 70
1
 40
0.5
 41
0.5
  0
VERTEX
  8
0
 10
-0.25
 20
0.0
 42
1.0
  0
VERTEX
  8
0
 10
0.25
 20
0.0
 42
1.0
  0
SEQEND
  8
0
  0
ENDBLK
  8
0
  0
BLOCK
  8
0
  2
RPAD
 70
0
 10
0.0
 20
0.0
  0
TRACE
  8
0
 10
-0.5
 20
-0.5
 11
-0.5
 21
0.5
 12
0.5
 22
-0.5
 13
0.5
 23
0.5
  0
ENDBLK
  8
0
  0
ENDSEC
0
SECTION
2
ENTITIES
0
POLYLINE
8
0
66
1
40
0.015000
41
0.015000
0
VERTEX
8
0
10
-0.723000
20
0.667000
0
VERTEX
8
0
10
-0.623000
20
0.667000
0
VERTEX
8
0
10
-0.573000
20
0.617000
0
VERTEX
8
0
10
-0.398000
20
0.617000
0
VERTEX
8
0
10
-0.348000
20
0.667000
0
VERTEX
8
0
10
-0.323000
20
0.667000
0
SEQEND
8
0
0
POLYLINE
8
0
66
1
40
0.015000
41
0.015000
0
VERTEX
8
0
10
-0.423000
20
0.067000
0
VERTEX
8
0
10
-0.398000
20
0.092000
0
VERTEX
8
0
10
-0.373000
20
0.092000
0
VERTEX
8
0
10
-0.348000
20
0.117000
0
VERTEX
8
0
10
-0.173000
20
0.117000
0
VERTEX
8
0
10
-0.123000
20
0.067000
0
VERTEX
8
0
10
-0.023000
20
0.067000
0
SEQEND
8
0
0
POLYLINE
8
0
66
1
40
0.015000
41
0.015000
0
VERTEX
8
0
10
-0.423000
20
-0.032000
0
VERTEX
8
0
10
-0.398000
20
-0.007000
0
VERTEX
8
0
10
-0.373000
20
-0.007000
0
VERTEX
8
0
10
-0.348000
20
0.017000
0
VERTEX
8
0
10
-0.173000
20
0.017000
0
VERTEX
8
0
10
-0.123000
20
-0.032000
0
VERTEX
8
0
10
-0.023000
20
-0.032000
0
SEQEND
8
0
0
POLYLINE
8
0
66
1
40
0.015000
41
0.015000
0
VERTEX
8
0
10
-0.423000
20
-0.132000
0
VERTEX
8
0
10
-0.398000
20
-0.107000
0
VERTEX
8
0
10
-0.373000
20
-0.107000
0
VERTEX
8
0
10
-0.348000
20
-0.082000
0
VERTEX
8
0
10
-0.173000
20
-0.082000
0
VERTEX
8
0
10
-0.123000
20
-0.132000
0
VERTEX
8
0
10
-0.023000
20
-0.132000
0
SEQEND
8
0
0
POLYLINE
8
0
66
1
40
0.015000
41
0.015000
0
VERTEX
8
0
10
-0.023000
20
0.667000
0
VERTEX
8
0
10
-0.148000
20
0.667000
0
VERTEX
8
0
10
-0.195000
20
0.715000
0
SEQEND
8
0
0
POLYLINE
8
0
66
1
40
0.010000
41
0.010000
0
VERTEX
8
0
10
-0.195000
20
0.715000
0
VERTEX
8
0
10
-0.198000
20
0.717000
0
VERTEX
8
0
10
-0.373000
20
0.717000
0
VERTEX
8
0
10
-0.375000
20
0.715000
0
SEQEND
8
0
0
POLYLINE
8
0
66
1
40
0.015000
41
0.015000
0
VERTEX
8
0
10
-0.375000
20
0.715000
0
VERTEX
8
0
10
-0.423000
20
0.667000
0
SEQEND
8
0
0
POLYLINE
8
0
66
1
40
0.050000
41
0.050000
0
VERTEX
8
0
10
0.051000
20
0.767000
0
VERTEX
8
0
10
0.051000
20
0.767000
0
SEQEND
8
0
0
POLYLINE
8
0
66
1
40
0.050000
41
0.050000
0
VERTEX
8
0
10
0.151000
20
0.767000
0
VERTEX
8
0
10
0.151000
20
0.767000
0
SEQEND
8
0
0
POLYLINE
8
0
66
1
40
0.020000
41
0.020000
0
VERTEX
8
0
10
-0.713000
20
-0.332000
0
VERTEX
8
0
10
-0.673000
20
-0.332000
0
SEQEND
8
0
0
POLYLINE
8
0
66
1
40
0.020000
41
0.020000
0
VERTEX
8
0
10
-0.713000
20
-0.232000
0
VERTEX
8
0
10
-0.673000
20
-0.232000
0
SEQEND
8
0
0
POLYLINE
8
0
66
1
40
0.050000
41
0.050000
0
VERTEX
8
0
10
0.401000
20
-0.507000
0
VERTEX
8
0
10
0.401000
20
-0.567000
0
SEQEND
8
0
0
POLYLINE
8
0
66
1
40
0.025000
41
0.025000
0
VERTEX
8
0
10
-0.323000
20
0.267000
0
VERTEX
8
0
10
-0.173000
20
0.267000
0
VERTEX
8
0
10
-0.123000
20
0.217000
0
VERTEX
8
0
10
0.001000
20
0.217000
0
VERTEX
8
0
10
0.051000
20
0.167000
0
VERTEX
8
0
10
0.051000
20
0.142000
0
SEQEND
8
0
0
POLYLINE
8
0
66
1
40
0.015000
41
0.015000
0
VERTEX
8
0
10
-0.423000
20
0.167000
0
VERTEX
8
0
10
-0.398000
20
0.167000
0
VERTEX
8
0
10
-0.348000
20
0.217000
0
VERTEX
8
0
10
-0.173000
20
0.217000
0
VERTEX
8
0
10
-0.123000
20
0.167000
0
VERTEX
8
0
10
-0.023000
20
0.167000
0
SEQEND
8
0
0
POLYLINE
8
0
66
1
40
0.025000
41
0.025000
0
VERTEX
8
0
10
-0.323000
20
0.267000
0
VERTEX
8
0
10
-0.348000
20
0.267000
0
VERTEX
8
0
10
-0.398000
20
0.217000
0
VERTEX
8
0
10
-0.573000
20
0.217000
0
VERTEX
8
0
10
-0.623000
20
0.267000
0
VERTEX
8
0
10
-0.723000
20
0.267000
0
SEQEND
8
0
0
POLYLINE
8
0
66
1
40
0.015000
41
0.015000
0
VERTEX
8
0
10
-0.323000
20
0.367000
0
VERTEX
8
0
10
-0.353000
20
0.367000
0
VERTEX
8
0
10
-0.398000
20
0.317000
0
VERTEX
8
0
10
-0.573000
20
0.317000
0
VERTEX
8
0
10
-0.623000
20
0.367000
0
VERTEX
8
0
10
-0.723000
20
0.367000
0
SEQEND
8
0
0
POLYLINE
8
0
66
1
40
0.015000
41
0.015000
0
VERTEX
8
0
10
-0.423000
20
0.367000
0
VERTEX
8
0
10
-0.398000
20
0.367000
0
VERTEX
8
0
10
-0.348000
20
0.417000
0
VERTEX
8
0
10
-0.173000
20
0.417000
0
VERTEX
8
0
10
-0.123000
20
0.367000
0
VERTEX
8
0
10
-0.023000
20
0.367000
0
SEQEND
8
0
0
POLYLINE
8
0
66
1
40
0.015000
41
0.015000
0
VERTEX
8
0
10
-0.323000
20
0.467000
0
VERTEX
8
0
10
-0.348000
20
0.467000
0
VERTEX
8
0
10
-0.398000
20
0.417000
0
VERTEX
8
0
10
-0.573000
20
0.417000
0
VERTEX
8
0
10
-0.623000
20
0.467000
0
VERTEX
8
0
10
-0.723000
20
0.467000
0
SEQEND
8
0
0
POLYLINE
8
0
66
1
40
0.015000
41
0.015000
0
VERTEX
8
0
10
-0.323000
20
0.567000
0
VERTEX
8
0
10
-0.348000
20
0.567000
0
VERTEX
8
0
10
-0.398000
20
0.517000
0
VERTEX
8
0
10
-0.573000
20
0.517000
0
VERTEX
8
0
10
-0.623000
20
0.567000
0
VERTEX
8
0
10
-0.723000
20
0.567000
0
SEQEND
8
0
0
POLYLINE
8
0
66
1
40
0.015000
41
0.015000
0
VERTEX
8
0
10
-0.423000
20
0.567000
0
VERTEX
8
0
10
-0.418000
20
0.572000
0
VERTEX
8
0
10
-0.398000
20
0.567000
0
VERTEX
8
0
10
-0.348000
20
0.617000
0
VERTEX
8
0
10
-0.173000
20
0.617000
0
VERTEX
8
0
10
-0.123000
20
0.567000
0
VERTEX
8
0
10
-0.023000
20
0.567000
0
SEQEND
8
0
0
POLYLINE
8
0
66
1
40
0.015000
41
0.015000
0
VERTEX
8
0
10
-0.423000
20
0.467000
0
VERTEX
8
0
10
-0.398000
20
0.467000
0
VERTEX
8
0
10
-0.348000
20
0.517000
0
VERTEX
8
0
10
-0.173000
20
0.517000
0
VERTEX
8
0
10
-0.123000
20
0.467000
0
VERTEX
8
0
10
-0.023000
20
0.467000
0
SEQEND
8
0
0
POLYLINE
8
0
66
1
40
0.025000
41
0.025000
0
VERTEX
8
0
10
-0.423000
20
0.267000
0
VERTEX
8
0
10
-0.398000
20
0.272000
0
VERTEX
8
0
10
-0.353000
20
0.317000
0
VERTEX
8
0
10
-0.158000
20
0.317000
0
VERTEX
8
0
10
-0.108000
20
0.267000
0
VERTEX
8
0
10
-0.023000
20
0.267000
0
VERTEX
8
0
10
0.001000
20
0.267000
0
VERTEX
8
0
10
0.051000
20
0.267000
0
VERTEX
8
0
10
0.151000
20
0.267000
0
SEQEND
8
0
0
POLYLINE
8
0
66
1
40
0.025000
41
0.025000
0
VERTEX
8
0
10
0.011000
20
0.277000
0
VERTEX
8
0
10
0.041000
20
0.307000
0
VERTEX
8
0
10
0.051000
20
0.342000
0
VERTEX
8
0
10
0.061000
20
0.307000
0
VERTEX
8
0
10
0.096000
20
0.272000
0
SEQEND
8
0
0
POLYLINE
8
0
66
1
40
0.025000
41
0.025000
0
VERTEX
8
0
10
0.051000
20
0.342000
0
VERTEX
8
0
10
0.083000
20
0.307000
0
VERTEX
8
0
10
0.116000
20
0.274000
0
VERTEX
8
0
10
0.151000
20
0.267000
0
SEQEND
8
0
0
POLYLINE
8
0
66
1
40
0.025000
41
0.025000
0
VERTEX
8
0
10
0.051000
20
0.342000
0
VERTEX
8
0
10
0.020000
20
0.307000
0
VERTEX
8
0
10
0.001000
20
0.289000
0
VERTEX
8
0
10
-0.023000
20
0.267000
0
SEQEND
8
0
0
POLYLINE
8
0
66
1
40
0.025000
41
0.025000
0
VERTEX
8
0
10
0.021000
20
0.282000
0
VERTEX
8
0
10
0.051000
20
0.282000
0
VERTEX
8
0
10
0.084000
20
0.282000
0
SEQEND
8
0
0
POLYLINE
8
0
66
1
40
0.025000
41
0.025000
0
VERTEX
8
0
10
0.051000
20
0.342000
0
VERTEX
8
0
10
0.051000
20
0.282000
0
VERTEX
8
0
10
0.051000
20
0.267000
0
SEQEND
8
0
0
POLYLINE
8
0
66
1
40
0.050000
41
0.050000
0
VERTEX
8
0
10
0.151000
20
0.767000
0
VERTEX
8
0
10
0.061000
20
0.767000
0
SEQEND
8
0
0
POLYLINE
8
0
66
1
40
0.050000
41
0.050000
0
VERTEX
8
0
10
0.466000
20
-0.187000
0
VERTEX
8
0
10
0.466000
20
-0.296000
0
SEQEND
8
0
0
POLYLINE
8
0
66
1
40
0.050000
41
0.050000
0
VERTEX
8
0
10
0.401000
20
-0.307000
0
VERTEX
8
0
10
0.466000
20
-0.307000
0
SEQEND
8
0
0
POLYLINE
8
0
66
1
40
0.050000
41
0.050000
0
VERTEX
8
0
10
0.466000
20
-0.296000
0
VERTEX
8
0
10
0.466000
20
-0.307000
0
SEQEND
8
0
0
POLYLINE
8
0
66
1
40
0.030000
41
0.030000
0
VERTEX
8
0
10
0.291000
20
-0.602000
0
VERTEX
8
0
10
0.201000
20
-0.607000
0
VERTEX
8
0
10
0.176000
20
-0.632000
0
VERTEX
8
0
10
0.176000
20
-0.707000
0
SEQEND
8
0
0
POLYLINE
8
0
66
1
40
0.030000
41
0.030000
0
VERTEX
8
0
10
0.291000
20
-0.602000
0
VERTEX
8
0
10
0.351000
20
-0.602000
0
VERTEX
8
0
10
0.376000
20
-0.577000
0
VERTEX
8
0
10
0.401000
20
-0.567000
0
SEQEND
8
0
0
POLYLINE
8
0
66
1
40
0.025000
41
0.025000
0
VERTEX
8
0
10
0.466000
20
0.222000
0
VERTEX
8
0
10
0.471000
20
0.222000
0
SEQEND
8
0
0
POLYLINE
8
0
66
1
40
0.012000
41
0.012000
0
VERTEX
8
0
10
-0.723000
20
-0.407000
0
VERTEX
8
0
10
-0.723000
20
-0.362000
0
VERTEX
8
0
10
-0.713000
20
-0.352000
0
VERTEX
8
0
10
-0.713000
20
-0.332000
0
SEQEND
8
0
0
POLYLINE
8
0
66
1
40
0.015000
41
0.015000
0
VERTEX
8
0
10
-0.623000
20
-0.407000
0
VERTEX
8
0
10
-0.623000
20
-0.257000
0
VERTEX
8
0
10
-0.648000
20
-0.232000
0
VERTEX
8
0
10
-0.673000
20
-0.232000
0
SEQEND
8
0
0
POLYLINE
8
0
66
1
40
0.050000
41
0.050000
0
VERTEX
8
0
10
-0.723000
20
0.267000
0
VERTEX
8
0
10
-0.813000
20
0.267000
0
SEQEND
8
0
0
POLYLINE
8
0
66
1
40
0.050000
41
0.050000
0
VERTEX
8
0
10
-0.813000
20
-0.232000
0
VERTEX
8
0
10
-0.813000
20
0.267000
0
SEQEND
8
0
0
POLYLINE
8
0
66
1
40
0.050000
41
0.050000
0
VERTEX
8
0
10
-0.813000
20
-0.232000
0
VERTEX
8
0
10
-0.813000
20
-0.332000
0
SEQEND
8
0
0
POLYLINE
8
0
66
1
40
0.050000
41
0.050000
0
VERTEX
8
0
10
0.076000
20
-0.707000
0
VERTEX
8
0
10
0.076000
20
-0.762000
0
VERTEX
8
0
10
0.076000
20
-0.767000
0
SEQEND
8
0
0
POLYLINE
8
0
66
1
40
0.050000
41
0.050000
0
VERTEX
8
0
10
0.291000
20
-0.767000
0
VERTEX
8
0
10
0.076000
20
-0.767000
0
SEQEND
8
0
0
POLYLINE
8
0
66
1
40
0.050000
41
0.050000
0
VERTEX
8
0
10
0.401000
20
-0.767000
0
VERTEX
8
0
10
0.291000
20
-0.767000
0
SEQEND
8
0
0
POLYLINE
8
0
66
1
40
0.050000
41
0.050000
0
VERTEX
8
0
10
0.466000
20
-0.307000
0
VERTEX
8
0
10
0.466000
20
-0.767000
0
VERTEX
8
0
10
0.401000
20
-0.767000
0
SEQEND
8
0
0
POLYLINE
8
0
66
1
40
0.050000
41
0.050000
0
VERTEX
8
0
10
0.021000
20
0.767000
0
VERTEX
8
0
10
-0.813000
20
0.767000
0
VERTEX
8
0
10
-0.813000
20
0.267000
0
SEQEND
8
0
0
POLYLINE
8
0
66
1
40
0.050000
41
0.050000
0
VERTEX
8
0
10
0.061000
20
0.767000
0
VERTEX
8
0
10
0.056000
20
0.767000
0
VERTEX
8
0
10
0.051000
20
0.767000
0
VERTEX
8
0
10
0.021000
20
0.767000
0
SEQEND
8
0
0
POLYLINE
8
0
66
1
40
0.050000
41
0.050000
0
VERTEX
8
0
10
0.466000
20
0.222000
0
VERTEX
8
0
10
0.466000
20
0.217000
0
SEQEND
8
0
0
POLYLINE
8
0
66
1
40
0.050000
41
0.050000
0
VERTEX
8
0
10
0.466000
20
0.127000
0
VERTEX
8
0
10
0.471000
20
0.127000
0
SEQEND
8
0
0
POLYLINE
8
0
66
1
40
0.050000
41
0.050000
0
VERTEX
8
0
10
0.466000
20
0.127000
0
VERTEX
8
0
10
0.466000
20
-0.187000
0
SEQEND
8
0
0
POLYLINE
8
0
66
1
40
0.050000
41
0.050000
0
VERTEX
8
0
10
0.391000
20
0.767000
0
VERTEX
8
0
10
0.401000
20
0.767000
0
VERTEX
8
0
10
0.466000
20
0.767000
0
VERTEX
8
0
10
0.466000
20
0.692000
0
SEQEND
8
0
0
POLYLINE
8
0
66
1
40
0.025000
41
0.025000
0
VERTEX
8
0
10
0.226000
20
-0.002000
0
VERTEX
8
0
10
0.226000
20
-0.002000
0
SEQEND
8
0
0
POLYLINE
8
0
66
1
40
0.050000
41
0.050000
0
VERTEX
8
0
10
0.466000
20
0.692000
0
VERTEX
8
0
10
0.466000
20
0.587000
0
SEQEND
8
0
0
POLYLINE
8
0
66
1
40
0.050000
41
0.050000
0
VERTEX
8
0
10
0.851000
20
0.617000
0
VERTEX
8
0
10
0.851000
20
0.617000
0
SEQEND
8
0
0
POLYLINE
8
0
66
1
40
0.050000
41
0.050000
0
VERTEX
8
0
10
0.376000
20
0.767000
0
VERTEX
8
0
10
0.391000
20
0.767000
0
SEQEND
8
0
0
POLYLINE
8
0
66
1
40
0.050000
41
0.050000
0
VERTEX
8
0
10
0.466000
20
0.587000
0
VERTEX
8
0
10
0.466000
20
0.352000
0
VERTEX
8
0
10
0.466000
20
0.222000
0
SEQEND
8
0
0
POLYLINE
8
0
66
1
40
0.050000
41
0.050000
0
VERTEX
8
0
10
0.151000
20
0.767000
0
VERTEX
8
0
10
0.191000
20
0.767000
0
VERTEX
8
0
10
0.376000
20
0.767000
0
SEQEND
8
0
0
POLYLINE
8
0
66
1
40
0.030000
41
0.030000
0
VERTEX
8
0
10
0.316000
20
0.087000
0
VERTEX
8
0
10
0.266000
20
0.082000
0
VERTEX
8
0
10
0.266000
20
0.032000
0
VERTEX
8
0
10
0.236000
20
0.002000
0
VERTEX
8
0
10
0.226000
20
-0.002000
0
SEQEND
8
0
0
POLYLINE
8
0
66
1
40
0.050000
41
0.050000
0
VERTEX
8
0
10
0.466000
20
0.217000
0
VERTEX
8
0
10
0.466000
20
0.192000
0
VERTEX
8
0
10
0.466000
20
0.127000
0
SEQEND
8
0
0
POLYLINE
8
0
66
1
40
0.050000
41
0.050000
0
VERTEX
8
0
10
0.051000
20
0.142000
0
VERTEX
8
0
10
0.126000
20
0.067000
0
VERTEX
8
0
10
0.151000
20
0.067000
0
SEQEND
8
0
0
POLYLINE
8
0
66
1
40
0.050000
41
0.050000
0
VERTEX
8
0
10
0.461000
20
0.187000
0
VERTEX
8
0
10
0.106000
20
0.187000
0
VERTEX
8
0
10
0.076000
20
0.157000
0
VERTEX
8
0
10
0.051000
20
0.142000
0
SEQEND
8
0
0
POLYLINE
8
0
66
1
40
0.020000
41
0.020000
0
VERTEX
8
0
10
-0.774000
20
-0.462000
0
VERTEX
8
0
10
-0.603000
20
-0.462000
0
VERTEX
8
0
10
-0.573000
20
-0.432000
0
VERTEX
8
0
10
-0.573000
20
-0.262000
0
VERTEX
8
0
10
-0.658000
20
-0.177000
0
VERTEX
8
0
10
-0.808000
20
-0.177000
0
SEQEND
8
0
0
POLYLINE
8
0
66
1
40
0.020000
41
0.020000
0
VERTEX
8
0
10
-0.788000
20
-0.462000
0
VERTEX
8
0
10
-0.808000
20
-0.462000
0
VERTEX
8
0
10
-0.813000
20
-0.462000
0
SEQEND
8
0
0
POLYLINE
8
0
66
1
40
0.050000
41
0.050000
0
VERTEX
8
0
10
-0.813000
20
-0.332000
0
VERTEX
8
0
10
-0.813000
20
-0.462000
0
VERTEX
8
0
10
-0.813000
20
-0.757000
0
SEQEND
8
0
0
POLYLINE
8
0
66
1
40
0.020000
41
0.020000
0
VERTEX
8
0
10
-0.788000
20
-0.462000
0
VERTEX
8
0
10
-0.774000
20
-0.462000
0
SEQEND
8
0
0
POLYLINE
8
0
66
1
40
0.015000
41
0.015000
0
VERTEX
8
0
10
-0.578000
20
-0.772000
0
VERTEX
8
0
10
-0.578000
20
-0.767000
0
SEQEND
8
0
0
POLYLINE
8
0
66
1
40
0.015000
41
0.015000
0
VERTEX
8
0
10
-0.478000
20
-0.772000
0
VERTEX
8
0
10
-0.478000
20
-0.767000
0
SEQEND
8
0
0
POLYLINE
8
0
66
1
40
0.050000
41
0.050000
0
VERTEX
8
0
10
-0.453000
20
-0.767000
0
VERTEX
8
0
10
-0.478000
20
-0.767000
0
VERTEX
8
0
10
-0.578000
20
-0.767000
0
SEQEND
8
0
0
POLYLINE
8
0
66
1
40
0.015000
41
0.015000
0
VERTEX
8
0
10
-0.368000
20
-0.762000
0
VERTEX
8
0
10
-0.368000
20
-0.637000
0
SEQEND
8
0
0
POLYLINE
8
0
66
1
40
0.015000
41
0.015000
0
VERTEX
8
0
10
-0.273000
20
-0.762000
0
VERTEX
8
0
10
-0.273000
20
-0.637000
0
SEQEND
8
0
0
POLYLINE
8
0
66
1
40
0.030000
41
0.030000
0
VERTEX
8
0
10
-0.273000
20
-0.637000
0
VERTEX
8
0
10
-0.368000
20
-0.637000
0
SEQEND
8
0
0
POLYLINE
8
0
66
1
40
0.015000
41
0.015000
0
VERTEX
8
0
10
-0.173000
20
-0.762000
0
VERTEX
8
0
10
-0.173000
20
-0.637000
0
SEQEND
8
0
0
POLYLINE
8
0
66
1
40
0.030000
41
0.030000
0
VERTEX
8
0
10
-0.173000
20
-0.637000
0
VERTEX
8
0
10
-0.273000
20
-0.637000
0
SEQEND
8
0
0
POLYLINE
8
0
66
1
40
0.015000
41
0.015000
0
VERTEX
8
0
10
-0.073000
20
-0.767000
0
VERTEX
8
0
10
-0.073000
20
-0.637000
0
SEQEND
8
0
0
POLYLINE
8
0
66
1
40
0.050000
41
0.050000
0
VERTEX
8
0
10
0.076000
20
-0.767000
0
VERTEX
8
0
10
-0.073000
20
-0.767000
0
VERTEX
8
0
10
-0.453000
20
-0.767000
0
SEQEND
8
0
0
POLYLINE
8
0
66
1
40
0.030000
41
0.030000
0
VERTEX
8
0
10
0.076000
20
-0.707000
0
VERTEX
8
0
10
0.006000
20
-0.637000
0
VERTEX
8
0
10
-0.073000
20
-0.637000
0
VERTEX
8
0
10
-0.173000
20
-0.637000
0
SEQEND
8
0
0
POLYLINE
8
0
66
1
40
0.050000
41
0.050000
0
VERTEX
8
0
10
-0.578000
20
-0.767000
0
VERTEX
8
0
10
-0.678000
20
-0.767000
0
VERTEX
8
0
10
-0.813000
20
-0.767000
0
SEQEND
8
0
0
POLYLINE
8
0
66
1
40
0.025000
41
0.025000
0
VERTEX
8
0
10
0.151000
20
0.267000
0
VERTEX
8
0
10
0.176000
20
0.272000
0
VERTEX
8
0
10
0.291000
20
0.272000
0
VERTEX
8
0
10
0.306000
20
0.287000
0
VERTEX
8
0
10
0.351000
20
0.287000
0
VERTEX
8
0
10
0.396000
20
0.297000
0
SEQEND
8
0
0
POLYLINE
8
0
66
1
40
0.025000
41
0.025000
0
VERTEX
8
0
10
0.396000
20
0.697000
0
VERTEX
8
0
10
0.371000
20
0.667000
0
VERTEX
8
0
10
0.316000
20
0.612000
0
VERTEX
8
0
10
0.316000
20
0.487000
0
SEQEND
8
0
0
POLYLINE
8
0
66
1
40
0.025000
41
0.025000
0
VERTEX
8
0
10
0.151000
20
0.367000
0
VERTEX
8
0
10
0.086000
20
0.432000
0
VERTEX
8
0
10
0.086000
20
0.557000
0
VERTEX
8
0
10
0.171000
20
0.642000
0
VERTEX
8
0
10
0.211000
20
0.637000
0
SEQEND
8
0
0
POLYLINE
8
0
66
1
40
0.025000
41
0.025000
0
VERTEX
8
0
10
0.211000
20
0.537000
0
VERTEX
8
0
10
0.206000
20
0.497000
0
VERTEX
8
0
10
0.206000
20
0.412000
0
VERTEX
8
0
10
0.226000
20
0.397000
0
SEQEND
8
0
0
POLYLINE
8
0
66
1
40
0.030000
41
0.030000
0
VERTEX
8
0
10
0.226000
20
-0.002000
0
VERTEX
8
0
10
0.201000
20
-0.032000
0
VERTEX
8
0
10
0.181000
20
-0.052000
0
VERTEX
8
0
10
0.181000
20
-0.242000
0
VERTEX
8
0
10
0.281000
20
-0.342000
0
VERTEX
8
0
10
0.281000
20
-0.392000
0
VERTEX
8
0
10
0.376000
20
-0.487000
0
VERTEX
8
0
10
0.401000
20
-0.507000
0
SEQEND
8
0
0
POLYLINE
8
0
66
1
40
0.015000
41
0.015000
0
VERTEX
8
0
10
0.131000
20
-0.282000
0
VERTEX
8
0
10
0.126000
20
-0.317000
0
VERTEX
8
0
10
0.126000
20
-0.452000
0
VERTEX
8
0
10
0.081000
20
-0.497000
0
VERTEX
8
0
10
-0.158000
20
-0.497000
0
VERTEX
8
0
10
-0.223000
20
-0.432000
0
VERTEX
8
0
10
-0.223000
20
-0.407000
0
SEQEND
8
0
0
POLYLINE
8
0
66
1
40
0.015000
41
0.015000
0
VERTEX
8
0
10
-0.323000
20
-0.132000
0
VERTEX
8
0
10
-0.323000
20
-0.222000
0
VERTEX
8
0
10
-0.298000
20
-0.247000
0
VERTEX
8
0
10
-0.268000
20
-0.282000
0
SEQEND
8
0
0
POLYLINE
8
0
66
1
40
0.015000
41
0.015000
0
VERTEX
8
0
10
-0.323000
20
0.067000
0
VERTEX
8
0
10
-0.178000
20
0.067000
0
VERTEX
8
0
10
-0.128000
20
0.017000
0
VERTEX
8
0
10
0.011000
20
0.017000
0
VERTEX
8
0
10
0.076000
20
-0.047000
0
VERTEX
8
0
10
0.076000
20
-0.222000
0
VERTEX
8
0
10
-0.023000
20
-0.317000
0
VERTEX
8
0
10
-0.023000
20
-0.407000
0
SEQEND
8
0
0
POLYLINE
8
0
66
1
40
0.015000
41
0.015000
0
VERTEX
8
0
10
-0.323000
20
-0.032000
0
VERTEX
8
0
10
-0.173000
20
-0.032000
0
VERTEX
8
0
10
-0.123000
20
-0.082000
0
VERTEX
8
0
10
0.016000
20
-0.082000
0
VERTEX
8
0
10
0.036000
20
-0.102000
0
VERTEX
8
0
10
0.036000
20
-0.197000
0
VERTEX
8
0
10
-0.043000
20
-0.267000
0
VERTEX
8
0
10
-0.103000
20
-0.317000
0
VERTEX
8
0
10
-0.123000
20
-0.332000
0
VERTEX
8
0
10
-0.123000
20
-0.407000
0
SEQEND
8
0
0
POLYLINE
8
0
66
1
40
0.015000
41
0.015000
0
VERTEX
8
0
10
-0.323000
20
-0.407000
0
VERTEX
8
0
10
-0.328000
20
-0.432000
0
VERTEX
8
0
10
-0.328000
20
-0.477000
0
VERTEX
8
0
10
-0.523000
20
-0.672000
0
VERTEX
8
0
10
-0.523000
20
-0.707000
0
SEQEND
8
0
0
POLYLINE
8
0
66
1
40
0.015000
41
0.015000
0
VERTEX
8
0
10
-0.723000
20
-0.132000
0
VERTEX
8
0
10
-0.653000
20
-0.132000
0
VERTEX
8
0
10
-0.478000
20
-0.307000
0
VERTEX
8
0
10
-0.478000
20
-0.472000
0
VERTEX
8
0
10
-0.538000
20
-0.532000
0
VERTEX
8
0
10
-0.678000
20
-0.532000
0
VERTEX
8
0
10
-0.718000
20
-0.572000
0
VERTEX
8
0
10
-0.718000
20
-0.682000
0
VERTEX
8
0
10
-0.723000
20
-0.707000
0
SEQEND
8
0
0
POLYLINE
8
0
66
1
40
0.015000
41
0.015000
0
VERTEX
8
0
10
-0.723000
20
-0.032000
0
VERTEX
8
0
10
-0.708000
20
-0.037000
0
VERTEX
8
0
10
-0.698000
20
-0.042000
0
VERTEX
8
0
10
-0.378000
20
-0.362000
0
VERTEX
8
0
10
-0.378000
20
-0.477000
0
VERTEX
8
0
10
-0.473000
20
-0.572000
0
VERTEX
8
0
10
-0.573000
20
-0.572000
0
VERTEX
8
0
10
-0.623000
20
-0.622000
0
VERTEX
8
0
10
-0.623000
20
-0.707000
0
SEQEND
8
0
0
POLYLINE
8
0
66
1
40
0.015000
41
0.015000
0
VERTEX
8
0
10
-0.723000
20
0.067000
0
VERTEX
8
0
10
-0.698000
20
0.072000
0
VERTEX
8
0
10
-0.678000
20
0.072000
0
VERTEX
8
0
10
-0.658000
20
0.052000
0
VERTEX
8
0
10
-0.658000
20
-0.032000
0
VERTEX
8
0
10
-0.323000
20
-0.367000
0
VERTEX
8
0
10
-0.323000
20
-0.407000
0
SEQEND
8
0
0
POLYLINE
8
0
66
1
40
0.015000
41
0.015000
0
VERTEX
8
0
10
-0.273000
20
-0.477000
0
VERTEX
8
0
10
-0.285000
20
-0.489000
0
VERTEX
8
0
10
-0.423000
20
-0.627000
0
VERTEX
8
0
10
-0.423000
20
-0.707000
0
SEQEND
8
0
0
POLYLINE
8
0
66
1
40
0.015000
41
0.015000
0
VERTEX
8
0
10
-0.723000
20
0.167000
0
VERTEX
8
0
10
-0.673000
20
0.167000
0
VERTEX
8
0
10
-0.613000
20
0.107000
0
VERTEX
8
0
10
-0.613000
20
-0.022000
0
VERTEX
8
0
10
-0.273000
20
-0.362000
0
VERTEX
8
0
10
-0.273000
20
-0.477000
0
SEQEND
8
0
0
INSERT
8
0
2
RPAD
10
0.176000
20
-0.407000
41
0.050000
42
0.050000
50
-180.000000
0
CIRCLE
8
0
10
0.176000
20
-0.407000
40
0.030000
0
INSERT
8
0
2
EPAD
10
0.076000
20
-0.407000
41
0.050000
42
0.050000
0
CIRCLE
8
0
10
0.076000
20
-0.407000
40
0.030000
0
INSERT
8
0
2
EPAD
10
-0.023000
20
-0.407000
41
0.050000
42
0.050000
0
CIRCLE
8
0
10
-0.023000
20
-0.407000
40
0.030000
0
INSERT
8
0
2
EPAD
10
-0.123000
20
-0.407000
41
0.050000
42
0.050000
0
CIRCLE
8
0
10
-0.123000
20
-0.407000
40
0.030000
0
INSERT
8
0
2
EPAD
10
-0.223000
20
-0.407000
41
0.050000
42
0.050000
0
CIRCLE
8
0
10
-0.223000
20
-0.407000
40
0.030000
0
INSERT
8
0
2
EPAD
10
-0.323000
20
-0.407000
41
0.050000
42
0.050000
0
CIRCLE
8
0
10
-0.323000
20
-0.407000
40
0.030000
0
INSERT
8
0
2
EPAD
10
-0.423000
20
-0.407000
41
0.050000
42
0.050000
0
CIRCLE
8
0
10
-0.423000
20
-0.407000
40
0.030000
0
INSERT
8
0
2
EPAD
10
-0.523000
20
-0.407000
41
0.050000
42
0.050000
0
CIRCLE
8
0
10
-0.523000
20
-0.407000
40
0.030000
0
INSERT
8
0
2
EPAD
10
-0.623000
20
-0.407000
41
0.050000
42
0.050000
0
CIRCLE
8
0
10
-0.623000
20
-0.407000
40
0.030000
0
INSERT
8
0
2
EPAD
10
-0.723000
20
-0.407000
41
0.050000
42
0.050000
0
CIRCLE
8
0
10
-0.723000
20
-0.407000
40
0.030000
0
INSERT
8
0
2
EPAD
10
-0.723000
20
-0.707000
41
0.050000
42
0.050000
0
CIRCLE
8
0
10
-0.723000
20
-0.707000
40
0.030000
0
INSERT
8
0
2
EPAD
10
-0.623000
20
-0.707000
41
0.050000
42
0.050000
0
CIRCLE
8
0
10
-0.623000
20
-0.707000
40
0.030000
0
INSERT
8
0
2
EPAD
10
-0.523000
20
-0.707000
41
0.050000
42
0.050000
0
CIRCLE
8
0
10
-0.523000
20
-0.707000
40
0.030000
0
INSERT
8
0
2
EPAD
10
-0.423000
20
-0.707000
41
0.050000
42
0.050000
0
CIRCLE
8
0
10
-0.423000
20
-0.707000
40
0.030000
0
INSERT
8
0
2
EPAD
10
-0.323000
20
-0.707000
41
0.050000
42
0.050000
0
CIRCLE
8
0
10
-0.323000
20
-0.707000
40
0.030000
0
INSERT
8
0
2
EPAD
10
-0.223000
20
-0.707000
41
0.050000
42
0.050000
0
CIRCLE
8
0
10
-0.223000
20
-0.707000
40
0.030000
0
INSERT
8
0
2
EPAD
10
-0.123000
20
-0.707000
41
0.050000
42
0.050000
0
CIRCLE
8
0
10
-0.123000
20
-0.707000
40
0.030000
0
INSERT
8
0
2
EPAD
10
-0.023000
20
-0.707000
41
0.050000
42
0.050000
0
CIRCLE
8
0
10
-0.023000
20
-0.707000
40
0.030000
0
INSERT
8
0
2
EPAD
10
0.076000
20
-0.707000
41
0.050000
42
0.050000
0
CIRCLE
8
0
10
0.076000
20
-0.707000
40
0.030000
0
INSERT
8
0
2
EPAD
10
0.176000
20
-0.707000
41
0.050000
42
0.050000
0
CIRCLE
8
0
10
0.176000
20
-0.707000
40
0.030000
0
INSERT
8
0
2
EPAD
10
0.401000
20
-0.567000
41
0.050000
42
0.050000
0
CIRCLE
8
0
10
0.401000
20
-0.567000
40
0.025000
0
INSERT
8
0
2
EPAD
10
0.401000
20
-0.767000
41
0.050000
42
0.050000
0
CIRCLE
8
0
10
0.401000
20
-0.767000
40
0.025000
0
INSERT
8
0
2
RPAD
10
-0.323000
20
0.667000
41
0.050000
42
0.050000
50
-90.000000
0
CIRCLE
8
0
10
-0.323000
20
0.667000
40
0.030000
0
INSERT
8
0
2
EPAD
10
-0.323000
20
0.567000
41
0.050000
42
0.050000
0
CIRCLE
8
0
10
-0.323000
20
0.567000
40
0.030000
0
INSERT
8
0
2
EPAD
10
-0.323000
20
0.467000
41
0.050000
42
0.050000
0
CIRCLE
8
0
10
-0.323000
20
0.467000
40
0.030000
0
INSERT
8
0
2
EPAD
10
-0.323000
20
0.367000
41
0.050000
42
0.050000
0
CIRCLE
8
0
10
-0.323000
20
0.367000
40
0.030000
0
INSERT
8
0
2
EPAD
10
-0.323000
20
0.267000
41
0.050000
42
0.050000
0
CIRCLE
8
0
10
-0.323000
20
0.267000
40
0.030000
0
INSERT
8
0
2
EPAD
10
-0.323000
20
0.167000
41
0.050000
42
0.050000
0
CIRCLE
8
0
10
-0.323000
20
0.167000
40
0.030000
0
INSERT
8
0
2
EPAD
10
-0.323000
20
0.067000
41
0.050000
42
0.050000
0
CIRCLE
8
0
10
-0.323000
20
0.067000
40
0.030000
0
INSERT
8
0
2
EPAD
10
-0.323000
20
-0.032000
41
0.050000
42
0.050000
0
CIRCLE
8
0
10
-0.323000
20
-0.032000
40
0.030000
0
INSERT
8
0
2
EPAD
10
-0.323000
20
-0.132000
41
0.050000
42
0.050000
0
CIRCLE
8
0
10
-0.323000
20
-0.132000
40
0.030000
0
INSERT
8
0
2
EPAD
10
-0.023000
20
-0.132000
41
0.050000
42
0.050000
0
CIRCLE
8
0
10
-0.023000
20
-0.132000
40
0.030000
0
INSERT
8
0
2
EPAD
10
-0.023000
20
-0.032000
41
0.050000
42
0.050000
0
CIRCLE
8
0
10
-0.023000
20
-0.032000
40
0.030000
0
INSERT
8
0
2
EPAD
10
-0.023000
20
0.067000
41
0.050000
42
0.050000
0
CIRCLE
8
0
10
-0.023000
20
0.067000
40
0.030000
0
INSERT
8
0
2
EPAD
10
-0.023000
20
0.167000
41
0.050000
42
0.050000
0
CIRCLE
8
0
10
-0.023000
20
0.167000
40
0.030000
0
INSERT
8
0
2
EPAD
10
-0.023000
20
0.267000
41
0.050000
42
0.050000
0
CIRCLE
8
0
10
-0.023000
20
0.267000
40
0.030000
0
INSERT
8
0
2
EPAD
10
-0.023000
20
0.367000
41
0.050000
42
0.050000
0
CIRCLE
8
0
10
-0.023000
20
0.367000
40
0.030000
0
INSERT
8
0
2
EPAD
10
-0.023000
20
0.467000
41
0.050000
42
0.050000
0
CIRCLE
8
0
10
-0.023000
20
0.467000
40
0.030000
0
INSERT
8
0
2
EPAD
10
-0.023000
20
0.567000
41
0.050000
42
0.050000
0
CIRCLE
8
0
10
-0.023000
20
0.567000
40
0.030000
0
INSERT
8
0
2
EPAD
10
-0.023000
20
0.667000
41
0.050000
42
0.050000
0
CIRCLE
8
0
10
-0.023000
20
0.667000
40
0.030000
0
INSERT
8
0
2
RPAD
10
-0.723000
20
0.667000
41
0.050000
42
0.050000
50
-90.000000
0
CIRCLE
8
0
10
-0.723000
20
0.667000
40
0.030000
0
INSERT
8
0
2
EPAD
10
-0.723000
20
0.567000
41
0.050000
42
0.050000
0
CIRCLE
8
0
10
-0.723000
20
0.567000
40
0.030000
0
INSERT
8
0
2
EPAD
10
-0.723000
20
0.467000
41
0.050000
42
0.050000
0
CIRCLE
8
0
10
-0.723000
20
0.467000
40
0.030000
0
INSERT
8
0
2
EPAD
10
-0.723000
20
0.367000
41
0.050000
42
0.050000
0
CIRCLE
8
0
10
-0.723000
20
0.367000
40
0.030000
0
INSERT
8
0
2
EPAD
10
-0.723000
20
0.267000
41
0.050000
42
0.050000
0
CIRCLE
8
0
10
-0.723000
20
0.267000
40
0.030000
0
INSERT
8
0
2
EPAD
10
-0.723000
20
0.167000
41
0.050000
42
0.050000
0
CIRCLE
8
0
10
-0.723000
20
0.167000
40
0.030000
0
INSERT
8
0
2
EPAD
10
-0.723000
20
0.067000
41
0.050000
42
0.050000
0
CIRCLE
8
0
10
-0.723000
20
0.067000
40
0.030000
0
INSERT
8
0
2
EPAD
10
-0.723000
20
-0.032000
41
0.050000
42
0.050000
0
CIRCLE
8
0
10
-0.723000
20
-0.032000
40
0.030000
0
INSERT
8
0
2
EPAD
10
-0.723000
20
-0.132000
41
0.050000
42
0.050000
0
CIRCLE
8
0
10
-0.723000
20
-0.132000
40
0.030000
0
INSERT
8
0
2
EPAD
10
-0.423000
20
-0.132000
41
0.050000
42
0.050000
0
CIRCLE
8
0
10
-0.423000
20
-0.132000
40
0.030000
0
INSERT
8
0
2
EPAD
10
-0.423000
20
-0.032000
41
0.050000
42
0.050000
0
CIRCLE
8
0
10
-0.423000
20
-0.032000
40
0.030000
0
INSERT
8
0
2
EPAD
10
-0.423000
20
0.067000
41
0.050000
42
0.050000
0
CIRCLE
8
0
10
-0.423000
20
0.067000
40
0.030000
0
INSERT
8
0
2
EPAD
10
-0.423000
20
0.167000
41
0.050000
42
0.050000
0
CIRCLE
8
0
10
-0.423000
20
0.167000
40
0.030000
0
INSERT
8
0
2
EPAD
10
-0.423000
20
0.267000
41
0.050000
42
0.050000
0
CIRCLE
8
0
10
-0.423000
20
0.267000
40
0.030000
0
INSERT
8
0
2
EPAD
10
-0.423000
20
0.367000
41
0.050000
42
0.050000
0
CIRCLE
8
0
10
-0.423000
20
0.367000
40
0.030000
0
INSERT
8
0
2
EPAD
10
-0.423000
20
0.467000
41
0.050000
42
0.050000
0
CIRCLE
8
0
10
-0.423000
20
0.467000
40
0.030000
0
INSERT
8
0
2
EPAD
10
-0.423000
20
0.567000
41
0.050000
42
0.050000
0
CIRCLE
8
0
10
-0.423000
20
0.567000
40
0.030000
0
INSERT
8
0
2
EPAD
10
-0.423000
20
0.667000
41
0.050000
42
0.050000
0
CIRCLE
8
0
10
-0.423000
20
0.667000
40
0.030000
0
POLYLINE
8
0
66
1
40
0.008000
41
0.008000
0
VERTEX
8
0
10
-0.873000
20
-0.807000
0
VERTEX
8
0
10
0.526000
20
-0.807000
0
VERTEX
8
0
10
0.526000
20
0.817000
0
VERTEX
8
0
10
-0.873000
20
0.817000
0
VERTEX
8
0
10
-0.873000
20
-0.807000
0
SEQEND
8
0
0
INSERT
8
0
2
EPAD
10
0.401000
20
-0.307000
41
0.050000
42
0.050000
0
CIRCLE
8
0
10
0.401000
20
-0.307000
40
0.025000
0
INSERT
8
0
2
EPAD
10
0.401000
20
-0.507000
41
0.050000
42
0.050000
0
CIRCLE
8
0
10
0.401000
20
-0.507000
40
0.025000
0
INSERT
8
0
2
EPAD
10
-0.673000
20
-0.232000
41
0.050000
42
0.050000
0
CIRCLE
8
0
10
-0.673000
20
-0.232000
40
0.025000
0
INSERT
8
0
2
EPAD
10
-0.673000
20
-0.332000
41
0.050000
42
0.050000
0
CIRCLE
8
0
10
-0.673000
20
-0.332000
40
0.025000
0
INSERT
8
0
2
EPAD
10
-0.713000
20
-0.232000
41
0.050000
42
0.050000
0
CIRCLE
8
0
10
-0.713000
20
-0.232000
40
0.025000
0
INSERT
8
0
2
EPAD
10
-0.813000
20
-0.232000
41
0.050000
42
0.050000
0
CIRCLE
8
0
10
-0.813000
20
-0.232000
40
0.025000
0
INSERT
8
0
2
EPAD
10
-0.713000
20
-0.332000
41
0.050000
42
0.050000
0
CIRCLE
8
0
10
-0.713000
20
-0.332000
40
0.025000
0
INSERT
8
0
2
EPAD
10
-0.813000
20
-0.332000
41
0.050000
42
0.050000
0
CIRCLE
8
0
10
-0.813000
20
-0.332000
40
0.025000
0
INSERT
8
0
2
EPAD
10
0.051000
20
0.342000
41
0.050000
42
0.050000
0
CIRCLE
8
0
10
0.051000
20
0.342000
40
0.010000
0
INSERT
8
0
2
EPAD
10
0.051000
20
0.142000
41
0.050000
42
0.050000
0
CIRCLE
8
0
10
0.051000
20
0.142000
40
0.010000
0
INSERT
8
0
2
EPAD
10
0.151000
20
0.267000
41
0.050000
42
0.050000
0
CIRCLE
8
0
10
0.151000
20
0.267000
40
0.010000
0
INSERT
8
0
2
EPAD
10
0.151000
20
0.067000
41
0.050000
42
0.050000
0
CIRCLE
8
0
10
0.151000
20
0.067000
40
0.010000
0
INSERT
8
0
2
EPAD
10
0.226000
20
0.397000
41
0.060000
42
0.060000
0
CIRCLE
8
0
10
0.226000
20
0.397000
40
0.025000
0
INSERT
8
0
2
EPAD
10
0.226000
20
-0.002000
41
0.060000
42
0.060000
0
CIRCLE
8
0
10
0.226000
20
-0.002000
40
0.025000
0
INSERT
8
0
2
EPAD
10
0.151000
20
0.367000
41
0.060000
42
0.060000
0
CIRCLE
8
0
10
0.151000
20
0.367000
40
0.025000
0
INSERT
8
0
2
EPAD
10
0.021000
20
0.767000
41
0.050000
42
0.050000
0
CIRCLE
8
0
10
0.021000
20
0.767000
40
0.010000
0
INSERT
8
0
2
EPAD
10
0.316000
20
0.487000
41
0.060000
42
0.060000
0
CIRCLE
8
0
10
0.316000
20
0.487000
40
0.025000
0
INSERT
8
0
2
EPAD
10
0.316000
20
0.087000
41
0.060000
42
0.060000
0
CIRCLE
8
0
10
0.316000
20
0.087000
40
0.025000
0
INSERT
8
0
2
EPAD
10
0.396000
20
0.297000
41
0.060000
42
0.060000
0
CIRCLE
8
0
10
0.396000
20
0.297000
40
0.025000
0
INSERT
8
0
2
EPAD
10
0.396000
20
0.697000
41
0.060000
42
0.060000
0
CIRCLE
8
0
10
0.396000
20
0.697000
40
0.025000
0
INSERT
8
0
2
RPAD
10
0.211000
20
0.637000
41
0.080000
42
0.080000
50
-90.000000
0
CIRCLE
8
0
10
0.211000
20
0.637000
40
0.025000
0
INSERT
8
0
2
RPAD
10
0.211000
20
0.537000
41
0.080000
42
0.080000
50
-90.000000
0
CIRCLE
8
0
10
0.211000
20
0.537000
40
0.025000
0
INSERT
8
0
2
EPAD
10
-0.268000
20
-0.282000
41
0.070000
42
0.070000
0
CIRCLE
8
0
10
-0.268000
20
-0.282000
40
0.025000
0
INSERT
8
0
2
EPAD
10
0.131000
20
-0.282000
41
0.070000
42
0.070000
0
CIRCLE
8
0
10
0.131000
20
-0.282000
40
0.025000
0
POLYLINE
8
0
66
1
40
0.008000
41
0.008000
0
VERTEX
8
0
10
0.226000
20
-0.457000
0
VERTEX
8
0
10
0.226000
20
-0.507000
0
SEQEND
8
0
0
POLYLINE
8
0
66
1
40
0.008000
41
0.008000
0
VERTEX
8
0
10
0.176000
20
-0.557000
0
VERTEX
8
0
10
0.177000
20
-0.567000
0
VERTEX
8
0
10
0.180000
20
-0.577000
0
VERTEX
8
0
10
0.184000
20
-0.585000
0
VERTEX
8
0
10
0.190000
20
-0.592000
0
VERTEX
8
0
10
0.197000
20
-0.599000
0
VERTEX
8
0
10
0.206000
20
-0.603000
0
VERTEX
8
0
10
0.216000
20
-0.606000
0
VERTEX
8
0
10
0.226000
20
-0.607000
0
SEQEND
8
0
0
POLYLINE
8
0
66
1
40
0.008000
41
0.008000
0
VERTEX
8
0
10
0.176000
20
-0.557000
0
VERTEX
8
0
10
0.177000
20
-0.547000
0
VERTEX
8
0
10
0.180000
20
-0.537000
0
VERTEX
8
0
10
0.190000
20
-0.521000
0
VERTEX
8
0
10
0.197000
20
-0.515000
0
VERTEX
8
0
10
0.206000
20
-0.511000
0
VERTEX
8
0
10
0.216000
20
-0.508000
0
VERTEX
8
0
10
0.226000
20
-0.507000
0
SEQEND
8
0
0
POLYLINE
8
0
66
1
40
0.008000
41
0.008000
0
VERTEX
8
0
10
0.226000
20
-0.607000
0
VERTEX
8
0
10
0.226000
20
-0.657000
0
SEQEND
8
0
0
POLYLINE
8
0
66
1
40
0.008000
41
0.008000
0
VERTEX
8
0
10
-0.773000
20
-0.457000
0
VERTEX
8
0
10
-0.773000
20
-0.657000
0
SEQEND
8
0
0
POLYLINE
8
0
66
1
40
0.008000
41
0.008000
0
VERTEX
8
0
10
0.226000
20
-0.457000
0
VERTEX
8
0
10
-0.773000
20
-0.457000
0
SEQEND
8
0
0
POLYLINE
8
0
66
1
40
0.008000
41
0.008000
0
VERTEX
8
0
10
0.226000
20
-0.657000
0
VERTEX
8
0
10
-0.773000
20
-0.657000
0
SEQEND
8
0
0
POLYLINE
8
0
66
1
40
0.008000
41
0.008000
0
VERTEX
8
0
10
0.401000
20
-0.517000
0
VERTEX
8
0
10
0.411000
20
-0.520000
0
VERTEX
8
0
10
0.421000
20
-0.528000
0
VERTEX
8
0
10
0.429000
20
-0.542000
0
VERTEX
8
0
10
0.436000
20
-0.560000
0
VERTEX
8
0
10
0.443000
20
-0.582000
0
VERTEX
8
0
10
0.447000
20
-0.608000
0
VERTEX
8
0
10
0.450000
20
-0.636000
0
VERTEX
8
0
10
0.451000
20
-0.667000
0
SEQEND
8
0
0
POLYLINE
8
0
66
1
40
0.008000
41
0.008000
0
VERTEX
8
0
10
0.401000
20
-0.817000
0
VERTEX
8
0
10
0.411000
20
-0.814000
0
VERTEX
8
0
10
0.421000
20
-0.805000
0
VERTEX
8
0
10
0.429000
20
-0.792000
0
VERTEX
8
0
10
0.436000
20
-0.774000
0
VERTEX
8
0
10
0.443000
20
-0.752000
0
VERTEX
8
0
10
0.447000
20
-0.726000
0
VERTEX
8
0
10
0.450000
20
-0.698000
0
VERTEX
8
0
10
0.451000
20
-0.667000
0
SEQEND
8
0
0
POLYLINE
8
0
66
1
40
0.008000
41
0.008000
0
VERTEX
8
0
10
0.401000
20
-0.817000
0
VERTEX
8
0
10
0.391000
20
-0.814000
0
VERTEX
8
0
10
0.381000
20
-0.805000
0
VERTEX
8
0
10
0.373000
20
-0.792000
0
VERTEX
8
0
10
0.366000
20
-0.774000
0
VERTEX
8
0
10
0.359000
20
-0.752000
0
VERTEX
8
0
10
0.355000
20
-0.726000
0
VERTEX
8
0
10
0.352000
20
-0.698000
0
VERTEX
8
0
10
0.351000
20
-0.667000
0
SEQEND
8
0
0
POLYLINE
8
0
66
1
40
0.008000
41
0.008000
0
VERTEX
8
0
10
0.401000
20
-0.517000
0
VERTEX
8
0
10
0.391000
20
-0.520000
0
VERTEX
8
0
10
0.381000
20
-0.528000
0
VERTEX
8
0
10
0.373000
20
-0.542000
0
VERTEX
8
0
10
0.366000
20
-0.560000
0
VERTEX
8
0
10
0.359000
20
-0.582000
0
VERTEX
8
0
10
0.355000
20
-0.608000
0
VERTEX
8
0
10
0.352000
20
-0.636000
0
VERTEX
8
0
10
0.351000
20
-0.667000
0
SEQEND
8
0
0
TEXT
8
12632256
10
0.126000
20
0.156000
40
0.032000
41
0.937500
1
C3
0
TEXT
8
12632256
10
0.136000
20
0.203000
40
0.048000
41
1.041667
1
+
0
TEXT
8
12632256
10
0.026000
20
0.221000
40
0.032000
41
0.937500
1
C4
0
TEXT
8
12632256
10
0.376000
20
-0.418000
40
0.032000
41
0.937500
1
C5
0
TEXT
8
12632256
10
0.376000
20
-0.668000
40
0.032000
41
0.937500
1
C6
0
TEXT
8
12632256
10
0.381000
20
-0.471000
40
0.048000
41
1.041667
1
+
0
TEXT
8
12632256
10
0.246000
20
0.441000
40
0.032000
41
0.937500
1
D2
0
TEXT
8
12632256
10
-0.192000
20
0.392000
40
0.048000
41
1.041667
50
-90.000000
1
16F88
0
TEXT
8
12632256
10
-0.592000
20
0.667000
40
0.048000
41
1.041667
50
-90.000000
1
Turned pin header
0
TEXT
8
12632256
10
-0.523000
20
-0.576000
40
0.048000
41
1.041667
1
24F16KA101
0
POLYLINE
8
0
66
1
40
0.008000
41
0.008000
0
VERTEX
8
0
10
-0.273000
20
0.717000
0
VERTEX
8
0
10
-0.223000
20
0.717000
0
SEQEND
8
0
0
POLYLINE
8
0
66
1
40
0.008000
41
0.008000
0
VERTEX
8
0
10
-0.173000
20
0.667000
0
VERTEX
8
0
10
-0.163000
20
0.668000
0
VERTEX
8
0
10
-0.153000
20
0.671000
0
VERTEX
8
0
10
-0.145000
20
0.675000
0
VERTEX
8
0
10
-0.138000
20
0.681000
0
VERTEX
8
0
10
-0.131000
20
0.689000
0
VERTEX
8
0
10
-0.127000
20
0.697000
0
VERTEX
8
0
10
-0.124000
20
0.707000
0
VERTEX
8
0
10
-0.123000
20
0.717000
0
SEQEND
8
0
0
POLYLINE
8
0
66
1
40
0.008000
41
0.008000
0
VERTEX
8
0
10
-0.173000
20
0.667000
0
VERTEX
8
0
10
-0.183000
20
0.668000
0
VERTEX
8
0
10
-0.193000
20
0.671000
0
VERTEX
8
0
10
-0.201000
20
0.675000
0
VERTEX
8
0
10
-0.209000
20
0.681000
0
VERTEX
8
0
10
-0.215000
20
0.689000
0
VERTEX
8
0
10
-0.219000
20
0.697000
0
VERTEX
8
0
10
-0.222000
20
0.707000
0
VERTEX
8
0
10
-0.223000
20
0.717000
0
SEQEND
8
0
0
POLYLINE
8
0
66
1
40
0.008000
41
0.008000
0
VERTEX
8
0
10
-0.123000
20
0.717000
0
VERTEX
8
0
10
-0.073000
20
0.717000
0
SEQEND
8
0
0
POLYLINE
8
0
66
1
40
0.008000
41
0.008000
0
VERTEX
8
0
10
-0.273000
20
-0.182000
0
VERTEX
8
0
10
-0.073000
20
-0.182000
0
SEQEND
8
0
0
POLYLINE
8
0
66
1
40
0.008000
41
0.008000
0
VERTEX
8
0
10
-0.273000
20
0.717000
0
VERTEX
8
0
10
-0.273000
20
-0.182000
0
SEQEND
8
0
0
POLYLINE
8
0
66
1
40
0.008000
41
0.008000
0
VERTEX
8
0
10
-0.073000
20
-0.182000
0
VERTEX
8
0
10
-0.073000
20
0.717000
0
SEQEND
8
0
0
POLYLINE
8
0
66
1
40
0.008000
41
0.008000
0
VERTEX
8
0
10
-0.673000
20
0.717000
0
VERTEX
8
0
10
-0.623000
20
0.717000
0
SEQEND
8
0
0
POLYLINE
8
0
66
1
40
0.008000
41
0.008000
0
VERTEX
8
0
10
-0.573000
20
0.667000
0
VERTEX
8
0
10
-0.563000
20
0.668000
0
VERTEX
8
0
10
-0.553000
20
0.671000
0
VERTEX
8
0
10
-0.545000
20
0.675000
0
VERTEX
8
0
10
-0.538000
20
0.681000
0
VERTEX
8
0
10
-0.531000
20
0.689000
0
VERTEX
8
0
10
-0.527000
20
0.697000
0
VERTEX
8
0
10
-0.524000
20
0.707000
0
VERTEX
8
0
10
-0.523000
20
0.717000
0
SEQEND
8
0
0
POLYLINE
8
0
66
1
40
0.008000
41
0.008000
0
VERTEX
8
0
10
-0.573000
20
0.667000
0
VERTEX
8
0
10
-0.583000
20
0.668000
0
VERTEX
8
0
10
-0.593000
20
0.671000
0
VERTEX
8
0
10
-0.601000
20
0.675000
0
VERTEX
8
0
10
-0.609000
20
0.681000
0
VERTEX
8
0
10
-0.615000
20
0.689000
0
VERTEX
8
0
10
-0.619000
20
0.697000
0
VERTEX
8
0
10
-0.622000
20
0.707000
0
VERTEX
8
0
10
-0.623000
20
0.717000
0
SEQEND
8
0
0
POLYLINE
8
0
66
1
40
0.008000
41
0.008000
0
VERTEX
8
0
10
-0.523000
20
0.717000
0
VERTEX
8
0
10
-0.473000
20
0.717000
0
SEQEND
8
0
0
POLYLINE
8
0
66
1
40
0.008000
41
0.008000
0
VERTEX
8
0
10
-0.673000
20
-0.182000
0
VERTEX
8
0
10
-0.473000
20
-0.182000
0
SEQEND
8
0
0
POLYLINE
8
0
66
1
40
0.008000
41
0.008000
0
VERTEX
8
0
10
-0.673000
20
0.717000
0
VERTEX
8
0
10
-0.673000
20
-0.182000
0
SEQEND
8
0
0
POLYLINE
8
0
66
1
40
0.008000
41
0.008000
0
VERTEX
8
0
10
-0.473000
20
-0.182000
0
VERTEX
8
0
10
-0.473000
20
0.717000
0
SEQEND
8
0
0
POLYLINE
8
0
66
1
40
0.008000
41
0.008000
0
VERTEX
8
0
10
0.401000
20
-0.257000
0
VERTEX
8
0
10
0.411000
20
-0.260000
0
VERTEX
8
0
10
0.421000
20
-0.268000
0
VERTEX
8
0
10
0.429000
20
-0.282000
0
VERTEX
8
0
10
0.436000
20
-0.300000
0
VERTEX
8
0
10
0.443000
20
-0.322000
0
VERTEX
8
0
10
0.447000
20
-0.348000
0
VERTEX
8
0
10
0.450000
20
-0.376000
0
VERTEX
8
0
10
0.451000
20
-0.407000
0
SEQEND
8
0
0
POLYLINE
8
0
66
1
40
0.008000
41
0.008000
0
VERTEX
8
0
10
0.401000
20
-0.557000
0
VERTEX
8
0
10
0.411000
20
-0.554000
0
VERTEX
8
0
10
0.421000
20
-0.545000
0
VERTEX
8
0
10
0.429000
20
-0.532000
0
VERTEX
8
0
10
0.436000
20
-0.514000
0
VERTEX
8
0
10
0.443000
20
-0.492000
0
VERTEX
8
0
10
0.447000
20
-0.466000
0
VERTEX
8
0
10
0.450000
20
-0.438000
0
VERTEX
8
0
10
0.451000
20
-0.407000
0
SEQEND
8
0
0
POLYLINE
8
0
66
1
40
0.008000
41
0.008000
0
VERTEX
8
0
10
0.401000
20
-0.557000
0
VERTEX
8
0
10
0.391000
20
-0.554000
0
VERTEX
8
0
10
0.381000
20
-0.545000
0
VERTEX
8
0
10
0.373000
20
-0.532000
0
VERTEX
8
0
10
0.366000
20
-0.514000
0
VERTEX
8
0
10
0.359000
20
-0.492000
0
VERTEX
8
0
10
0.355000
20
-0.466000
0
VERTEX
8
0
10
0.352000
20
-0.438000
0
VERTEX
8
0
10
0.351000
20
-0.407000
0
SEQEND
8
0
0
POLYLINE
8
0
66
1
40
0.008000
41
0.008000
0
VERTEX
8
0
10
0.401000
20
-0.257000
0
VERTEX
8
0
10
0.391000
20
-0.260000
0
VERTEX
8
0
10
0.381000
20
-0.268000
0
VERTEX
8
0
10
0.373000
20
-0.282000
0
VERTEX
8
0
10
0.366000
20
-0.300000
0
VERTEX
8
0
10
0.359000
20
-0.322000
0
VERTEX
8
0
10
0.355000
20
-0.348000
0
VERTEX
8
0
10
0.352000
20
-0.376000
0
VERTEX
8
0
10
0.351000
20
-0.407000
0
SEQEND
8
0
0
POLYLINE
8
0
66
1
40
0.008000
41
0.008000
0
VERTEX
8
0
10
-0.663000
20
-0.232000
0
VERTEX
8
0
10
-0.665000
20
-0.242000
0
VERTEX
8
0
10
-0.671000
20
-0.252000
0
VERTEX
8
0
10
-0.680000
20
-0.260000
0
VERTEX
8
0
10
-0.692000
20
-0.268000
0
VERTEX
8
0
10
-0.707000
20
-0.274000
0
VERTEX
8
0
10
-0.724000
20
-0.278000
0
VERTEX
8
0
10
-0.763000
20
-0.282000
0
SEQEND
8
0
0
POLYLINE
8
0
66
1
40
0.008000
41
0.008000
0
VERTEX
8
0
10
-0.863000
20
-0.232000
0
VERTEX
8
0
10
-0.861000
20
-0.242000
0
VERTEX
8
0
10
-0.855000
20
-0.252000
0
VERTEX
8
0
10
-0.846000
20
-0.260000
0
VERTEX
8
0
10
-0.834000
20
-0.268000
0
VERTEX
8
0
10
-0.819000
20
-0.274000
0
VERTEX
8
0
10
-0.802000
20
-0.278000
0
VERTEX
8
0
10
-0.763000
20
-0.282000
0
SEQEND
8
0
0
POLYLINE
8
0
66
1
40
0.008000
41
0.008000
0
VERTEX
8
0
10
-0.663000
20
-0.232000
0
VERTEX
8
0
10
-0.665000
20
-0.222000
0
VERTEX
8
0
10
-0.671000
20
-0.212000
0
VERTEX
8
0
10
-0.680000
20
-0.204000
0
VERTEX
8
0
10
-0.692000
20
-0.196000
0
VERTEX
8
0
10
-0.707000
20
-0.190000
0
VERTEX
8
0
10
-0.724000
20
-0.186000
0
VERTEX
8
0
10
-0.763000
20
-0.182000
0
SEQEND
8
0
0
POLYLINE
8
0
66
1
40
0.008000
41
0.008000
0
VERTEX
8
0
10
-0.863000
20
-0.232000
0
VERTEX
8
0
10
-0.861000
20
-0.222000
0
VERTEX
8
0
10
-0.855000
20
-0.212000
0
VERTEX
8
0
10
-0.846000
20
-0.204000
0
VERTEX
8
0
10
-0.834000
20
-0.196000
0
VERTEX
8
0
10
-0.819000
20
-0.190000
0
VERTEX
8
0
10
-0.802000
20
-0.186000
0
VERTEX
8
0
10
-0.763000
20
-0.182000
0
SEQEND
8
0
0
POLYLINE
8
0
66
1
40
0.008000
41
0.008000
0
VERTEX
8
0
10
-0.663000
20
-0.332000
0
VERTEX
8
0
10
-0.665000
20
-0.342000
0
VERTEX
8
0
10
-0.671000
20
-0.352000
0
VERTEX
8
0
10
-0.680000
20
-0.360000
0
VERTEX
8
0
10
-0.692000
20
-0.368000
0
VERTEX
8
0
10
-0.707000
20
-0.374000
0
VERTEX
8
0
10
-0.724000
20
-0.378000
0
VERTEX
8
0
10
-0.763000
20
-0.382000
0
SEQEND
8
0
0
POLYLINE
8
0
66
1
40
0.008000
41
0.008000
0
VERTEX
8
0
10
-0.863000
20
-0.332000
0
VERTEX
8
0
10
-0.861000
20
-0.342000
0
VERTEX
8
0
10
-0.855000
20
-0.352000
0
VERTEX
8
0
10
-0.846000
20
-0.360000
0
VERTEX
8
0
10
-0.834000
20
-0.368000
0
VERTEX
8
0
10
-0.819000
20
-0.374000
0
VERTEX
8
0
10
-0.802000
20
-0.378000
0
VERTEX
8
0
10
-0.763000
20
-0.382000
0
SEQEND
8
0
0
POLYLINE
8
0
66
1
40
0.008000
41
0.008000
0
VERTEX
8
0
10
-0.663000
20
-0.332000
0
VERTEX
8
0
10
-0.665000
20
-0.322000
0
VERTEX
8
0
10
-0.671000
20
-0.312000
0
VERTEX
8
0
10
-0.680000
20
-0.304000
0
VERTEX
8
0
10
-0.692000
20
-0.296000
0
VERTEX
8
0
10
-0.707000
20
-0.290000
0
VERTEX
8
0
10
-0.724000
20
-0.286000
0
VERTEX
8
0
10
-0.763000
20
-0.282000
0
SEQEND
8
0
0
POLYLINE
8
0
66
1
40
0.008000
41
0.008000
0
VERTEX
8
0
10
-0.863000
20
-0.332000
0
VERTEX
8
0
10
-0.861000
20
-0.322000
0
VERTEX
8
0
10
-0.855000
20
-0.312000
0
VERTEX
8
0
10
-0.846000
20
-0.304000
0
VERTEX
8
0
10
-0.834000
20
-0.296000
0
VERTEX
8
0
10
-0.819000
20
-0.290000
0
VERTEX
8
0
10
-0.802000
20
-0.286000
0
VERTEX
8
0
10
-0.763000
20
-0.282000
0
SEQEND
8
0
0
POLYLINE
8
0
66
1
40
0.008000
41
0.008000
0
VERTEX
8
0
10
0.051000
20
0.392000
0
VERTEX
8
0
10
0.061000
20
0.389000
0
VERTEX
8
0
10
0.071000
20
0.381000
0
VERTEX
8
0
10
0.079000
20
0.367000
0
VERTEX
8
0
10
0.086000
20
0.349000
0
VERTEX
8
0
10
0.093000
20
0.327000
0
VERTEX
8
0
10
0.097000
20
0.301000
0
VERTEX
8
0
10
0.100000
20
0.273000
0
VERTEX
8
0
10
0.101000
20
0.242000
0
SEQEND
8
0
0
POLYLINE
8
0
66
1
40
0.008000
41
0.008000
0
VERTEX
8
0
10
0.051000
20
0.092000
0
VERTEX
8
0
10
0.061000
20
0.095000
0
VERTEX
8
0
10
0.071000
20
0.104000
0
VERTEX
8
0
10
0.079000
20
0.117000
0
VERTEX
8
0
10
0.086000
20
0.136000
0
VERTEX
8
0
10
0.093000
20
0.158000
0
VERTEX
8
0
10
0.097000
20
0.183000
0
VERTEX
8
0
10
0.100000
20
0.211000
0
VERTEX
8
0
10
0.101000
20
0.242000
0
SEQEND
8
0
0
POLYLINE
8
0
66
1
40
0.008000
41
0.008000
0
VERTEX
8
0
10
0.051000
20
0.092000
0
VERTEX
8
0
10
0.041000
20
0.095000
0
VERTEX
8
0
10
0.031000
20
0.104000
0
VERTEX
8
0
10
0.023000
20
0.117000
0
VERTEX
8
0
10
0.016000
20
0.136000
0
VERTEX
8
0
10
0.009000
20
0.158000
0
VERTEX
8
0
10
0.005000
20
0.183000
0
VERTEX
8
0
10
0.002000
20
0.211000
0
VERTEX
8
0
10
0.001000
20
0.242000
0
SEQEND
8
0
0
POLYLINE
8
0
66
1
40
0.008000
41
0.008000
0
VERTEX
8
0
10
0.051000
20
0.392000
0
VERTEX
8
0
10
0.041000
20
0.389000
0
VERTEX
8
0
10
0.031000
20
0.381000
0
VERTEX
8
0
10
0.023000
20
0.367000
0
VERTEX
8
0
10
0.016000
20
0.349000
0
VERTEX
8
0
10
0.009000
20
0.327000
0
VERTEX
8
0
10
0.005000
20
0.301000
0
VERTEX
8
0
10
0.002000
20
0.273000
0
VERTEX
8
0
10
0.001000
20
0.242000
0
SEQEND
8
0
0
POLYLINE
8
0
66
1
40
0.008000
41
0.008000
0
VERTEX
8
0
10
0.151000
20
0.317000
0
VERTEX
8
0
10
0.161000
20
0.314000
0
VERTEX
8
0
10
0.171000
20
0.306000
0
VERTEX
8
0
10
0.179000
20
0.292000
0
VERTEX
8
0
10
0.186000
20
0.274000
0
VERTEX
8
0
10
0.193000
20
0.252000
0
VERTEX
8
0
10
0.197000
20
0.226000
0
VERTEX
8
0
10
0.200000
20
0.198000
0
VERTEX
8
0
10
0.201000
20
0.167000
0
SEQEND
8
0
0
POLYLINE
8
0
66
1
40
0.008000
41
0.008000
0
VERTEX
8
0
10
0.151000
20
0.017000
0
VERTEX
8
0
10
0.161000
20
0.020000
0
VERTEX
8
0
10
0.171000
20
0.029000
0
VERTEX
8
0
10
0.179000
20
0.042000
0
VERTEX
8
0
10
0.186000
20
0.060000
0
VERTEX
8
0
10
0.193000
20
0.082000
0
VERTEX
8
0
10
0.197000
20
0.108000
0
VERTEX
8
0
10
0.200000
20
0.136000
0
VERTEX
8
0
10
0.201000
20
0.167000
0
SEQEND
8
0
0
POLYLINE
8
0
66
1
40
0.008000
41
0.008000
0
VERTEX
8
0
10
0.151000
20
0.017000
0
VERTEX
8
0
10
0.141000
20
0.020000
0
VERTEX
8
0
10
0.131000
20
0.029000
0
VERTEX
8
0
10
0.123000
20
0.042000
0
VERTEX
8
0
10
0.116000
20
0.060000
0
VERTEX
8
0
10
0.109000
20
0.082000
0
VERTEX
8
0
10
0.105000
20
0.108000
0
VERTEX
8
0
10
0.102000
20
0.136000
0
VERTEX
8
0
10
0.101000
20
0.167000
0
SEQEND
8
0
0
POLYLINE
8
0
66
1
40
0.008000
41
0.008000
0
VERTEX
8
0
10
0.151000
20
0.317000
0
VERTEX
8
0
10
0.141000
20
0.314000
0
VERTEX
8
0
10
0.131000
20
0.306000
0
VERTEX
8
0
10
0.123000
20
0.292000
0
VERTEX
8
0
10
0.116000
20
0.274000
0
VERTEX
8
0
10
0.109000
20
0.252000
0
VERTEX
8
0
10
0.105000
20
0.226000
0
VERTEX
8
0
10
0.102000
20
0.198000
0
VERTEX
8
0
10
0.101000
20
0.167000
0
SEQEND
8
0
0
POLYLINE
8
0
66
1
40
0.008000
41
0.008000
0
VERTEX
8
0
10
0.276000
20
0.222000
0
VERTEX
8
0
10
0.176000
20
0.222000
0
SEQEND
8
0
0
POLYLINE
8
0
66
1
40
0.008000
41
0.008000
0
VERTEX
8
0
10
0.276000
20
0.222000
0
VERTEX
8
0
10
0.226000
20
0.172000
0
SEQEND
8
0
0
POLYLINE
8
0
66
1
40
0.008000
41
0.008000
0
VERTEX
8
0
10
0.176000
20
0.222000
0
VERTEX
8
0
10
0.226000
20
0.172000
0
SEQEND
8
0
0
POLYLINE
8
0
66
1
40
0.008000
41
0.008000
0
VERTEX
8
0
10
0.276000
20
0.172000
0
VERTEX
8
0
10
0.176000
20
0.172000
0
SEQEND
8
0
0
POLYLINE
8
0
66
1
40
0.008000
41
0.008000
0
VERTEX
8
0
10
0.226000
20
0.347000
0
VERTEX
8
0
10
0.226000
20
0.222000
0
SEQEND
8
0
0
POLYLINE
8
0
66
1
40
0.008000
41
0.008000
0
VERTEX
8
0
10
0.226000
20
0.172000
0
VERTEX
8
0
10
0.226000
20
0.047000
0
SEQEND
8
0
0
POLYLINE
8
0
66
1
40
0.008000
41
0.008000
0
VERTEX
8
0
10
0.051000
20
0.342000
0
VERTEX
8
0
10
0.126000
20
0.342000
0
VERTEX
8
0
10
0.126000
20
0.792000
0
VERTEX
8
0
10
0.051000
20
0.792000
0
VERTEX
8
0
10
0.051000
20
0.342000
0
SEQEND
8
0
0
TEXT
8
12632256
10
0.076000
20
0.348000
40
0.048000
41
1.041667
1
+
0
TEXT
8
12632256
10
0.075000
20
0.662000
40
0.032000
41
0.937500
50
-90.000000
1
Battery
0
TEXT
8
12632256
10
0.181000
20
0.281000
40
0.032000
41
0.937500
1
D1
0
POLYLINE
8
0
66
1
40
0.008000
41
0.008000
0
VERTEX
8
0
10
-0.698000
20
-0.357000
0
VERTEX
8
0
10
-0.648000
20
-0.357000
0
VERTEX
8
0
10
-0.648000
20
-0.207000
0
VERTEX
8
0
10
-0.698000
20
-0.207000
0
VERTEX
8
0
10
-0.698000
20
-0.357000
0
SEQEND
8
0
0
TEXT
8
12632256
10
-0.644000
20
-0.232000
40
0.032000
41
0.937500
50
-90.000000
1
Xtal
0
TEXT
8
12632256
10
-0.848000
20
-0.428000
40
0.032000
41
0.937500
1
C8
0
TEXT
8
12632256
10
-0.848000
20
-0.153000
40
0.032000
41
0.937500
1
C7
0
TEXT
8
12632256
10
-0.838000
20
-0.793000
40
0.032000
41
0.937500
1
SuperTAT (C) Green and Gold Energy 2010
0
POLYLINE
8
0
66
1
40
0.008000
41
0.008000
0
VERTEX
8
0
10
-0.848000
20
-0.807000
0
VERTEX
8
0
10
0.501000
20
-0.807000
0
VERTEX
8
0
10
0.501000
20
0.802000
0
VERTEX
8
0
10
-0.848000
20
0.802000
0
VERTEX
8
0
10
-0.848000
20
-0.807000
0
SEQEND
8
0
0
POLYLINE
8
0
66
1
40
0.008000
41
0.008000
0
VERTEX
8
0
10
0.366000
20
0.312000
0
VERTEX
8
0
10
0.266000
20
0.312000
0
SEQEND
8
0
0
POLYLINE
8
0
66
1
40
0.008000
41
0.008000
0
VERTEX
8
0
10
0.366000
20
0.312000
0
VERTEX
8
0
10
0.316000
20
0.262000
0
SEQEND
8
0
0
POLYLINE
8
0
66
1
40
0.008000
41
0.008000
0
VERTEX
8
0
10
0.266000
20
0.312000
0
VERTEX
8
0
10
0.316000
20
0.262000
0
SEQEND
8
0
0
POLYLINE
8
0
66
1
40
0.008000
41
0.008000
0
VERTEX
8
0
10
0.366000
20
0.262000
0
VERTEX
8
0
10
0.266000
20
0.262000
0
SEQEND
8
0
0
POLYLINE
8
0
66
1
40
0.008000
41
0.008000
0
VERTEX
8
0
10
0.316000
20
0.437000
0
VERTEX
8
0
10
0.316000
20
0.312000
0
SEQEND
8
0
0
POLYLINE
8
0
66
1
40
0.008000
41
0.008000
0
VERTEX
8
0
10
0.316000
20
0.262000
0
VERTEX
8
0
10
0.316000
20
0.137000
0
SEQEND
8
0
0
POLYLINE
8
0
66
1
40
0.008000
41
0.008000
0
VERTEX
8
0
10
0.346000
20
0.472000
0
VERTEX
8
0
10
0.446000
20
0.472000
0
SEQEND
8
0
0
POLYLINE
8
0
66
1
40
0.008000
41
0.008000
0
VERTEX
8
0
10
0.346000
20
0.472000
0
VERTEX
8
0
10
0.396000
20
0.522000
0
SEQEND
8
0
0
POLYLINE
8
0
66
1
40
0.008000
41
0.008000
0
VERTEX
8
0
10
0.446000
20
0.472000
0
VERTEX
8
0
10
0.396000
20
0.522000
0
SEQEND
8
0
0
POLYLINE
8
0
66
1
40
0.008000
41
0.008000
0
VERTEX
8
0
10
0.346000
20
0.522000
0
VERTEX
8
0
10
0.446000
20
0.522000
0
SEQEND
8
0
0
POLYLINE
8
0
66
1
40
0.008000
41
0.008000
0
VERTEX
8
0
10
0.396000
20
0.347000
0
VERTEX
8
0
10
0.396000
20
0.472000
0
SEQEND
8
0
0
POLYLINE
8
0
66
1
40
0.008000
41
0.008000
0
VERTEX
8
0
10
0.396000
20
0.522000
0
VERTEX
8
0
10
0.396000
20
0.647000
0
SEQEND
8
0
0
POLYLINE
8
0
66
1
40
0.008000
41
0.008000
0
VERTEX
8
0
10
0.161000
20
0.487000
0
VERTEX
8
0
10
0.261000
20
0.487000
0
VERTEX
8
0
10
0.261000
20
0.687000
0
VERTEX
8
0
10
0.161000
20
0.687000
0
VERTEX
8
0
10
0.161000
20
0.487000
0
SEQEND
8
0
0
POLYLINE
8
0
66
1
40
0.008000
41
0.008000
0
VERTEX
8
0
10
-0.218000
20
-0.282000
0
VERTEX
8
0
10
-0.168000
20
-0.282000
0
SEQEND
8
0
0
POLYLINE
8
0
66
1
40
0.008000
41
0.008000
0
VERTEX
8
0
10
-0.168000
20
-0.307000
0
VERTEX
8
0
10
0.031000
20
-0.307000
0
VERTEX
8
0
10
0.031000
20
-0.257000
0
VERTEX
8
0
10
-0.168000
20
-0.257000
0
VERTEX
8
0
10
-0.168000
20
-0.307000
0
SEQEND
8
0
0
POLYLINE
8
0
66
1
40
0.008000
41
0.008000
0
VERTEX
8
0
10
0.031000
20
-0.282000
0
VERTEX
8
0
10
0.081000
20
-0.282000
0
SEQEND
8
0
0
ENDSEC
0
EOF

