  0
SECTION
  2
HEADER
  9
$ACADVER
  1
AC2.10
  0
ENDSEC
  0
SECTION
  2
TABLES
  0
TABLE
  2
LAYER
 70
     8
  0
LAYER
  2
0
 62
     7
 70
0
  6
CONTINUOUS
  0
LAYER
  2
1
 62
     1
 70
0
  6
CONTINUOUS
  0
LAYER
  2
2
 62
     2
 70
0
  6
CONTINUOUS
  0
LAYER
  2
3
 62
     3
 70
0
  6
CONTINUOUS
  0
LAYER
  2
4
 62
     4
 70
0
  6
CONTINUOUS
  0
LAYER
  2
5
 62
     5
 70
0
  6
CONTINUOUS
  0
LAYER
  2
6
 62
     6
 70
0
  6
CONTINUOUS
  0
LAYER
  2
7
 62
     7
 70
0
  6
CONTINUOUS
  0
ENDTAB
  0
TABLE
  2
STYLE
 70
     1
  0
STYLE
 70
     0
  2
STANDARD
  3
TXT
 40
0.00
 41
1.00
 42
1.00
 50
0.00
 71
     0
  0
ENDTAB
  0
ENDSEC
  0
SECTION
  2
BLOCKS
  0
BLOCK
  8
0
  2
EPAD
 70
0
 10
0.0
 20
0.0
  0
POLYLINE
  8
0
 66
1
 70
1
 40
0.5
 41
0.5
  0
VERTEX
  8
0
 10
-0.25
 20
0.0
 42
1.0
  0
VERTEX
  8
0
 10
0.25
 20
0.0
 42
1.0
  0
SEQEND
  8
0
  0
ENDBLK
  8
0
  0
BLOCK
  8
0
  2
RPAD
 70
0
 10
0.0
 20
0.0
  0
TRACE
  8
0
 10
-0.5
 20
-0.5
 11
-0.5
 21
0.5
 12
0.5
 22
-0.5
 13
0.5
 23
0.5
  0
ENDBLK
  8
0
  0
ENDSEC
0
SECTION
2
ENTITIES
0
POLYLINE
8
0
66
1
40
0.015000
41
0.015000
0
VERTEX
8
0
10
-0.723000
20
0.667000
0
VERTEX
8
0
10
-0.623000
20
0.667000
0
VERTEX
8
0
10
-0.573000
20
0.617000
0
VERTEX
8
0
10
-0.398000
20
0.617000
0
VERTEX
8
0
10
-0.348000
20
0.667000
0
VERTEX
8
0
10
-0.323000
20
0.667000
0
SEQEND
8
0
0
POLYLINE
8
0
66
1
40
0.015000
41
0.015000
0
VERTEX
8
0
10
-0.423000
20
0.067000
0
VERTEX
8
0
10
-0.398000
20
0.092000
0
VERTEX
8
0
10
-0.373000
20
0.092000
0
VERTEX
8
0
10
-0.348000
20
0.117000
0
VERTEX
8
0
10
-0.173000
20
0.117000
0
VERTEX
8
0
10
-0.123000
20
0.067000
0
VERTEX
8
0
10
-0.023000
20
0.067000
0
SEQEND
8
0
0
POLYLINE
8
0
66
1
40
0.015000
41
0.015000
0
VERTEX
8
0
10
-0.423000
20
-0.032000
0
VERTEX
8
0
10
-0.398000
20
-0.007000
0
VERTEX
8
0
10
-0.373000
20
-0.007000
0
VERTEX
8
0
10
-0.348000
20
0.017000
0
VERTEX
8
0
10
-0.173000
20
0.017000
0
VERTEX
8
0
10
-0.123000
20
-0.032000
0
VERTEX
8
0
10
-0.023000
20
-0.032000
0
SEQEND
8
0
0
POLYLINE
8
0
66
1
40
0.015000
41
0.015000
0
VERTEX
8
0
10
-0.423000
20
-0.132000
0
VERTEX
8
0
10
-0.398000
20
-0.107000
0
VERTEX
8
0
10
-0.373000
20
-0.107000
0
VERTEX
8
0
10
-0.348000
20
-0.082000
0
VERTEX
8
0
10
-0.173000
20
-0.082000
0
VERTEX
8
0
10
-0.123000
20
-0.132000
0
VERTEX
8
0
10
-0.023000
20
-0.132000
0
SEQEND
8
0
0
POLYLINE
8
0
66
1
40
0.015000
41
0.015000
0
VERTEX
8
0
10
-0.023000
20
0.667000
0
VERTEX
8
0
10
-0.148000
20
0.667000
0
VERTEX
8
0
10
-0.195000
20
0.715000
0
SEQEND
8
0
0
POLYLINE
8
0
66
1
40
0.010000
41
0.010000
0
VERTEX
8
0
10
-0.195000
20
0.715000
0
VERTEX
8
0
10
-0.198000
20
0.717000
0
VERTEX
8
0
10
-0.373000
20
0.717000
0
VERTEX
8
0
10
-0.375000
20
0.715000
0
SEQEND
8
0
0
POLYLINE
8
0
66
1
40
0.015000
41
0.015000
0
VERTEX
8
0
10
-0.375000
20
0.715000
0
VERTEX
8
0
10
-0.423000
20
0.667000
0
SEQEND
8
0
0
POLYLINE
8
0
66
1
40
0.050000
41
0.050000
0
VERTEX
8
0
10
0.051000
20
0.767000
0
VERTEX
8
0
10
0.051000
20
0.767000
0
SEQEND
8
0
0
POLYLINE
8
0
66
1
40
0.050000
41
0.050000
0
VERTEX
8
0
10
0.151000
20
0.767000
0
VERTEX
8
0
10
0.151000
20
0.767000
0
SEQEND
8
0
0
POLYLINE
8
0
66
1
40
0.020000
41
0.020000
0
VERTEX
8
0
10
-0.713000
20
-0.332000
0
VERTEX
8
0
10
-0.673000
20
-0.332000
0
SEQEND
8
0
0
POLYLINE
8
0
66
1
40
0.020000
41
0.020000
0
VERTEX
8
0
10
-0.713000
20
-0.232000
0
VERTEX
8
0
10
-0.673000
20
-0.232000
0
SEQEND
8
0
0
POLYLINE
8
0
66
1
40
0.050000
41
0.050000
0
VERTEX
8
0
10
0.401000
20
-0.507000
0
VERTEX
8
0
10
0.401000
20
-0.567000
0
SEQEND
8
0
0
POLYLINE
8
0
66
1
40
0.025000
41
0.025000
0
VERTEX
8
0
10
-0.323000
20
0.267000
0
VERTEX
8
0
10
-0.173000
20
0.267000
0
VERTEX
8
0
10
-0.123000
20
0.217000
0
VERTEX
8
0
10
0.001000
20
0.217000
0
VERTEX
8
0
10
0.051000
20
0.167000
0
VERTEX
8
0
10
0.051000
20
0.142000
0
SEQEND
8
0
0
POLYLINE
8
0
66
1
40
0.015000
41
0.015000
0
VERTEX
8
0
10
-0.423000
20
0.167000
0
VERTEX
8
0
10
-0.398000
20
0.167000
0
VERTEX
8
0
10
-0.348000
20
0.217000
0
VERTEX
8
0
10
-0.173000
20
0.217000
0
VERTEX
8
0
10
-0.123000
20
0.167000
0
VERTEX
8
0
10
-0.023000
20
0.167000
0
SEQEND
8
0
0
POLYLINE
8
0
66
1
40
0.025000
41
0.025000
0
VERTEX
8
0
10
-0.323000
20
0.267000
0
VERTEX
8
0
10
-0.348000
20
0.267000
0
VERTEX
8
0
10
-0.398000
20
0.217000
0
VERTEX
8
0
10
-0.573000
20
0.217000
0
VERTEX
8
0
10
-0.623000
20
0.267000
0
VERTEX
8
0
10
-0.723000
20
0.267000
0
SEQEND
8
0
0
POLYLINE
8
0
66
1
40
0.015000
41
0.015000
0
VERTEX
8
0
10
-0.323000
20
0.367000
0
VERTEX
8
0
10
-0.353000
20
0.367000
0
VERTEX
8
0
10
-0.398000
20
0.317000
0
VERTEX
8
0
10
-0.573000
20
0.317000
0
VERTEX
8
0
10
-0.623000
20
0.367000
0
VERTEX
8
0
10
-0.723000
20
0.367000
0
SEQEND
8
0
0
POLYLINE
8
0
66
1
40
0.015000
41
0.015000
0
VERTEX
8
0
10
-0.423000
20
0.367000
0
VERTEX
8
0
10
-0.398000
20
0.367000
0
VERTEX
8
0
10
-0.348000
20
0.417000
0
VERTEX
8
0
10
-0.173000
20
0.417000
0
VERTEX
8
0
10
-0.123000
20
0.367000
0
VERTEX
8
0
10
-0.023000
20
0.367000
0
SEQEND
8
0
0
POLYLINE
8
0
66
1
40
0.015000
41
0.015000
0
VERTEX
8
0
10
-0.323000
20
0.467000
0
VERTEX
8
0
10
-0.348000
20
0.467000
0
VERTEX
8
0
10
-0.398000
20
0.417000
0
VERTEX
8
0
10
-0.573000
20
0.417000
0
VERTEX
8
0
10
-0.623000
20
0.467000
0
VERTEX
8
0
10
-0.723000
20
0.467000
0
SEQEND
8
0
0
POLYLINE
8
0
66
1
40
0.015000
41
0.015000
0
VERTEX
8
0
10
-0.323000
20
0.567000
0
VERTEX
8
0
10
-0.348000
20
0.567000
0
VERTEX
8
0
10
-0.398000
20
0.517000
0
VERTEX
8
0
10
-0.573000
20
0.517000
0
VERTEX
8
0
10
-0.623000
20
0.567000
0
VERTEX
8
0
10
-0.723000
20
0.567000
0
SEQEND
8
0
0
POLYLINE
8
0
66
1
40
0.015000
41
0.015000
0
VERTEX
8
0
10
-0.423000
20
0.567000
0
VERTEX
8
0
10
-0.418000
20
0.572000
0
VERTEX
8
0
10
-0.398000
20
0.567000
0
VERTEX
8
0
10
-0.348000
20
0.617000
0
VERTEX
8
0
10
-0.173000
20
0.617000
0
VERTEX
8
0
10
-0.123000
20
0.567000
0
VERTEX
8
0
10
-0.023000
20
0.567000
0
SEQEND
8
0
0
POLYLINE
8
0
66
1
40
0.015000
41
0.015000
0
VERTEX
8
0
10
-0.423000
20
0.467000
0
VERTEX
8
0
10
-0.398000
20
0.467000
0
VERTEX
8
0
10
-0.348000
20
0.517000
0
VERTEX
8
0
10
-0.173000
20
0.517000
0
VERTEX
8
0
10
-0.123000
20
0.467000
0
VERTEX
8
0
10
-0.023000
20
0.467000
0
SEQEND
8
0
0
POLYLINE
8
0
66
1
40
0.025000
41
0.025000
0
VERTEX
8
0
10
-0.423000
20
0.267000
0
VERTEX
8
0
10
-0.398000
20
0.272000
0
VERTEX
8
0
10
-0.353000
20
0.317000
0
VERTEX
8
0
10
-0.158000
20
0.317000
0
VERTEX
8
0
10
-0.108000
20
0.267000
0
VERTEX
8
0
10
-0.023000
20
0.267000
0
VERTEX
8
0
10
0.001000
20
0.267000
0
VERTEX
8
0
10
0.051000
20
0.267000
0
VERTEX
8
0
10
0.151000
20
0.267000
0
SEQEND
8
0
0
POLYLINE
8
0
66
1
40
0.025000
41
0.025000
0
VERTEX
8
0
10
0.011000
20
0.277000
0
VERTEX
8
0
10
0.041000
20
0.307000
0
VERTEX
8
0
10
0.051000
20
0.342000
0
VERTEX
8
0
10
0.061000
20
0.307000
0
VERTEX
8
0
10
0.096000
20
0.272000
0
SEQEND
8
0
0
POLYLINE
8
0
66
1
40
0.025000
41
0.025000
0
VERTEX
8
0
10
0.051000
20
0.342000
0
VERTEX
8
0
10
0.083000
20
0.307000
0
VERTEX
8
0
10
0.116000
20
0.274000
0
VERTEX
8
0
10
0.151000
20
0.267000
0
SEQEND
8
0
0
POLYLINE
8
0
66
1
40
0.025000
41
0.025000
0
VERTEX
8
0
10
0.051000
20
0.342000
0
VERTEX
8
0
10
0.020000
20
0.307000
0
VERTEX
8
0
10
0.001000
20
0.289000
0
VERTEX
8
0
10
-0.023000
20
0.267000
0
SEQEND
8
0
0
POLYLINE
8
0
66
1
40
0.025000
41
0.025000
0
VERTEX
8
0
10
0.021000
20
0.282000
0
VERTEX
8
0
10
0.051000
20
0.282000
0
VERTEX
8
0
10
0.084000
20
0.282000
0
SEQEND
8
0
0
POLYLINE
8
0
66
1
40
0.025000
41
0.025000
0
VERTEX
8
0
10
0.051000
20
0.342000
0
VERTEX
8
0
10
0.051000
20
0.282000
0
VERTEX
8
0
10
0.051000
20
0.267000
0
SEQEND
8
0
0
POLYLINE
8
0
66
1
40
0.050000
41
0.050000
0
VERTEX
8
0
10
0.151000
20
0.767000
0
VERTEX
8
0
10
0.061000
20
0.767000
0
SEQEND
8
0
0
POLYLINE
8
0
66
1
40
0.050000
41
0.050000
0
VERTEX
8
0
10
0.466000
20
-0.187000
0
VERTEX
8
0
10
0.466000
20
-0.296000
0
SEQEND
8
0
0
POLYLINE
8
0
66
1
40
0.050000
41
0.050000
0
VERTEX
8
0
10
0.401000
20
-0.307000
0
VERTEX
8
0
10
0.466000
20
-0.307000
0
SEQEND
8
0
0
POLYLINE
8
0
66
1
40
0.050000
41
0.050000
0
VERTEX
8
0
10
0.466000
20
-0.296000
0
VERTEX
8
0
10
0.466000
20
-0.307000
0
SEQEND
8
0
0
POLYLINE
8
0
66
1
40
0.030000
41
0.030000
0
VERTEX
8
0
10
0.291000
20
-0.602000
0
VERTEX
8
0
10
0.201000
20
-0.607000
0
VERTEX
8
0
10
0.176000
20
-0.632000
0
VERTEX
8
0
10
0.176000
20
-0.707000
0
SEQEND
8
0
0
POLYLINE
8
0
66
1
40
0.030000
41
0.030000
0
VERTEX
8
0
10
0.291000
20
-0.602000
0
VERTEX
8
0
10
0.351000
20
-0.602000
0
VERTEX
8
0
10
0.376000
20
-0.577000
0
VERTEX
8
0
10
0.401000
20
-0.567000
0
SEQEND
8
0
0
POLYLINE
8
0
66
1
40
0.025000
41
0.025000
0
VERTEX
8
0
10
0.466000
20
0.222000
0
VERTEX
8
0
10
0.471000
20
0.222000
0
SEQEND
8
0
0
POLYLINE
8
0
66
1
40
0.012000
41
0.012000
0
VERTEX
8
0
10
-0.723000
20
-0.407000
0
VERTEX
8
0
10
-0.723000
20
-0.362000
0
VERTEX
8
0
10
-0.713000
20
-0.352000
0
VERTEX
8
0
10
-0.713000
20
-0.332000
0
SEQEND
8
0
0
POLYLINE
8
0
66
1
40
0.015000
41
0.015000
0
VERTEX
8
0
10
-0.623000
20
-0.407000
0
VERTEX
8
0
10
-0.623000
20
-0.257000
0
VERTEX
8
0
10
-0.648000
20
-0.232000
0
VERTEX
8
0
10
-0.673000
20
-0.232000
0
SEQEND
8
0
0
POLYLINE
8
0
66
1
40
0.050000
41
0.050000
0
VERTEX
8
0
10
-0.723000
20
0.267000
0
VERTEX
8
0
10
-0.813000
20
0.267000
0
SEQEND
8
0
0
POLYLINE
8
0
66
1
40
0.050000
41
0.050000
0
VERTEX
8
0
10
-0.813000
20
-0.232000
0
VERTEX
8
0
10
-0.813000
20
0.267000
0
SEQEND
8
0
0
POLYLINE
8
0
66
1
40
0.050000
41
0.050000
0
VERTEX
8
0
10
-0.813000
20
-0.232000
0
VERTEX
8
0
10
-0.813000
20
-0.332000
0
SEQEND
8
0
0
POLYLINE
8
0
66
1
40
0.050000
41
0.050000
0
VERTEX
8
0
10
0.076000
20
-0.707000
0
VERTEX
8
0
10
0.076000
20
-0.762000
0
VERTEX
8
0
10
0.076000
20
-0.767000
0
SEQEND
8
0
0
POLYLINE
8
0
66
1
40
0.050000
41
0.050000
0
VERTEX
8
0
10
0.291000
20
-0.767000
0
VERTEX
8
0
10
0.076000
20
-0.767000
0
SEQEND
8
0
0
POLYLINE
8
0
66
1
40
0.050000
41
0.050000
0
VERTEX
8
0
10
0.401000
20
-0.767000
0
VERTEX
8
0
10
0.291000
20
-0.767000
0
SEQEND
8
0
0
POLYLINE
8
0
66
1
40
0.050000
41
0.050000
0
VERTEX
8
0
10
0.466000
20
-0.307000
0
VERTEX
8
0
10
0.466000
20
-0.767000
0
VERTEX
8
0
10
0.401000
20
-0.767000
0
SEQEND
8
0
0
POLYLINE
8
0
66
1
40
0.050000
41
0.050000
0
VERTEX
8
0
10
0.021000
20
0.767000
0
VERTEX
8
0
10
-0.813000
20
0.767000
0
VERTEX
8
0
10
-0.813000
20
0.267000
0
SEQEND
8
0
0
POLYLINE
8
0
66
1
40
0.050000
41
0.050000
0
VERTEX
8
0
10
0.061000
20
0.767000
0
VERTEX
8
0
10
0.056000
20
0.767000
0
VERTEX
8
0
10
0.051000
20
0.767000
0
VERTEX
8
0
10
0.021000
20
0.767000
0
SEQEND
8
0
0
POLYLINE
8
0
66
1
40
0.050000
41
0.050000
0
VERTEX
8
0
10
0.466000
20
0.222000
0
VERTEX
8
0
10
0.466000
20
0.217000
0
SEQEND
8
0
0
POLYLINE
8
0
66
1
40
0.050000
41
0.050000
0
VERTEX
8
0
10
0.466000
20
0.127000
0
VERTEX
8
0
10
0.471000
20
0.127000
0
SEQEND
8
0
0
POLYLINE
8
0
66
1
40
0.050000
41
0.050000
0
VERTEX
8
0
10
0.466000
20
0.127000
0
VERTEX
8
0
10
0.466000
20
-0.187000
0
SEQEND
8
0
0
POLYLINE
8
0
66
1
40
0.050000
41
0.050000
0
VERTEX
8
0
10
0.391000
20
0.767000
0
VERTEX
8
0
10
0.401000
20
0.767000
0
VERTEX
8
0
10
0.466000
20
0.767000
0
VERTEX
8
0
10
0.466000
20
0.692000
0
SEQEND
8
0
0
POLYLINE
8
0
66
1
40
0.025000
41
0.025000
0
VERTEX
8
0
10
0.226000
20
-0.002000
0
VERTEX
8
0
10
0.226000
20
-0.002000
0
SEQEND
8
0
0
POLYLINE
8
0
66
1
40
0.050000
41
0.050000
0
VERTEX
8
0
10
0.466000
20
0.692000
0
VERTEX
8
0
10
0.466000
20
0.587000
0
SEQEND
8
0
0
POLYLINE
8
0
66
1
40
0.050000
41
0.050000
0
VERTEX
8
0
10
0.851000
20
0.617000
0
VERTEX
8
0
10
0.851000
20
0.617000
0
SEQEND
8
0
0
POLYLINE
8
0
66
1
40
0.050000
41
0.050000
0
VERTEX
8
0
10
0.376000
20
0.767000
0
VERTEX
8
0
10
0.391000
20
0.767000
0
SEQEND
8
0
0
POLYLINE
8
0
66
1
40
0.050000
41
0.050000
0
VERTEX
8
0
10
0.466000
20
0.587000
0
VERTEX
8
0
10
0.466000
20
0.352000
0
VERTEX
8
0
10
0.466000
20
0.222000
0
SEQEND
8
0
0
POLYLINE
8
0
66
1
40
0.050000
41
0.050000
0
VERTEX
8
0
10
0.151000
20
0.767000
0
VERTEX
8
0
10
0.191000
20
0.767000
0
VERTEX
8
0
10
0.376000
20
0.767000
0
SEQEND
8
0
0
POLYLINE
8
0
66
1
40
0.030000
41
0.030000
0
VERTEX
8
0
10
0.316000
20
0.087000
0
VERTEX
8
0
10
0.266000
20
0.082000
0
VERTEX
8
0
10
0.266000
20
0.032000
0
VERTEX
8
0
10
0.236000
20
0.002000
0
VERTEX
8
0
10
0.226000
20
-0.002000
0
SEQEND
8
0
0
POLYLINE
8
0
66
1
40
0.050000
41
0.050000
0
VERTEX
8
0
10
0.466000
20
0.217000
0
VERTEX
8
0
10
0.466000
20
0.192000
0
VERTEX
8
0
10
0.466000
20
0.127000
0
SEQEND
8
0
0
POLYLINE
8
0
66
1
40
0.050000
41
0.050000
0
VERTEX
8
0
10
0.051000
20
0.142000
0
VERTEX
8
0
10
0.126000
20
0.067000
0
VERTEX
8
0
10
0.151000
20
0.067000
0
SEQEND
8
0
0
POLYLINE
8
0
66
1
40
0.050000
41
0.050000
0
VERTEX
8
0
10
0.461000
20
0.187000
0
VERTEX
8
0
10
0.106000
20
0.187000
0
VERTEX
8
0
10
0.076000
20
0.157000
0
VERTEX
8
0
10
0.051000
20
0.142000
0
SEQEND
8
0
0
POLYLINE
8
0
66
1
40
0.020000
41
0.020000
0
VERTEX
8
0
10
-0.774000
20
-0.462000
0
VERTEX
8
0
10
-0.603000
20
-0.462000
0
VERTEX
8
0
10
-0.573000
20
-0.432000
0
VERTEX
8
0
10
-0.573000
20
-0.262000
0
VERTEX
8
0
10
-0.658000
20
-0.177000
0
VERTEX
8
0
10
-0.808000
20
-0.177000
0
SEQEND
8
0
0
POLYLINE
8
0
66
1
40
0.020000
41
0.020000
0
VERTEX
8
0
10
-0.788000
20
-0.462000
0
VERTEX
8
0
10
-0.808000
20
-0.462000
0
VERTEX
8
0
10
-0.813000
20
-0.462000
0
SEQEND
8
0
0
POLYLINE
8
0
66
1
40
0.050000
41
0.050000
0
VERTEX
8
0
10
-0.813000
20
-0.332000
0
VERTEX
8
0
10
-0.813000
20
-0.462000
0
VERTEX
8
0
10
-0.813000
20
-0.757000
0
SEQEND
8
0
0
POLYLINE
8
0
66
1
40
0.020000
41
0.020000
0
VERTEX
8
0
10
-0.788000
20
-0.462000
0
VERTEX
8
0
10
-0.774000
20
-0.462000
0
SEQEND
8
0
0
POLYLINE
8
0
66
1
40
0.015000
41
0.015000
0
VERTEX
8
0
10
-0.578000
20
-0.772000
0
VERTEX
8
0
10
-0.578000
20
-0.767000
0
SEQEND
8
0
0
POLYLINE
8
0
66
1
40
0.015000
41
0.015000
0
VERTEX
8
0
10
-0.478000
20
-0.772000
0
VERTEX
8
0
10
-0.478000
20
-0.767000
0
SEQEND
8
0
0
POLYLINE
8
0
66
1
40
0.050000
41
0.050000
0
VERTEX
8
0
10
-0.453000
20
-0.767000
0
VERTEX
8
0
10
-0.478000
20
-0.767000
0
VERTEX
8
0
10
-0.578000
20
-0.767000
0
SEQEND
8
0
0
POLYLINE
8
0
66
1
40
0.015000
41
0.015000
0
VERTEX
8
0
10
-0.368000
20
-0.762000
0
VERTEX
8
0
10
-0.368000
20
-0.637000
0
SEQEND
8
0
0
POLYLINE
8
0
66
1
40
0.015000
41
0.015000
0
VERTEX
8
0
10
-0.273000
20
-0.762000
0
VERTEX
8
0
10
-0.273000
20
-0.637000
0
SEQEND
8
0
0
POLYLINE
8
0
66
1
40
0.030000
41
0.030000
0
VERTEX
8
0
10
-0.273000
20
-0.637000
0
VERTEX
8
0
10
-0.368000
20
-0.637000
0
SEQEND
8
0
0
POLYLINE
8
0
66
1
40
0.015000
41
0.015000
0
VERTEX
8
0
10
-0.173000
20
-0.762000
0
VERTEX
8
0
10
-0.173000
20
-0.637000
0
SEQEND
8
0
0
POLYLINE
8
0
66
1
40
0.030000
41
0.030000
0
VERTEX
8
0
10
-0.173000
20
-0.637000
0
VERTEX
8
0
10
-0.273000
20
-0.637000
0
SEQEND
8
0
0
POLYLINE
8
0
66
1
40
0.015000
41
0.015000
0
VERTEX
8
0
10
-0.073000
20
-0.767000
0
VERTEX
8
0
10
-0.073000
20
-0.637000
0
SEQEND
8
0
0
POLYLINE
8
0
66
1
40
0.050000
41
0.050000
0
VERTEX
8
0
10
0.076000
20
-0.767000
0
VERTEX
8
0
10
-0.073000
20
-0.767000
0
VERTEX
8
0
10
-0.453000
20
-0.767000
0
SEQEND
8
0
0
POLYLINE
8
0
66
1
40
0.030000
41
0.030000
0
VERTEX
8
0
10
0.076000
20
-0.707000
0
VERTEX
8
0
10
0.006000
20
-0.637000
0
VERTEX
8
0
10
-0.073000
20
-0.637000
0
VERTEX
8
0
10
-0.173000
20
-0.637000
0
SEQEND
8
0
0
POLYLINE
8
0
66
1
40
0.050000
41
0.050000
0
VERTEX
8
0
10
-0.578000
20
-0.767000
0
VERTEX
8
0
10
-0.678000
20
-0.767000
0
VERTEX
8
0
10
-0.813000
20
-0.767000
0
SEQEND
8
0
0
POLYLINE
8
0
66
1
40
0.025000
41
0.025000
0
VERTEX
8
0
10
0.151000
20
0.267000
0
VERTEX
8
0
10
0.176000
20
0.272000
0
VERTEX
8
0
10
0.291000
20
0.272000
0
VERTEX
8
0
10
0.306000
20
0.287000
0
VERTEX
8
0
10
0.351000
20
0.287000
0
VERTEX
8
0
10
0.396000
20
0.297000
0
SEQEND
8
0
0
POLYLINE
8
0
66
1
40
0.025000
41
0.025000
0
VERTEX
8
0
10
0.396000
20
0.697000
0
VERTEX
8
0
10
0.371000
20
0.667000
0
VERTEX
8
0
10
0.316000
20
0.612000
0
VERTEX
8
0
10
0.316000
20
0.487000
0
SEQEND
8
0
0
POLYLINE
8
0
66
1
40
0.025000
41
0.025000
0
VERTEX
8
0
10
0.151000
20
0.367000
0
VERTEX
8
0
10
0.086000
20
0.432000
0
VERTEX
8
0
10
0.086000
20
0.557000
0
VERTEX
8
0
10
0.171000
20
0.642000
0
VERTEX
8
0
10
0.211000
20
0.637000
0
SEQEND
8
0
0
POLYLINE
8
0
66
1
40
0.025000
41
0.025000
0
VERTEX
8
0
10
0.211000
20
0.537000
0
VERTEX
8
0
10
0.206000
20
0.497000
0
VERTEX
8
0
10
0.206000
20
0.412000
0
VERTEX
8
0
10
0.226000
20
0.397000
0
SEQEND
8
0
0
POLYLINE
8
0
66
1
40
0.030000
41
0.030000
0
VERTEX
8
0
10
0.226000
20
-0.002000
0
VERTEX
8
0
10
0.201000
20
-0.032000
0
VERTEX
8
0
10
0.181000
20
-0.052000
0
VERTEX
8
0
10
0.181000
20
-0.242000
0
VERTEX
8
0
10
0.281000
20
-0.342000
0
VERTEX
8
0
10
0.281000
20
-0.392000
0
VERTEX
8
0
10
0.376000
20
-0.487000
0
VERTEX
8
0
10
0.401000
20
-0.507000
0
SEQEND
8
0
0
POLYLINE
8
0
66
1
40
0.015000
41
0.015000
0
VERTEX
8
0
10
0.131000
20
-0.282000
0
VERTEX
8
0
10
0.126000
20
-0.317000
0
VERTEX
8
0
10
0.126000
20
-0.452000
0
VERTEX
8
0
10
0.081000
20
-0.497000
0
VERTEX
8
0
10
-0.158000
20
-0.497000
0
VERTEX
8
0
10
-0.223000
20
-0.432000
0
VERTEX
8
0
10
-0.223000
20
-0.407000
0
SEQEND
8
0
0
POLYLINE
8
0
66
1
40
0.015000
41
0.015000
0
VERTEX
8
0
10
-0.323000
20
-0.132000
0
VERTEX
8
0
10
-0.323000
20
-0.222000
0
VERTEX
8
0
10
-0.298000
20
-0.247000
0
VERTEX
8
0
10
-0.268000
20
-0.282000
0
SEQEND
8
0
0
POLYLINE
8
0
66
1
40
0.015000
41
0.015000
0
VERTEX
8
0
10
-0.323000
20
0.067000
0
VERTEX
8
0
10
-0.178000
20
0.067000
0
VERTEX
8
0
10
-0.128000
20
0.017000
0
VERTEX
8
0
10
0.011000
20
0.017000
0
VERTEX
8
0
10
0.076000
20
-0.047000
0
VERTEX
8
0
10
0.076000
20
-0.222000
0
VERTEX
8
0
10
-0.023000
20
-0.317000
0
VERTEX
8
0
10
-0.023000
20
-0.407000
0
SEQEND
8
0
0
POLYLINE
8
0
66
1
40
0.015000
41
0.015000
0
VERTEX
8
0
10
-0.323000
20
-0.032000
0
VERTEX
8
0
10
-0.173000
20
-0.032000
0
VERTEX
8
0
10
-0.123000
20
-0.082000
0
VERTEX
8
0
10
0.016000
20
-0.082000
0
VERTEX
8
0
10
0.036000
20
-0.102000
0
VERTEX
8
0
10
0.036000
20
-0.197000
0
VERTEX
8
0
10
-0.043000
20
-0.267000
0
VERTEX
8
0
10
-0.103000
20
-0.317000
0
VERTEX
8
0
10
-0.123000
20
-0.332000
0
VERTEX
8
0
10
-0.123000
20
-0.407000
0
SEQEND
8
0
0
POLYLINE
8
0
66
1
40
0.015000
41
0.015000
0
VERTEX
8
0
10
-0.323000
20
-0.407000
0
VERTEX
8
0
10
-0.328000
20
-0.432000
0
VERTEX
8
0
10
-0.328000
20
-0.477000
0
VERTEX
8
0
10
-0.523000
20
-0.672000
0
VERTEX
8
0
10
-0.523000
20
-0.707000
0
SEQEND
8
0
0
POLYLINE
8
0
66
1
40
0.015000
41
0.015000
0
VERTEX
8
0
10
-0.723000
20
-0.132000
0
VERTEX
8
0
10
-0.653000
20
-0.132000
0
VERTEX
8
0
10
-0.478000
20
-0.307000
0
VERTEX
8
0
10
-0.478000
20
-0.472000
0
VERTEX
8
0
10
-0.538000
20
-0.532000
0
VERTEX
8
0
10
-0.678000
20
-0.532000
0
VERTEX
8
0
10
-0.718000
20
-0.572000
0
VERTEX
8
0
10
-0.718000
20
-0.682000
0
VERTEX
8
0
10
-0.723000
20
-0.707000
0
SEQEND
8
0
0
POLYLINE
8
0
66
1
40
0.015000
41
0.015000
0
VERTEX
8
0
10
-0.723000
20
-0.032000
0
VERTEX
8
0
10
-0.708000
20
-0.037000
0
VERTEX
8
0
10
-0.698000
20
-0.042000
0
VERTEX
8
0
10
-0.378000
20
-0.362000
0
VERTEX
8
0
10
-0.378000
20
-0.477000
0
VERTEX
8
0
10
-0.473000
20
-0.572000
0
VERTEX
8
0
10
-0.573000
20
-0.572000
0
VERTEX
8
0
10
-0.623000
20
-0.622000
0
VERTEX
8
0
10
-0.623000
20
-0.707000
0
SEQEND
8
0
0
POLYLINE
8
0
66
1
40
0.015000
41
0.015000
0
VERTEX
8
0
10
-0.723000
20
0.067000
0
VERTEX
8
0
10
-0.698000
20
0.072000
0
VERTEX
8
0
10
-0.678000
20
0.072000
0
VERTEX
8
0
10
-0.658000
20
0.052000
0
VERTEX
8
0
10
-0.658000
20
-0.032000
0
VERTEX
8
0
10
-0.323000
20
-0.367000
0
VERTEX
8
0
10
-0.323000
20
-0.407000
0
SEQEND
8
0
0
POLYLINE
8
0
66
1
40
0.015000
41
0.015000
0
VERTEX
8
0
10
-0.273000
20
-0.477000
0
VERTEX
8
0
10
-0.285000
20
-0.489000
0
VERTEX
8
0
10
-0.423000
20
-0.627000
0
VERTEX
8
0
10
-0.423000
20
-0.707000
0
SEQEND
8
0
0
POLYLINE
8
0
66
1
40
0.015000
41
0.015000
0
VERTEX
8
0
10
-0.723000
20
0.167000
0
VERTEX
8
0
10
-0.673000
20
0.167000
0
VERTEX
8
0
10
-0.613000
20
0.107000
0
VERTEX
8
0
10
-0.613000
20
-0.022000
0
VERTEX
8
0
10
-0.273000
20
-0.362000
0
VERTEX
8
0
10
-0.273000
20
-0.477000
0
SEQEND
8
0
0
INSERT
8
0
2
RPAD
10
0.176000
20
-0.407000
41
0.050000
42
0.050000
50
-180.000000
0
CIRCLE
8
0
10
0.176000
20
-0.407000
40
0.030000
0
INSERT
8
0
2
EPAD
10
0.076000
20
-0.407000
41
0.050000
42
0.050000
0
CIRCLE
8
0
10
0.076000
20
-0.407000
40
0.030000
0
INSERT
8
0
2
EPAD
10
-0.023000
20
-0.407000
41
0.050000
42
0.050000
0
CIRCLE
8
0
10
-0.023000
20
-0.407000
40
0.030000
0
INSERT
8
0
2
EPAD
10
-0.123000
20
-0.407000
41
0.050000
42
0.050000
0
CIRCLE
8
0
10
-0.123000
20
-0.407000
40
0.030000
0
INSERT
8
0
2
EPAD
10
-0.223000
20
-0.407000
41
0.050000
42
0.050000
0
CIRCLE
8
0
10
-0.223000
20
-0.407000
40
0.030000
0
INSERT
8
0
2
EPAD
10
-0.323000
20
-0.407000
41
0.050000
42
0.050000
0
CIRCLE
8
0
10
-0.323000
20
-0.407000
40
0.030000
0
INSERT
8
0
2
EPAD
10
-0.423000
20
-0.407000
41
0.050000
42
0.050000
0
CIRCLE
8
0
10
-0.423000
20
-0.407000
40
0.030000
0
INSERT
8
0
2
EPAD
10
-0.523000
20
-0.407000
41
0.050000
42
0.050000
0
CIRCLE
8
0
10
-0.523000
20
-0.407000
40
0.030000
0
INSERT
8
0
2
EPAD
10
-0.623000
20
-0.407000
41
0.050000
42
0.050000
0
CIRCLE
8
0
10
-0.623000
20
-0.407000
40
0.030000
0
INSERT
8
0
2
EPAD
10
-0.723000
20
-0.407000
41
0.050000
42
0.050000
0
CIRCLE
8
0
10
-0.723000
20
-0.407000
40
0.030000
0
INSERT
8
0
2
EPAD
10
-0.723000
20
-0.707000
41
0.050000
42
0.050000
0
CIRCLE
8
0
10
-0.723000
20
-0.707000
40
0.030000
0
INSERT
8
0
2
EPAD
10
-0.623000
20
-0.707000
41
0.050000
42
0.050000
0
CIRCLE
8
0
10
-0.623000
20
-0.707000
40
0.030000
0
INSERT
8
0
2
EPAD
10
-0.523000
20
-0.707000
41
0.050000
42
0.050000
0
CIRCLE
8
0
10
-0.523000
20
-0.707000
40
0.030000
0
INSERT
8
0
2
EPAD
10
-0.423000
20
-0.707000
41
0.050000
42
0.050000
0
CIRCLE
8
0
10
-0.423000
20
-0.707000
40
0.030000
0
INSERT
8
0
2
EPAD
10
-0.323000
20
-0.707000
41
0.050000
42
0.050000
0
CIRCLE
8
0
10
-0.323000
20
-0.707000
40
0.030000
0
INSERT
8
0
2
EPAD
10
-0.223000
20
-0.707000
41
0.050000
42
0.050000
0
CIRCLE
8
0
10
-0.223000
20
-0.707000
40
0.030000
0
INSERT
8
0
2
EPAD
10
-0.123000
20
-0.707000
41
0.050000
42
0.050000
0
CIRCLE
8
0
10
-0.123000
20
-0.707000
40
0.030000
0
INSERT
8
0
2
EPAD
10
-0.023000
20
-0.707000
41
0.050000
42
0.050000
0
CIRCLE
8
0
10
-0.023000
20
-0.707000
40
0.030000
0
INSERT
8
0
2
EPAD
10
0.076000
20
-0.707000
41
0.050000
42
0.050000
0
CIRCLE
8
0
10
0.076000
20
-0.707000
40
0.030000
0
INSERT
8
0
2
EPAD
10
0.176000
20
-0.707000
41
0.050000
42
0.050000
0
CIRCLE
8
0
10
0.176000
20
-0.707000
40
0.030000
0
INSERT
8
0
2
EPAD
10
0.401000
20
-0.567000
41
0.050000
42
0.050000
0
CIRCLE
8
0
10
0.401000
20
-0.567000
40
0.025000
0
INSERT
8
0
2
EPAD
10
0.401000
20
-0.767000
41
0.050000
42
0.050000
0
CIRCLE
8
0
10
0.401000
20
-0.767000
40
0.025000
0
INSERT
8
0
2
RPAD
10
-0.323000
20
0.667000
41
0.050000
42
0.050000
50
-90.000000
0
CIRCLE
8
0
10
-0.323000
20
0.667000
40
0.030000
0
INSERT
8
0
2
EPAD
10
-0.323000
20
0.567000
41
0.050000
42
0.050000
0
CIRCLE
8
0
10
-0.323000
20
0.567000
40
0.030000
0
INSERT
8
0
2
EPAD
10
-0.323000
20
0.467000
41
0.050000
42
0.050000
0
CIRCLE
8
0
10
-0.323000
20
0.467000
40
0.030000
0
INSERT
8
0
2
EPAD
10
-0.323000
20
0.367000
41
0.050000
42
0.050000
0
CIRCLE
8
0
10
-0.323000
20
0.367000
40
0.030000
0
INSERT
8
0
2
EPAD
10
-0.323000
20
0.267000
41
0.050000
42
0.050000
0
CIRCLE
8
0
10
-0.323000
20
0.267000
40
0.030000
0
INSERT
8
0
2
EPAD
10
-0.323000
20
0.167000
41
0.050000
42
0.050000
0
CIRCLE
8
0
10
-0.323000
20
0.167000
40
0.030000
0
INSERT
8
0
2
EPAD
10
-0.323000
20
0.067000
41
0.050000
42
0.050000
0
CIRCLE
8
0
10
-0.323000
20
0.067000
40
0.030000
0
INSERT
8
0
2
EPAD
10
-0.323000
20
-0.032000
41
0.050000
42
0.050000
0
CIRCLE
8
0
10
-0.323000
20
-0.032000
40
0.030000
0
INSERT
8
0
2
EPAD
10
-0.323000
20
-0.132000
41
0.050000
42
0.050000
0
CIRCLE
8
0
10
-0.323000
20
-0.132000
40
0.030000
0
INSERT
8
0
2
EPAD
10
-0.023000
20
-0.132000
41
0.050000
42
0.050000
0
CIRCLE
8
0
10
-0.023000
20
-0.132000
40
0.030000
0
INSERT
8
0
2
EPAD
10
-0.023000
20
-0.032000
41
0.050000
42
0.050000
0
CIRCLE
8
0
10
-0.023000
20
-0.032000
40
0.030000
0
INSERT
8
0
2
EPAD
10
-0.023000
20
0.067000
41
0.050000
42
0.050000
0
CIRCLE
8
0
10
-0.023000
20
0.067000
40
0.030000
0
INSERT
8
0
2
EPAD
10
-0.023000
20
0.167000
41
0.050000
42
0.050000
0
CIRCLE
8
0
10
-0.023000
20
0.167000
40
0.030000
0
INSERT
8
0
2
EPAD
10
-0.023000
20
0.267000
41
0.050000
42
0.050000
0
CIRCLE
8
0
10
-0.023000
20
0.267000
40
0.030000
0
INSERT
8
0
2
EPAD
10
-0.023000
20
0.367000
41
0.050000
42
0.050000
0
CIRCLE
8
0
10
-0.023000
20
0.367000
40
0.030000
0
INSERT
8
0
2
EPAD
10
-0.023000
20
0.467000
41
0.050000
42
0.050000
0
CIRCLE
8
0
10
-0.023000
20
0.467000
40
0.030000
0
INSERT
8
0
2
EPAD
10
-0.023000
20
0.567000
41
0.050000
42
0.050000
0
CIRCLE
8
0
10
-0.023000
20
0.567000
40
0.030000
0
INSERT
8
0
2
EPAD
10
-0.023000
20
0.667000
41
0.050000
42
0.050000
0
CIRCLE
8
0
10
-0.023000
20
0.667000
40
0.030000
0
INSERT
8
0
2
RPAD
10
-0.723000
20
0.667000
41
0.050000
42
0.050000
50
-90.000000
0
CIRCLE
8
0
10
-0.723000
20
0.667000
40
0.030000
0
INSERT
8
0
2
EPAD
10
-0.723000
20
0.567000
41
0.050000
42
0.050000
0
CIRCLE
8
0
10
-0.723000
20
0.567000
40
0.030000
0
INSERT
8
0
2
EPAD
10
-0.723000
20
0.467000
41
0.050000
42
0.050000
0
CIRCLE
8
0
10
-0.723000
20
0.467000
40
0.030000
0
INSERT
8
0
2
EPAD
10
-0.723000
20
0.367000
41
0.050000
42
0.050000
0
CIRCLE
8
0
10
-0.723000
20
0.367000
40
0.030000
0
INSERT
8
0
2
EPAD
10
-0.723000
20
0.267000
41
0.050000
42
0.050000
0
CIRCLE
8
0
10
-0.723000
20
0.267000
40
0.030000
0
INSERT
8
0
2
EPAD
10
-0.723000
20
0.167000
41
0.050000
42
0.050000
0
CIRCLE
8
0
10
-0.723000
20
0.167000
40
0.030000
0
INSERT
8
0
2
EPAD
10
-0.723000
20
0.067000
41
0.050000
42
0.050000
0
CIRCLE
8
0
10
-0.723000
20
0.067000
40
0.030000
0
INSERT
8
0
2
EPAD
10
-0.723000
20
-0.032000
41
0.050000
42
0.050000
0
CIRCLE
8
0
10
-0.723000
20
-0.032000
40
0.030000
0
INSERT
8
0
2
EPAD
10
-0.723000
20
-0.132000
41
0.050000
42
0.050000
0
CIRCLE
8
0
10
-0.723000
20
-0.132000
40
0.030000
0
INSERT
8
0
2
EPAD
10
-0.423000
20
-0.132000
41
0.050000
42
0.050000
0
CIRCLE
8
0
10
-0.423000
20
-0.132000
40
0.030000
0
INSERT
8
0
2
EPAD
10
-0.423000
20
-0.032000
41
0.050000
42
0.050000
0
CIRCLE
8
0
10
-0.423000
20
-0.032000
40
0.030000
0
INSERT
8
0
2
EPAD
10
-0.423000
20
0.067000
41
0.050000
42
0.050000
0
CIRCLE
8
0
10
-0.423000
20
0.067000
40
0.030000
0
INSERT
8
0
2
EPAD
10
-0.423000
20
0.167000
41
0.050000
42
0.050000
0
CIRCLE
8
0
10
-0.423000
20
0.167000
40
0.030000
0
INSERT
8
0
2
EPAD
10
-0.423000
20
0.267000
41
0.050000
42
0.050000
0
CIRCLE
8
0
10
-0.423000
20
0.267000
40
0.030000
0
INSERT
8
0
2
EPAD
10
-0.423000
20
0.367000
41
0.050000
42
0.050000
0
CIRCLE
8
0
10
-0.423000
20
0.367000
40
0.030000
0
INSERT
8
0
2
EPAD
10
-0.423000
20
0.467000
41
0.050000
42
0.050000
0
CIRCLE
8
0
10
-0.423000
20
0.467000
40
0.030000
0
INSERT
8
0
2
EPAD
10
-0.423000
20
0.567000
41
0.050000
42
0.050000
0
CIRCLE
8
0
10
-0.423000
20
0.567000
40
0.030000
0
INSERT
8
0
2
EPAD
10
-0.423000
20
0.667000
41
0.050000
42
0.050000
0
CIRCLE
8
0
10
-0.423000
20
0.667000
40
0.030000
0
POLYLINE
8
0
66
1
40
0.008000
41
0.008000
0
VERTEX
8
0
10
-0.873000
20
-0.807000
0
VERTEX
8
0
10
0.526000
20
-0.807000
0
VERTEX
8
0
10
0.526000
20
0.817000
0
VERTEX
8
0
10
-0.873000
20
0.817000
0
VERTEX
8
0
10
-0.873000
20
-0.807000
0
SEQEND
8
0
0
INSERT
8
0
2
EPAD
10
0.401000
20
-0.307000
41
0.050000
42
0.050000
0
CIRCLE
8
0
10
0.401000
20
-0.307000
40
0.025000
0
INSERT
8
0
2
EPAD
10
0.401000
20
-0.507000
41
0.050000
42
0.050000
0
CIRCLE
8
0
10
0.401000
20
-0.507000
40
0.025000
0
INSERT
8
0
2
EPAD
10
-0.673000
20
-0.232000
41
0.050000
42
0.050000
0
CIRCLE
8
0
10
-0.673000
20
-0.232000
40
0.025000
0
INSERT
8
0
2
EPAD
10
-0.673000
20
-0.332000
41
0.050000
42
0.050000
0
CIRCLE
8
0
10
-0.673000
20
-0.332000
40
0.025000
0
INSERT
8
0
2
EPAD
10
-0.713000
20
-0.232000
41
0.050000
42
0.050000
0
CIRCLE
8
0
10
-0.713000
20
-0.232000
40
0.025000
0
INSERT
8
0
2
EPAD
10
-0.813000
20
-0.232000
41
0.050000
42
0.050000
0
CIRCLE
8
0
10
-0.813000
20
-0.232000
40
0.025000
0
INSERT
8
0
2
EPAD
10
-0.713000
20
-0.332000
41
0.050000
42
0.050000
0
CIRCLE
8
0
10
-0.713000
20
-0.332000
40
0.025000
0
INSERT
8
0
2
EPAD
10
-0.813000
20
-0.332000
41
0.050000
42
0.050000
0
CIRCLE
8
0
10
-0.813000
20
-0.332000
40
0.025000
0
INSERT
8
0
2
EPAD
10
0.051000
20
0.342000
41
0.050000
42
0.050000
0
CIRCLE
8
0
10
0.051000
20
0.342000
40
0.010000
0
INSERT
8
0
2
EPAD
10
0.051000
20
0.142000
41
0.050000
42
0.050000
0
CIRCLE
8
0
10
0.051000
20
0.142000
40
0.010000
0
INSERT
8
0
2
EPAD
10
0.151000
20
0.267000
41
0.050000
42
0.050000
0
CIRCLE
8
0
10
0.151000
20
0.267000
40
0.010000
0
INSERT
8
0
2
EPAD
10
0.151000
20
0.067000
41
0.050000
42
0.050000
0
CIRCLE
8
0
10
0.151000
20
0.067000
40
0.010000
0
INSERT
8
0
2
EPAD
10
0.226000
20
0.397000
41
0.060000
42
0.060000
0
CIRCLE
8
0
10
0.226000
20
0.397000
40
0.025000
0
INSERT
8
0
2
EPAD
10
0.226000
20
-0.002000
41
0.060000
42
0.060000
0
CIRCLE
8
0
10
0.226000
20
-0.002000
40
0.025000
0
INSERT
8
0
2
EPAD
10
0.151000
20
0.367000
41
0.060000
42
0.060000
0
CIRCLE
8
0
10
0.151000
20
0.367000
40
0.025000
0
INSERT
8
0
2
EPAD
10
0.021000
20
0.767000
41
0.050000
42
0.050000
0
CIRCLE
8
0
10
0.021000
20
0.767000
40
0.010000
0
INSERT
8
0
2
EPAD
10
0.316000
20
0.487000
41
0.060000
42
0.060000
0
CIRCLE
8
0
10
0.316000
20
0.487000
40
0.025000
0
INSERT
8
0
2
EPAD
10
0.316000
20
0.087000
41
0.060000
42
0.060000
0
CIRCLE
8
0
10
0.316000
20
0.087000
40
0.025000
0
INSERT
8
0
2
EPAD
10
0.396000
20
0.297000
41
0.060000
42
0.060000
0
CIRCLE
8
0
10
0.396000
20
0.297000
40
0.025000
0
INSERT
8
0
2
EPAD
10
0.396000
20
0.697000
41
0.060000
42
0.060000
0
CIRCLE
8
0
10
0.396000
20
0.697000
40
0.025000
0
INSERT
8
0
2
RPAD
10
0.211000
20
0.637000
41
0.080000
42
0.080000
50
-90.000000
0
CIRCLE
8
0
10
0.211000
20
0.637000
40
0.025000
0
INSERT
8
0
2
RPAD
10
0.211000
20
0.537000
41
0.080000
42
0.080000
50
-90.000000
0
CIRCLE
8
0
10
0.211000
20
0.537000
40
0.025000
0
INSERT
8
0
2
EPAD
10
-0.268000
20
-0.282000
41
0.070000
42
0.070000
0
CIRCLE
8
0
10
-0.268000
20
-0.282000
40
0.025000
0
INSERT
8
0
2
EPAD
10
0.131000
20
-0.282000
41
0.070000
42
0.070000
0
CIRCLE
8
0
10
0.131000
20
-0.282000
40
0.025000
0
POLYLINE
8
0
66
1
40
0.008000
41
0.008000
0
VERTEX
8
0
10
-0.848000
20
-0.807000
0
VERTEX
8
0
10
0.501000
20
-0.807000
0
VERTEX
8
0
10
0.501000
20
0.802000
0
VERTEX
8
0
10
-0.848000
20
0.802000
0
VERTEX
8
0
10
-0.848000
20
-0.807000
0
SEQEND
8
0
0
ENDSEC
0
EOF

