  0
SECTION
  2
HEADER
  9
$ACADVER
  1
AC2.10
  0
ENDSEC
  0
SECTION
  2
TABLES
  0
TABLE
  2
LAYER
 70
     8
  0
LAYER
  2
0
 62
     7
 70
0
  6
CONTINUOUS
  0
LAYER
  2
1
 62
     1
 70
0
  6
CONTINUOUS
  0
LAYER
  2
2
 62
     2
 70
0
  6
CONTINUOUS
  0
LAYER
  2
3
 62
     3
 70
0
  6
CONTINUOUS
  0
LAYER
  2
4
 62
     4
 70
0
  6
CONTINUOUS
  0
LAYER
  2
5
 62
     5
 70
0
  6
CONTINUOUS
  0
LAYER
  2
6
 62
     6
 70
0
  6
CONTINUOUS
  0
LAYER
  2
7
 62
     7
 70
0
  6
CONTINUOUS
  0
ENDTAB
  0
TABLE
  2
STYLE
 70
     1
  0
STYLE
 70
     0
  2
STANDARD
  3
TXT
 40
0.00
 41
1.00
 42
1.00
 50
0.00
 71
     0
  0
ENDTAB
  0
ENDSEC
  0
SECTION
  2
BLOCKS
  0
BLOCK
  8
0
  2
EPAD
 70
0
 10
0.0
 20
0.0
  0
POLYLINE
  8
0
 66
1
 70
1
 40
0.5
 41
0.5
  0
VERTEX
  8
0
 10
-0.25
 20
0.0
 42
1.0
  0
VERTEX
  8
0
 10
0.25
 20
0.0
 42
1.0
  0
SEQEND
  8
0
  0
ENDBLK
  8
0
  0
BLOCK
  8
0
  2
RPAD
 70
0
 10
0.0
 20
0.0
  0
TRACE
  8
0
 10
-0.5
 20
-0.5
 11
-0.5
 21
0.5
 12
0.5
 22
-0.5
 13
0.5
 23
0.5
  0
ENDBLK
  8
0
  0
ENDSEC
0
SECTION
2
ENTITIES
0
POLYLINE
8
0
66
1
40
0.008000
41
0.008000
0
VERTEX
8
0
10
0.224000
20
-0.382000
0
VERTEX
8
0
10
0.224000
20
-0.432000
0
SEQEND
8
0
0
POLYLINE
8
0
66
1
40
0.008000
41
0.008000
0
VERTEX
8
0
10
0.174000
20
-0.482000
0
VERTEX
8
0
10
0.175000
20
-0.492000
0
VERTEX
8
0
10
0.178000
20
-0.502000
0
VERTEX
8
0
10
0.188000
20
-0.518000
0
VERTEX
8
0
10
0.204000
20
-0.528000
0
VERTEX
8
0
10
0.224000
20
-0.532000
0
SEQEND
8
0
0
POLYLINE
8
0
66
1
40
0.008000
41
0.008000
0
VERTEX
8
0
10
0.174000
20
-0.482000
0
VERTEX
8
0
10
0.175000
20
-0.472000
0
VERTEX
8
0
10
0.178000
20
-0.462000
0
VERTEX
8
0
10
0.188000
20
-0.446000
0
VERTEX
8
0
10
0.204000
20
-0.436000
0
VERTEX
8
0
10
0.214000
20
-0.433000
0
VERTEX
8
0
10
0.224000
20
-0.432000
0
SEQEND
8
0
0
POLYLINE
8
0
66
1
40
0.008000
41
0.008000
0
VERTEX
8
0
10
0.224000
20
-0.532000
0
VERTEX
8
0
10
0.224000
20
-0.582000
0
SEQEND
8
0
0
POLYLINE
8
0
66
1
40
0.008000
41
0.008000
0
VERTEX
8
0
10
-0.775000
20
-0.382000
0
VERTEX
8
0
10
-0.775000
20
-0.582000
0
SEQEND
8
0
0
POLYLINE
8
0
66
1
40
0.008000
41
0.008000
0
VERTEX
8
0
10
0.224000
20
-0.382000
0
VERTEX
8
0
10
-0.775000
20
-0.382000
0
SEQEND
8
0
0
POLYLINE
8
0
66
1
40
0.008000
41
0.008000
0
VERTEX
8
0
10
0.224000
20
-0.582000
0
VERTEX
8
0
10
-0.775000
20
-0.582000
0
SEQEND
8
0
0
TEXT
8
12632256
10
0.124000
20
0.101000
40
0.032000
41
0.937500
1
C3
0
TEXT
8
12632256
10
0.134000
20
0.148000
40
0.048000
41
1.041667
1
+
0
TEXT
8
12632256
10
0.024000
20
0.166000
40
0.032000
41
0.937500
1
C4
0
TEXT
8
12632256
10
0.304000
20
0.221000
40
0.032000
41
0.937500
1
D2
0
TEXT
8
12632256
10
-0.194000
20
0.337000
40
0.048000
41
1.041667
50
-90.000000
1
16F88
0
TEXT
8
12632256
10
-0.554000
20
0.612000
40
0.048000
41
1.041667
50
-90.000000
1
Turned pin header
0
TEXT
8
12632256
10
-0.340000
20
-0.501000
40
0.048000
41
1.041667
1
24F16KA101
0
POLYLINE
8
0
66
1
40
0.008000
41
0.008000
0
VERTEX
8
0
10
-0.275000
20
0.662000
0
VERTEX
8
0
10
-0.225000
20
0.662000
0
SEQEND
8
0
0
POLYLINE
8
0
66
1
40
0.008000
41
0.008000
0
VERTEX
8
0
10
-0.175000
20
0.612000
0
VERTEX
8
0
10
-0.165000
20
0.613000
0
VERTEX
8
0
10
-0.155000
20
0.616000
0
VERTEX
8
0
10
-0.147000
20
0.620000
0
VERTEX
8
0
10
-0.140000
20
0.626000
0
VERTEX
8
0
10
-0.133000
20
0.633000
0
VERTEX
8
0
10
-0.129000
20
0.642000
0
VERTEX
8
0
10
-0.126000
20
0.652000
0
VERTEX
8
0
10
-0.125000
20
0.662000
0
SEQEND
8
0
0
POLYLINE
8
0
66
1
40
0.008000
41
0.008000
0
VERTEX
8
0
10
-0.175000
20
0.612000
0
VERTEX
8
0
10
-0.185000
20
0.613000
0
VERTEX
8
0
10
-0.195000
20
0.616000
0
VERTEX
8
0
10
-0.211000
20
0.626000
0
VERTEX
8
0
10
-0.217000
20
0.633000
0
VERTEX
8
0
10
-0.221000
20
0.642000
0
VERTEX
8
0
10
-0.224000
20
0.652000
0
VERTEX
8
0
10
-0.225000
20
0.662000
0
SEQEND
8
0
0
POLYLINE
8
0
66
1
40
0.008000
41
0.008000
0
VERTEX
8
0
10
-0.125000
20
0.662000
0
VERTEX
8
0
10
-0.075000
20
0.662000
0
SEQEND
8
0
0
POLYLINE
8
0
66
1
40
0.008000
41
0.008000
0
VERTEX
8
0
10
-0.275000
20
-0.237000
0
VERTEX
8
0
10
-0.075000
20
-0.237000
0
SEQEND
8
0
0
POLYLINE
8
0
66
1
40
0.008000
41
0.008000
0
VERTEX
8
0
10
-0.275000
20
0.662000
0
VERTEX
8
0
10
-0.275000
20
-0.237000
0
SEQEND
8
0
0
POLYLINE
8
0
66
1
40
0.008000
41
0.008000
0
VERTEX
8
0
10
-0.075000
20
-0.237000
0
VERTEX
8
0
10
-0.075000
20
0.662000
0
SEQEND
8
0
0
POLYLINE
8
0
66
1
40
0.008000
41
0.008000
0
VERTEX
8
0
10
-0.675000
20
0.662000
0
VERTEX
8
0
10
-0.625000
20
0.662000
0
SEQEND
8
0
0
POLYLINE
8
0
66
1
40
0.008000
41
0.008000
0
VERTEX
8
0
10
-0.575000
20
0.612000
0
VERTEX
8
0
10
-0.565000
20
0.613000
0
VERTEX
8
0
10
-0.555000
20
0.616000
0
VERTEX
8
0
10
-0.547000
20
0.620000
0
VERTEX
8
0
10
-0.540000
20
0.626000
0
VERTEX
8
0
10
-0.533000
20
0.633000
0
VERTEX
8
0
10
-0.529000
20
0.642000
0
VERTEX
8
0
10
-0.526000
20
0.652000
0
VERTEX
8
0
10
-0.525000
20
0.662000
0
SEQEND
8
0
0
POLYLINE
8
0
66
1
40
0.008000
41
0.008000
0
VERTEX
8
0
10
-0.575000
20
0.612000
0
VERTEX
8
0
10
-0.585000
20
0.613000
0
VERTEX
8
0
10
-0.595000
20
0.616000
0
VERTEX
8
0
10
-0.611000
20
0.626000
0
VERTEX
8
0
10
-0.617000
20
0.633000
0
VERTEX
8
0
10
-0.621000
20
0.642000
0
VERTEX
8
0
10
-0.624000
20
0.652000
0
VERTEX
8
0
10
-0.625000
20
0.662000
0
SEQEND
8
0
0
POLYLINE
8
0
66
1
40
0.008000
41
0.008000
0
VERTEX
8
0
10
-0.525000
20
0.662000
0
VERTEX
8
0
10
-0.475000
20
0.662000
0
SEQEND
8
0
0
POLYLINE
8
0
66
1
40
0.008000
41
0.008000
0
VERTEX
8
0
10
-0.675000
20
-0.237000
0
VERTEX
8
0
10
-0.475000
20
-0.237000
0
SEQEND
8
0
0
POLYLINE
8
0
66
1
40
0.008000
41
0.008000
0
VERTEX
8
0
10
-0.675000
20
0.662000
0
VERTEX
8
0
10
-0.675000
20
-0.237000
0
SEQEND
8
0
0
POLYLINE
8
0
66
1
40
0.008000
41
0.008000
0
VERTEX
8
0
10
-0.475000
20
-0.237000
0
VERTEX
8
0
10
-0.475000
20
0.662000
0
SEQEND
8
0
0
POLYLINE
8
0
66
1
40
0.008000
41
0.008000
0
VERTEX
8
0
10
0.394000
20
-0.447000
0
VERTEX
8
0
10
0.404000
20
-0.450000
0
VERTEX
8
0
10
0.414000
20
-0.458000
0
VERTEX
8
0
10
0.422000
20
-0.472000
0
VERTEX
8
0
10
0.430000
20
-0.490000
0
VERTEX
8
0
10
0.436000
20
-0.512000
0
VERTEX
8
0
10
0.440000
20
-0.538000
0
VERTEX
8
0
10
0.444000
20
-0.597000
0
SEQEND
8
0
0
POLYLINE
8
0
66
1
40
0.008000
41
0.008000
0
VERTEX
8
0
10
0.394000
20
-0.747000
0
VERTEX
8
0
10
0.404000
20
-0.744000
0
VERTEX
8
0
10
0.414000
20
-0.735000
0
VERTEX
8
0
10
0.422000
20
-0.722000
0
VERTEX
8
0
10
0.430000
20
-0.704000
0
VERTEX
8
0
10
0.436000
20
-0.682000
0
VERTEX
8
0
10
0.440000
20
-0.656000
0
VERTEX
8
0
10
0.444000
20
-0.597000
0
SEQEND
8
0
0
POLYLINE
8
0
66
1
40
0.008000
41
0.008000
0
VERTEX
8
0
10
0.394000
20
-0.747000
0
VERTEX
8
0
10
0.384000
20
-0.744000
0
VERTEX
8
0
10
0.374000
20
-0.735000
0
VERTEX
8
0
10
0.366000
20
-0.722000
0
VERTEX
8
0
10
0.358000
20
-0.704000
0
VERTEX
8
0
10
0.352000
20
-0.682000
0
VERTEX
8
0
10
0.348000
20
-0.656000
0
VERTEX
8
0
10
0.344000
20
-0.597000
0
SEQEND
8
0
0
POLYLINE
8
0
66
1
40
0.008000
41
0.008000
0
VERTEX
8
0
10
0.394000
20
-0.447000
0
VERTEX
8
0
10
0.384000
20
-0.450000
0
VERTEX
8
0
10
0.374000
20
-0.458000
0
VERTEX
8
0
10
0.366000
20
-0.472000
0
VERTEX
8
0
10
0.358000
20
-0.490000
0
VERTEX
8
0
10
0.352000
20
-0.512000
0
VERTEX
8
0
10
0.348000
20
-0.538000
0
VERTEX
8
0
10
0.344000
20
-0.597000
0
SEQEND
8
0
0
POLYLINE
8
0
66
1
40
0.008000
41
0.008000
0
VERTEX
8
0
10
0.049000
20
0.337000
0
VERTEX
8
0
10
0.059000
20
0.334000
0
VERTEX
8
0
10
0.069000
20
0.326000
0
VERTEX
8
0
10
0.077000
20
0.312000
0
VERTEX
8
0
10
0.084000
20
0.294000
0
VERTEX
8
0
10
0.091000
20
0.272000
0
VERTEX
8
0
10
0.095000
20
0.246000
0
VERTEX
8
0
10
0.098000
20
0.218000
0
VERTEX
8
0
10
0.099000
20
0.187000
0
SEQEND
8
0
0
POLYLINE
8
0
66
1
40
0.008000
41
0.008000
0
VERTEX
8
0
10
0.049000
20
0.037000
0
VERTEX
8
0
10
0.059000
20
0.040000
0
VERTEX
8
0
10
0.069000
20
0.049000
0
VERTEX
8
0
10
0.077000
20
0.062000
0
VERTEX
8
0
10
0.084000
20
0.080000
0
VERTEX
8
0
10
0.091000
20
0.102000
0
VERTEX
8
0
10
0.095000
20
0.128000
0
VERTEX
8
0
10
0.098000
20
0.156000
0
VERTEX
8
0
10
0.099000
20
0.187000
0
SEQEND
8
0
0
POLYLINE
8
0
66
1
40
0.008000
41
0.008000
0
VERTEX
8
0
10
0.049000
20
0.037000
0
VERTEX
8
0
10
0.039000
20
0.040000
0
VERTEX
8
0
10
0.030000
20
0.049000
0
VERTEX
8
0
10
0.021000
20
0.062000
0
VERTEX
8
0
10
0.014000
20
0.080000
0
VERTEX
8
0
10
0.008000
20
0.102000
0
VERTEX
8
0
10
0.004000
20
0.128000
0
VERTEX
8
0
10
0.001000
20
0.156000
0
VERTEX
8
0
10
0.000000
20
0.187000
0
SEQEND
8
0
0
POLYLINE
8
0
66
1
40
0.008000
41
0.008000
0
VERTEX
8
0
10
0.049000
20
0.337000
0
VERTEX
8
0
10
0.039000
20
0.334000
0
VERTEX
8
0
10
0.030000
20
0.326000
0
VERTEX
8
0
10
0.021000
20
0.312000
0
VERTEX
8
0
10
0.014000
20
0.294000
0
VERTEX
8
0
10
0.008000
20
0.272000
0
VERTEX
8
0
10
0.004000
20
0.246000
0
VERTEX
8
0
10
0.001000
20
0.218000
0
VERTEX
8
0
10
0.000000
20
0.187000
0
SEQEND
8
0
0
POLYLINE
8
0
66
1
40
0.008000
41
0.008000
0
VERTEX
8
0
10
0.149000
20
0.262000
0
VERTEX
8
0
10
0.159000
20
0.259000
0
VERTEX
8
0
10
0.169000
20
0.251000
0
VERTEX
8
0
10
0.177000
20
0.237000
0
VERTEX
8
0
10
0.184000
20
0.219000
0
VERTEX
8
0
10
0.191000
20
0.197000
0
VERTEX
8
0
10
0.195000
20
0.171000
0
VERTEX
8
0
10
0.198000
20
0.143000
0
VERTEX
8
0
10
0.199000
20
0.112000
0
SEQEND
8
0
0
POLYLINE
8
0
66
1
40
0.008000
41
0.008000
0
VERTEX
8
0
10
0.149000
20
-0.037000
0
VERTEX
8
0
10
0.159000
20
-0.034000
0
VERTEX
8
0
10
0.169000
20
-0.026000
0
VERTEX
8
0
10
0.177000
20
-0.012000
0
VERTEX
8
0
10
0.184000
20
0.006000
0
VERTEX
8
0
10
0.191000
20
0.028000
0
VERTEX
8
0
10
0.195000
20
0.053000
0
VERTEX
8
0
10
0.198000
20
0.081000
0
VERTEX
8
0
10
0.199000
20
0.112000
0
SEQEND
8
0
0
POLYLINE
8
0
66
1
40
0.008000
41
0.008000
0
VERTEX
8
0
10
0.149000
20
-0.037000
0
VERTEX
8
0
10
0.139000
20
-0.034000
0
VERTEX
8
0
10
0.129000
20
-0.026000
0
VERTEX
8
0
10
0.121000
20
-0.012000
0
VERTEX
8
0
10
0.114000
20
0.006000
0
VERTEX
8
0
10
0.107000
20
0.028000
0
VERTEX
8
0
10
0.103000
20
0.053000
0
VERTEX
8
0
10
0.100000
20
0.081000
0
VERTEX
8
0
10
0.099000
20
0.112000
0
SEQEND
8
0
0
POLYLINE
8
0
66
1
40
0.008000
41
0.008000
0
VERTEX
8
0
10
0.149000
20
0.262000
0
VERTEX
8
0
10
0.139000
20
0.259000
0
VERTEX
8
0
10
0.129000
20
0.251000
0
VERTEX
8
0
10
0.121000
20
0.237000
0
VERTEX
8
0
10
0.114000
20
0.219000
0
VERTEX
8
0
10
0.107000
20
0.197000
0
VERTEX
8
0
10
0.103000
20
0.171000
0
VERTEX
8
0
10
0.100000
20
0.143000
0
VERTEX
8
0
10
0.099000
20
0.112000
0
SEQEND
8
0
0
POLYLINE
8
0
66
1
40
0.008000
41
0.008000
0
VERTEX
8
0
10
0.064000
20
0.347000
0
VERTEX
8
0
10
0.139000
20
0.347000
0
VERTEX
8
0
10
0.139000
20
0.692000
0
VERTEX
8
0
10
0.064000
20
0.692000
0
VERTEX
8
0
10
0.064000
20
0.347000
0
SEQEND
8
0
0
TEXT
8
12632256
10
0.074000
20
0.293000
40
0.048000
41
1.041667
1
+
0
TEXT
8
12632256
10
0.088000
20
0.622000
40
0.032000
41
0.937500
50
-90.000000
1
Battery
0
TEXT
8
12632256
10
0.179000
20
0.226000
40
0.032000
41
0.937500
1
D1
0
TEXT
8
12632256
10
-0.765000
20
-0.503000
40
0.032000
41
0.937500
1
C2
0
TEXT
8
12632256
10
-0.760000
20
-0.418000
40
0.032000
41
0.937500
1
C1
0
TEXT
8
12632256
10
-0.810000
20
-0.703000
40
0.032000
41
0.937500
1
SuperTAT (C) Green and Gold Energy 2010
0
POLYLINE
8
0
66
1
40
0.008000
41
0.008000
0
VERTEX
8
0
10
-0.850000
20
-0.732000
0
VERTEX
8
0
10
0.499000
20
-0.732000
0
VERTEX
8
0
10
0.499000
20
0.747000
0
VERTEX
8
0
10
-0.850000
20
0.747000
0
VERTEX
8
0
10
-0.850000
20
-0.732000
0
SEQEND
8
0
0
POLYLINE
8
0
66
1
40
0.008000
41
0.008000
0
VERTEX
8
0
10
0.404000
20
0.032000
0
VERTEX
8
0
10
0.204000
20
0.032000
0
SEQEND
8
0
0
POLYLINE
8
0
66
1
40
0.008000
41
0.008000
0
VERTEX
8
0
10
0.434000
20
-0.032000
0
VERTEX
8
0
10
0.432000
20
-0.017000
0
VERTEX
8
0
10
0.426000
20
-0.002000
0
VERTEX
8
0
10
0.417000
20
0.014000
0
VERTEX
8
0
10
0.404000
20
0.032000
0
SEQEND
8
0
0
POLYLINE
8
0
66
1
40
0.008000
41
0.008000
0
VERTEX
8
0
10
0.434000
20
-0.032000
0
VERTEX
8
0
10
0.433000
20
-0.058000
0
VERTEX
8
0
10
0.426000
20
-0.081000
0
VERTEX
8
0
10
0.415000
20
-0.102000
0
VERTEX
8
0
10
0.399000
20
-0.121000
0
VERTEX
8
0
10
0.380000
20
-0.136000
0
VERTEX
8
0
10
0.357000
20
-0.147000
0
VERTEX
8
0
10
0.332000
20
-0.155000
0
VERTEX
8
0
10
0.304000
20
-0.157000
0
SEQEND
8
0
0
POLYLINE
8
0
66
1
40
0.008000
41
0.008000
0
VERTEX
8
0
10
0.174000
20
-0.032000
0
VERTEX
8
0
10
0.176000
20
-0.017000
0
VERTEX
8
0
10
0.182000
20
-0.002000
0
VERTEX
8
0
10
0.191000
20
0.014000
0
VERTEX
8
0
10
0.204000
20
0.032000
0
SEQEND
8
0
0
POLYLINE
8
0
66
1
40
0.008000
41
0.008000
0
VERTEX
8
0
10
0.174000
20
-0.032000
0
VERTEX
8
0
10
0.175000
20
-0.058000
0
VERTEX
8
0
10
0.182000
20
-0.081000
0
VERTEX
8
0
10
0.193000
20
-0.102000
0
VERTEX
8
0
10
0.209000
20
-0.121000
0
VERTEX
8
0
10
0.228000
20
-0.136000
0
VERTEX
8
0
10
0.251000
20
-0.147000
0
VERTEX
8
0
10
0.276000
20
-0.155000
0
VERTEX
8
0
10
0.304000
20
-0.157000
0
SEQEND
8
0
0
POLYLINE
8
0
66
1
40
0.008000
41
0.008000
0
VERTEX
8
0
10
0.424000
20
0.312000
0
VERTEX
8
0
10
0.324000
20
0.312000
0
SEQEND
8
0
0
POLYLINE
8
0
66
1
40
0.008000
41
0.008000
0
VERTEX
8
0
10
0.424000
20
0.312000
0
VERTEX
8
0
10
0.374000
20
0.262000
0
SEQEND
8
0
0
POLYLINE
8
0
66
1
40
0.008000
41
0.008000
0
VERTEX
8
0
10
0.324000
20
0.312000
0
VERTEX
8
0
10
0.374000
20
0.262000
0
SEQEND
8
0
0
POLYLINE
8
0
66
1
40
0.008000
41
0.008000
0
VERTEX
8
0
10
0.424000
20
0.262000
0
VERTEX
8
0
10
0.324000
20
0.262000
0
SEQEND
8
0
0
POLYLINE
8
0
66
1
40
0.008000
41
0.008000
0
VERTEX
8
0
10
0.374000
20
0.437000
0
VERTEX
8
0
10
0.374000
20
0.312000
0
SEQEND
8
0
0
POLYLINE
8
0
66
1
40
0.008000
41
0.008000
0
VERTEX
8
0
10
0.374000
20
0.262000
0
VERTEX
8
0
10
0.374000
20
0.137000
0
SEQEND
8
0
0
POLYLINE
8
0
66
1
40
0.008000
41
0.008000
0
VERTEX
8
0
10
0.289000
20
0.317000
0
VERTEX
8
0
10
0.189000
20
0.317000
0
SEQEND
8
0
0
POLYLINE
8
0
66
1
40
0.008000
41
0.008000
0
VERTEX
8
0
10
0.289000
20
0.317000
0
VERTEX
8
0
10
0.239000
20
0.267000
0
SEQEND
8
0
0
POLYLINE
8
0
66
1
40
0.008000
41
0.008000
0
VERTEX
8
0
10
0.189000
20
0.317000
0
VERTEX
8
0
10
0.239000
20
0.267000
0
SEQEND
8
0
0
POLYLINE
8
0
66
1
40
0.008000
41
0.008000
0
VERTEX
8
0
10
0.289000
20
0.267000
0
VERTEX
8
0
10
0.189000
20
0.267000
0
SEQEND
8
0
0
POLYLINE
8
0
66
1
40
0.008000
41
0.008000
0
VERTEX
8
0
10
0.239000
20
0.442000
0
VERTEX
8
0
10
0.239000
20
0.317000
0
SEQEND
8
0
0
POLYLINE
8
0
66
1
40
0.008000
41
0.008000
0
VERTEX
8
0
10
0.239000
20
0.267000
0
VERTEX
8
0
10
0.239000
20
0.142000
0
SEQEND
8
0
0
POLYLINE
8
0
66
1
40
0.008000
41
0.008000
0
VERTEX
8
0
10
0.204000
20
0.547000
0
VERTEX
8
0
10
0.404000
20
0.547000
0
VERTEX
8
0
10
0.404000
20
0.647000
0
VERTEX
8
0
10
0.204000
20
0.647000
0
VERTEX
8
0
10
0.204000
20
0.547000
0
SEQEND
8
0
0
POLYLINE
8
0
66
1
40
0.008000
41
0.008000
0
VERTEX
8
0
10
0.294000
20
-0.447000
0
VERTEX
8
0
10
0.304000
20
-0.450000
0
VERTEX
8
0
10
0.314000
20
-0.458000
0
VERTEX
8
0
10
0.322000
20
-0.472000
0
VERTEX
8
0
10
0.330000
20
-0.490000
0
VERTEX
8
0
10
0.336000
20
-0.512000
0
VERTEX
8
0
10
0.340000
20
-0.538000
0
VERTEX
8
0
10
0.344000
20
-0.597000
0
SEQEND
8
0
0
POLYLINE
8
0
66
1
40
0.008000
41
0.008000
0
VERTEX
8
0
10
0.294000
20
-0.747000
0
VERTEX
8
0
10
0.304000
20
-0.744000
0
VERTEX
8
0
10
0.314000
20
-0.735000
0
VERTEX
8
0
10
0.322000
20
-0.722000
0
VERTEX
8
0
10
0.330000
20
-0.704000
0
VERTEX
8
0
10
0.336000
20
-0.682000
0
VERTEX
8
0
10
0.340000
20
-0.656000
0
VERTEX
8
0
10
0.344000
20
-0.597000
0
SEQEND
8
0
0
POLYLINE
8
0
66
1
40
0.008000
41
0.008000
0
VERTEX
8
0
10
0.294000
20
-0.747000
0
VERTEX
8
0
10
0.284000
20
-0.744000
0
VERTEX
8
0
10
0.274000
20
-0.735000
0
VERTEX
8
0
10
0.266000
20
-0.722000
0
VERTEX
8
0
10
0.258000
20
-0.704000
0
VERTEX
8
0
10
0.252000
20
-0.682000
0
VERTEX
8
0
10
0.248000
20
-0.656000
0
VERTEX
8
0
10
0.244000
20
-0.597000
0
SEQEND
8
0
0
POLYLINE
8
0
66
1
40
0.008000
41
0.008000
0
VERTEX
8
0
10
0.294000
20
-0.447000
0
VERTEX
8
0
10
0.284000
20
-0.450000
0
VERTEX
8
0
10
0.274000
20
-0.458000
0
VERTEX
8
0
10
0.266000
20
-0.472000
0
VERTEX
8
0
10
0.258000
20
-0.490000
0
VERTEX
8
0
10
0.252000
20
-0.512000
0
VERTEX
8
0
10
0.248000
20
-0.538000
0
VERTEX
8
0
10
0.244000
20
-0.597000
0
SEQEND
8
0
0
POLYLINE
8
0
66
1
40
0.008000
41
0.008000
0
VERTEX
8
0
10
-0.570000
20
-0.402000
0
VERTEX
8
0
10
-0.573000
20
-0.412000
0
VERTEX
8
0
10
-0.581000
20
-0.422000
0
VERTEX
8
0
10
-0.595000
20
-0.430000
0
VERTEX
8
0
10
-0.613000
20
-0.438000
0
VERTEX
8
0
10
-0.635000
20
-0.444000
0
VERTEX
8
0
10
-0.661000
20
-0.448000
0
VERTEX
8
0
10
-0.720000
20
-0.452000
0
SEQEND
8
0
0
POLYLINE
8
0
66
1
40
0.008000
41
0.008000
0
VERTEX
8
0
10
-0.870000
20
-0.402000
0
VERTEX
8
0
10
-0.867000
20
-0.412000
0
VERTEX
8
0
10
-0.858000
20
-0.422000
0
VERTEX
8
0
10
-0.845000
20
-0.430000
0
VERTEX
8
0
10
-0.826000
20
-0.438000
0
VERTEX
8
0
10
-0.804000
20
-0.444000
0
VERTEX
8
0
10
-0.779000
20
-0.448000
0
VERTEX
8
0
10
-0.720000
20
-0.452000
0
SEQEND
8
0
0
POLYLINE
8
0
66
1
40
0.008000
41
0.008000
0
VERTEX
8
0
10
-0.870000
20
-0.402000
0
VERTEX
8
0
10
-0.867000
20
-0.392000
0
VERTEX
8
0
10
-0.858000
20
-0.382000
0
VERTEX
8
0
10
-0.845000
20
-0.374000
0
VERTEX
8
0
10
-0.826000
20
-0.366000
0
VERTEX
8
0
10
-0.804000
20
-0.360000
0
VERTEX
8
0
10
-0.779000
20
-0.356000
0
VERTEX
8
0
10
-0.720000
20
-0.352000
0
SEQEND
8
0
0
POLYLINE
8
0
66
1
40
0.008000
41
0.008000
0
VERTEX
8
0
10
-0.570000
20
-0.402000
0
VERTEX
8
0
10
-0.573000
20
-0.392000
0
VERTEX
8
0
10
-0.581000
20
-0.382000
0
VERTEX
8
0
10
-0.595000
20
-0.374000
0
VERTEX
8
0
10
-0.613000
20
-0.366000
0
VERTEX
8
0
10
-0.635000
20
-0.360000
0
VERTEX
8
0
10
-0.661000
20
-0.356000
0
VERTEX
8
0
10
-0.720000
20
-0.352000
0
SEQEND
8
0
0
POLYLINE
8
0
66
1
40
0.008000
41
0.008000
0
VERTEX
8
0
10
-0.570000
20
-0.487000
0
VERTEX
8
0
10
-0.573000
20
-0.497000
0
VERTEX
8
0
10
-0.581000
20
-0.507000
0
VERTEX
8
0
10
-0.595000
20
-0.515000
0
VERTEX
8
0
10
-0.613000
20
-0.522000
0
VERTEX
8
0
10
-0.635000
20
-0.529000
0
VERTEX
8
0
10
-0.661000
20
-0.533000
0
VERTEX
8
0
10
-0.689000
20
-0.536000
0
VERTEX
8
0
10
-0.720000
20
-0.537000
0
SEQEND
8
0
0
POLYLINE
8
0
66
1
40
0.008000
41
0.008000
0
VERTEX
8
0
10
-0.870000
20
-0.487000
0
VERTEX
8
0
10
-0.867000
20
-0.497000
0
VERTEX
8
0
10
-0.858000
20
-0.507000
0
VERTEX
8
0
10
-0.845000
20
-0.515000
0
VERTEX
8
0
10
-0.826000
20
-0.522000
0
VERTEX
8
0
10
-0.804000
20
-0.529000
0
VERTEX
8
0
10
-0.779000
20
-0.533000
0
VERTEX
8
0
10
-0.751000
20
-0.536000
0
VERTEX
8
0
10
-0.720000
20
-0.537000
0
SEQEND
8
0
0
POLYLINE
8
0
66
1
40
0.008000
41
0.008000
0
VERTEX
8
0
10
-0.870000
20
-0.487000
0
VERTEX
8
0
10
-0.867000
20
-0.477000
0
VERTEX
8
0
10
-0.858000
20
-0.467000
0
VERTEX
8
0
10
-0.845000
20
-0.459000
0
VERTEX
8
0
10
-0.826000
20
-0.452000
0
VERTEX
8
0
10
-0.804000
20
-0.445000
0
VERTEX
8
0
10
-0.779000
20
-0.441000
0
VERTEX
8
0
10
-0.751000
20
-0.438000
0
VERTEX
8
0
10
-0.720000
20
-0.437000
0
SEQEND
8
0
0
POLYLINE
8
0
66
1
40
0.008000
41
0.008000
0
VERTEX
8
0
10
-0.570000
20
-0.487000
0
VERTEX
8
0
10
-0.573000
20
-0.477000
0
VERTEX
8
0
10
-0.581000
20
-0.467000
0
VERTEX
8
0
10
-0.595000
20
-0.459000
0
VERTEX
8
0
10
-0.613000
20
-0.452000
0
VERTEX
8
0
10
-0.635000
20
-0.445000
0
VERTEX
8
0
10
-0.661000
20
-0.441000
0
VERTEX
8
0
10
-0.689000
20
-0.438000
0
VERTEX
8
0
10
-0.720000
20
-0.437000
0
SEQEND
8
0
0
TEXT
8
12632256
10
0.384000
20
-0.553000
40
0.032000
41
0.937500
1
+
0
TEXT
8
12632256
10
0.269000
20
-0.603000
40
0.032000
41
0.937500
1
C5
0
TEXT
8
12632256
10
0.369000
20
-0.603000
40
0.032000
41
0.937500
1
C6
0
POLYLINE
8
0
66
1
40
0.008000
41
0.008000
0
VERTEX
8
0
10
-0.770000
20
-0.302000
0
VERTEX
8
0
10
-0.585000
20
-0.302000
0
VERTEX
8
0
10
-0.585000
20
-0.227000
0
VERTEX
8
0
10
-0.770000
20
-0.227000
0
VERTEX
8
0
10
-0.770000
20
-0.302000
0
SEQEND
8
0
0
TEXT
8
12632256
10
-0.575000
20
-0.288000
40
0.032000
41
0.937500
1
Xtal
0
TEXT
8
12632256
10
-0.621000
20
0.527000
40
0.032000
41
0.937500
50
-90.000000
1
Install on copper side
0
POLYLINE
8
0
66
1
40
0.008000
41
0.008000
0
VERTEX
8
0
10
-0.280000
20
-0.282000
0
VERTEX
8
0
10
-0.075000
20
-0.282000
0
VERTEX
8
0
10
-0.075000
20
-0.247000
0
VERTEX
8
0
10
-0.280000
20
-0.247000
0
VERTEX
8
0
10
-0.280000
20
-0.282000
0
SEQEND
8
0
0
POLYLINE
8
0
66
1
40
0.008000
41
0.008000
0
VERTEX
8
0
10
-0.280000
20
-0.262000
0
VERTEX
8
0
10
-0.300000
20
-0.262000
0
SEQEND
8
0
0
POLYLINE
8
0
66
1
40
0.008000
41
0.008000
0
VERTEX
8
0
10
-0.075000
20
-0.267000
0
VERTEX
8
0
10
-0.040000
20
-0.267000
0
SEQEND
8
0
0
TEXT
8
12632256
10
-0.205000
20
-0.278000
40
0.032000
41
0.937500
1
R1
0
TEXT
8
12632256
10
-0.755000
20
-0.573000
40
0.032000
41
0.937500
1
Caps on copper side
0
ENDSEC
0
EOF

